<mxfile host="65bd71144e">
    <diagram id="sEhYJ9BvnhYjIp9OVeo5" name="Page-1">
        <mxGraphModel dx="1243" dy="766" grid="1" gridSize="10" guides="1" tooltips="1" connect="1" arrows="1" fold="1" page="1" pageScale="1" pageWidth="850" pageHeight="1100" math="0" shadow="0">
            <root>
                <mxCell id="0"/>
                <mxCell id="1" parent="0"/>
                <mxCell id="2" value="" style="shape=image;verticalLabelPosition=bottom;labelBackgroundColor=default;verticalAlign=top;aspect=fixed;imageAspect=0;image=data:image/jpeg,/9j/4AAQSkZJRgABAQAAAQABAAD/2wCEAAYGBgYHBgcICAcKCwoLCg8ODAwODxYQERAREBYiFRkVFRkVIh4kHhweJB42KiYmKjY+NDI0PkxERExfWl98fKcBBgYGBgcGBwgIBwoLCgsKDw4MDA4PFhAREBEQFiIVGRUVGRUiHiQeHB4kHjYqJiYqNj40MjQ+TERETF9aX3x8p//CABEIBhIGQAMBIgACEQEDEQH/xAAtAAEBAQEBAQAAAAAAAAAAAAAAAQIDBAUBAQEBAAAAAAAAAAAAAAAAAAABAv/aAAwDAQACEAMQAAAC6SoiiLAUgEsJZoAAAAIKAAAUiwKEoAShKIBQAAKIoiiKIsCwTUJQSiKIok1CWiKIoiiKIoigAsAAACwKIUAAAAFIUgALKEBQSwAAAAAALAoiwFIsCiAASjNQWaIoiiKIozNQoACiKJneSVSNQS0y1CTY56g0AAABKCABLCazoAASgCAoALAqAACgAAAgKACoKAACKAAAIsAAAAAAAAAAFlIAAAABYKQpCpQAAABYKgqUlABKIoihKAIohRKIUiiUIUAlBAAWUzLBrOgACywAkoqUAAAZ1kazoAAAAwsNJQAICgEsAEozrNKgqBYKgAqCoKQoAAFgpCgIAKAABYFQqBQAAASiAAFIAAAAAAlABCpQgpCgIKAAACoKlAAALAsABQAlgLAoAAEAKgsoAlgqBQSwAZompQUgAAIQ0AAABnWRYLYKAADANJQAICgAEogIoy0MzcMtDM2MzYy0MtDLQzaMtDLQk2MXQytMqI1CWwLAACoKg0kNMjUyNXA2wNsDbmOkwN3mOkwNuY6OY6OdNsDbA2xTTFNMDbA2wNsDTFNMjbI0yNMjTI0yNM00yLZDSQ0kNXI1ILcjTI0yLcjTI0yNMjTI0yNMjTI0yNMjTI0yNMiblIsKyNTI0yNM0sCsjTMNsjTI1MjTI0yNMjTA3MibtJQAAllJQAEFgmboxdDM3kjQzNjFtMtDM3DNtMtCTUI0MtDNBQlQqUAXMNAXI0yNXA2yNMDbA2xDo5joxDo5Dq5jo5jpOdNsDbmOjA2wNsDbFNMDV5jpMjTMNsjTA2wNsDbA3edNMjbA2yNMjbA3cU0zDTI1cjUkNMjVxTUkNsjTI0xTTI0kNMjTI0zDbI0yNMjTI0zDbA2xTTMNsU0wNMw2yNMjTA2zDbA2xTTI1JDTI0yNXNKAoiBYABRLBLkazSoLmwtlEsJYKUgM6lAEsLYKlICgAzrOgC41k0AACgAlzoAZ1CgAkooEsM6zoFJnWTQAIlKBLCazQUk1g0ACWUFICWUqC51k0BZSJSgAms0oEsFAUkoWACXOyUEsBQCTWS2UAzZolBLCWUsomd4NFIozNQoFlMWaJQSwmpSKGdZKBNQxqUtlAM2AAAABnWTPG4XXXz09Uxk7XzdTo54Os4jreGju56RecO15bNZvE7uPQ0gWC3nk7TnsXMOjlTpmDcmDq5bLc6KlBCazoAuNZNAqCAqUSwllFlJnWTQAMalFBLCazQBnWTQAM2aAIsFzSpRLDUoAlzoqCgzvOgBnWTQFgQLQAzrOgBnUFlAGdZNAAzZSpRLCalAGN4NpQCSwoFgzrOgBLBZQBnWSgoMgtlAMgAAAAZ1g4Rhrty1g6TFHfh3SY6cw0OPXj1OvPpwN2dDnrNHJzOzJdaxtOjNJnVOe801jpTimT0BJFXNDchJvlteikzVBSTWSqJYM15T1s4OqCazSpRnWS2CywlgoLLCWUELmikKgllABBZQC5sNAKM1SVSUJWjNoksLNCKIULADOs6E1CTUJaBTM3kNQjUM1SKI1CFIoY3kqiWUkoSiAlaMqIoyoihKCiAllLYKDIAAAAJnWTy568WnHPpTj6PJ7THTHlPfjEO0o8Xp8PU+hwxDtvxaPT5+nU8u+mS3Olt4djcRBA83pOnTy5STye1fXm4SXGF7Zx0HXybTbeF665dUzrI6MjUQ1YAM/O9/zDt7eMPUec7a83oNHM3zo1QsCXOixRLCWU5+We88fpuDqZOSdyXI1z6ZOfTzekXOizGxm5OiC3NFzoWUSwWUtzS51k0CoCC2CyBc6LINZ1ktzSoEQ2gsoxqUUICazSxC51CglUyAQWaM2UWCwICgS5KCyUllLZQDIAAABBjp5zPh9HpXNxs+Z9XwbMvb4j0eTv5T6c848/wBLwdD3eJlOXbPBe3v+f7Cc5wHTy/RPLy9PoPF7fB6Tv4p6k4aD2THM8f0/H3Xr4e1PJ3x6jHbzeg5+XtxT3T53Vfb28nrTK0mdw1LDQAMeT1+Q93g9/Ey59zDj0O/C7OvHt5D18e/zzevZ4T0ceftLfP6BLBc6PB7vn/QGdcDPXz9D0eft5ad/P7I83Tz+w8me2Dpx9WDlrv5jHo8/oOmefoPF6uXI9lg0grIusaGsaLm5NoKgM00yNRCpSoLGTaCyUubk1rGioJc6KkNRC3NLJCsw6yQ0zC3NLELrFKyNINSCWUqC5uTbItgms01ZQDIAAAAGdZLc6AGdZNZ0PP20OHYGOgijy9t6OPH1jz9emDPQI1DlntR5vVTnx9MOHZo58vSJjpk496OGfUPFr08zw+vtozNwzWjLQzN5DQzdDm1STYx5vZDlu05a6DHm9mBw9Iz5faPm+znzOXu59zE6Qzbo+b19vM8+fYPnej1U8m/QPP1tPNn2Dn5/Zk83fVPO9A+bn6mTh2z0OOug5tDLYzNwxdaIok1A1CNQytI0MtQlmiKJncMtiKJNQVSTQyULACGjKjM3kqjLQysFokozqaItMzUM6Ui0xneSqJbTFDVgoMgAAAAZ1ktzSkEsNAIJrNKgqBZQBnWTQKgJSgSwms6AGdZNAWCWCgSiWUAuN4NWCgzrNKBLBc6AGdZNAEM6zoASwmpRZSZ3koAJc0oEuSgAS5LQgM2aIoiwmpQUZsNQKDNUALCWUKGbClIokoVSAzrOgBLBYFlGN5KoQJKJQlBZSrBLBZQCY6YLQUM2UoFDIAAAAGdZJnfhL6XkPcsDGirCXnsvn9PM1fn/AEBZmtvH7BLI0gqCoNILELcaKkNZuTbI2wLc00yNSBrA2wN4sNsU0yGsU2yNSQtyNXFNYuTozSyCaxTTI1EGs0qC5sNIKgmsjUgsQ0yNJDWUNIKgXNKyNSC3NKg1lDaCpC3NLcioFg0gubk0g0yNSDTI0zSayNILEFzS3I1lDSC3IslKgqUlzTTNLAXI0yNZQ1c0qCXOilJUIAAAABnWR4PoeA93z+nnPqRk4yQvbj3OPL05PSD5vu5Q9HHvwrty1569ueO46yQx28voGdaKSLOPUm8aKQuNZrn38vqAjOs00gssJcytufSGdZNgAzrGwUk1kms6IUk1im/N6AqMVajl2IshZQUk1koAM6zqpMjc1IlBKIsovI6OHcllDO4iwWUAgNAFM2UAsBZQBnWTQIsJZTWbACazoAS5LrNAGdYNWCpTNCgEJrNLYLlk1YLKGdZLZQZFg1ZRLCAAAAAZ1kvg93mOvl9Ojpy65PLz4e0a48x9Hxeg7WQ8Ps5egce3Knn9vlrpc6jPTj6TyduW63bxj0+b0eWunD2eQ6ejx+qOfbj2OLHorx+3zemOfTzbN468jtfP6BLI4Tn7NPL2xk74vE9cxI6Y59zO/N6S2Ice3Gul55OuMdyTz+g8/q8vpLydDLh3OXbirprPOO95Q7JYiDUC5vlq98cq6Xl1Os83WOqSNee8dPZJYmJ0N5tMee9qm+VjtGY2lIAg0CoFyNIKgqUILm5NoKkLYLAqAzosCxk1cioLm5N2CoDNNXNEQaxosQININILkNIEUlzo0ACAsAAABnWS2UAZ1DPH0iWjnbSKJNDM1oxOg5+T35rGto4T0K8XXvTPl9g4b6Dy77U8011PP33Dh16Dw69uTPLto4dNIijwd+fs0x5/ZmPF6t8qdljx9Omjh6M0ohjavB7cdq8foSPL68WuXfVjz+gPJ349a1x9PmNZ3zNdsaiwC5NzFMbczp5+2q4T04L5+vUtzcstKrMN+X0jl0Dhe0ryeq5NpnLpcUrNCQ2wNsw1caNMjUyLrA0yLmyrYioNINQCDOs0pCxDUmgUksKCAigCyiazQDOkLLQDLWC2aJQzrOjVlAIAAAABnWC6gqC5sNAsCXNKAQtzSpRnWDaUIJZSpRLBrNKBjWTQAJZQCyw8ft8/ooIZ1k0lAMazsihLBrOgCZ3g0AsJrGhNCZ3gUBTM1ktBZTNzoUJNZABTM1ClIsM6lAJneRQAksKoAzrOgBnUJVIok1g0CLBZSgSjNlFCZ1BQsoksKoijNlFBKMbmiLBnUFABnUKBZTGs6LZQCAAAAAY3gtyNTPE9MyN3FKyGscT0vNs7zI1cU0yNZQ2zDbItxoqCoGsU0guNcD0PP2NXIms0pDUQazSpRnWDcUAzrGigubktlKgubDQAM2aJQY3kUAJNQUEoxvGwQubCpQgQKCoJZQBnWSgASwqwAzrOgBLBZQBneSyiKM2UUEsJZoAZ1kqgCSw0ADNmgACWUUGdZKUAkooCwzZSgoIAogAAGN4FeUuJ6RsNILAY1TOuHoEozrI0Bmws1DO+XQXOipSLCazoFJneScPTzOjOzFaIozNQlaM2iTWSzVMWjGpoy0JNQlojQy1AojUM1oyozN5C0iiZ3kKICWUFJKIoicTsUALCWUiiTWSLxOyaIsFUy0MmjLQy1CWjNtM53CNDOLg3qaIUijK6MtDM6YDUMs5OjUDQzaMVoy0MtQzWjNok3kLTLYw1BKCjG86AKBFJUKgAAZ1kWYNebXpJLC8u0FU5cfTo8/fj1LKPNvPoOfTzegSw1KPP18w9G/B7y2USw45z6ialGdYN8O8PP6vN3JrNKBLBrOgQubk2gqDO8aKBLktzoILmw1YKzSazoLBLCgFJLBNcjU44O3bGwlGd5KDh349iZ1xO057NEJrGigYxToU8/fh3EQ1c0AzrzaO4EzyPQBQiwpk4ejj2MWcD0XNLGDesaLYGdeY9Fx0Jw9EOXTzekpg2x0MbxshBjzw9eufQELLC2UAQKkKCaxotgqABYACiAZ1kz4/oDyX0jj01Bx705b0MalPN07CTUPO6U4ekJjOzog5TsPP6YJznU3IOHo5DpYNYuTcmCSdTWsUtyNQFyNyQ1i5N3A2yGsaKgsg0xTSQ1m5OjMNXItxsqDWbk0gtyLENA8y9TPTh3OOtZOkuTQOPbmNcO3Irh6ycenQ5deHcXns5c0PWcTHpxs58+3Id86HHtyLx3xPW1k82+sNgqC5sLKPP6OOjGuXWuXp83pieP2+c72C3h3OTG663nqNY15y+jFIvM63lsm8aLw6w4dcU63NKgsQ0gWQ1MjbA3edGufQoACUAAAWBnWDaUAZsNAAzrOiwEsFlEo49NZNAAlzoAuaJZQBnWTVgsDOs6BSLCWUsBnWTQBTGs6AJNQKIomdQstMtDGpsATWQtMtDDQLTy305OHZoy0M56ZJdDM6Qxw9I8Hs5+g8k9kOWO2BrYxz75M57DDYw0M2iTY8uPRg6twy3ki0y0MzQjVMToPPz9Y8vo59jOeuTOeg59KMc++TG9DE6DC0i0k0MWaCiTWQtMtDM1kqjNozNCNDLQxvOigAEKAAABjWTTNKgsQ2zSoJrNALEKlKgubC2CgzrOgAQWUAZ1k0ADOs6FgSwWUAZ1k0CwM6zsAksFlAGbDQAM7xorNLELrNKgSw1YAJc6AGdZNJQCAzsBDOpQBnWS0AIgtADOOlAGdZKUiiAWUAzZollGdZFlKCZ1k0ADNlKUiwzrOhYLm5NJQBjUKCyjIKADOs7AAJYKAAACZ3goDHQksKoijGOmTn1z1MtQiiNDDULNDLQzZoiiTUJWjLQzNZKolDOs6AE1kWUAS5NXI0zTO8U0yNSQ0nE6axwPXINsU0yFxSsjpnI6MU0zSs00yNsC6502xTWWTbMNsQ3cU0yNMwusU0yNYZOjI2wKzTTI2wLrA2yNZQ2yNMCpDbI0yLrnTcxTWUNXI0yNZQ2zxPQ83YtyN3A1EFxTcxTeZDdzDbI1lDSC3FALcjUgz059AACAWCgAAY1kvDrkz1cjtOPY0lAM2YJ04ekSwnl9PAen530S5uTaACXPI7sQ6AWUsBnWDbj0NWUzrNKBLktyNAZ1g2AUxZzOt83oLLCpTPLpxPROPY0ADGpogGdZNAoCUWCywzvNKgudZNY35zPbdMgUAJZTn049hw78Ds8/oFDNUAk5ZO+s6KBneDQAMgsvnG90llKlGdZLQZ15z0QNSjHL0eY7azoKEsM0Dlk7zl0NJk1YLLDSUAzQsUlgzvnsqUAgFQoBCgmdZM1zO3DtwHby+ozc6OjItyMdeI7SC2czj6vJ6jkzsx6PH6yuHczx78zr4PRwPaozvx+s0xoef0eU6cfZ4z13NOPfyeo0BnWTz9JDXXj2OE9HlPWgtDnjXI5ezy+wxfNT02US8zHXz+g0lAMbzoFJnWTUUlgWCgQJrOgC5sL5/RwO5k4dOfM9kcjvPP6SWU49vNk9eefQ4dufU04w66zoef0+M6Z6dallioLmwoFlM2Ueb0+c9DFPOo9Dzw7uNO9lHl9XlPTnlzPWzo15+3I63OjGkNMi41guuWTPp5dTly9PnPRc7EsLYKggKlLEM7xsqUAEFlBCywpC41g1NU43qOetZFUhTNlAAFlOfQHLrkvPtxHUIaMeX08D0Gjj1tPF6+Xczjrk48vT5z1M9Dy97o83bVJNQzz35zp159zlz9MJ5/XgXQ5zeTz+jl6THPvkzdDHP0Qw3kNDLQxZojUJNZKoyokoKAJZRZRAvPoOPW04c+vE9XHtTzb7cTrZTx9PQJNcjl6uXUzNQtzTWaOO9Bc0sQ1mwqC2AlLA561Djj0w49uPoPN1tOfXl1L5fVCefpstDHQM2Uk2MNDOgc3I67sLjoOe6JKCwijKiKCwm8bFlAEolBLCpQgZ1g3c0qUksLYFgzrOhYLmhc0pC5uTRC2BrGioLLBZQBnWDp5+4AzvGigZ1Bw70SwS4OiCkBTn0omdZKCxSQKACWUAZ1k0gLCJSgSiXOhZRnWTQKDPPqKBnUJZSywZ1CgAzrOgAQWCwEsKBZTNlFBLCGjh3lGdZKBYIAoAzrOgBLCVRx7wuN4NAAk1kpSKMgUIsM7xsoAAAEoASwY3kKIoihLTLUPPrHoFAQqUAZsLOXI9V4dxrGjTNLENXA2wNZZOlwNzIuuWzTI1INXA1cDXPeTVwNyBvnTbI1kNSCoCDRCxkaxotzS5sNILAiUoEsJrOhYLmw0gqBc00yLAWCgZ1koFglzosC5sBQBnWS2CoJZS2CxBZRYLjWTVzQCAqCoJrGwBLBZQC4sNIKgQKlBTNzSgSwms6KlAAAAAEomN4Neb0+c3elICgGDh6fL6DcsHPpwHfGDscjrmw1LDj6PF7CbxopSTWRQAZ1k0BNQzrOhYLENJQBnUCiZ3DOs7IBNZKoiwihNDM3DnpoxdCZ3kqjLQxbTLQy1DNtMtQk3kL5y9mjC0zdDLUIujDQzNQl5bNKM1oy0MzeSNUzNjM3kNDM2MVTLYxz1knZow0MzeQ1TDYwtMtDLeTGvP1N0Eoi0y0MzeA0MtDFoLTLQxWjLQy1CazoUAABCgAAY3g15+/Mu5Rx2N2UA83fz9zcBx7eY7+d1OvDuPL1z1NVTz9pk3c7AEsKlAGbk2CwM7xoATWS2CgSwpADO8bJZRnWTRSAkooAM2aJQY3g0sAM2UqUECUsUmdQvm78juDOvLo9KUSgBHA66zovl9XA63Gia83Q6gZ58D2uXUqC5ooAM6zoA8/fh2KnEvS+Y9Wdcjprz9jQM2YOjz9DpYMef0cD0gsuS6yKQnnzonp8/c0sIUqUAlxoqCxBrOgBYKQoAAAGNYNFE0MZ6QloijDWjKiY6ZPM9XI6XQ463A0PL26jnVI0MzeQtMtDOd5LaM2jGpoiiTUFBYEsKg0gms0qC5sNM0qAkN3A2zC3NKgubk0gqCayNILILcU0yLENef0ZNcmzzA9ONcjfXGTreXQ53XA9M5U7ebvxOwMudOqU8e7s6XGyyCwNJDTIaxTUlON65JnoOfPfM9XO5Ofo8/U6OOzXDtzO2OXM9HTNJx3TbAZDpcaNSDzd5zPQ5dCsi3FNMjcgXFNSCyDWs6AALKJQJQACY3g2ABLClIsM7xslgssLnQAksLYKzSazSgZ1ktzSkEuTaDUDOs6ALnWDVgqBLDQLLDO8aAEuTQAEC2CxTOs6BC5sLQSjJQCLCUCiTWSqBTi3oUHm9OQoKMzUKoijFmgUnPrkloijKiWjKjNmgok1kVSce+DWd5KDG7DNCgjWTNUiiZ3kloFMrDUohTFUFIDNmiKJneS2UoAKAABKCUc+nM1cjTIqDTNNTIa5cT1uPQ3MjTI3Mw3mQ6TI0zRrFNXIsQ0g1ELlg6sU0gXNNJRnWDogsBm5OiCoM7xsKGdYNAAgKADO+eyWC5sNoAM6zoATWRZRYGdZNAWCXOgC5sLYKgSwtgssM6lKgTWDQAICpSUM2UKJNZKlKBmwtgsDNUASwlgoGdZKoAksNJQDNmiUEsJrNFBjeRVAFgoAAAIBjeDRTz+jzekgBk3JTGOnI9AGdZKgvHtxOjOiqIozvOiKIuSlIo4zvk8/SdCzQxubMrTM3kltM2jE3ks0ItMamiNCZ3CNDLUIoTQyo56aMtCZ3kqiKM6lJQSwWUJRENIK5+c9VzTUBLDTNLciyDTI0yLcU1cDeZDbI1cgkNsjSCaxotzDWeMPQyNsU1lDbI0kFyNXI1mC3FLcjWYNXIrI1INXI0yFyNsioGsjSBnWTVlAFgoAEolgssGN4NWU8/o83Y0xsY3zOgPO78T0M6GN8jlrroY4dzG/Ns9LOzzejxeg6ax0MeffYzqwcd4N9PF7RnUMcPZ5j0JTO8aKBLk0ACSwoAJrGxYLENAAllLAAzZQC51k0ACJRQSwWCgksKczHeUzrOTpYEsLZQDIJz7cTslM6zoWUY3zNvN3NggCiKM2Uce3mO83g1eGjoBLDSCpTGs4OrNM8PTkb8frLZRjWTSCpxO049i2czq5dTNlKAsJQUGNZLQWUlACKJQSwqBjeCtDln0DjvUCiKMZ3o57omdw4PQOO9jzu+SdYOPeCazTnOsMasMc/SOHXUBBx7hrIm8DbI1lDVyNMUuQ0zSpBrFNsU1lDaDTIXNNIFglzoqC43k1AWBc6FgS5KCpSSw1w7czozTjrnk6d+PY4duXUtzocuvAdMZPRjeDPXn0OWs7LQeb0+cndSggKQoM6zR5/TkvFzOsvE7208vo49ypyO1g8nXl6RaGdcDn6sbKczclKtOV1xG/P6haPL6vJ6C2aABC3NKgZ1k1YKlAEoEKAgsomOnM3ZQCJRQlDOs6AEuTSUASwoLAlzoAS5NAAZo1LADGs7IoZ1k1LCgksKAsM2aIoS5NglDKhQSjOpoijLWQ0MtDFtMtUxN5I1TDYxNwNDje0OPH1ZMdbo5zpk49c9THn9cPLr0Uxz7jDY547U561TPm9eTz760y0MVSNDLUM1TLYxOmThj2cTU6U8nXpThntsw2OWe1OetDHPvDLVMTrDz765DQzjqPF6Z1MNjj00OdujDQzNwzVIsGd5NpRYKlJYKCUBCoGN4NoNMiwNM0qDOs6FgubC2ACAtgqDO8bAGdZLZQQS5NoFgmsaKlGdYNWUIECywWCXOjz+jy+g1mw2lFgXOhYLAzvFKCxk2lFgzrOgBnWSpSghDQFgllCwZ1ktBYJYKUgJYKC43g0ADNlKBAzqUoGdZNc+gAiUqUAxqUoGdZKlKCSwtlAMlAAM6zoAS5BSKGN5LQAUEoSgQoJULz3g0oSjNAoy0MmjK0k1kNDLUMtQKJQzqaIok1kNDLQxN5FolCWaIomd5KCLBLCggGuWzn5/bwOeg9SC3NFxTTI0kLcU0zTWUNsjbFFxTVwN5kNsjbFLINMjU8+zrcU2wN4Q6MjTIXI2wNzItyNsU1mQ3cw3Mi3FNM0sgtyNMjUQ0kNMioNMjVyJrNLcjWULYNIGbk2grIXNNJDTIXGi3I1lC3NKguNQ0ABZRAWUAiwAc+mDaCkCUoAM2UASwpSVBLCgAms6AGdZNJQCZ1CgAzvGwBm5NgijM1AvmLOvU8966PN6XA9GNZNAAzZSgAlmiKGdQoAJZQC5sKBZSQLz6cTppTDz9Ds59BnWTRTMBZo5zrzN549hZS0JNZNAFMVSWjLUM1SLBLg3FIozVI0I1DNmiNQy407LTLQzneSzQyUzVItMtDnpSNDM1CLSNQmOmTQACiALCxSKIBz6czaDUkLcU2wNsC3I0yNZQ3cw1cUsQ0gtyGsU0yNZQ3JSpCxDSCpTOs6FgS5NWAUysMYx6TUCaxovDtxO+dZNAAzrOgCywXOgBnWTVgEJrOgBnWS0JZSA1x6wmuHU5duAx6/N6TM5djVzRy7cTevLo9IPH6vP6TNcTuxsefY6uWjbz07WaFlJNZJQZ15zM9eCuezUvnO98fsLc0pwN78uz0AeT2eQ9FUOQ6QLy68BPR4j1lMOPM9t57JZSgZ1koKlGNZNAoJZSWACpSFIBz6czogsoyUWUgJZQBnWTQFgAoEozZQBnWTQAJLDQCjFmzLQzN4K0MtDDUPN2mDs1DNaM8fRwOs6ZJdDLQxWjLQy1DNujK0zN5DQzNjnpoy1TE3kNDLQyCzQk0M8e+jy+jn1PP2zs83qxovm9I8rvsvHqMbuS3NLA5ef1+c7dJS+e8z0649DVyLIKgvDv5T1c8DXNyPazDh6+WjblsxnqOLvDdwNefpTbIk0LGTpy1Dlz7cT1a56NZDn1gaxTTI1IKyNXA1lk6AoEogAFlIABz6czYKCJRYAJc6AEuTSUWBENINAxrOgBnWTQFgRDVzTUlM6zoAY1k2ACSweP2+I69vD7yazDHXn2GdZNIKDOs6AEsFlKgudZNAAzqUoGdYNAsQlgtlKgms00gZ1k0UEJrNKgubk3ZQDHl9vMdAijNzoASwWUFMzWTPm9vnOnRTMtCwlDOpQCSwtlAJLClMY7QzqUASwzqaIok1kAKJnWTQLKAEoiiKIAUnPpgqiTUIUjQy0MlIok1AoTUJLCoNXIaxosgsQ0yNMw1INsDdxRrFNMjUkOjFNMi8908/L2ec5e3nsxMdzbA3lk3cw2wGsU3MjeZDWuY6OdNzI3cjTNJrGi3I1jWDaAnI6vOPS8/Y2kLc00gudZNJSoM6zSgS5LrGikNZg2gsDOs6AEsAKgubDWNUXNJc01Aiwms0qBLk0CgksLZQDNgqUEJrOgQSwKAJnULZQAACWUECwWUmN8zolEsJc6AEuBrzD0vMPRM6NWCgksKg0DOs6BC8sU5b76PLPYPJ215T13j2BTGs6OPXl2GdZNWUAhwPRPNoue9OPbz8z2MbGd4NM8ju5dTOs6BTOdeQ9F8fQ9Dho60NFIozZolBnUC+U5999TNZJw9GjwdvT5DrpszpomenA1rHYxdDnqaJNCTeSTcIuSLRqiNDFaMtDM3DLQzN8DrnPQNDLUMmjNCg56zorQznp5zteXYy0MqJaIoxVItMqM1SKJNQlAokuTVlAAAAAAEomN4NsjUQms0vLXnNPQJrNNSDjw9uRrw+4oGN4OGd4PYsM6zoebpo1NZNJSxSTWTh06+Q9VlM2aOV15Tp1nM72CnE571s0zSpTNmjxejr5D1Z1Dyezjk325dTGs6LHmJ16UShjY8u/R5j0Xl1FlOGJ6DhvPI9svM59uOSu/Q8l9GjxvaOHTjzM+qcT0pS+b0ec9SCzj0GucOrOi51ks5jrKPH6eHc1rOhYGs0WC5sLGjhvl6CTWC5xs3M6Mb8/U2AsOdlOjj0NZ1k4enzekWBMDoCxCZ4Q9jOgCXNKUkuS2UAmOmC0AAJQAAAAmOnM0oi8y3x+s49ePqM8PV5Tz+/w+4NczUo58vX4T2NjE3CY7Dm6Qwujy+jl6DHl9vkJdU6t5OPTzewz5/X5zq6Dlpozw9NPH174JLwO/m9fmO03k8298jp05djOvD9Azy7w49OPcqiEM7xsnndzUvA7INILIPP6/L3N3FJKNzj1L5PV5jrOfpNXHnPTfN3NsjXDqOPPOz0TGjXn7w1eWyebtg9HHtTxe/h0GvP2OXfz9Tj6vB7jz9M06b49DUga503cDUgqDn1nM7cbRnWDHp4dThvXM7pSoMcPTDXm3o651xM+jNLLklxTogvHtDydWzYCwzqUWCxC2CkGbDQAAAACiAAmOnMmN9Dg708nj948/t1wPQsPD6ceg5dM8B6Jovi9PI9PLtk5bnI9Dzj0eTpDXf5f1Dz+h5z08+nMvDeT0Z3TzdpTXl9HE9E0PJvts809Q8ufXk4ef6PmOPb0Dnvy+o5Z6cy9+dPP6vJ6izXI5ds6NziO3m3g4e/530Dz+vh0M47eY5e/wAPuPN1czvKOYO3PpDz3ts+fPdyN8fTwM+nz9TO3Ix6fH7QnjPdOPc8nbl0LvOyA1VHDvyNamiZ3BnWRndOfUEg1EKgXOioLELZQC5sLz6jzd5sxz60nPrCywllEok1k0okok1AoijnqaCjKjJozVMrCgi0zNZNgAAAAAAAmdYN3I2yOfXFNcegz04YPRrno2wN45+Y17ePQ2yLcU2wOnMGsU3y1Tj1xwPY8+js4ZPRnzQe3NNMib56NMjWbk6MDSDHLvDTy9jW80zrNL5NbO2bDSUSwxuUeb05Ncufc8Pu59jHH0iS+cx7PP6ACazoWB5fVgeXWztzz3PF6s9S5o49XkNa7+Q9bUIsKkNsUa56NM0Z1g1cbKkFzDaQ1AXGwDMuTaUqUQNXI0zSXI0gsQazSwEuRZDUBA0ACXOgg1IJrGi2BnWQoFJnUNWCgAAJQAACZ1k1ZRQzZoILmw8700809Y83bWTUCoJZSgAlzoqC51kmOtOW9iQKBKMazoUJneDRRKM1Scu1PG9Y8T2U5b0M53kNDLUMmjLQz5/Xk8uvQPPn008fT0wTQy1TFaMtUzN5OPP2ZPLjrsXkOmWzzdevmHXp0MzYznpyLOWjo0MamiUJNQzA2gAFFgms6FgZ1ktgscDu56NsjTMLrGjUgsg1cQ3cDWUNzI0zQg1cDbAnTlTbI3mBrFNzI3mDSC3IubDYFgqUAAAAAksNAWDO8aAEsGs0oGNZNAAlzoAEFzoqUuNZNXNKgzQoECazoqC41g6RC2DO8aKgsZLc01ILjWTaCwJc6ALm5NAKJAoFgms6FlGdZNpRjY8z0aPNn1jzdd4NIKDPl9flPVFMuUOmufQWFudZRy7cTrLTw+lk61QBc00yNZsCjhrHoMNZNMbAMWaAGdQayNAz5/VzN3zekAzQUJx1Tn283oKoiwmpolBnWSlAJnUNAsBUKlAAAAJmiNwy0MaaMtDM1CW0zaJneQtMtDFUjQy0MVQoZ1koAICgAzrNNMU1lDbI0yFzSsjcgawNMjeENsjbIm+ejTI1lDbI0yKgtyNMUtwOjI1JDpcDbAuuejTMN4Q0g0yL5PTk24UxnqMbmxfN6jWdczfj9vAz6OHc49OPoMY3ooMbzoAsQ0Dh34dyeb0+c10vkPZnQ8neZO5STWThc+kFJneDz+ryewnHvDh2ooPPO/nNduHQ3ZRNZJqUFGdYLZQCS5NgFEsFlACUAAyDQEoxrOioLnWS2CgZ1k0lAM6zSgEJrNKBnWDaCgzZSoLAzrOiyiZ3g0CxTNzRQsQWaEsGdZNKJQzrGwBnWTQAIBQAllFgENAAzrOgBnWSlIokCg5Y9ODh6M9DF0OfPsDQznpDFozdDLUMW0y3DLUJqjPLuOc6Dz578jtdDjy7djHL0YE6Q58/RTz9dwnn9MOXXUJw9A83fQiwjQ520iiLCUCwS5NIKgsQ1ZQABYLAAqUAyQ1cjTImsaKkNRC3I2yLmw0gqCazS3NCBc0oGN4NpQDOs0oEozrOgBnWTQAM6zoASwWUqUY1k2lAMbxsAS5NAAlgoEsJrNKCLk1YFglzsIE1koFgiUWCkFzoAubk1YAM2UqUSwlmhFJLDSUTUIDWNCgzrOgBnWS2UsomdZLQEIlFFFTGs0oEuRZSgmd4NJQlJnULQAAAAsBYAMpS0BTFmiKJNZCgok1kLSKMVSLTLUMrSNQmd5FojQ520zdDLUMrSNDOemCzYxdDnWzDVMNwzbTNozN5DVMtDFmiNCY6ZC0yoiiKWLElUllGbDRC3IaxTTI1lDVwNJxB2Kg1IGsU0yNZuTbI0yFyNM0qQuudNXFLlDbI2xSsjaCwM9OdNsU1JDTNNMjWWTbNAJYNIKglzoWBLBZQBm5NWUAmdZNWUAAAAAAEM2UtgsQaxoqBLktlKlJnWTVgEFzoJQQXNKBjeDaUqCXOhZQQms0oGN4NpQDG86AEsFlFBjWTVlAM6zoAZ1k0AsM6zoASwlUAksLYKQms0qUZ1k1KM8NdDRDTlo2CWUsUmd4NXh2MY78DpcbCiKM3jo6ATWSlIozQKIozZoiiZ3kVTLQzNQLTLQwtJnYy0OemjLQzN5IujDYxOmA0JNwysNWUAAJQlAEsAMkNMjU4+U9vTzeg0yNZQ1cjTIsQ1cDTItxTczTUyLcU0zDWccj1XA6MC6502wNsw1eejV501m4OjMOjAb56LcjUkLrFNXEN5Q3cjTIm+ejTNLlDbNNSBcaKgsQtgqBLCgAzrOipRnUKDln0cTpxlHPY9HPpwN9PD7hZk3w78DrrNLx7eY11zzO7Ohx7eY1y31HQGdZNAAlgoBCazSoLm5NXOgCZ1k1ZQDNlKCAzrOiwEsBQBnWDVlAMyw1ZQACWUiiAsADFmh8/6FPl+/nodpolBjeS2UAkuS3nxPU57JrOhZRLDOpSyweP2eQ9Vzk6AzrOigSwms6AGN+Y9FzolDOsbFBnWRqUAZ1k0UijGs7IUmd5KoijGpozaJNQi0y0MzUDQy0OdujLQzNwjQjQxN083L3cTbcOWt05Y67M56ZOO+o8++0OU6aMWicu8PPrrDO7BLCgqCWC3IqCayLAuNZN6wNsUubk3cUtwLcjczTUgmsU0zTWULcU0yNZQ1cjTNJLDVAACAqAAADFC+WdjPoyJvNKBnWS2Cgmd5PL6/L6Tn5u/A9es6KAQWUssL5PVzPJ6c7Ofp8nrM6zoAsCazoSjzW03uUAxvOigZ1ktlAGdQtlBDO8aKFZ1lNAAzrGwBnUFlAJNZNAWDOs6ChnWDQLYJrOhy6hLDOpSkLjeDRQDNlFlEsJZQsGdZKAUyUFIDNmiKJneSlIoksNAAzZoASjGs6CiTWRVICTeCqMtDDULQAAgCwqCywAxNcji704vTo4dLow2MzUJbTF0MNw4Z9Q459I426MXQzdZItJNDM6YMZ7jLQxWjN1CTeSVSWicPTk4dd0w0MVoiiTUFABENWACXOioLmw0g0yGsU0yNSQ1cw2wNSDbI0yLc00yNZQ3INMi3FNXFNSQtzSoLm5NoNIJc0tgsQWUWBnUKAgms0WUQMbzosBnWS0AGdZNAFMazoAAxvOgBnUFlEsLjeDQAJneTQAAICoBSAAxw78zrqU5OQ9GsbAGdZLZQCENJDcglzS3IsQqUpC5uTYKDG8aKyKQWUoLjWTcUIJc6KgSwtlEBLDQCCazoKVjWU0CwM6lKlEuS0AJKFlAJrOgBnWS2CgzZSgSwlUiiZ3kNDKjNmiWjM3DNtMtDE6YDVMXQ520k0MtUwtJNCZ3AoiiZ3kqhLCWUJQQms0qDWULrFKgubk3cDVwLJTVgLACAAAAKOfPrzOzz5Nc9aO2sU0yNZQ0kNMipDSBchrGisjWQWDTI1m5N3FNSCaxTSCxC6xTTNLnWTSUqDOs6FzS5sKAQoNQBBrOgQuNZNFCUzrNKBnWTQAJZQCoFxsWC5uTSUsDOs6KgsBc0pBENJQlM6zS2AQWUqBnWTQKlM2UpCyjGs6KguN4KQtlGbk2lAM2UoAM6xoAS5NJSgZ1ktgqCENAAAgAAAAMazoagubCWUAmd5KUijM1kqiKM2aI0MtQhozaJjpgtoy1DGpok1AsJWiKJNQNCKMLoxdDM3kNDLYwtMtjDY520k2M56ZI1TLQ56UjQzNwltMzcMqJNjNoxqaJZSZ3ktlICazQBZDVxTUzRGTdxTTIm8U2yNSC3FNMjWLk6MDTMNXI1cU0yGsUsCxDUQ3JSRDaDSQms6FkNSDO+ey2BmwtlBC5uTaUSwko1YLAAgAABCwM6xsWCxBc0qUZ1koKgSwoLKMamiUEsFlAGN4NUAMazsiiLBZRZRm5NgFMazoFGdZKUKMgtlEsM6lKBz3ktlKlMazoWFudZS0EozZQADGpS2BLk0CgxrOhZRnWS2UAmd4KoUMbzoASwWUAY3koAM2UllEozqUjQzN5CjLVMTcI1TDY51ozOkMNw56bMNjDcItJNDM3gtok1DNDVlAAIgFIAAgzcjbA0zDVxTSCxk6Mi3IskN3FNMwuuejVxTWULc0qQ1m4OjFNIJrGjTI1JDVxTbA3hk6sU0yGuejbA3iw2xTTIrI2yNMhrFNzI1lk6MjTNJrGjUyN4Q3cjTIXNLc0AllAGd4NWCpTGs6FBnWS2CgksLZSwM6zoASwWUAY3ktgAzZRZRLCWaAGdZLZQCTUKsAMalBSA59M6FlJNZFmiUGNZNWUAzLDVAADIACUAgOepRfF1PREFlKlLm5NWACZ1g3fJT1M8zprGy2QsBqUhScO/iO3o83c0DOsdCASwFAJPNo9SUFMazsELjeDVBYM2UqUSjOpQBnWTVgsoxZoWBneC0BTFUi0y1DNaMrTOemSNUy0OdtMtUxNwzdDLcMzcI1TFsJZozaJNQAWBLk1YKyFzTTNKyGsU0yNZZOjA2xTWUN3A0yFxo0yKgms6FgS5LZSoLjeDQLKJnWTYAAMoKgAWADBThz1TfPXQdOHcllGdYNgAnDvzJ5vRxPZ4/bzLvOgsLELYNQHz/oecz6vPs60Oe8bCwubDQGdj53d6C1SVDOsaNQGdZNgEJc6FlEZLrGwBm5N2Q1AlzoAZ1k1YWhMalKgsQWC2C5sLYKQxvOyWUksLZQCSwtgKMazoqUk1kqUUJneS2UijGpSgiwllAGN5LQEIQ2CFMalC0zNDGpok0MzeSNCTYxN5DVMNjldC2UAAwAQqUAEMWbMcfRwN8/VDFtMtDE64JdU53YxNwnn9fA6Njnbow3TDcMXVMzdOc64DQw2OWp0MTpCTcM3VMXQ5c/TDGtDM2OZojQzN5K1TDY51oxdDE6ZM6tIomOmDUoAllLc0ubk2yNM0msU1MjTI0yNsjWbk1cjTIm+ejTMN5g2yNM0uUNsjTIa57KC5sFmgQSwtgqDOs00gsgXOgBnWDVgubAg2yLc6M3OikKlM3OigZ1kVQCZ3g1ZQCS5NWUAAwgsBZSAAxvGi2USwllFgubk1ZQCA1FCUxrOigubktlKQuNYN2ADG8bAGdQtlFgZ1k0ADGpQUk1k1ZQDNlLKGdQllFCSwoJVM6xsFGN4NFIozZQBLABQZ1k0ADNmiKJneSqIsJNQlojQ56aM3QxOmSNDLQzN5DQy0Oaigk1BZoiiZ3g0ADMoWDVyFyNzMNsUtwOl5U3mQ3cU0yNZg2yNsUQNWUAA5rAAAADGsjbI0zC6xTSQ1lDdwNsUskOjFNMUawOjA3nI3cQ6MDeGTqwNsBvlo2wN5kOjA6MDUg2xTTIaxTTI1lDozDbAtxo0yNZQ1c0qAQ0goM6zoAuNZNAsDOs0qUS5LYKCENAAllAGdZNAsCAUFgzvnsqC41ktlAJLk2lAM2UAk1CalKBjeDVlEozNQoAMazoWUgM2UoLnWSlAJNZKoAyuTdlAAOawqCwAAMWDTn0CwllKBnWTRSKMzWTTno2DOs6BSS4NWUqUY1k2lAOfTGwUmOmC2C0JnXE7OPU1KM2aCwZ3zNWiKMWaItMzeRVJNDM0I0JncMaUjQzN4K0MtDFUi0zNwzbTLUIsFACayNJDWUNsjTMNMjVxTTAawOkyN5g1cU0zDWUOjFNM0zrNLYEsFlKBjeDVlAJENFEDOs6AEsM6lFlGdZLZQBnWTQAJLDVgoUEwAACUIDHDvxHTns6uHYm8aKBjeTSUoJw7+Q3zvc6gxrOipSZ1k1ZSLk4TXE9yYL08vpM75dDUsVnWTQSpTHLt5D0Y6dAQms6EsLm5N2CoM2U1KGdYNWUAgKAgllKBnWDaUAzrNKBLg2lAIQ0FESaxsFGNQoFlMgoCjFzoWUZ1kpRKJnUCiNQxqaItMzcM1oy0M56YDVMNwzNCNDLQ56mjNoSjNlKCS5NXI1cDeEN3A2xSyU1ZQADAAAIBYM41Tz76czPXYzqUlUmd5FUiiZ2PLfUOeqMVoiiZ3CVSTdPFy93iPdVPL33DG89DM1FTWSqQonDuOXTcIQazSpDWbk2g0yFzTTNNYZOjI1cCsjbA2yLeejbFNYuTaDTImsaLci5uTVzTSBAtzRLkazTSC5uTaCgiDSBYM6zoXNLm5NWCpSSwoKgzrOhKIQus0qC41k1YAIQ0lKDFmgUhCazoAmOmDVlAGNZNWUAyDQKgqUwAAABLDGs6HPqLAzrOigY3g1ZQsIC0Eo57zoAZ1k0UFJ5fVzOgAMbxoLFudYN2VAICgSwzqUAZ3g2AUxrOigZ1g0AsMqChAmpolBjeDSiKMWbMqJncI0ItMKItMzYxWjE2MN5DQzWjE0I1DN0MalFBLk1cjTIsQ2yNMhrnTTA3MjWsDbFLi5OiC3FCDSDSCaxsJDUQms6KguN4NXOgBjWTYAMyw2BYUEyAAAADFlKgqCaxoqC5uTaDTIsg3cioJrGioLm5NWDSQubDbNKgzvGioW41E0lFggNILEJrOgBnWTaUqDOs6FgZ3g0CoM6goEsFlKlJLk2gqDOs6FlGdZNECwhDVgsFzrOkAY3g0ACAssLZTG86AGdZNAWUzKKADNzoKGdZFUlCY6czSiKMzUDQijnqbMzYw3DFaM3QzN5JdFy0TM3g0UijINWULAowAABLCkMWaM2iLTnpSNDOemBaI1DKirTNoxWjLQzN5FojQznUKolDGs9DLQmd4K0I0MKCjM3DGrTLYzN5DQxdU5aaMtDM3CNDM2OemjLQy1kFCwS5NAsgaxorI1lDbI0yKyNsDbAb56NM0uLDVyNSAlKBYJrGipRnWTSUsUyuTSUsDNlKBnWRZSgY3g0BQyCgFMazoATWTOpSgZ3g0UAmd4NWUAyC2UAWDIAAAEsMWU5a5ZPWzyOus7AGdZNJVZ15UnXGT13OgDG8bAGdZNAssPNncPReXQ42w3059ABnWTQKDnw16Dz+jy+g14vd5jvrj2AGN5NWUlDGsbFlGN4NAqDOs6AEsKlCwZ1k1ZSAzrOiyiZ3koCjKwUEozZoAY3kqiKMGiNDDcMW6MNjOemSNUy0MNDN0MtDnqaIoi5KlNSQ3z1k2yNXArI2yNXAm+dNsjUgaxTTNLm5NpRYGdZNWCgyC2UAWDIAABCwMVDz49fA7c98ztrFNsjWLDSDXDqPP3xk73FNMhrFNXFNZQ2yNIPNz9fkPR283c4enlg675bNXMNZQ3cU0kOPRyMezx9Tvw68zPpxTTI1lDdwNzNJrno0yNZuTbNKgmsaKBmhZQUmdQoFQzvGipRjeDQFggKCywzrOgC41k0AUxZSgSwms0oGdZNAKMgoKQzrOgBLkazoFJjeDVlEoyClIoxrOgomdwzVI0M56YFojQxN5DVMNjnqUtlAAMkCwWCgQMalHD0AsM6zoAZ1k0BZSAFBDOs6FlGdZNXNKlJy6Qz1zoAxrOwBjeDYKUymjE1k6SwWUFJmw0ADOsaKBjeDSiKMVoiiZ3kltMtDM0I0MtwxWjLQy1kLTNoxVAAJZSsjWLDbI1cCsU2yNMwuuejTI1lDbI3ICDQLAzrNKC5uRqUqBjpzNWUAzYNAAxrGxZRLDOpSgY3g1ZQCZ3ktlAMgtlAAMgShKIAU56zooLEJrNKgubk1YKQINWCxCaxooEuTaCkJYNAAxvOwomN4NgWDO8aKlGbC2CkEDSUIM7zoAY1k2ADG8bAGdZNAAgKADOs6AGdYNpQDOs0oLLDOs6LKJneDQFglzoUIsM6lBSZ3gq0y0MKI1TKjC6MtDM3DGrTF0M53kWiUMgtgqDO+ejVwNSQ1cU2wN5kN3nTbA3lk6MjTNIlNJQADIEsFCAAwUKJNwxbTLQzN5E0I1DKhVMtDNmzK0znpgrQy3Dm3TGtjF0OdujDYxOmCrTM2OdUlok3kNCKMgoBBc6KyNZQ2yNsBrFNXA3mQ3cDbA0zDdxTTIa56NJDWNZNoKlM2UoEolzoWC41k1YKDGs6FlEsM6zooGN4NWUAysLZRLFzrOksUk1kWUAY3g2CywzZSgAxrOigSwllKBjeDRQUmN5KoijFC2UAAyAAACA56g08nc6OHUaxsAuNZLx7cC9fN3M3xcj66ULDOs6KBjeTQKDHB2J28PtLLCaxooGN5NAA4871OXp8vpNY1k0BYIUWUiwllLKJnWTYAMamgBnWSlJQyCgTUM6zsk0MzeQ0MtDC0zdDF1DNaMtUxN4FtM2jFmiUBBc00yNZZOjI1cCsjd500yGsU0yNZuTVzSoLjWTaUsDNg0ADGs7AVLEllKBjpgtlAGN4NULAyDQAAMgAAIAMc+mTlYOvDeTt0xoqCyQ35+8PD9Dxeoz8/wCn4j26yNMhrFNsU1i5OjI2xTPh9483qxTrMi3FNsjWLk6MU0g447cT0a49S5uTaUAlg0gsQmpRQY3g2ADG8bAGdZNAAzQoAM6zoAZ1ktAsM6zoAEFlKlJnWTRSAzrOgAQms6FBjeDRSKMgtlIo56mhKJneQtMtDE6YDVMNjm1TF1TDY51oy0JNQllALm5NXI2xTWZDowNsUslNAFIUwAACLADFmhw78D0CM2WihnWS2U4dqICglsM2aCwZ1g2UloxZolCLCazoKJneC1SKMazsk0JjpkNDLQwtM3VMTcM6Uy1TE3kW0y0MGiKGdZLQAhDSCsi3I3MjeWToyNMhrFNXA3Mi3I0g1jWTVzQDNzooEozqaAGN4NAsCAtlAMalKguN4NJSywZ1k0ADJRQAxqUoVnWUWaAGN4NFAJLk1QAzYNAqURTAAEolgLDFlNRSxCWUoGdYNAoIg0lLEJrOipRjeDVlKgzZSgZ1kazoqBnULQAzrGywGN4NpQDNmgBLBZSkGdZNWUEM6zoWC43k0lAM2UAssJZSgZ1k0UiwlzolBLAUiiZ3kNUw2Oa6MtDM3DNaMtCZ3ksolsIQ1cjTIawNsDeUNXA2yNYuToxTTNJc00zSpTOsaKFSxJZoAY3ktlAGdZNAAyDRQCAyAQqAADCUqUAllAGdZLQFMqACwzVCiTWS0KgzqUqC5sGs0qCyDbI0kGsU1ci5ZOlwNsC3FNsU1Jk3cDbA3lDVkNMhrGipRnWDdzSoJc0tgsCazoWBnWTQAJc6ABBZSkLjWTVgqUxrOhYLEJrOgBnWTQCwgKADOs0pSTWC0AJneSqI1DFUjQy0OemjLRczcTK0jQzN5JaI1CZ3ktlBCXOjQFgVDIEqIqoADFzwPTfN6CwJZSgZ1ktnA9DhDulLZQQzqUoGOnM3ZRL4j078fQ9KUZ1ktlFlMzWTQKgzvNJPNs9GefQ1ZQDGpoAZ3gpSKMzUKoy3DC6MNjE3kNjDY526MtUxNwzbTNomd5KCoJrFNM0sg1cDbFNZZOjFNMBrFNs0sQazSgZ1g2lKggKADOs6AEuTQAGdZNAsUxQoAM6zoWFSxJZoAY3ktlAGdZNAAyDQBSAyCUgKgAOXLtyPP7/F7Tz9OUPRrNNILmwvj9vnLi9yazotgsQm8aKguNQ1YHz/AKPnJ6PN1OrOhnWDVlAJKKADOs7PB2z6yTWDYAM6zSgZ1ktlAIC2CywzrOgBnWTQFgzrOhZSTWRZSgmdZNAFM2Usok1koKBjULZSKMazsijM3DK0i0znpgNjF0MLTLYyozZoASwWCs0ubk3cDbAtyNsjTAaxTbI1lC3OioLjWTVzSgZsLZQDINAWCywyACLBYAMFPL6fP6jPm9kMVozaJneSqMY7jjugojUM1SNDM3kWiNDlbok2M56YDVMXQw0I0MtDNmjhj1U463kWiKM3OyWC51g2g1IFyNsjUkLrno1cDWUNsjTIaxTVzS5CpSoGdQoAM6zooGdZLYKCS5NgAzZSgS5FlLKGN5LYKDNlKADOs6AGdZLYKCZ3k0ADKgBKMazoLTLWSLSNDOemSNCNDE3AojUMaDSUAAyQqUlgAAxrNM9IBCazSkLmw0lKggKCxBc6KBnWDYKDGs6KlGN4NWCgkUoEsFzoqBnWTQFlM3OiyhjeDQKQJSpQQms6CiZ1kqiKM2aI0M53CNDLQzN5DQy0MVoijLUBRLBLDSC3MLcjckNSRdXFTczTWLDSC3IWDSCwJc6KlGdZKBQZsNAEJYNASwxvOgUZsFzoqC51kpQQSwtlAMg0AADFABAAA56yNXA3JC3GioLm5N3I0yFzS3I1IGsU2wNZQ2yNshrno0yNZZOlwNsUM02yNSBrI0gubDSCgzrOhYGdZNAFMlKlECazoAY1DQAJZSpRnWSgWBLCgWDOs6AGdZNAqBAtlJYM6zosFSwWVAGdZKoijJQoijFaMtDLWQolok1ktgsQWDSCpBrA2xTUgtxTVwNZsNXI1ASwoKDILQAAzAsAAADnrOigSwlmgBnWDVlKDGs0tlEsJZSgksLZQDOs6BRjfM2USjFUKJNZJbSKMzUDQy0OdbMXQxOmSXQy0MNCWiTUJZSkLm5Ns00yGsU0yNZQ1cU0yKkNs0rNJrGikLnWTSChZLE0lAM6zoBbm5LYSgZsLZQDNlKCwM6zoAS5LQFJnWTQAM2UoCwzrOiUEsFlAJNZKoiiTUE0I0MULZQADAgAKAA56lFBLCWUpC43g2lFgzVFgsuRZoAmd5LQAxvGypSY3k0CpTGs6KBnWRqUAZsNWCwM6xsAZ1k0CyjGs6BRLCWUoJnULZQDOsbCUZ1kpSUJKCiKMVRnYxOmSNUw3FzNEjQzaMalKQubC3NKyNZZOjFNXAtxTTNKgaxoqC5sLYKBnWDcUAzZSgAzrOgBLBZRYEuTQKCTWDVgoMgtlAAjCWiWAoSKSspQtMNwytMtjOemSNUy0MLSNDM3DLVMtDM3kNUy1DGpolUmdZLZSoM6zTVwNRk1cjbA1JDoxTTAb502xTWWTozSoJrGigubktlKgQLYKgzrOioW5uU1c0qAg0goMazosC43g1YKRYEpSUMazooGdZFUAmd4NFIsM0WhEozZoi0zN5CiNQmd5FojQwoKAM6zSoLELrFNMjWbk2yNJDWbk2gqCCNFoAI5gAAJaAxrGxZRLCWUUGN4NpRUM6zoFJNZFlKCSw0UgM6xsWBjeDZRLDG86FBnWRQoMrC2USwzrOgomOmDSiKMWbMtDM3kjVMtDE3CNDLQxqUVFudZTSDTMNMjbA2yGudNsjWUNsjchRE0lKgzrGywLnWRZSoGdZNFEozYW2VIsJc6FlGdZKIWWmNZNUAM2UoAM6xsASwms6AGdZNAAZ1kqiKMrI0KqUCOcsFgqAKWU56zTVxTUkLcU2wN4uTdwNsUXFNsjUkNXFNILINXI0kJvGi3I1z3g2CkM6xsUGN4NJRUIC2USwlzsAY3g1QAxrOigubk0lAJLDQAMamgBnWS0AICgSwllKUmd4KojUMzQjRctEwujF0MTpDNtJNQk1k0QtyFzV0yTTIaxTTMOmENs0qC5sNXNKglzoWCywzvGwC5sJrNKBnWS2UAZ1k0lgKyI0KWCiOVCAAAorALQQJQoGA2BAlAC5BQQEAAAAAC0KDOgoLkLQAgLQQJQUJkNgAxsLAZC0LAgKADOgAYDVAFkE0ADNCguA0ACAtFgTOgAZC0FCZDQLAzRaEQJoECQKBAsABQzQoLQxoiikBQAQLQAZDQgKyI1SkCiP/EAAL/2gAMAwEAAgADAAAAIUMNOffUQRQYDHffONMUBEEFoLHMMMENJFLHOEFIAgrCNNDBHPvtsugEELOuPHEHoFLjhhjjlIFCtojPGEgssuosjngglttmtkltrgAEDPaQUQUIPOeXTLPRAJAEhPDAAANIAANDPMOAADGILANLPIPLBBCABNPLDCIAMMMEAMOEOMIOAIHOKLvorljkiiAAlqDHDitnvggAFPOARQYDMDTRUMNLBALPsPPLJDIAAAGPNGOPLEKACABCDBADAsuMDCAEMHHPMILNMBABPDEALDMEPFoqutuhgFIghrLMPqqmsggAAADKQdQWVXXXbfVUIGrtpFGcFUAgnLBIDmokvpstokuiioguvghthvujphtoHqgjotjrjqhgggkjjqkknvugrvsgjnqgikopigKIQBIMYVTWSTXZXWQdLBpgkrMbIbABLCLEjgjmsrtvtsorkvsljnvrvrkvjohtoksvkkggvtggphgssprqhmqpnvPJjiklusptsjCMWFBYdSaVZcbNfabCFDquvHPPAEOCFGDPkhVprrjqn1+xupvvggonjksovvrpqqosmhvmogmgtqgsoghktussmKOIKIOgltkqhrfVfOASYdBAKDGZdQXdYbWVS7nXaQBIHDODg3f1q6gIK417unnuug5xmokhijkogNhrnoAigmgoNAEPmvgoFigIvLKvLGspvkAikvecQEBVECAYYQdLExTOWFJUF0y037MfSLILpgrpiorkp3w8huhiuspuvnjokqhsojlvihHjgvtiNNJBnpnrEiqCnrsnPrmugngrgvQQQALQG6fTUFflK00CFV1s8j6c481zwrrLp463lsmki2x3m+0x+puumsmpmuhnrAEjjpHmntriIhlNIjrjFoqooovvGsgiuiEihtcQQFMcpLOAiBFxyuuqqv8AO8a7rJuIet4oAIbKoKb7aK8NMssK5g7Lr4IeJ5Iq6qpb7p4pdJ4I5parrobYoK5bbrbY5ILbK5664oI3nHQhAkFUWteXvu8c2WsN9ve7+Hedfn4pyL5rYaLa8MOPZsddMKYMeo5/6KYLbJ/vbZLLc4prZ45oJba7p64Y6KY4oq6776qraYI0VmQwg0XAA67ypDDTkxpPepLqiyTThDVWwIYb4ooIO/74rKqLv44cdb66K5rKrfst4bY4Z7IrrJ6p6o5Y6pLJ7rr5Zbo55KaKoyD33130ALoKvaYP+RCo7JYpYqbb47IJKb7Kr6bJZa54pqa6KLbIJaZ757a55II6rvI4J4Kb75Lb75a4qbILqIqKJr7pr7r7o7hKLCb3Un3G3JI7c4o7OKhBhKgIq4byhKY5IiLIIIrqKrqASLDiY4oY4KRjKZqTxBDq6/q5JoJ44IJILLpL4pKabqK7qIboJIaZ5LDaYBb33X12lYZI8p6ZYbA7qwYR6pJioySD7pphCyS7igCoZSoZYz4boIjYZZhh5jRgY/46r4Y45qrpI6L5JoI6I57YIor4Jrb5ZoLo4Dz13nGEAAxiyJZTpqozPQBzjQJhCKh66Y5DA6RLDSqQ4CBCr5TBjqCaipoSaDxTZ5odu+oJ6I5xIpJIrYYZporp7a5qL6IorLoLKH302HHCySxhRw7AQwgYk1FqYYIr74L5ZyzsvLr44JCb7Y7IYYqaar6KJ6qZrad7K8O7N86drLKYLZJJJ4KrZK7bI6ZqJZqY5Yaq6gQ3m3mFSJ46r65o4BbpygrLK75oK77ZaKIZoY7IZIgoQJKJIY6KJKoYos8/45fMff8AD3/vby++SSy2mW6COyD+W+a26WgGaC6Omu0B9x9tFRi+iMeCzjoyammeLn6LD6KSK+KqeaqjzWCyiEWCq+aKWy+Gqa6jzOWHnv7/AJ68286wuuv0guqmloottlqo/wDrqzAoKp6YLwFmU330m6L7LIJfmCbpIrqlNbmeOLbbfuYoMe8MYox6I5LbtborbIrLKMNdYY55ftcs+sPc8aKIcb4Z6KaLLqaLqvv4qT67oq4YeU12XnH2GboJjK7tnvbLw6ao6vtdtY69PddutbPOp4aYaZJ0eY4ZJK4OfeOdILPZIYu+t9vdN45LbZSbI7LSJaL66pr4ZCoLZq6IsHVln3221DBwRyl1mFVQBFx9n33+877ON988fuc/sbpf+9sEMpJov/4574c7bc9d+PMOcOqeKo55rYI6L+6ob4o75896hC4arqLIMHUU13nFljzQgCHGllQi1WlGePfPPKK+/wD99JXbDv6yfX7rdjqDXD3a8y632Xn3TjjrPnLzHXayCqSTba+C6y3GaiLvPJdaeS+O+DBdthRBhhF4cEE+L1CS6RxoVPbzvvruO2rznNLj2umiLLDf7fbz7bDHJGW+r/jiCOPD76LnDTLP2SyKa2y+2GCWmyaaGiMCz6yueqC99tBBBJdGYIM6rVy+KFxazr3d3PrHFuLBF1bbqCPbDDHDvbfHLvTnf2SK/wB7wjml48w7yxxwz/31umk5jilqjsitihjvqy19mq7io/ZQRReQVilHB33Yqju+egs3w/4138elokjY2sorzRyQ62y2746S63zuojskrghm2/56Xy844/77slruuivjnnqhthqog7w9kj+jghaRVRXeTxSOFfbaJFtpCCmgqqugv1y9o6w56/psV9Ydy97w/wB/MM+tt+tcMvN9NMc8Io9dM+dtP/Lr8qZ7IZJKqL7a8Mtd9ZZeOsJGFUk22nn222m1kxTqSC20MJNfoq8FOdceXcfL+1kkH8POseNsFN8t/wDz3Xn/AF+x06w4536x6/4X+96x768/Qrz+41wXd+81ov6wwqUUQVeUdYWcvsInNOvk2S9x7YRUy8eBb07870OXfbRV/wDtc998NWu8N/8AXPr37T/v7bDzDXvv3vH7/wCz/wDMU8vOsPNtEtvvs5JYMsOEkEFH2sstWmdfq7Lpa63uffGedd+11kNPNEswYEWNt+vN8+/vfeNeM9vfOvv+ve+MNdNMcNMfe4O//rov3Oc9ve8d/OMt+rao8MMEUUkEG3XtHH5/6qo6hppPd/E/NeLSGUesfusg8G1/f9ucdfv92t9tuJPMvNOMe+ffd989tMOvGcvfO8e9++uMe2HuPNMnMo++v28UEGGG11HChxAxo6LobKZJYsn+e/NPGU/P8eILNnH+8dPcffOcMMsP/Mq7patesNN9NPN/tc+9teo5PL5r+Os5IddPes/9Mp/sM31GEkEH1X0XHeu8JEGiF8YMM8X/APTz9HvP7vXm+vd9HvbjXjjTTDjn7XXbDDb3D/TL7Lzzjrj/AH0x7n8z59TZRww8y4064yzz/wB99XkEEFElWOeHlOdctU89tPaOtdU9etcv8ds9f/rIfX3/ADTjjvH/AK/5249172827z8734z5wz6y4x8c3w0q38df1dy8Q0ywy517408fbQUQQff+3693qgeT/n//AMPOcMGet8Nu+sPd8sZcsFc9u+NP9/uOPdPms9d9PNudvf8Afvf/AL/39+5632kjs1YWy5y4/wAsMccP+cPcn22kFG1W+scMNcI/+YpPvdu++6vvcedO8MNf88+8/EmNsNP8cHd+UuMH/usOe8uv/wD/AP6022w8c1/1w/kjz8+7xw21714y1zQ1419eYQcYVTffyx0x++61hTwbdY/8o4zz5ww4y209/wBvPc/sOts9N+8MPNUntv8ATfDLjLXLDjTnjTXjvjfD+SbH/ffHfnb7fn7bTjDPTFJBRBBNV1hBJhhBVlJV19RVJFVPbFD7zDXD/DzzzHDn/vfjHvzfDrP77fHX/f8Aw+2z/wCetNcM9scfOds7o/fe+/uf8c/PMPP/ALrDDbtJtBhFNpRNRJJxhZp5xtNpBBpHjDnHLHrPbXrXPD7nLvbn7Hrv793/AAb0ZU9+5758+1910604SdcVw2iSQdQVXw66Y81f41428wx/40URQZSQSZZeWeRcZRfZYRTVa145w89y1148zit36y/4w81/y0530w+/70x3xy9w3/2/53z22x345/kz597y9w/0/wD8c9+9+/8ArD/rdpB195NldR5x1p5lVtdBBXLDzNfrTPDzz3nTjfTvXTrbTb//AF/y9y+203w1+28838581y/4497728199345w810zw+47w2/7Wx/83dWcfXcXaTTdaXZaVeZwzz2xx/+0575+463z+0xw+/4z/8A+PdPOcOtcfOe98fts/8A/bTXzTrHXvTLbTrDf9n7Drb37fHXBfVJLXTqt9J595NR5J9V999tJVbH/fPPfNB5jXDDDLn3vzj7T/r7PvPXrTvT7fTDz3DnzfTXLPfzrvr/AFxzx77x35x+71xy553845Sy/b1Q0vfafXVfQxbWScZWaTVQfff46z7w0w3x11+mgywz86853389/wBcMf0WeEtf/vMcc99u+ofMt9sMu4/NucGMOsscMluPEcPEPXGt1GNHHH3lk18fFEHHHVHFEet+Pf8A/wD83/7y18687zx57813zxy56+x1w/02z1942x505+81p36ww3z+qyw19Tz49ww6QZ7Z6xacTe4SRTaRdabTQSc8759xf711854z41zyz90+589wj/8Ae/8ArLvzXrf/AG7y5/wjn3+1447zxx4/pw2x27092x/85U89y+67zZya/wD222Uek3/H1klEF0SF9s9/9tdetc9P99/cc9c++9NMsrPuuuv9tPc8eO/MO+v+vP8AHTXPTD7Xv/7r/DHLbqCbfDHhnL/Drb1deV5lxtpFXx9vlR15FhFCvX3PfvDR3zXXHfz37rTnfHXH73/f/wA866xw90/6y/w/2h3ww/m56025552xw0yw4/3y9wz2zb1w/wDeMXFu2HX2mWWtGnMVXH03MPt9uddus/MdOP8An/PzP/zrT/Xvv3H73bf3nn3DL7nbbTb6uGjTmbvzDT3f/v8Aw3yw4z+S8+y6wZy7w30zQdQbUaTUcY5bVQQUWfb8TXb40x21Qy3232/zr80wy/8AM/uPute8sv8A3v8A2115/wAOePrf+6cpMOvNMnfseONeuN/9tv8AXn9D/wC4x1z1801Wz5dReW7UfQSQXfb/AGHE+/PON02lGFE3OxNMNPef+teMs/8ATLDHb/TLvfPbb7HbbfCezfDTX/trXznPn7vTjX//AD40Sxz80+87y6/13128Zc1bSQQQcbY1bY/UZcXQSSebU6grj8810z/zx625032y33/z181/7w+8374w3zw62+/7k026631xz8WVyw6zW69zxz476z1dwZX8Ye1XZaYXTfS5XYwTeQW6UZcQfwgv+148/wCtesPP/Of9v8PvO8NePe99O8Nsvd/89vvoedcMMuPussfUFf8AfrLHv7zbvTNHrvHh5Ht5pV5VJBpBBjV5tNVlBTZBlBFvjvPjjPf/AE9/2x9381784z//AMP9+cNO+sNuvsNuN8MNtf8Az3jnH/3rB3/HvzzbP3bHfjV7P7H3xjVtBp11pd9JBDl771rnHbz33p5Vz37znjTz/rzjjX3XLPLzrjvz/HHrvjnrvbLjHjrv3f8Az4Y8y10262cQwd/effUw4Rw5ObQRTQZySUYWfYeXbfb4S28Y9ww2w9+YVR374/8AM98d8OPvuNc+vsM9d8v9e6/Mt8c8sd8/PPtdv+NscfuMePMMscNOcsPtNe/ve81+/PGO+kFW3EE0HHHXm1es2+sucXcNm00HMs9usccPcseMNPOl+sMPestesMPMOu/ectdMsccNdv8AvDnzjD/D7/j3/T/Xj/rr/wD3z73/APuMcVU2k2FkkFX9dO8MOsMOOH99kuvc+MMP+8u/fc+uMOOdOMOtvssMte8c+Pf/APL7H3DeDLDDj7HH7njPD7HbvlXfLT/pH/B9NdpZtNph9p1Bpx9drTHubnTL/v3HDpDnV/j33HHjDDjDfjfrPfDzr7zTLjnLLT7D3zTrDf8Awl941z9y713x6+z9787815y1yb82U6+QbazbS54VbXTffYdy4p047Rc55/1bz12+xx/yw02yw9wd+/e6x7xKwca1+6/9x7/8x/z4xw7x02wx6115x/8A9/utPPNv+8UtMF9/WmE2EH3HUlH3U1X3dN9vMvumG/N+2f8AX33/AL91x78+72/453R69+248yy055y+z/0zy0zz+x895/w/4ww7ewzx639W89fQ3eS3a4ceQVRXfUVfVfTeffY6+yw16w5xX35b016xUwzY9122z0x6++10/wBPBuN/M8+MNOv+sNe/Ncd+NN+M8+POMHdufM/tU9sVnclUNnefVmnXUWkMXUn3333FM9808te+eHUEt+v8Otu+EeP+PsvuttMf8MdMd/NtfffO+vs9udPsPucM+fPv8+2HEXv8s9VP01fWl9n1UXs/310GGU29X3n23HPPWVm1/tsPcV9fGNuMeHed0ftevNvPP+ecOfvd9vsO8futf/OOutev++OeNv8Anf8A8ywz1y996ww97z2//wAfuUuuPGHWHnVsV02nGEd8mEU0kP8APD1TxhDD3fhDLhtVrPX7vbD7zPrz3DfLLvODzzr/AK/z7/w/60wx91w6yxyw07z6625w4z+3287wZa/62URYQcYYQTecYbVTb2cdy4y4176U+5938/yfSw3yw/z0y/8A/OuNt9PvN9+c++vu/ve8v+FccOu8Gk0OMFO328tdNUem+MUnHmsW33m12knmEE3mEkGnM0dNkm2tecN8W+Ps8Ndv2lkOd3vuWOevsnuf/u9Nu/e8uPvessPsPdvs/fvu8vVNuveM9MsOM/c/9MHUl3/HWXG1V1FUFG003mHFct6ukcftvd+/U8d/8ON/X9PNPGe9+MPcPs9vVuV9veu4Pcuf+cu8fOmusO+/N8nM+POvNcP/AD//AJz7xfZceSWYdUfafeaRRcRSQReUxwTd66Vyz9eQ825zy612+7232378+4x849z02316x9y428wx94/6420+1w9x/wAvsWu0/wDVLB93HbvFJZR59lpxBlpRFpVJNdp9ptpVd9PpdpbrVJPHFNl/DH77vX1v35jpxXfT9hvvrL5F5zHrDDDXvPb3XzHXnf3DzD93PL/F1L/3Dj7tDzB5xF5xxp5ZxhBh199t5tVt91/tJ1b7fBfH95Rjv/8A0w42a53Sxz2z3wfZxww9w305+Z5078/0/a1ya44wzX+Qb+7wxXfw16W4TXzaSTXQUWYdTdYQedTXfYX1dXTSUcdUVReZz33yf7y07419+1xZ8/e+4y0w118/9wwxyw69x72xz6y966y132wR2yW/5fdQU4wz+XYRXaaTSXdVfRbQIQQQYTV677ceXQW+0decx73+R70pgyw568xz/aXUQ6V0+7x9bWyx1ZUb5wIy+W1ya1c26w+UW9d/yUSRU+5y3SbbSRQffbWZeQYdQfcQfbXddxaUeXe9fdTzzy35R6/rrxz165z19UQeU15y6wy219x+743z/wCmddNc/EMGPM00UkPUmmHW21uHWX0FFG3n3UE12n2lU0n30FX320tUFWnWmFGFX3lMs38/QQk9NFf+3dXl0EN2ffvvOFfPNv8Ar3Zh5zD7jb77jj3hltfzBDt9PlrPzf8AffSTdYVdScSQddVbPeaSQYUfa3fbUT3RfSUZcV8yw5zGeb1yU8//AN03e2NM+ePvcu88/usMfccVoMV/8/f2uP31Gnl213F/GcfOPV12knEEUHTmU3V23XHUkFUWm2uXHW2XkGWG33XF0+/vU31sMd+f8MWmO0s9eMOdvMdN8P8A7P3rNLrr7nfPRjF9pNZldd1Vl9tLVhFd5B9lBVlRFhp1Zp9tFNBBV9jB5BBINDJRpF9dTjXTjXjVDLzPDTzJhdpTRNz/AO3d9y/908z89ZT+z2ww/wAHfOEFk2GF2nnXlVF2WnGm3Vm33Vm223WGlm0FEE13W8KUFH113XnmnlXO9+d+f+ldu/8ADzblRd/DZzPT7z7T/nPLX/v/AHV6/wBs/t9X8f0sVGl0UE22llmlU3nccFFXHWUG3nGnn30XW0F3XEWn1lWkHkX2mU19sPHMMd1kssNPM8Uk0d+X/MNOvssecMuMuu80tM9sON/Ocv2NVn3F0XU2E3WnG0Xs+0GVkWG3G30GnX0lFH3nFU2X20VUWUU3200eNW3vOtG2HNscdlk2HN9Gstc0GutGmFu9++X0OtWNe8+Wef1dkE3k1EkmGFm03UVsmXVEUmn0VWHU2kEVWH30EUWX0l0UE2EklUUfOUmt+8lHc9NNe0UFE8t03O000Mekssddf+tPtu8scOuuf0FMkHWlSFmOH20FWlU/8UlUV1klEE1H333EkEG2EG3n123UcUV0Hl1N9/V38ME9etdW3mmFVO8WlF0HmO91ctOtMMee/wDrn7j/AP8Ades9WGe30V3WHX1lmUH1FzFWHGnFXF00Xn32UE321+mHGEc/3XX1nVE+Mst8NclF/MPPEU0/WNcXmkEEEOcEEkFmHWn208mtn0FW/wDlDZxDt5xd9ZJ15hBpRB9JB9B1JZNZVV55xBB199JrVxJp1NFhRFNdjrjrPzHt5rfb39drLFJPpxd9NhbXR9TbHB3pNN//AEyfX84+QV/XV8YQTVXUYRdUdadQNWQRUUbZfbVSWQQUadXWTfQQfQTXRQSQbT11ffT64YSW5/fefe9RX6ZdbUSc/wD0H88lncm19v8A/wCYUzz/AP8APfjnHNldx9xVJRpdpFQpZR9hdBV51RB9BFNt5ddxhRdFZxFl11txP3NVpX7d3/jvpNZ7nXvTntZ53rDPlJBtpx9Bxr1FbtZrNNp9pd1FV9l5lhph11919hsJNBBt115l5VtlBTx5pNdZ11h5VVBF1N1JXnJVZpzRNnvvpBxHXTv3HjTzv3f7JZxjRxFN77BZHJN/xhhxlZNFV9p9lBd5NZ199Bs5ZR5t9RVhRV59BjB99tj119Jlh5F9p9513rBFB9795prHB9Ndz59hFDrdhRv7p19B9V5VTlVBbp1rF5dJFxhFxdZBJh5xt9xxt1B959ZtxJpRxVtVBJ1t9FzxJlVFB1dlFhttDdVVRlzV9NJfBTZvHRRhB3LBJXfvpZbvJV95BXlBtBR1Rl9RRtJ9VpJJBFB1BdxJRt5lVhRtV5NFlZ19FJt9xBFtl1ZdNVxVdBFdBVJVthZd9ZN/xrVR19FJZnrzJ3zPxZTP5t9JNjZVxRlVVs9ZR1t1BdZJBRhZBFlBVh5ddNB5V5pp1R99hBd5h9tBZx1tN5tdpNx9zb1tB5dV9l1pNzxlt95ZNLr3ZBXTJBR9h1t59/RNJhtZcoFNF9d9NNpNt9hFpdlR1FZxRtxhRh1hNhxddJ9tppV1RFNtBtpB9Bp99V5FZd11FxNp1v5tZlNVlTfFNZTBV5xlhbZtlXNA5BZ1sIFxJpxxVRpxthZ9R991xJ19Ftlh99dBFpR9z7x1B1xhVFVZtxtF5Jhh99J51J5VVhxJldJ9p1Rh5B9B5pTJJ5ZlJHBVRTB0d5ptFJpdd5lR5xBxZlxlRR9Rpp1lBttVBllBxphTJLBHFNJlVxB5FZV1xdtZFxpB5JxNlxNlZtlZFZ1ZxFRNJhBhMNNNJdB5dXtMp5h1BJxFV510NZdZxVFdtxV1Jhx5h1xV11Rx3RBDXfzpBJpF911JlpZ0NApR9Jt9RVllJ1B1JPllTBBJlJ9Jxd9tERRFBf7NB91UhxNZdh9NxRREp1ZpBTpdhBxBtJRJ59dRtNRRT9JDXvP955p9ZNB9pV9t9xJxlhtRRBZhVdl95TZB3x99dJd91RpxFphJBD/VJVVV50tR15pFhFt4Rpx9RBxZplJl1hRRlRhp91LlrVtDj/8A4wXQffYXQXYfQQXXfQffffQYfQffXYXffYQYQXXYXQQYYQXYfHQYXYQXffQPQXffYYXXfHXfXYQQQQYffQf/AH1330EEEN2MF1//xAAC/9oADAMBAAIAAwAAABBXlXhFAC1nwk3AHHHHR8d/+19+1MOOeddff+e9/cX0PPus9MMH2XH1O/ddns/f80tdGn0km3cOfkVEM+981G1uPs83H3OUV2WNUFPHlE3Big2zFn1QVg33wM9vu3d88csHc8eufcN+f89df9eutcv/ADn3HLf7L/jPLjXbjXTDz7TrTj/fjPPjppJdFD7p3f51DzrRjhVDD95V5lAJItBRkZ0lLxH3zPhX3znl9jz3Xz76rPrTvzT7z/8Az18/8Ud/z2+7732/717x8+4w8z387z7x7290yVS/f6+cUd69wU9Wyw0YTWdbbWfHGJffTz6k86XaV5/v6j5YX631/dZURU/815/99z9/538yebfzbedb/R/yeQfW6xy/ffTww907xy00/wAX3n0nPOePHvMGmAEE1X3nHSRzzyYv5O+M89k/Ktp8PNsduXkVNu/8P+st/wDXzBhDj3rTZ33TLD1pf/jVvf7DDXXfj/jjbX7zjfVxzTVZRrTzB/LzNtkxVoxN9p1MY5uejvLDRFlT7PfXTvPbr/NVWddZZRFEAQv7HBBrT/hdFXLzD7VxBhpJtNpyjRNlNJpFTdVtJFlHLXnDj1Jp1LDLMlpx1+rxokEbL/rnDiKCyyycNuOaPj7z/HBEKUR45bT0hTDfjxFzeyNtZTD7/n5D9Zt9vtxbztffrv1tH1T1ZzZznx3LpNJNDXjP5FM9JI8EQVJyyr7BTEDuL6iITJAt2GW/HPtxpBn/AD5VVs0z8w7y7397/wB/fPPu+GUlGOkcG89sk998fEetGMPUMHnEnOGe+U3mMf2H3C01TrDf8r3LGdxCFS7znkBH5oP7nQUGNGaYDse+V1J/uu7KZYdfMtdPuc8/sV/PkMmtkd5PHP1VPfHv3Mm3l2kFm/l+sXXMPPEg3y23BUOqf04+GbU0T7j13HPJPZeOlgdWdnt+/uf8MdaIYrqddEMes+epO/Otvsn32tWUBO9eGmdV1H1PXkOVOUk1kFnNPusU2XlBXwlWFjyIpBTrCCwQwYRizCCnxazhg5GXcVmVP31P4KZZ8IqqLNMLZfcK+8c9fsY5ec2mR+8su/c19sW9+/WlG+8GePt8vt/dk0XH23nFUCaNOnEc2fu8Rd1TjmW1+M+tMf6afWHFcde8YbsOccvMaMfKZfsOs+MPepp59Nv3VMd9sP8ATj95/jnXzdXvvbjPxlthvJzn9hBsA5Vd14FdkqdZ9xN1nHbXL1dt5JNNZd1xBr3vODXP/X77bTjnbvPPP7v7vfGPXzn/AKY4wx5/z+494x/4w093293yw699Z/RS5VWdeXWNQ4dvx3ZjDA+fbdz680ecRw5WW/0+701y25J1zfaw88/yyfX2w6baYSx+o977853z0x1+901w+1yxx9y56z556824a4Ta1ccefadGSeep5cX4IutlnHU4ebDk70d6DDXssU9x/jt7TrLQX812RODVxvLubF32j09zz/8AtMvP+N/sdONc/Mev8NPOdd9uNNuPncMUlX1z0UNfOE09m1ef6nEOudd/fcl9uFO1NeVNeHd4PdSiiX3mkrxZpdWVV8DQ+MvoJ5d++OfGf+eeuectsM+/988Me+/NeNe93oJnE0w0Od/dNNV+sfuUN+5XmEFEM/NfttOYg3/MOmPT3U9OPcu8s8sMO/tOOd4uOZo8ILNr/tcc/wDvDLvnbvTrX/Tvjhl9T/rdpZD/APRURXt7VQbaTwTc8by9zX5xwc9409z7XV3+3w17RwU3U4956480+z2zkmkzwikkv1xzktr6x40838/8zx0xky5836/Z+Q360VUWwhYWUQTpUVR2V7GJ3b5+SSKD8ICx9x3/AGW9v9r4teGnvmd9f/fu8ONOsc6oOc75rL6a/dP4bev8oe/8fuNddMef/pYd3tclPftuFcZmU3EWL2ukkluQfsk/l00MiOOXSv8ATmYFH++2zH57zx7zlu//AJ/d6zc3vtm8348qj5408jpu7Z4s3/8AtN+ONf8AP7AY9xThpdbHjMePhpFxhORB1rh1gWoJpTdfnBAhdS/D+T1G+mHCPLL3XHzRGDfzPtvvC2aWm/TSjLTKL/nmmyzrTvn5XfPr1HTjvX//AK8Yxdeyw42HyzZfeYZnz0+w/k9muj/zi5Go8zRCaXjrPNXXnj+tw/iksHp/x6ysv7XfyjaxqkkkMB3kt7p+464+d155rz0643+1BLWy2+70331AwxcYZTRl132zxvh9r06outxdXTQTVXngMq9zOl/tTWoRQHv43tpukY3S+hUjwqnoFd9gpOau/afbUop4xwz6m09wwRNpmcWT++0N6wVZfXc2gw7y6SJ4UbT/AI+vGEHnEQmUdiGW8uYuOPfosOo5o/urUKgrWN+7dYPNfIN5cK/C4MjfPsdvOM/vtv8AL7fb/Vzfen3HDlRGplxlJeqNjbRJ4LZpRKuBkAZDsUAsa9gW2ztSnrYgcFxyH+X7qlElsZXra6uPDPmFWey312HIWSHnP2DjDPvjnHTzvJN2OK3XKPb89hBNpsaxBn/c8jJDHIOhX8vECkscCRvVJOk3v7Ym4f15hOb/AB03VZO2zwx23+++hu2iD+y0zbSf/wBusdMd9sufs+OOdsp/4tMKdvMWk3V2SKTZv+68t8+mW9MnHH3UllglRvSjQ0osmZk4NA1GcNv/ANRRlquaKSGaCCYmyv8A6v0il3eKl/4m+95Rf3/441wLc4QN/wAY/r9mlUk30ZYKSroZp/c1eNa7SGgDXESJBhTB9VBFxJModBc8M1UnN0m0bYYbNpvfjH8LoIbsoqsGfBgjb6qwwId7JRACOsUESefbYINUXHHVGI5rKF381vMkFTJXpg++YgzJ8awK3mRfpIPru1reMc8sWtkd5Z/8f8fe/f8AHLf/AM4/27QXoogrtgS0altugSR9Y3cD973j8jUZW33+GLKaoNI+eWeZTgVIE+edPJjh1GOdyN8Vp+FYWplzf6aRUVVro+7jmmmog6x583w4y9Wa6pkk2+U3SqhyURobd3YHy91uQuXeZ7zxmuCpmXGYw34+TbPCGWTWDe4g3QIZIK1E84mYVdV/T8a5beQm/gkiqiuu66+6mn8x+2S2CnlqvgqITkso45LcWCyT+qpO/fYfT0232397+z3QRfYWXcdxF3acKJMm4T/ylyUP6xxz70Yewx8Xx97zm477/vtm+30y42+x+78SI97m9ZZEQs92ZQGVSt0i0mtM/wBGFncOtPdIoSCQVZIO4gWD01fV1TzZX12PdY9uSP8AdBfTlflPCNtVB3+Tyg0+yyPnBZXh/Hj7d1mjwkIkH/T5Oa1pwVfeJo6MxtrHtlJRNDpRySMMkA/4UcOvGhRDbJkU0/JBfLCnzA//AAba692yf5scRaT464zJB10591Rdxc4/6+c43sKbGM6wRzfw5fXf4idR4Qcwz6TcYf4cGCOn711/LZPMpDjgPjFEsrl/af8AkK/qD+Ud8tufeHcfGOEunuf/ALzPLbf/AM7T045/ex7U7o+9xt0+a570PJ471yewx43zzwccdVdbfKDDt2EIbTsFKMoq9FHvQRygAadeuk/D53z71xSQwdV1Tbwb556+514WV6QTtBXX+TZdzsxbE8TXCqwjTavTRU5dwx7746cQVTb9UFHTLELMcvDrqyHDX9/8LoqoAc4YnrtlXd84+0WUd25bZ+5T83n561iVZ69avHRRcRfU7i49hyg81i4sxhtKs7RTjvxy52TQTUcyf+x6w7z2eSYHy956dfX/AFvsdU1fffPMPW3eNM9W++OVkF0GmkVgN9QGn0vssMlmkVFXmoKNvjRHm13P4mhiVkM99Th0S9uUGkU3vf8ATHD7vTHjjvbzH3z1xNpfLHxx1Rvy2Sd9DDL/AIReZ7czXV6Y83N/9fZe37WVQeZU3/x9VJ+gw7x27QbY8WSySyRYfecHYUVZQZQ1x6z1w8w418865265/Rfy131y5zYUr56n2bccy450826QTWSeKJk304w1842z9bQYWRfcVBaVSdfTQcRcaadbT7TXTVVnKGeQcYUj366aTy/+dc/83/yWfSf/AFn0NHHU2J6p+0O319PW8v8ABNJZhp9pa/zDbvgKnLPJ5V1BbnXLtQ5R7dz7JbL7nJVjNtdHVc2ytxZx93bXbDHDHdPHn3pVxxRBZVx9xnpxz7TbOHx9tBXJZjv/AAXfYddQeWm878oAZr/WJKPaYffa12yLCBt1aRT5233HDb1Vy2KSq7TSSVdx6346y7+UbwxwUQQecbTyw0Zw5ctl4+875/cd8WV4/wCetMeOdMvoaKsK4jfOFaIJe+v1AYIu46p6H/ZL9J5fzhFuFGeyaRv12n3GveEuOddq7+cP+PPvFGEFl13lcGm4eu+9211M/wD1BHX73VNzvt7BPP3L3jfnnXDU+Djng0v0ZV1jh577xV31xPV5DlPnsnbRRx595nHQZ/rfOqLHfvNJhiAF7ZPhDLZ7CyWv/n5N73/HHnnfnrPtosarX/7DLPjHLjTUfp9rAQf4kdxzl1t5txDDd7Np/LTDIr37h5l1rHpKadVNRxvZht1NZKQRrh1znXt5bqn2LHfH3L7y6jT3jDfaSb7Pj77fvLzPTfnCH37vH6a/z79jvXPHXFhvx75pH73bovzJNhllZ7CjiEthFIUlEJ1hCiQZnT5fKztA/vzeXymzLbDL3rGvOOmSMa22OjjHWSPHDfGm7Fpfer7uCiR//wCx/q60y1c43z6wz8J32ebSRaZ0vWKGJIeHN3EdwUjpjIj8ioj+yr+nq9//AL9u/PcMuLcbIrMCTN5vO5KJ6PfeJqZccf8AWskeGm1jPCDavj/7Z/nrzDvTMCXtbvhNxhwMsgsoLNUAk4G8MKQImDom7+yS3+qrTG+eHLuKWbyPe++vnXuKLDTlphxTXNK/bDfzZnZHxxRDNdFAkHnr7/rjDnjvMTTvr3tl95nDKEaOAcXAAwUFNAFQC7i6D/NRdYyiOj9VXHOTmqK3VfqT5yT2n/rbT9PzzvmH/ZR/t5NvZFXxRhhvvzB5V/Jl7b7H0eyGDr9h/tj3TdMhQ8zj3v8Az7iE1CrW+y+2SbYOhun8dV83vptvq4UbOt3s/wDoMI6+E9PsNau9eu8/Y+MOUPkeMNP/APLhltZtNpX3s7m7371FbFTjtr/rjfHXf13JRNN4wx7jTOUppNXPTDjfb3vhxL/v1hdJ9ya3hh6YivOHqvDf/wAdaX31YU3V0Ty14/74V0y6c06f08U05228c34X+4A/575by674xQWxrV8w826xzWeSS9w9y7x00+2641YY758RPUSb8z7tyyY320xRUT8oOLZQZSm58st40B/dc8xexwms24w2f+xVXc01x14S/wAPmPXxb5Ntfv8Abj1ZthN7X7Rt7HfdJn37tjDfn1lVvZ7vWGjZ1HPLHJF5TRfrn9NxYtfkvhjQTFhBnVveG/7LFf8A2w2c7YX8fWc324a5998/Yy2+/wBGcNkHXttvEkP9+93+/tc2+8e/k2HGEuMvvO2eGF3+kkl9d0cGNdetnnunUpPeM/MPHtuved90dOdN08HFdElUOEF1sevXO08+eOXHdGWs/OG112sesP8ANT2ftr3DvnT/AJ/ehm6w05Y6+9zab9RSUYScbUQfSdRUR4aeZUXT/wCO/wD/AMfxyx+w3RT/AH0FsslFu/fMl38/+c12vlEEUk3c23sMtPXGud/EH/0UW11G/ZooZn8V1WXuY+V3E2nF0X+9Mf8AzDVtDDnZd1/bHdhfLfjTxVBeuVDhXXPlFz5zEO3Tnfnb7/nDrnX/AB+415w6y1w6063/AP32ttNnv6frSwPdP/1t7lnEWWVVOHNnVHNEMP8Arbb1XTjLrxJ/Dz/fdpcTal7hBphhdHt1OIuDvb/Zlzp9ll3lxlZDTJJh1vrDfnXRNvPD93SXnzkTzbnPzHf3HDpx/wBW4xz49/c30fW823awydVTU9z8w39UC4rR5wwaTed5VQTjv8114cX1eeQ3RfybVTXqcz+729150bT93z52un9xR+2+aSYUebe+QTSfU2ca25af+Ye5y645/wCOXW/vc8PdNrZPO8G/OFVWeE13EB3mXMdfdlN9PtWvmHPWFMEfe9d9/tf38dtd9uucPv8AXjFtPxHjPvhpR7FJvv1nrpr1jXbpdbl/XdFr/Hb/AD16jKXa6aaWxdT2bRQU5aT/AE13FE+Pcf1Gm0+0JVEkdvfuOO3mG/O0HW29v+8EnUVGFdUGGl1kNlFvfnNenuVn8+1v+Gd23X39/e8MX4Sf2O32nMfuVNE3EXV0/GVmfn8OPM/cNvePFf0ufd+NvfF2mMM2mkEN9e+GG2+e8vFFnGfndMWf+3+vNM0W/dlGO2Mj2nXHm/31es8OHGGEetlHPXn3kenFcUUlX2dOct1lnG98dsPeNmvWMd0lc/OvvP8AHL7f7tXPjL33N5/BBtdRBTfBNlD1hlLD7jLfwlVxVFThRPvbn7hRNrbVTzVFJln91jvL9dBBTrb9x9plRVR9J5sHhZD9pHjz/L9V0qL1hh1lrdtVdtJB3toFF7phlBXPhBF/Pvj3rpV9N5PzbL39HvtFrDBFxDVBfHNPRXbhl/VxLHzbPNl3zNntbTfftN/vnzP3nLtrh7zjxPzz5Z7Zn7pJV97pvF5jHn/tj57vnfRTXF9xNZ7D7gnYlTHj5rfqdjxxB3thJTjX9NDJZHFpl1z5h9JFRfDn1J3brZ5X3Tlp8uHLzTlrrjDLTj3Tv9xvBffjT/jlnrzrDH1TXFpxtB1vvojbkrlxF5maRnRNZTPhl3dFRo7hdZl1NJBlp71HRLfzMxjTPd99ln1v5rTB5zRPh5l1B1lBhN9Zt5NjbbLfnTDTjjTzrN55BlJxnrNUD30BzNO/bbppFR9xx1VldhJRfbjDDjrfBV1z/nDXBx/XnX3T3DTDfzz7X/11DJnpPJ5LNb3Jp1JTzfjnbZHlZxZv3RphVdppV3rzBvMrjf8AWZ9xcV2z/dfWxZUS1de5f45cS/x7TexT+2zcRSR5105wVezXaw+4acXaxVczdx9QafQWW0cb8/zx++21w9ydXcVeVT80x94yR+z4WZU8bW144aSf3weT/YV+RbYdf688fe5WXcXZTxV96zVxU13Vz406Q0b/AO01lVeeV2mfHsclM+cff9se9t8c0VX0l23nG+PfeMNOPsf8u2Gn0MHHnV2FVVdFcWUN3FcFWdl8E10GPX3E0+vG2V18G2Os/wDTBrdxXphD37zt5xZ77DbH3r3lhL/3ClMZtJVh9cApHNbfHMUHTPd56WHHdUYZtTwBJx5vX3TNTxFh91Xnt3xDbPxNetZzZprZ/wATbSV1wX9YS17yxSRVSx5/13y557z9z3yUTaTSfaWtmZ8Z6/8Ago9N2u2nbKfk751n30d+P1sudN2Elf8AzRBZ57plllVZL1l1LFL1zdp/fvLFLn7b/nf5DLD7D77XDVbrpb/ff1NpBh9hR9XdjRBlHz97/v8A1+cc8ZYvs9bZzdT8SwzxxY0caX4b2dT+yU2azyySWV/9/ba6e+x2Sd8V63Zyfz6Y2zw93/z3+YVxW0UZOTZdWRY19R1UZ7b4e8/294cWdSYk06eRzbWeWz1b/fQZVRUWaUQxaYZdaRzLS19XWZzeR/5665/y8wcyRXbR17+529y60NfyUdeccSYbfdYz2YzS/wDfMmNdOe/cv00lP/cH91//ADNj7dPd99rxtVDrzfRFvTr1P1JRPPPRnB7bXbbnrbPrbTzBLn7n/PnXr/jZRtNJt9FtRx3tJBsC29h4yQJrr7rzdSlrZp5rBDxNF9NhDrLp/Plz9DtDh/FRR1FD7RBBTtPdjFBPbv3r3j/3jXD/AA73/wDfse+vutXvOVGlWXH2U0V3VSVIFnEvaVuNMecQaQeGWnPX+XYgsXvMO2EtXutmnlN2e20VWWXdHWUlHX3/AFFHhzjP3nL7nrrHPbff5hzbDjnttbJBptF9tttBdlf71VtBpLdjLxTP5d1LRFdHzdxr5p1f/fpjThXLb5MqNH7vP/H5Pt1dT9BfB9FXJ7TvTTvfHrPD9P3b1ZpD9FrBRh5FrZBhhZZ9Jp9JVfxlhpBf3jjL1h/7tT9/zrJpF1fdvndrH1jpjX8AnXL7XL5L3R97x1p5DxBLBj3zDvPPbjzL3rbPF/rzHz3F91JZZdV959x959JRRfvdFJpfX7TXN1r3lvxLTtnvhJ/rDT17zHp/XjJlrhlrTLPxxRBlZtJd5ZvTlr7DFe7TlLjTXHLDxF/7X539JZxpt91FN1hBt54tpzfHSAZz1XTzt5JfPV5D1HHbv/TvrDRrTHzDP7jBn0LPTHvdpnbTvtpLpL5V1z7ZL7znbDLTrXPXbbgr9dX9dtlXPRNBJZRpxXMXn5t0AGV/TDTzZDhDV9hvn5F9JvvDJX1pTnfzDz1xLLz3n3HDTvRLND/H/tBrd7z1LDvf3vH/AG6658z3T/ew3YTxa00eeTaQdYSxy7VRXXMf4y54+8YfZdaUax/XU7S+6XY26ew27wxwdc39WVVyb6z9dQa83XWc84S07Sz9z0zxy8y/439XH9Sz2Zb5Tx8QXVTcZYdXxUQZcUUT343y8zZY004YU3wxeW8/07Wx6cRy723/AGH9/X3+O0/v0W1V98t/vX1E3W0GNe9OO9s9tNtu8QPmUsmG9HcPmHXUU3G3HmHe+fumf0ftueICENOPl0PXmHUPdfEM1mXF+fvUk32tOOfcfMs8VscGOsmcvu/vfffvN/MfNf8AbjjPPrQfVXnVnfNTrRJlNDx9VHsExfPj3rtNl02iUNfjHLlXvNTJ/rjBldxdF15V5hJ1D7ftX/7nphLv57/9b/rbLfjzrjHT/DzD3bhBrZkl5t7pRlBfvdx9pjBtprU+9D72iTxT9gaHzp7X7zBPvL5F3j3jpP37DRBXPHFFP3Dvnb7rxzfXdvzZ/wB5y+x/39yyx08/41x5Sf8AXVVk29kEnGsfGUWmGW212gaHNdU5f2HV0Pf39NuuPXst8tHc1u3UNv8AzBZvzZtFjfNBz3z/AEyS+Rxz1w8x0w5884x483x38/40dX3UTURcVSaRYkDedZSbbSYRGbTy+XXbTXRR40/zXV3389/z6f8Al/M9Odc8X0GfH1EN+32dNfPfktUP/fNNIdtvuccfPNu9fc/P8FE2Fnmk2XEe2BZx3XWEF21m231msMXmHcvNO9NWX/uMnt/tclPf3M/NPPMsmln9P3VkMeMMs+9vWMG+u+dA5vMtec88s/se9ds8dW2G2klu0kVflhDHU2V10VEV2VnnOdlG2FYZeuMOPNWdnMP+Uk+fnuveM8NOH1edN3vXetuYSst/EfbNudPAa8/uOO+svc+eXEO+H2kSGlF83lU8VGnG2UE+c0nkGV0XcM23EwZoHNees31PW+HEc9cN8vNM1P8ArL/X3ztf9f3zTVL/AG9e7i99943U4234y+/yz43QVXbUf/lGVVQRSSdSRSYUY2exe6RafSQ2wSRaWs7nsW76yzRb55wd1y3+4/w85/3736zz1xH73Zz9821Z1P37+wRca54x7l276xzZVdQTSx3fYxRVZddZXa+QV4442aaeWTIGXZQdAdEUkW3z0+TeQV9e4+8T25Rzy29yw05855F4w/7Va9y3/L3/AO90Hn+fvcoOO+c++l1XmXcNm2cVGGGlXW3tF3fe8/2zW0FQzG2n1HixRDUf88cXe3OMmfPM1Od2UNfsfk1cUMtEOMfvVEfOOPVdb88lHtd9U1A1GVcd1WHk1l9cH0MW0mXHE9ne2waN8MPzyF30D12F0F10H2H8P+OOP0OP32F+N8P/ANfDDjdffB9d999gfjj/AHXffQ3AX4XYX33XQIXQXYffQffffYY4Q3YQYXXX4QwQIv/EACYRAQABAwQCAwEBAAMAAAAAAAERAAJAEDBQYBIgITFBcCIDYYD/2gAIAQIBAT8A4KX1mp0l5gxDqB/5Be6PHPYTV1chr8qNSo2mjmHK/aaNIxXpJ97v3R7z0gynbenhV1sdjsrxW1psbSgVKvIakCoWkT71t+6vIfUFpE2k1RNiP8z6gtQlRUccbFn1Vqw0ylTCVfNR8VZ91I2s0hJFMeUUQXVf83FNtHj9NIml8FhFANsv5XieK0FeMfFJGln3UUhTaANXH1R91EUghTbTbB6BUFNv+SKbE+6CWiyLNPqw0gtsmkYl5EnRdZryaL0KmvNpuouim9SvL5Km2Zpfma8vka8/uhilVl0vQstovCauuEAqfqvO2ZpZdBhKuvt/KWxRavutUj8Kbhr9pihpbfGJq5/PSSImptBovt8fv5q648aKblA0GmK8hD/qrrpsPaOXNn/kfK23m3Mjr72R2Tq06T/SoeyuydbdkwXop6u+7kOO6nFTsS1Lr84k8C8c6m28Q8fHKvDHo+j6zyLz77Oe8m9iNHl5angXlHYcR1cQ2n+HPH+VTU1NT6TxriucezvOFOLPEh7Ow8A57qZTsPIptuaauCcHLxpq4Jnuw7a5xq4JnvvJmvQHe+eiR3xr9/qH7hHs9acM4l4hz3c+MF6O8TPZI7RNTiPUzcNyc5zXHj1ijcebcuc6P6Kbzq9Pnaewur0R4B4h4h3j2evHs9IfrMekO2bZ6OjsPVj2eCeRnZnQ9nrx7Ow9cdh2QwXV593J6KU4TnurzE7TnvQmjR7I4JgvLG457q7zxBuO05DyP16m48E8i+xkmpvOrq847r6Gy7bq5EHHvsY76zkG/FR7NQaOOdKdXZdh4SeGajnYwV4R7I9QMR6AuK+s4btnLu0/nBnLuS4hgvs9NPZ23oTgns8a5rq47gv9CeLPR5V49w3Edtznf//EACQRAQABAwMEAwEBAAAAAAAAAAEAEBFQQGBwAiAwQTGAkCES/9oACAEDAQE/APxe6ekj0ktP8ssy0emlokCWe61LbR9UtGl/7FhPdbRCWhElyfye6JCIbO9S8vGh8zrhRhRatLQo/EPAbHOqEWDGXiy89QZcl+y/a0vtG8v2X8N+2+geKX6YWlpbDu5Tkpzjw08Hu5HQune5yzoXc5uFqapwTp3zNTOOkKvmam0Cr5nfxuQ4acWZE2I45q5NqYtyzU7TkBzxhnko0r9DPeXdyOWcc4Jq590r2e+x2O61yD9Bz6Uu5HP3wruR4kt+KN9yW/IY4ueMXcj+KT8/ia/YV4GMW8HuWMQ0/8QAOhAAAgIBAwMCBQMEAQIGAwEBAAECESADECESMUETMAQiMkBRQmFxIzNSgRRikSQ0Q1BTcGBysUSC/9oACAEBAAE/Av8A8BrOtqKKKKKKKOCiv/wujtvWNYrGiiiitkUUUUUUUUV9mv8A6UYhe2vaYvaYvsGL/wClGIXtr2mL2mL7Bi/+lGIXtMXtMXtMX2K/+lGLsL2mL2mL2mL7K9r/APpFi7e4vaYvaYvsqKKKKKKK3rfnbnbnbk52s5LLLLLLLLLLLLLOossssssvayyyyyyy/wD2my9rL2ssssssvayyyyy9rwv7uzv7jFheTFteFlllnf8A9xreiiiikUUUUUUUUdJ0nSdJR0nSUUymUymUymUymUzkplM5OSmUzk5KZTKZTKKZRTKZRRTKKKKKKK2oooooooooo6TpKKOko6SiiiiiiiiiiitqKKKKKKKKKKKKKKKKKKKKKKKKwooooooooooraiiiiiiiiiiisKKKK+zs5Ky525w5LZZbLZZZZZZZZZZ1FlnUWWWWWWWXvf8A9UPJZVg0UVtRRRRRRRRRRRR0lFFFFHJT25OTk5OTk5OTk5OTk5LZycls5LZycnJycnJycnJycnJycnJztycnJycnJyUznamUUymclFMooooooop7UUUVtRTKZRTy5OTkretqKe3O9MpnO9FHJyUUU9+d6eHJyc78nJyc7c5cnJf2TF7TyXtMWK9pixXtMWK9p5L2n9g/beS+7XtMXtMXs19kxFl+w8WL2mLFe0xYr2pCxXtPJfdPJfYeftl7TF7T9uQvsGeCzqFLe8GdR1HUJ72X7DyWPne9mLFe1IWKx84yyWPnF5L2mLFe0xfdr2mL2mL2pC+wY3vZGRKVCmWOR1DkWdRYmNnVtYmWOR1CkWWPZsssvbqOo6i97LExixXtMWKx84vJY+cXixe08l7a9p5L7Dzixe0xe0xfYSHs0tkyW0SW1DjtFFIbEiq2RJ4rJYJi2ve9mzqE9rLLLLLLLLLLGxSRZZZYmWWWWeSyyyxllllllllll72WXtZZZe9lllllllllllll7LC9rLLL2TLL3veyyyy972sva9rLL3ReN7WXvZZZ1bWWWXte1ll7WWWWMX2Ehll4xJbImxulZpS6laJbRZLecku51XgtrwsRRqtQVkJWrEPZMZZY9k/ZoorZo03/AF9Rbdaf0lb0UUVtRRRQyiiiiiiiiitqKKW9FY17LyXtMXtPJe2vsq3eFY1sxfYSHs5pHq/sLWXlbwZJ7IkfEypJHw/9qI9osb2es5OtNEdLm5d/YvCO3xT+g+H+l/yRJZeB7J7Xj5xZDVjD4jVbPUetLpXESEIwVLdYylRF2k8GLBi21NRacbYoa+r8zlRF6mnKpcoW+rrKHC5Zpwl9U3yPfUbUbSNOfXG9l7T+wf2KxeSx84sXtP22L7BkiUulNmnGep2QtGK78mrSbohH5I/wPg0256zfjZTTdCGfEO9V/saT+IiqUC/i3+lHTqeTTlbf7D1UiE1NcEYqK4Q9rWz1oJ9xYy+Ij11X+xO0OGo/pZ/x9fzqmtCUJpN2zT0HBfUIn3G0u7Hr6a8kdWM3SvbW7Jfk0/kn0flD2R43bS7id56ja05NHwuj6spOXYn8LCvl4Z8LNyg0+8XtPVt9MOWabknUt5zjDuQn1eBpN4v2J/1vilHxHaSuLRppqKvaTaTo0tGn1S77S45Izi+z2TT8i+T4ivzstupflbMWzdCezyWy38/YPGxfasXtP22L7Bk6Stkr1f4RoV6UaGaa9TWf47kTWb1J9EO3k0F80/42i+n4j/e05KMXJ+D4depqymxbfEanTwu7NL5dFyIdFdR8NzPUfgQ0UTa64pDcpPpRraUYaT/JF6soUuyPhW318iOErYoT+IlfaJr6UNOKZ8L9Mv5EamooRtiufxEJS/O10rJ6upqS+QWn1SruyWjp6Wk/LPh4paS214/Jf4NPU6taLk8PG9J9xNLOfGnP+D4D+3J/vt8Gvm1pfufEanRpN+exoafRpr8vuT4hJnwv9lE5KEXJ+DQXW3qS/wBbdX9bp/bbV1lpr9xaOrqcynR8POT64S7xJyUY2zT1Zzf0fLitvg+Z60v338mpqS6uiHch19Pzd9pyrV01+TUT1NZR8IjpxXZGq7mtP/uLRjHsT5+K01+ET9XUb6XUUaKl0cmpKepq+nDt5J/DRUflfJ8NNz0+fBqTlqavpwf8kIKO2pDrjRpTcX0S9hbL7N5r2X7VjF7TF7TF9hrS1F9MLFoauq71HSPRilVC09SHbsenJ9yUJaOo2lwxPX1eEqRp6MdNcDXo67vsyerBLhk7uMv3J/EwXbkWnqa9OfERwn8PNvvFi+J0/wAM/wCROfGnAfws+lyb+Y0ul6PS2S4VI0NeEV0tUerD/Inr6a8nXqavEY8EovTlyaMahflnxd1GKXdkIdEVEi/R1Zp9mP4jTX7mp6049TXB8Pqaa0Yq6PiZLUilHmj4bUgtPpbpnraa/URg9SfVPt4Rq/J8TGXg9fS/yFes/wDpNWtPTfSjR1NPThy/mY9JT5f4Ph51em/ySnGPdkr1f2iai0nxFcilr6f8EIauqup6hD4dJ8ybx6Y5z5hL+D4JNdYzR0/ThX7nxa+WD/DFOLV2jUl1xcIcmhPhQ6ex8X/Yf8mh/Zhtpc/E6r/Gy/q/GP8AEdtL/wA1rfwa/wA+tDS/7n7IWtev6e7Ft8F31V+++pqLTTbPhLlGUn5ZrzlFLpE7SZ8Xx6cv3NC5uc/9bLj4yVngjD+rPUNDjqi+9l0jSh0X+WzU4hJ/saC6Ph3L+WfBR+WU/LZPhS/g0FWktviIRcLfg+Fk5Rd+MHtYmWLNvNYvG9k9rLzssvCyy91heTLwvJi+wYs5QjJU1YvhtFO+klGMlTXAtDSi+Ib+jpP9CKS7Ktn8LpN3yQ0tOHaJPR0p94n/AAtL8sj8Lox/TZSXYlpQm02u21Io1NKE/qRD4fSj2iVZ/wATR/cjpwguIk/htGXNGn8PpQ7IolpxkqaF8LorwUiUUyPw+knfSUanw8NT9iPwmmu9s+Ii0lXYhLRrwa+qpLoirNHS6NKKZRQkUUUUUUUUUNCRRRQ/hYXdkIxiuFtOHXFxZGPTFL8baelKOtOXh7aWh6cpy/O2hFrV1f5I/wDnJWXSs0HevN/k5OTk5OScZ6Oq5xXDF8VDyPXv6VbHoNxk5O5GjrelDocSMZz5ZDS1Yv6uDV0/UjRpw9OCjtq6PXyu4tLWf1Mo1dGTfVHuQhq3c9taM5abSNOE/TqX4IPU0Lj02ifrTg21waX9uH8bT01PuRio8IZRTEntRRRW1Y0Paiit6KKKKKOkoreiiiiisqKKKKKKKxrCiiihoooorCiihi+wYvaeS9p4sXtM9LTf6RQjHssFj5xeSx8462i5NSi6kejrz4nLgegrTjw8Fu9HSfeJGEY9onk6YvwsHi8uHwR01HB5L2n/AOzPFZMWDyYvsGL7Be0xYMWPnF5LHzi8lj5xeLFiu/3TF7T+7ftve/s2L7Bi+wXtPJY+cXksfOLxYsVi8WLFe0/sGL2nkvtX7b3r2GL2mL7B7SlXIvi7fECM+rtve9lllk/iOidSjx+RTTXBYmWWWXtZe14XusfOLyWPnFiwYsfOLyXvvJe0xe0/sV7TF7T9t+2xfYMR8a+IR/JGEYwUaIf0fiOnxLd6kF5FKL7bynCL5khNPttqaa1IdJ8LNxm9KX+tkTajFs6tWNSkuGKsqHvW62oorHn2OTkt72972sssssssssvayyyxllll7Isssva9rL2ssvZllllll7WWXtZZZe1llll7WX/7Dyc48nP27F9g9vjO+l/O3xXGrpbrpeo0jUh0pyj4NL4jqdS7k2+Ej/jQfMuWfC8as4+N/jI9MoaqIy6oKX5Ea3PSv3JRUk4mg+HH8PHSduf87S7WR6n/ABisfJpu9TVweSx84vJZSklWD3ooratqK2ooresGiiiiihbUVmxfdr2n7b9t+2xfYPb43/0iPxUfKZranXq6fG3ZM+E/tyf5Z8RN2tKPdmrpJaXHeJpvqhGRrTUI2fDQqLk+8t/i69B/yfCf+XiI1fr0xzh/khakFrSd8MlqfK3E03cVs5Jcs0ZxqX8ilZLnez1tO66ixY+TT/v6uDFgxEpKPdkdSMuz384vFix8nxP0R/8A2wezk1q9PjBe1521Pol/BpO9OOzyW09SMf5PWf8AgxO1e6kn53f3i9p+2/cXtMX2DEfG/wDpGl0PTVGrH/xWntL6ZfwfByXov9mfDLr1Z6jPipdOl/JCS09CLl+CEZfEanXP6Vh8Y3KUNJEYKEFH8CJK9Vfwejpv9I9OC+JiqNb+1Ih9Mf4JvmMfyOKaPhlHpf8AIvrf8DsjNPjzt8S/kX7s9CHRXk0tRRhUn2NPWjJ8bRbcr8baUnJysn1X8qs0ZN60729T5qXfaXY09Xq/nBk59Jpw6/nka+nGMeuPA51FMjfkhqKUmlta2677Dx1pOMbF2WzaStkdTq8DYu58T/6cf+rf54jZ1x/Jrf8Apv8AcbojNS7DxUk7xY9WF9xSTNZ1pTNLjSh/GWnPr1J/4rZGpPog5GjCl1Pu9kkhivWlf6ULTinxu8l9h5yX2r9t737DF9g9viYOcVXdGhDo01fccIuUZVyt59Wi5x8M056Wnor5hf8AiJp/pR8X19a4+Uj8VpJJdLI6ql2vZ/saOh0y65O5bIp+qn4rbv8AEr9ka/8AakQ+lfwQ+fVcvC20vl1dSIn/AFpfuhj/AL2nt8T30v5JOk3+D4fT6rm/9GpD54Nfk1OIzf7Hwy/oobpNnwv0Sf5Z5NP+/qj4TZ8MvlcvyybucIkieipduGaM27i+6w+I7Q/kXEV/BqfO1D/ufVrqPiKNWXTBnw6+ZvxRqT6Y/wD8IaS7vljl1T6I/wCzhEJOepJ+Fj8T/ZkaX9uH8EPnk5ePA316vT4XfbXf9TSR5J8/Faa/G2jK4v8AnbVblNQX+xRivBL59WMfC7mr80lpr/Y/lg68I0m5aSbJS6URU+7YtoxURYc68v8AoR0QXCQ/llFfk+J40/8AZfTpr+D14/uKSkrQhujU1ahJmg+mHbuLkR8Qr0mQdxj/ABv8S6hS8kI9MUjVl0wbNL+3HZi+1XfF/bMXsP3l9gxZS04SVSQvhNH8MUUlSRSHCH+KOlFFFDQkOLfZlHR83V5JR6k0enr/AEeCOn0Roolo9TUrNTTb+Zd0des/0GnpNfNJ87fEp/I/wzVUpafHkiumKRy9SP7Gsm9KZoS/pRNR9fyL/Z8PwnH8Pbtrv90PmLX7EdSUIqPRyU1KDf5GyctR8RRpQ6L/AC9rLPie+mer1cRIJR/k0pKE9Tq8nxE1qOMUKklXY+uafhFnw7iuu3zY5dfCfBpcRLL31edOf8C1v6UYLv2IR6YpGi0p6l92xzivJH5/iU/whdyfya/V+xC+lt92fDX0O/ztocucv3Jyr+TTh0r9/Jocy1Jms7XSvJof26/B9WovxHdidrDXbWkzTSWnFIbS7mm3PXbfhcHxS+SP8mnH1fml28IfRFcnw6fzvxfG+rHq02iH0rdq1R82j+6FqxYnZ8RH6X+GevE1ozlDqf8ApEfpj/GzFle9jeS3vfqLL2b2vexPkssssvay9rLLLOo6iyzqOosvay8LLLLLLLLLLGxfYMWKxeS9p5JbP4f/ABlSIacYLjbycbtWPLX+vTQopeCkPThLvE9LTqukWjG/J0ooejpv9J0pdkdKRRRRRRDQhGXUUS0YS7kfh9NeCehcuqLohDp82zpso6Sj0tWH0GnpNPqk+Tk9KcX8kiMK/kloztuEu5CHREplM5KOSpFMcbVC0JLtMWlXd2dDUrJR6lTHpy4qVI9D8uyq25OdnYrOdulfg7bdCT7ImuuLRDq6VZyc7clFb0UUdJRRRRRRRRR0lFHSUUVtW1bUUUUUUUUUUUUJFFHSdKKKKKKK2oooreiiiijpKKKGL7B/YrHz7TFj5xeWv/c037TxYu2Kx871s8l7TyXtPJe0/beSxeSxeSxftsX2DyWLxYvaeSx84vLU0+tR/nHzi8WLFY+cXksfOLyXtPJe0/bftvJYv/2d5L217TyWPnF4sWPnF4sWKx84yFisfOLyXtPJe0/tnixe2sX948J6ii62WWpOSpIUdf8AyI+p5xssvazqL2sssssvay9rJ6qjLsR+Ii+/ApJ+d3ksfOL74sWKx84vJY+cXkvaeSx84vJe2vaYvbXtrF/Yveequy7novptmm7ghZSjfJF37bXBDlbPGhFb0Ur7DhB+CMP6tIooooooooSKKw5OTk535Odmc78lva8bLLOobLLLLLLLLLL2sssvayyyy9rL2vayyyxjkl3OtFlllllllllllllllllll7Xs9RLuXtZeHO948+xzvzhzlzusOfsntqx1m+OxD5HzFi1IsSoWd/1q3e1r85wfzSXsLFd9tLm3+SU4quc2LFYvvixdsVj5xeSx8+xKkj+pLmiuBe24pji4keUV9rOVceWLRT5lyVksfO76/BHU8PZe0xe2sX9i95NJCg5yvssPVSe+p1JfKrOvW/xNJed2TbbUV5PS/d2Qf5y7az9iWooies/At132ei74kaWmuq342eLFisX3xfYWMcfOMsls2l3ZaJSUe5CXU+2L3+vUf4jsxYr2IfLqSjs/sVvD59SUvYXs6sPKIyuIsfOPVH8i9tb39m9pTURJ6nL7C42W1LGPGpJYaS+aT26n/wAil285fEPpcWR0tWXMpUS6tKXe8X2ZoRu5PHzun0Sa/JY8lisX3xeSx84yyW09PqaJx9PmLI3OXzMS5xe+ivl/3syc+n+SDnXzITvOeo06Qndbv/zC/jZix9V9T6VZ61P5lW85KKs0pOSt+w+zND6P97eSWrLq+VcC36l2Fjcpv5SCku73Zovh/wAi260dW3nduhdWo+XwSj+CH0q/bX2zH1Vwjq+b50f8hf4s9eP4YtRMW0ozb7kVRe+o6kpELfLL20uOpMnrJduWaCpyb7vayErvfV0+pxf4Jakv0kNLnqltJ0mzQk5Qbf530vltfvj531q6WaTbih/YPvi8lj5xeS3l/U1FHwasempIg7529FfkUGvOz30n+nZ9jTXVOUv+xrf2pGj/AG4krfCJRnDlOzTfUrw0ueqX7mr/AHdKK30fnnKe2om48MWnP/IjpNP6t9XxH8kUonxP0x/kXZDdIdzuXhGl9C9h9maPZrbVdcLuyMOmNGhJy6tqIL53/IsNV8V+SCpYTdRbNGNQ587SXULTgilt531vo/2adUUhe0xYv7F70jpj+EUvwL2K2Y9OMiOjpx8HSijU/wASEaKKKOlDKNZPpSXkjDpSRRQ9NSPRivyUUVtTJLU8HpTf1MSrbk5xvGyyyyyyyyxssssssTLOpHUi0XyWXuy8VvofqNTmEjQ+naU1E9T9hMe8o82hTH9L/g0mug159VJC7Ig/n1CX0v8Ag+HXyf72hLqtjITcFVEE/VUpba0qjS7shHpiltJ1EWo/8RO99SPZ/g6yT9TUj+Nmkya/ptEeIr2ZRadoU0J3rN/gnNJHwvaX87pLre8JNzf421fqiKSOtfkTLJPrn0+EPduXgXX5e9lnDOijkRZZZa2ssssss6jrOsv7J5L2ngyEOep5PFixXtMWKx84vailuijpR0o6UUUUUUUUUUdJQkUUSg4O12HNODNKNRKOk6SiimUUzpKJaT8InpyVWdLOYSf7lamp/wDqJVwat9l3ZCHTGijoJRdpoSZ6fzW2UUUUUVtR8jO+qqKKKKKKKKKKKOk6ToQ9JNjUOeDR7Mo6ToSKJLgjCkUOCZ6MP3PSgvBRRHTURretq2oooooooooreit6KKKK+yYsV9q8WLHz7TFisfOLyWPnF5LDpj+Be09tfvD+cEdHz9WHnF5KCvsQS9SbweLFnpLvu/bftsXtP7d5L7V4sWKxeLFisfOLFivaeLFisfOL2lHqrBY+cXnpxq/f87Jbv23ksX7b+3ZZZZZe1l+wxYrF4sWK74vFixWL74vJY+cXixYr2nkvaeSx84v23ksXksWL2n9uyiiit6KKKKJ2enL/ADIqXllZcnO/JzkxFl7XvZZY9rLLGIssstCx84va0dcfyJp7L2nksV7TyWPnF/YMXtPJYvJYv23l5+xe/qK63WU0Kfjd/YMWK9piKKRRQkUUdJRRRRRRRQtBeWz0ojXRqpJ78nJycnnfk535OceTk5Ecll72WdQpp7WWWWdQmWWWWWWWdRZZZZZZe1lstl72Wy3tZZZbL25LZZb9mT1G6idU49xNvbk5OTnfk5OTk5OTnbnHkrPz9i9pNydIqEBNPZZ6lEe2EI+o3JnqPSfPb2HksV3xeLFisX3xe8n0xbNKH6n3eyx84vF9he42oqxRnqct0iGmojyW0HbnutWLeLxsXtPB6/8AirIScl2yeDkk0vL2W1EoWacql0seSxeS+8Y3UTTXyjSJaf8AiQ1P0y7iy1FqfpIpqXzbsf0shPojTNXqm7fH43vFk9VqXTGNsi5PuqPUh1dN87MWK7j1oJ0J3u8Xt1L84LHyS1H1dMVyeq4up7veceqLR16kVXSaM5z6r7Cx84vFixWer80ow3fsaX6t5aUWQm4vplg8Hqq6XJ6n5jQvae+vLtBeSEVBVm8Hz8Qv2Wyw1VU4s8+w5vwf1CGp4Y9upfnBYvLz9izU+hkPpWybjKn5PiPpUvKI9kThKXaVEFJd3jqPmOWrzqwRZOUutRR6X7uyE2p9EsGaf92e0v7kn+4uyGRkuVjqy6UaenFR5XJNy0p/L2E7ins9eF4vsK9T+D04R5o0tTrjs9Z3UY2aWo5Saaxm6NNfLf5PiX1OMF3EqSRauh4T+iX8Gh/aFj5xeL7CxWPnZc68v23lqSk6iRn2T77Wl3Lw0f1b+T4hcJkHcU93vryfyxXkvT00VLVrikL2nv3+I3uU20hKUJrfqX5LvCP9+QxPDW+vTR526n+BPdGo6iRjS20v6knJjJKUnXZGpBQpLv7L+3Y1aIccPbVqhKer3fCEeok6E7OTneaff8Cc/wDHCUbIx/q0zsS+XUUj1Id7F/U1urwWepeoor/Ze01zaPXX4ZH59bkvb4b6tRlkpqK5L21u8dtbmaX7EVUUhq1Rrxj8sUhcYTVxaIKUY0SU2nfY0Vw92vTleOpHq4OjX7XwaUP638bTWopyaNDq6ZW/OEpxS5Z8P2kLFd8XixYrHztHjWn++0vpf8Gm4rTXI316sGuxP6WQipR5NO46jhstlNQ6jq1pc3SNGbkne3xH9sgqhEnOafEbFLV/xHvrx/qRZHTguy2XtPeacZ9SFNMs0Oz/AJPiL+Vmh81j69STS4SJaMIwbNK+hXhHjVmc6n8El6dNC3guqbn/ANsL2sRqK0KbJyk12Ph1UP8AYxy6Ytmny3KXc6l7DyX2L2cUx6P/AFMjowX7nTT26U/BXt+n/U6t/S07+ko1HSNKHSv3w+US/wDEHBRpw6bKNZdWrGB0lDgpHp6n+QtOtVWUUOMvVuijVTfTH8ijWz21eIM0k+g5G2hRlN2zkdy1Ul4OTnb1KNJ/NMs5ojFpVu+T01+Dtje1lll7WWXs2WWWXvZZeE4dVO+T5xfuPR07NTpU4UWmKXRwaactVzY5v1eldhbaifqtJDhN8EYqKpCNb5tWEdpSUVZHUjIe84qSI9UeDrE9rwvKzg6ELg6a7Go5ONGh9H+y0asuqSj48lmrNqNLuxFmom9Tg4Ua/B/cnFeFtZN38qFS4L5LHRSLLEyy0akkoM0n8i2dNcnpwOiO1iLLLLLLLLLLF9i/sHktnH+onj6aZLSamqYoUPfpfrdW67knPwj5uu2i5fjCub3Y5V4NXUclVEJOl8u62jCm3v5J6cabo0Irpcv33eSxXfFlYPaiiihIpFFFbUUUUT0ep9yeiouIoJHSjpIQ+abKKOkoolGXghpVy+5R0o6I/gooooocVtRRRW1bUUUUUUUUJEo/K/4Ph18p0o9GF3RSOi53+CjpOk9G+8iMUlwUUUiiiiiitkUPqvsa19BFcL+Ma2WVbVuvsXixe0xYr2mLFd9pp+pFrfzixGr9UcFj5JfSzSVaa3eS9p4vJY+cWTV6kMKF7TxftvFiH2ZopxTv2H7bFvqq+lbecl7a+xeLF7TyXtMWK9pixXtPJYrF4vJe08WL2nixe08WL2mLHzixb1t5xYsXkvsXte1liLLLLPVbfyo9T8ossva9rL3ssvN5LHzixYMWPnGWLFisXi8l7TxYvfftvFi9p5ecX7i9pi+xeSwaI/03TKXtUauk51TPR1I+TSldooooooranvyclPfk5OduTk5GWWyyy9rLLLLLLOosbLL2vZFl7NiZe15vJe+xYrHzixfdP237bF7TF9i9tRf1Vz4K1V5R/V81ssdZx7eRdlhqT6ULU/KxWzZorhy/ObFivaeSx84UPaiitkiiijpEiiiitqKKK2ooplb8nO3OC1vmpbPbk5OTk5OTk5OdrOTnfk5OTkZycnJzvycnJztycnJyT1FEhqdRycnJycnJycnOPJzhyc+xyc5082L7F7a3eLL3WGpFyjSZ6PQiHMVh3m2NWqNKd/L5W2pKun+Ri2a4I6r0/lazYsV7TFisfOLxYsVj5xeSz1H1TWmv9ijGPZbPF5VZKMo8ohLq9h5L2dWfTHjuQ0+lW+4vaeLY/UuyE7wftsXtMX2L2148JihwtmL1PwK8NV21EXCrDT+kulZofNPUntq8T077GtqppqJo/Qt9RVKMqO+Tyjj5xeSx84vF9hYrHzi8lj52+H5c5fv7DFvKUV3Ypxl2Ytp/05Jrt7D9/wCrW/gfba6PVQnm8/p1cHjZ6yvhWLXf6kJ3uxe0xfYss1eYNEfpW0pURnFl4dtVtiksJdcO3Y6NSf1Pg0FWn/vaUVJUzUhFRVLyR3n9L/g0f7ayYsVj5xlksfOLxYsVj5xeLFlL6X/B8P8A2lv1ynq8fSjS1XKc0/GD3bpNmnHr+eR0Ru6Ft8R/a/2af0R29aN9mR1E99XU6aS7slpyS6pPk0m3G/eg/wCpIe2p80oxOlUazacYrZzSPU/YW7Jz6EVqvuyPV53RLnXS9hmtLnpIvpJdU+0SKpJe8xfYsooooaFBFFFFDij00UVtJ0uWPX/xRoOXTtyTi2hbckvWlxRFdMUtuTna2Payyyyyyyy9rLLLLLLLLLEX7LxfYXbFY+cXixZVZp/L8r21JfJKhTjCCrufDLmbJOotmn1PTvyzRm5J34Hvrf22Q+lbLb4ntGP5ZVJLb5bPk/bd9T1pUelJv52LjFezKLU+pDmWST7o6pf4kVerb2UVdkvnnS7LBn/qq9pz6Itmn1ONy2RpcylLfpZTx/8AWlYqxfuL7F98WL2pxUlyRikqo0fpa/fBYvvi8lj53ooZRRSK2ooooo8lbUUNFFFFDQjkpnJyKzk52525OTk5Hhe1lnUWXtZJRkdBxR1Q/TE0XSfA/mg0Vq9PSjTioRo1X/Tkaf0RLHyqE3Hwer/0shfdnUkfXqKXhFlj005WzoghUWO4zbR6sfyepH8llllllllll8ll7WOjgc0j1m+0SDdnUSfys05xiqOtMnPwu5HhDJryepL8ElKVdQpFj7EfliWdR1y/BbEyyyyUb5KmiMpeUWdRZZZZZZZZZZZZYvsX39vzixCjV4LHzixYrHzi8lj5xeLFisfOLxYsVjquoSNH+1HDW56V7NFYVs4Q/BS2pFbUUVv5woZRRRpo4Eilt0K7yret6GUUVus6zooYvsX3yWPnF5LHzixYrHzjLKOPnF4vJY+cXixe1KKfDEqVYPJY+ftXhGNN7L2mLF5LF+2xfY+cl7TyWPnFixWPnGWSxXf2mLFY+cXixYrHzi8lj5xeS9p5L2mL7B5LFi+xZXsc7NtJsi9eauxet5a2vayyxyruWJllllllllljYiyyxtLyKcX5RZZe3nGWSx84vFi7YrHzi8XksfOLxYvaeLF7TyXtMXtMX2D+yffeXGsv32YsXyab6fkeDw1vo/2L6V/AsfOLraiiieipOz0dNj0uhWmafzRTKKPJRR0lDOkooorfk5ORWcnJycnJyWy2c72WWWWWWWWXyWWWWNllossbLLLL2W9lnne9nixe08WL2nkvtWL7B/ZPvvqf3IbMW3VH8l7z/uQSwey21vo/2af9tCx84sWKNZ/Kl+RV2384yyWPnF4sWKx870UMpFIooYkUUUUJFFE2ooUtS+VwUUUUdJRRRRRRRX7lFFFFFFFDRRRRRRRRRRW1FFDm/BWpat7UUVskUUUVhRRW1FFFFFFHSUUUUUVvRRW1bVvX2b77y5147oas9KH4Krafq9dRIfJP5u7wk6ViXqO32Jaco8w21f7cjS40yLX53ty1kk+Ft52k+mLZGOrP5uqiF1yPaet0ukrZp6imt0amn1mhGpzvvv5xeSxWLxeSx84vFixW8F1vrf8Arbzi8WIkrRGVPpe6xffF+zN3LpQoqOax84T6q4OvUXcg7XtP7F/ZPvvJpa/+jqj/AJIc4/lC2Upv9GGv9Kf7i7b6v9tmmqghtI0rlryl4o1f7cjSh6nfsS0+nmJF2kUaUJN8MrV/KFe2v9K/di4S2ZOXTBs0YUrfdmq61Pl3W010S6xO1t5xeSxXtPJY+cXi8ltqv5H+5FVFLbyLUi5Vg8WLbWXaX4FylnJ1ydWq+UuCEuqN7vJbw+p7MlOXaJHr/VuxY2erH8l7yVo07U2vZ6pyfy9huafO71EKa91/Z2WSgpd0ejp/4ihCP6S9rwmuqNEe2811Kj+olSOhy+uRGozZqLrg0af9ONMlqQ6WaSqC2049Mnhqx6oi1FXIp32W2rHqhwdWo1SjR6C6P3I3XOyJSrwS65qlEiqSW3nF4sWK74vvi8lj5xeLyW2r+j+d9ST+ld2dMNONmhKUotv87Rv15Dw1NVQ/kWopRfgi7Vraf0S/g0f7a26o33OpYS+bUrwiWrfywIx6Ypbv2fpntqOjTjSNWfRHjuQbcUyUulEpzI/SsX8+rRLTVcEVSW7F82s3+MOMNX6GR4ijWdQshzFfxskka1dUUvv/ADi/araiikUdKFpw/wASiiitqKOlFDRRW9CKe3JztycnJycnJyWy2W9re1l7WWWXtZZZY2WWi9rFj59p5LbVVxv8EZWrLJvp1bJylNPikaP0LaP96Y8NNdUpS/7Gql6c/wCD4a/T2n9Ev4NJVCO3pxu6Kjhpcuf8iio9lg/ZlGxQkjUUm0KaNS5iVLZ/1J/st46vVNxXbf6dVsUk8NWX6V3Zpw6Vu9K+7Z0JYNWhdS8Gs26WGp026fJpX0K/cff7Lzi/beS9p5LHzjLF5L2ntRRRQkUUikdKKKKKOkoooooZRRTKZTFe1Mej+5HTokn+LJrU6OexpwdLkSZ082cmo5fL/J8xyRl0fKyUp6ipLgg5JdNHJLrlwUz5jk9N33Emjk5H1Qk2ux6/7EZN+DnZ7cnJyc7cnJycjLf+A3K+wmyfV0uiDcVVCcvwak3GJoxpXtY1fg6N7FB9Tk97Y5Uhav8A0sTLLZY9RIcurUTL/bZi04rwXve1llllllnn7LzixY+cXkvaeUcfOMsXksfOLyWK7+08WLFdzV+hkeIrd9zvqr9t+mL8HjJZUvx7Sx87T+pbsRKHVX7ey/apHRzl5xeFfaecWL2nksfOMskXh5xeLyWz1HHW6fG/nF5R7Yrvj5xlksVi++Msl7TyWc43W7y84v237b+48llll737LyWPnF5LHzi8WLFbfEr6ZC7Lbzi8liu+L74vJe15xeS9p5L7BYv237by8/ZedqKK3oooraiitntW9Cs5x5OTnZnJbOSy3vZZZZZZZYyyyyy0JllnUi99dXBinOaUUS0WlanyaGo5LnF5IWHnHzi8X2Fh1L8ix84v7B5L2n7b+2YsfP2XnFi9p5LHzjLJY+cXvRRQt6RRa/JwOPAtL0laJajriLNDScVyUUUUPaiiiiijk5ORHJycnJycnJycnJbLf4LZycie1nVKfC7Cgl4LLOo6iyyyyy9rLLLLLLLOo6iyzqLLGyyy9rEyyyyy+Syyyxsssssvayyyx7WWXvZZZY2WWWXveDFtf2vnF/YrHzi8WRx/Vi8WLeesu0eWLS1Z/U6I6ED0V4Zepp9+wna42ffGQsVisfOLyW2q6gyCqC2ReHneXEWR+lD2nNR8C1IP3XtWCKzooe1FFFFFFFIXS+wyiiitkUUUUMooooooooooaKKKKKK5+y84sXtPFi9p4sjj5xfjFi21Jtvoiaekofzst4/09Tp8PbzjLF9hdsVj5xeS21vpX8i2dzn0+DpWnFtGlPrje/nef0sh9KHtRPTTNOXPQxixWLxYvaeS3atUPSceYkJ9XGS3tfnZ+2/uPOLF9gsfOLyWPnF4sRqS6YNnw8Kj1eXut9fsn++3nF4sWK84+cXixba30EXcVto/r/kfk+F7T2uzzhp9h4T/AL8RiwfCI60XKq9pi3lJRVsvVn24RCcuvpeLFj1L846nyakXkttSX6V3YtCNfuJ9M1Ee0JdSJzUFbE7Seb+487UUUM5OTk5OTk5OTnbk5LZyWPayyyzyWWWWNllllossstF43s8WI+K+hfyR4iv43W+t2iv3284yxYsVj5xfsd00RuHDOuIrttEpt8JHw6pS20f1fyeS0t/p1GSlLUlUex82m1bveHz67f4Ht6vNJEW3421OXCJKKq/waMnKFsnLpj+50arXMiDkp9DyYt1/Um34W1ck9To/kg2421tL1ZN1wkaXW5XfGLcp/S6Q9GPS/wAmjLivOHxH1aa3fqXwVP8AOEf7ktou/iXt4Iy9Pho1eufjg0vojm/uPOL9t4sXtPCtkUUUUtqKKK2oooorb4lfIv5IcwiUVvyTV6sEcnJycnO3JycnJyOxWWy2Wy9rLLLLLLLLGyzqRZY2WWWfKyoiHKf4NF/UWaT5kjyS+bW/gss13xZCcIQQurVkm+xaJ6qql3NKKjEYjjefhruT1JuNUaa6YRW1kPn1XP8AGT3fZnw/9v8A3s5dMWzTh+p92a2pUoRXe9mrTRp2p9GGtfRwLUjGFUXOfZUQh6c8Irr1Ov8A7budHXstpRfeI/Wf7GnHp1ksJK0af42WL+484v23ixe08o4+cXi+wuxrK9OR8O70t1vp/NNz284vFixWPnF+Ct6GLeihbacKcij06m2ULTV2dJ0o6Ynpw/BSOlHRH8FFHQmKEUdJ0jSNWqX8lI6TW4gRkkqSYrfg6Siiiiiijplpv9j1EV1xPR1P/k4HpdOpHkokpvhMjpKA+FZCM+7f+iijoEhxsSKZKMn5Kop7dJW3JyO0ep+5B/Ne3JyclHJycnJzhycnOy7/AGXnF/YPLzi8liu+LxYh8po+HdSlE1dbor99ltqy/Qu7Ix6Y1t5xeL7CxWP6sXi8lj5xffJYTj1IloxRGFbNJiSXgffF40hE1J9nRLS+dfMKH77MavFe0xbUmdEfwiCXOaxf3HnF5L2mLHzi8lj5xfjFi2fyfE/yan9T4hR8bInNRRpwr5n3384vFixWPnF98XksfOLxYsZK17TyW0fm1ZP8bvJe0xe2sX9x5L3veyyy9uosssssssvey0WWeduNrHksfOLxZP1KXSerJfUjXlF1JM+FVyctnNRIQcn1yw84y8YvsJ4rHzi++LyWPnF98ZdhYr2nktowUb3f2K+wf3HnF5L2KK3o6SijyUUUdI0dJ0lFFCKOl/k6SntyU9uRnJycnJyKzv3JfD/g04enGjkUJPUcntb/AAXIsvkssssbOo6jqOobLLOo6kdQmWWi0WWWiyyx0WWWh6+n/kP4jT/J/wAnT/cWvp/kUk+z2tCZeHnF98XjYi/ZeS9tY+cWL21975+weLy846mpCPdnrzk6gqPT1v8AI9PX/wAz/wARH9z1/wDJUQaa4ePnaUmtSK8bvFi2tLux68F+5/yY/wCLIasX5x84vGXbCihIpFIooooopFFclFIl88uXwacND8Hpw/xPT0/8UPS0n+kl8Mv0OitXT+q6FGElaFAraiihuMfJRRRXJW1PZlPaintzvyUzk5OTk5HZycnzHJycnJb2tjOS2cnI2yUmkKRZZZ1cllnUWWWWWWWWWWWWWWWXte1l7WX9n5xeLlFd5I9SUvoiNfEfk/8AEr9z1pL6oEdSEuzHkhtLuxNPs9/O7dDnOfEO35FoxXfk6I96wlCMlyj0pQ+aBp6in/OHnbWX0P8Afd4sfxEV25Fqa8u0aPQv65WLTgvB0x/B6EZHVqaT55RCcZ9nv5JSUe568COrGXnZ4OkuSeu39KP6j8sjpTkr6yteHmyOsn34e0cfOPnacnqPoiQ0Yx78vaUi1+S4nUd+5KL0na+kg7VrdbTnXC7kdJLl98POLwnLpQpKStCx84vDqnOVROif+ZHF73vPmDIfSsNTT5tGnO+H3xWPnJFb0PCtl9l5xe89RR/k6dSffhEdFeRVuyehCRepovnlEZKStYMb6YtkdL1Pnn/2NRw0fo7vfzu/6suldkJJcIePgXY1tP8AVHuac+uO/nbW/tj1Iximxa0B+MdSTm+iJp6UY4oaTJ6Lg+uBpz643t+olz8Sk+x0x/A9GDkns/GEpPVl0x7C0oxW1bS0oS7j056f09jS1VLjzjOfRZHSlLmcien0LqizR1fUW3k1pfoj3ZCMdOP/APSWv/iXrzX4PQn5mf8AGT8s/wCNNfTIUtWP1KyGrCQ+zI3pPnsyxbw+bVlj5xe1x/Ozoi+ibQmXh5xe+q6iQj0xS2Q2l3FOL384sn9DNP6cdT5NRP8AOKxbPUhddSxWLyX2XkssssezlSs0IptyZZYt72kk+Br0dRP9LFuxx6otHpavb1ODV0YxUP5387a0qh/Jpx6YLZ5LZfJ8Q14e/naSuLRpR63cvBKEWnwaTuEcNWdUl3ZGHRH9xdsY+d3/AEdRPw9vJq6d/Mu560l9USGp1fp2e+vKTktOJCChGkPLU0r+aPc0p9cf3w1a9VX2HqQ/JKcprpgv9mh/Tk787Tkocmgvq1JeRt60qXYWnCO0sNTQT5j3IajT6Zko9UDQlacX4w0frnvLUfVUVYpWrJM0eY/7HKKq3uzVfCS8i0YKt9dcoi17T31OZw3tJWQj1fNIcF+CMk3XnaWrzwiEupXgyf0Mh9CHrR8IjJPbya/eKwcqIyx6Xqyt9jU0oQja7kL6Ve1liZeDyX2S7lFFFIaKNf6P9kIJRSOk1Xyox7sl16UlzZR0lFFGpp9UWj4fmFX2KKKEiien1ISlXJTPJTNZNvTX7jTORqWrLvwejqR5jI+HlOUZW/JycnqfO4is5Ne04S/c5OTkt/gtj64yuMeGN62px00iMemKjtZZ9XxH8DOqkRXqfNL/AEdKh8yNLV9SN0WJrks6jW+bTZozuG1lostDZY5JJs+HV9Wo/OzZZeCF8nxD/Dw6Yy7npaa8HBS21/m1IaZqvo0jQjUL/Psa2mpK/JoT6oEl6etF/nCuifUhSi+zG/lZpJU2a8uqcYxGuaPnh2VkYynrJy2jJSGd9X+No6j9Zrxtq8zSFpREkvZe+qvpYmntqL5RakK7ktVeOT4dfVIZrOK4SNFfJjL6GR6tTjwKKqqNWoNVvBdc3LDg4w1r9NkJTfYWlzcnisXkvsl3w1Ovp+TuL4hriaFKLXc1v0/zvqdS1OqiUZS+eQuy/jZzojJSXDH320fl15R/O7Fj521fr0v53hJR4bJ6vVxD/ufDfR/vaT6VZpp+rf7C2+J7QX/Vuu+LJdXS+nuQ1/E1T27fEfyMkr05I05QWmuTU1OtNRXB8NH+kh/S67ig4zjzy2UUNcM+G+mX8nnaijgaVlHxP0JfliikkjpHq6d0LpZSKKKEj4mPyqX4FykyiitoakZeSiiKv4l/sj4n9ESqS2+bUffgXVpupPj8787cmlcdSUT4hPov8EG3CLOdkPSOl1R6Mv8AIjGtUvkuQoyjNuu5dJmhdN7O4zs6qNG5arkWQtuUqJ+o/pRGHSWyyyyyyy9rL2qux8xH9x+n5R16XS6NF/K/5LGo2TqPKLLWHZcHqS/AoK7lyy0S5YqS3ZVkVRZZe3RT4E/aeS+yQ9SH+R/yIfuevD9z/kR/DJzhLwOk+BQl6Vmm7gnsyc5tfSR6uLNV1H/e2h3mPbR515y2etBPk9bS/wAiMo/lFr8rb/ZqS1IT6k7Rp6kZ8p7fEL5U/wAMXKvacIvuVBR4Ph2uh/ztKHUP+9//AMkdtT5tfTj+NndcClrX9B6mp/8AGdWr/gXr/wCKOrW/+Mc9T/A9Wf8A8bNZ9XeJ8Ip832NePCkvBfVCxD0dNu2jU6I6ckjQ/tx20/m1JS3/ACfC/TL+Tzhr6TlTTI67i0pCdnxH1aX87arrTkyGnH0lfk/t68VF8bakdVdUus0pdcE9omt/an/Bo/2o7S1Ix7i11+D11/iyS6uVEhOSXc0p9cbNP/zGoa/9zTGazrTILpikfFv5VHzZH6I/xtd7M/8A9Ef4Nf8AtSNH+1DeOC/unneStUJUhlJnow/c6Hfyso8ZecXktp6cafBorgrZw6u/YpF3OkuChiK2rbyUUUUUUUUUUeSiiiit6KK2rFfZVYtHT/AoQ/xR0x/xRS/CNZrslyQ0V3Y1ao0X0uUHvqeP52nHqiP15fLRCHRGjyak+iDZ8NCoW/O3RF+CWjpvwf8AFgf8Vf5H/F/6z/ix/wAmP4ZJfUR029T5NmupNGi3F9D21VaoXw8a7mjFfNu482IclFWzQjbeq/O6xfcb4FpOcuqRVFWqOdJ14F2JaSk+5PRioM0voRO+h0aU+hV0id+NtaXTps0Y9OnE/J6Uv8z0p/5Hp6n+Q9PV/I4S1JUiEOiCifERvT/ghLqimSj1RaPS1qrr4JQWnq6fImasHONJmi3zB+Nka7rSkaH9qOzjF90JR/G03S47noX3FFRVIfy/E/yj4mPyp/gjLqimTj1wo6dXhdRqaXS48+dp8wkepKOn0qPJ8Pb0+Ri5+J/hHxH9qRpKtOH8bMjgk/UP1YyFgxezYzgtF7WLeMVHFKtnl5xYsfOSxZZeC+xYsVpqL31Yc9S7kJ9X87UniyX9fVpfSsGLCUOp8silHtvqafV/JDV/TLuSxfY6lGNtnOvP/oWC74vvjqR6o0Qm4fLLZ9mRXTGto9t9X+rqKC7Lvt5wfKoUVHtvH+lPp/S9tXrr5WS02tWHUxJInPpRoQdynLyeBGu+uS04/wCxKklusfiFzGf4OJL+TSfRNwZE1PUddJqQl8lvyKLXnZpdLND6P9kuE2fDJvqn+T4r6Ev3F9K/jdbXtZfzHGDFgxfYJY+cX2Fl1FnUWxtie1sv2Fi8l9ixFFFFFFMplMnpeU+T1JLiZHlFM5KZKaj3Y5aus6j2NPT9NUcnJzsrOTk5OdrZyWTh1eBvUg+VwevD9z1ofk9fT/J/yYfhj+InL6YMWjOX1iqKpIsssTOo6iyx9y0WWdSGxqMlTPm0vNojqxkWWLbU1v0w7mjpqC/d7ecfO8oqSpik9J1Lt+R8k4XKD/GOpq9CpdzR0uldT7vBYyV2jSfS/Tl/o1dO+V3Rp6if8lmor6f5L3iqNafqPoiRj0xSNR+rrRiuywWPnFiwYvaeSx84ti9pi9i9mLF5L7FixeMoprk9D8So6PiP8jp+J/J6Ws++oR+Hgu/OTF7TOiL7o9DT/AtDTXg6If4j4Qu2K2rah99qKKGUUiWhBnozXZn9ZeCtZi0Jy+qRDRhA6SiijpOko8lFHSOCkqY9KUfokerNfWj1ofk9aH+Q/iF45Or4jU7Kkaeh08t2zkpnJ8wrOTk5OdtXTc1+5DVkn0zJ6Ur6onryj9URakZFnUP4iKJa09TiESEPTiT1m/lgaOn6a57nV+xZZZ1HWtrLLLLLHspFllll72LF5La9rPOS9p5ecl7a+xYsX3yWPnF5LF4yFisX3xeS9p98Xt0x/CPTh/ihKK7IfYWKx87ShGXcrU0/3R16c+49DTfY/wCN/wBR/wAaPlsWjprwPU04I6tTW7KkaenHTXHfGUlGNkYT1OW+D0F3Unv5xZO1EjzHbjyceCijjaiiiiihooopD1YWJxZRRRRW1FFFb0UUymUUymUzk5OTk5OTnbk5OTk53tlsvayyyyxfYsWPnFix84vJYv6sWLFY+cZZLFY+cXixYrHzg9OD8D0FfDo9LV/zPS1v8z0NR95Efh4LvyPJ/PqJfjFd8WS+lml9OzSZqab0+Ysg7SeKxe+s+KIaaiux0xXIsfO1lljFhK/B6koy+bFiwetH+SOqpPCxi9tfYsXtMWPnF5LF98WLFYv6sXixYrvj5xlixYrHzj5xeWh9ct5yd9MSpw5ciDUuVix9jR/VvrfQzQXye731v4Wz2U4Ps8POLEdSfnBxUjRbUnB4MW+q6gQgoo1a/wBi7LBi9p/ZPbk5OS3hyXvZZZe1llljLLLLLEyyy0WXyWWiyxsstFlliZaLRZZ5xe17sWKx84vF5LHzj5xeS+TU/nfT/uTbNfUUvkXJ8Mqg/wCTVb+X+SclCNkJdUU9meD1XBtJHqTj9cRcmu/lr8kFUUT6l2R6k/MPbh/e1NmaltqC8npJLgW07r5e43rrlmnLrjeDNSTVRXkjoKNO3eMv/MbvWXhWepJ940Lf4i+lfyL1ZeRQ5+wYvsWLHzi/beS3oo8lFFFDRRRRRQkUdJR0lFFFFDRRRRRQkUUUUxWUzk5KZycnJ8xyM5OT5jk52tnJbLZZ1P8ABZZZfJZZ1HUWdRZ1FjZZZZaLGlJHzx7Ozq1H+CWlF+TohCLo0fpf8k49UTUi+LYqSW3UuqtlCMZN92SjLUFSVfg+ubez1Ip1yKaftyuGr1eHsztqp7fDyuepvOPUmjTfT8jwZLjVi3lD59dvwt1GK7IYt5RUlR88OD1P2FO8H7bI/YsXtMXtPJY+cXksfOLxYsY93j5xeLyXtecXhxstqQ5peGTncezNK67FDgpCjRLiLNOFFHSdJ6cTpSKOhHSiiiimUyt6f52cb7npSX0zKnXLHDqQ/h7/AFGlHpnJI+Y5HLpIdU9TqOSE5OcznaUepH9aP6bFLVf6N9ST7JcmlHoRZY/Vb8nTP8kSzqLLKj+D5V4LLLwsssva9rGxfYyF7TFisXixY+cXksfOMsWLFY/qxeLyWKx84vFiw1fpNPssGryft+c5LUvh8GmmtWV/jd6UZTtnCW0IdN/vs/bftUVvRSKKOkoooaF9jIWPnF5LF5LHzjLKOPnF4sWKx84vF4sWKx84vFixWPnF5L2mLbp+e9/OL9uXtsXtMX2LEyyyyyyy0WWMsssssRZZezLLL3ReH6sXksfOLxYsVj5xeLxYsVj5xeLyjj5xeS9pix84v237bF7TF9ixYVtRRWzKKKKK2ooreiiiiiijpKKKKKKKKKK/cooooplbUzyUcnJyOymcnzHzDs+Y5PmOTkRycnO9lllllllllllllliZaLLRaLLLLRweSy93jqaqXC5Zp+q+ZdsVj5xeSx84sWK7/dv22L7Fi9p5LF5LHzi8lj5xeL7CxWPnF4vFi2pFFCKKRSOlFIo6UUUM6TpOk1HXC7kNJRVvuVtRWyOTk5OTk5OTk5HZycnJycistlstlllllnUWJllll7WWWdQ2WjqR1HUXk/bYvaYvsZCxWLyWLxYsfOMslj5xl4xYsY4+cX3xli+wu2Kx84vdulZox6m5sfYWKx87uH7ik4y6WPJY+cXhRW9FFD2pFHSt6KKKGiijpOkooplMrZ7cnJyc7cnJycjI/YsXtPJYvvixY/qxlksfOMsX2F2xjj5xfdYvF9hYrHz7Gv8AQaarTiMQ9WCIzjLtusfJ6vPbjfWXCYncVk9WESOrB+cPOL9t+2/bftsX2LFvY2krZCcZK1i8l7TFg5Jd2ecXlHtj5xeLF2xjj5xffF4sWK9p760eqBozTil5GazaikvIoQ042+58PblN7dXzdJ1Jd3jrMS4W+t9Bp/QsdaXTD+SGlFI1YwXbuad9Kvfzi8lixYrF+2/bYvsZFFbSnCPeQ+vWf7Hw6+T/AGUUUUMooorCmUytqZycnJyclM5KZqQ6otGi3JfwcnJycjs5OTk5ORWcnJztfJbLZZe1llljLLLOosRZZZZfJZZZZ5LLLLGXg+wsV70tFPlcH9ZfudEp9+D0F5kzR4lNbShNSbj5Oh9cer879S6unbVRF2i9pf1NSvCJx4oWhH8kY1v8R+gWnJ92R04xw84v22LFYv23l5xYvsWLbU9aUn3oUa7og4uPymjFxjT/ADi8li8WLHS415r84yxYsfOLxl2F2xWPkrB99qKKGUUUUNFFFFFCKKKK2plM5K25OTk5HY5NI9f8I05S9TsfMWxo5/BKTSNNPmTRf7H+jofjgiqJTk+IpkEorsTnXgWr/wBJ1FlmquqJHVruetD8i1Eyy1teD9qxixWL9t+2xfYvDX1I/T5NDT6Vb7vJ5I1JqCti1NV89HBGalmxYz+X4mLHKK7sWpB/q3llHtj6+n1dyMoy7PB91i+2SxXfH9WLxfbJYr2ntS/BD+7LdbNW9/OLyqP4OiP4KRRSKVlIoooaKKOkoooooooaKZTOTk525OTk5GcnO172WWWWWWWdRe1nUWWNi+xe+rrfph3NHS6eX9WyxeSJ/wBTWUfxtLTTl1GjKS1nHwPvixY/ELz+DR0/VfVLsejp/wCJBuGp6bf8bSxYu2HxLfyxXkhpQj4FCKlawffGXYWMe2K74+cXi8livae8PqnsxY+cXixe08li8li8l3xe1FFFbUUUUNC+xe2tqu+iJp6agv3OqP5R1RfZoWLyRp/357T1q4XLNGLjrc+R98WLGS6rRodMYVZPVhH9zTjKep6j2eL7Ee2GtH6ZLwQnGXnF98ZdhdsY9sV3x/VjLxi8WLFY+cXksfOLyWPnF5LF5LF+2xY+cWL7GRyf8aV2pH/Gn/mf8b9z/jf9RpqUeLs5OduduTk5OTnaenJvqXcenrvvIhpqPg1E7Ul4FNSLLZbL2sssssXcnpxl4FpQXgv9ixllllliZZZZY9KDd0LRh+5aR1FjaLR1IssstFllliZZaL2W1llnnF98XksVj5xeLFj5xePgWPnF5LF5LF+3L22R+xkOcrqKP6v5R1ai7xIyUtli8li0rxYsfOLxZHtisX3xdFFFFbRXBRRRQkUUdJRXJRRRW1FFHO9MqX5PmORWcnJycist7XvZZZY2WdR1HUWJlossstWWi0X7Cx84vJYvJYv237bF9jIS6p1YuNpw8ruQna/cWLyWL74sWPnGXjHwLtiu7xffGWUe2Kx84vvi8X2FisfOLxYtqKKQkikdKK3ooooooooop/namcnJycnJycnJb25LLL2ssssssssstDZZZfsP22L7GZpfq/neLcNTpk+H2F/5iVfgWLyXtMj2xXfGXjF9iPbFd8X3xlj4I9sVj5x84vJdsV7TxfYX2Cx84vJe2sKGUUUUVtRRRQ0UUUUVtycnJyOxfYyNPiUlv8RXR/8Aw+GX1PyLF4sWPnFix84yxYu2K74vvi8fBHtjHHzj5xeSxWPnF4vsLFfavJYvFixftsWPnFi+xZNeV3P+RHzaH8Rf0QbI6Tb6tQ6adxEWWWWWWdR1FliZZZZe1lll7WWWWWWWWWWNlotbWPsJ8F4IvezztZezx8CxWPnHz7axWPnF4sWKxeLFiu+LyWLyWL9t+2xfYvak/GNY0UVuiiilt5KKKKKEUUUUeSiiih9ykUUUMXYoorZIpFFFFclHSUUUUUUUUJFFFFCKf5KZTOduTk5OTmzk5OTk5Od7GzqLLLLLLLLLL5LLLLwssYsVj5xYvaftvJYv7Zi+xeLFi8WLHzixYrvi/GL7Ee2Kx84vGXZi7Yr2vOLxeSyooopDKR0lFDRRRRRRRT35OTk5OdneFlllnUdRe1llll7WWWix4sji8li8vOLF9i8li8lj5xYsV3eMu+LFisfOMsZdhYxxXd4+cXi8l7T74y7CxWPnFixWLwooRRRR0j7lFFFHSUUUUyntycnJyfMI5LZbLZbLLLLLLLLLLGxfYvJe2sX3xYu2K7vF98WLFY+cXi+wsVisfOLxeLFiu+PnGXYWKx84vJYvJYv23ksXl52oooaF9i8LLFi8ltZe3nFi7YWLvvez74vsLtisfOLxfYXbFYrH9WLxeSxWPnF5LHzi8li8li8li8li/bYvsWUUUUUUUUUUUUUUUUJFFFFHkoo6TpGhIoooorko6TpOkaKKKKGiiiiihHT+50/udJ0lclMplFbUymUcjs5PmOTk5FZycnO1lssssvks6jqR1DZZZaLGyy1gsVj5xeSx84sXtPJYvJYvJYv22R+xeSxeLFj5xYsZakYdyOtFvB98WLGOPnGXdYyFgxdsVj5xffeihoooooooraihIoplb8nzHzHzDs+Y5OS2WyyyzqOrazqLLGyyyyy1teDyWLyWL75LF5ecWL7F7KerLqkjR1etO/G6xeL2U9ab+V0j1XGXTPaOpc3H8HnF9hYwj6mtJvsjW6VEj9K3fdYy7C7YT1JufRA0pu+mXfHzi++LFgxYx84+cfOLxYsVj5xeSx84UMoooo6UUUUdJ0jKK253pnJyc7cnJbLLEyyzqLLLLLLL2va9mL2mL7F7fD/R/s+H+vUJz56V3G9SPLIO1eLxZP6GaSrTia3OtFbR4+IPOLFjDrUpqL8kdGTdzeEu6xYt5XRpOdzpcmlpSvql3x84vusZYsWKxXfF98XixYrH9WLyWPnF5LF98li++L7Ee2FD2oooraiiihoooo6StqKZTOSVke32L2lCcb6ezPhl8sv5O2tf5RqNKDND+2sXlKNwYtTpjVGnb1re3prr6jzixYz0vmco9xT1V3gRnL/Dd98WeMNN9GpNPyRx84vusZYsjisfOPnF4sWKx84vJY+cXksXixY+cfAsX3yWL9ti+xezumfD30P+SUOryeg+7lYjk5Od+TkplM5KOkUX67KZTKKKZTKZRyUymUymJMplM5OR9ymcnzHIzk5KZTJafV3FpT/zFBrzZyfMfNtyXI5OTmzktlstjLZZ1FjkJnUWWWJnUWWWtrON/OMvGLyWP6sXksfOLyWL74sWLxYsX7b9ti+xez7M+Hune6xeLFs+NZPd98WLFYv6sWLFY+cf1YyxfYXbeto78FLakdKKKRXJ0nSUVtTOTk5OTk5PmOTkVls5LLPJZZ1HUNnUdSOpHUhtCZaLLLPOLyWLyWPnJYvJYyF7TF9i8li8ltS384sWK74+cZC7YrFd8fOMsX2FjHtisf1YvF5LHzi962aQkikdKOk6SuTpOkooZRTKZycnJycnJb2ss6jqLLOo6izqL5LRaL2YsXksZC9pi+xeSxeSx84sWMcf1YvJYru8f1YvFixXbFY/qxeLFisfOLxYsfOLFivbWFHko6SjpKKOk6TpK2pnJTKZycnJycls5LZZZZZZZ1FnUNi+xeSxeLFj5xYsVj5xlksVj+rF4vHwLtisfOLxYsVj5xl4xYu2PnF5L21j5xfYjj5yWL9mihi+xZZZZeyLLLLwtlsti25OS3tbLZbLZbLZbOTk5OTktlyOTktlstlsZbLZbLZbLLLLLLLLLLL5LOo6jqGy0WWixsTW1l7LFY+cXixYrHzi8WLt7Tyj7ax84vsLF98li/bl2I/YvJYvFix84yFisf1YvFkcVj52rahlFIopDSKRRSKK4EiiiihFMopnO3zHJyc7W97GyyyyyxFlotFnBZZez9vzi8WLHzixY+cWLF98li/bkL7Fl0iM08Fi8WIlqwj3ZGcZdnv5xYsVj+rGWLHqwjwevD9xNNcbrH9WLxli+wu3vvvi8ltRW1FFI6Shoooooo5OTk5PmOTktlstllllnUWJnUdRZZfJeDy84sXtrF+2xfYyJ8yjE1of03Xg0nenF7rF4s1J9EGzS0oqNvlsnFR1I9O/nFiwlKc5uMXSRpuUZU3s+Baum+L2/VjLHUdQk/2NCMelPyT6K5NCL5fjdY+cXi8X2FisfOPnF5L2n3xYsfOMskUUiiiikdJ0nSUUUVtTPJycnJ8xyItls6mWWWdRZZYmWWWWMsv2WL7GQ+NWLNeS6GjQX9KJrTcEmvyeBYvFnxC4j/JHRbS+chpRhv5xYt2fDr5ZS/J8R2SXexdkTg5Nfg1oRuHTt+rF4zVwkjRTarqFpxX74LHzi8ZYvsLtisV3x84sWKxXfF98WLHzi8lj5xYsfOLFj53oooSKKKKKOk6SiitqZycnI7F9ixxUkPTikzRfyI1+UhP5V/Aiyyy97LLLGk1TPTnH6Wzq1fKsUiyyyyyxiZ1HUPlMhOcF09Ir9VdRZ1HWlrNy/wBHqRfk8nUWWWMss6jqRY4c3EU5fgsvZFl7WLuWXu++Lxl2FisVj5xeSxWL74sWK7vF5LHzksfOLFi++SxftsX2L2mvll/BoL5P9jimUIooooe9brCjyVvRLGeooHVKWquBLbpT8HTH8HneiiW1FbMS2oooSKRRRQkUUUdJXJ0nSdJQ0yiimcjsVnJ8xycis5LLLLLLLLL5LLRZY3ksVi8X2FisXkva8Cx84sWPn22L2mL7Fi20oON3usXksfOMsv8A144+cZeMWLtjHFd8fOLxl2xYsVj5KK2oaOkooraitqKYjk5OS2cnJbOosbLLOo6jqLR1IsstHBe17MWPnJY+cWLHzixYsXtMX2LFisXiyOPnF5KKbvHzjLxi+wsVisfOMsZYsWK74+cXixYrHzjLsLChIpFFFIaKKKKKKKKZTKZycnJyc7Wyyyyy+SyyyxsTLw8+2/bkL7GWSxeSx84yF2wZHFd8X3xl2FjHGOP6sXjLF9hdsVj5xeLF7XnFixWLxYvaYsfO9FDEiiiihooorDk5OTkZbLLLLLLOossbF9jLCyxbWXvZe7YmWXtZ5LLLLGWWWWWIsstbLuWXuyy92LBkcVj5xffGWL7C7YrHzi8X2FisfOMhYr2mLHzixY+cWLHzixe9RRIX2L2oooooooooooooooSKKKK2oo6ShoooooaEUUUVtRRRQyiiihlFFHSUJFFFFMS2pnJyc2cnJycjstl7WNlllllllllliLw84vF5LHzixYrF5LHzixY+cWLHzi8n7chfYvJYvFkcfOLxZHFd8Xi8WLGOPnHzjLFiXBRW1CKKKOkrkor9yihopnJycnJyclstlsTLLLLPJZaL2eUcX3xYvakLHzixY+cWLF+3IX2L2nq06StkNRPjzuvZlJRVsUtaXPFGnO1++PnGWMpak21B0kdctNfNyhO1e0tdLiKs0tX1L47C74vvjqPpjZHTlqLqkyM+h9Mtn2ZqdceXLlkfpWMcfOL74vF9hYrHzi8XksfO1FIoaKKKOkoSKZTKkcjs5OTk52RZZZZZZZZYzjHzixY+cWLF5LF/ZPbR5lORL/zMaJNpOjS1JTbsXs/E/oR68K7M0LlJy8Y+cXjof23/ACa39lmg/wClAatUVDSgzQVQv8ke+PnHX7wjt8QvoNN/IttfTk2mjRn1L91jHFd8fOMvGMhYMWPnF98XksfOLyWL74sWPnaiihlFHSdJR5KKKZycnJyclstlnUdRZZYmWWWix5LF/ZPb5tO6VmlfrJvuTl0wbNFfJf5Fi8NaNpfsRnHsyLVY+cXj0zhfT2HCclc2aH9tbazTnCOy7vHzjrd4SPUhXc1ZddccC7bT14pHw8XTk/OMcV3x84vGXbJY+cfOLFisfOMso4+cWLHzixY+cWLHzixFFFFDRRRRRW9bcjF9izkor+uien1qrFoV+siijkrGih6UWLRj+WKNFFFbVtRW1FFFEr6XQ9LUcblI0NP5LsonoqR6Mv8A5CMX+SiiiiiiiihokoxolJtVRp9bicnpruKzk5OTkVlsstlifJZ1Fll8llllray93ksfOPnGQsVj5xllHHzixY+cWLHzixY+cWLF+3IX2LFt/wCvHde0xe08X2J/2pfwaP8Aajgu+PnFlIn9EjS+hbMWHgjisfO1FFIfcoooraiiiimKymcnJztyWyy9rOo6ixsssstFix84yyWL74sXtMWPnFix84sWLyWMhfYsWK9pixXfF4yKuNEV0xSwWPnGW0vpZpJ9Gz7YsWMcfOLxlksV7TKKKRRQkUUUUVyUUUymOzk5OS2cissssssssstDYvaeXnF5ecWLF+2xfYsWK9pixWLxYsVj5xljLFixjj5xffGWSxXtPJY+cXksqKKKQ0JFHSUUUUUymc7cnJbLL2ss6ixss6iyyzzixYv22L7FixXtMWKxeMuwu2Kx84vGXbFixWPnF98XixYrHzi8lj5xeSx84sXtMWK771syjpRR0nSUUUUdJTOTk5OTnbksssssssssbF9i/Y5Od+Tk5w5OducOTnbk5OTkdnJycnJycnzHzHJyeTkva3tZZZ1FlllljEyyzqLEyy/Y84vFixWPnF5LHzjLFix84sXtPLzi8vOLFi862ooaF9jIWK9pixWLxl2FisfOPnF4sSKKOlHSJHSdJRRR0lFFHkpnJycjvbktlsss6iyyxMsssva8HksfOMslj5xYvaeS74yF7TFi8lixfYvJZ+o3Koo9VRfzbPUhbjfIpxvpvnFd8X3xnJKLI6s32iLV5qSrCOK746s+hC0b5k+T5tPza3eLFgxYrvj5xfjFi3rZIpFFFFclFFFDRRRycnO3Jyclsvks6iyxssssstCL2vNi9p+2xY+cWLF98ljIX2MhuotkdTVq6tEJ9cbNTW6HVWJ2rFno/qPifpRpqoR/gUktRtkp/wBVSWKxffH4r6P9ilBQXPgnL1X0xW7I4rvjr/VA9SH+SNTU6/lihLhbPF9hYMWKx84vFixWPnF4sWPnF7UUUUJFHSdJRXJRycnJycnO1lllllljEyyy85Cx84sWL75LFi+xZq/22OSWkkvJoKoV+49OMvBOPp00yPbP6HdGpP1JL8HBqaUZeDpI8xi/2wWL746seqDQ9Gcf3Rp6qj4FNPZixWOurohCEkRjGPZbvF4sjisfOLxeS9p4sXbHzi8WRx84sWPnaitmUUdJR07UUzkp7cnJyclvazqOo6iyyyyyxl+0xfYskrVEdKJoPiX8ktan9IuubtrgW17WWWWa1dS4FwMlFrwLiK2svayyy9rLL2bLP9CossTOos6iyzqOotFnkcGncXRFz8lljLL3fbFixWPnF4sWKx84vFixWLxYsfOLFj5xeSxftUNbUUUUUUUUVjycjF9i9/h+0v53WFYaun1VWzFisfOMhbVsxb1skUUUUeSiiiho6TpOk6RlFFMpjs5OTk5ORHJZZZZZ1FljLLLLHkvffYXtPFix84sWPnFi9pi9pix85LFi+xe/w/aW69p5LHzjLFixWPnF98XixYxx85UUUUhlFFFFbUymUznfk53sss6iyyyy97weLF7TF7UhYrGQsfOLF7axYvsZC2Srde0xYrHzjLFixjj5xffF4sXbFYrv7TyXtPOiiitqKKK2o5OTk5EclssssssssZaLL3WLyWLF7TFi+/tsX2MhYrHzixYrHzjLFixWPnHzi8WLBkcVj5xeS995LF4sWdFFDOlHSUdJ0lFFHJyM5OS2WyyyyyyxiZaL384sWL9ti+xZZZZe9lll7WWWWMsssssRZZ1HUeSyyyx7WWWMTLL2sWK74+cXjIWKxWPnF4sXtPvixYrF4sWPnF+28lvRQyjpRR0lbUUUU9+cbLLLL2ssvZi+xltRWFFFFbUVtWFFFbUUUijyUUUUPaiihoSKKKKEiiiitqK38nJycnI7LZbLLLLLLOosRZZZYsfOLxYsfOPnFixWLxYsfOL9t+2/bYvZretqKGhfYyyXtPJY+cXixdsGLFbNpdxTi+z284vF4VsiikUUJFFFFFc7Uymcjs5OS2c7Is6iyyyyy9vOLyWL74sXtPJYv237bF9gxfYyOuTdRI6y7PBZy1JdXTA6dX/M6pR7l2hYrHzhc9WT54Jw6f1Gk5vv2wkLtgyOK2r1dWXPCJaMatcGg24cnn2pCwYsVj5xeLFvW9FFFFHSUUVvzjbLOosbLLLLG8vOL9t+2/bYvbWLF9jM0u8zVj/US/O3q11WQn1xsWabhqy/k9ZLwyTlq8JcFUliyOPnDT61JxPSXliWDFgyOMR9maE1BSPn1e/CElFUjzj5xlixYrHz7TyX2CxZRRRQ0UUUUVtycnJyM5LZZZZZZZZYyyy/YftsWL7+2xfYyHB94ii1rRcvztPSud2aPaX8i2va99SPkhqR8nVH8obQt7LFtZe3nDUhz1Lueo/J1i3kLBixWySjrvfzi8ZYsWKx8+08lj5xeSx84sWPnF+xRRQyiiiiiimcnJyOzkssssssssvN+2xfYyKJr+rEoojFqbQiiisKHpwfg9CH7npxQkUUUVtRRRRXJRRRQ4I6Sitmc7cnOyxW2rFy58inr/gj1XctrLLLLLLLLHte7FisfOLxeSx84vJe0xY+cX7b9t+xRRRRRRRW9FexYxfYvbV4nB4L2mLFe0++MsWLFe1XJRRRQ0UUUUUVvzsjk5LZZZZZZZZZZZY8l7TyWPnFi9p+2/bftsX2D+ye0oKVXgvaYsViu+L74vFixWKx84vF5LHziyiiihlFFFFb8nO97WXtZZZZYnj5xYsfOLyWLyWL9ti+wYvsXkvaYsViu+PnF4sWDFisfOLxeSxWPnF5LHzi96KKKKKKKw5Od7LLL2ssvZ+28li/bYvsGL7F5L2nkva84vGQsGLFY+cX3xeLFivaeSx84vJY+cWLOiit6KKK25OTk53sssssssvZi9pi+wkL7FnO9DEUUUVhRW9FFbIpnJT35OTnfk53ZZZZZZZ1FnUWJllllix8+08WLFY+cXkvaeSx84sXtP23nRRRQyitq3525OduSyyyyyyyy82L7FixXtPFixWPnF4sWKKKKKEUUUVtRTOTk5OTk5LY2WWWWWJlll7Iv2XkvsF7TF7T9t+2/bYsqKKKK2ordi+xYsV7TxYsVj5xffGQsGLFY+faeNCRRRRRRRRW/JycnO1lllllllll5PFix84v23ksX7b9t5P22L7F5LHzi8WLFY+cX3xeLFisV3x84vFixWPnF4sreit6KK2o5OTk5EWWWWWWWWWMTxWLyWL9uXtvJ+2xfYvJe08WLFY+faeLFisV3x84vFixWPnF4sXtPJZUUUUNFFFFFHJycnJb2ssssvayy9n7b9ti+wYvsXks+Tk5Htztyc728LLLLLLLLOovkssssZe17PJYr2nixYrHzi8WLFYvFix84sWKxeNCKKKK9nndsssssvay92L7Bi+xeLF7TxYsVhW1FFFbUUUUNFFFFD25OTk5FtztYmWWWWWWWWWPF5LHzi8WL32LHzixYrF5LF+28KKKKKOkooSKOcOdrLLLLLLLGxfYvJe08XksVj5xeLFgxYreijyUiiihoooorfk5wtlll7WWWXkxe0++LFj5xeSxftv237bFi862ooaF9i8l7TxYsGLFY+cfOLxYsVj5xffFiwYsVtRRW1FFFbVtzjZZYyyyy97w84vJYvJYv22L2mL7Bi+xYsVj5xeLFisVj5x84vFixXtPvi8WL2nixe3RRRQyiiiituTk5OR7WWWXtZZZfuP237b+xYvsZF5XteFll7WWWWNllllliZZZZYiyyyzzj5xeLFgyOKx84vFi9rzixYrF4sXtPCitqKKK2oo5w53ssssssvJ5ecXk/bYvsXkvff3TxYsGLFY+cXjIWKxffF5LHzixe08WLF+2/vH7bFn/AP/EACsQAAICAwACAwEBAQEAAgMAAwABETEQICFBUTBhcUCBkaGxwVBg0fDh8f/aAAgBAQABPyH4mOhfyv8AkjaCEQiCF6IXogQiEQiEQiEQIRAgQIECBAgQIECEQiEQiCEQiNufDPzx8sYhfBGOEYjfhCGmC6OyBCIIRCIEIhEIcQINIhEIhECBAgQGkIQIECBAgQxZXBfwOv5y/wD35OFS3xOvjU+Tp/8Arg//ANJqV+M6/wDyZhf/AKfP/wCaoU/nGn9c6+Qv/wBfn/8AFU+QU+Rrov6KIYhJAlEkoknMk/zL/wDcn5gXxOvj0KaSSTmR/wCJGEieaRIkQyGSIZDIHcO4dJEiWSJEiRMl8XPgRIkCJAgQJRAgQwgQIYSiUcOEnCUSiRvEkkoknWSSScTiUcJRJJwlEkkkkkogQJRAgSveECBHJAkgQIECBAkgSSiVhKJJJRKJRJJKJRKJRJKJJJRKJRKJRJKJRKJQ0OtiCSUSiUSiUSiSUMMSiSSBKJRJJIw3CVhOJ0DU6wkR/FzMk/x8OHCEQiEQIRCIECBDFEiRxhpnkSJksJ5r7j7z7T7dAYzWDB+0+0gxpK+wTH3EsH3EyWCZMn7J+yR+8YJZl8LUj8VeW/SMJ4rMkTwmSzTEJ6SZPPPBLLEsJEyZMkTyQyRImSJEiRIkSJEiGQyGSJEhOJQR/Cx0SIZDOnTuHcOkslk4EshIlhIn8HuBHJEiQIECUSiBKJJROs55tP8A+Cn4JJJxJOJRKJRJOJJJxJO8/LOk4naThzE44SSTicyT/wDgGxdevnYtHq4R0gQiEQhAkgiQiBAQhhHe/gWOZIkRgQyBGCMbRgypJkyZM4kicCcSROCROxSerJHcIMGEwgRgQIeCWD7CxLBIkNiRImSPsIZIkSJjTJZCWBSQyGQyHhAgSIY0xMQyQwh4QyHkIEMhkiRAhiRLBDOkCGNPA0xSQyBAgdIZAgRgU4dOnTp3JIn+bYr2LR7POymjLau9aFPiedalNHRYjTz8R1s87Fo6Fr52LVfEezzq9lq9XWx2LSmxrvxEHnMDFMX8NyJDPnZ40ps8/EOtnnZT4jvWhTRl9fOxVo62edWLR0LXzohxa21d6sXxGLVau9Xsd602edi+NT+G3AbyJsc8FlJIyIZJBvhIisp6SRoVYlYex4TgsKfE860KfCe4q0dbFsLR7POymjL6u/jPOrFp4Fq71dbHetNnn4zzsp/DdjohwwmSKaIBmQQaSLG4ECRFDGh0FAUxqJXgnlI9IT0SPkbGFkaa21d7aaP5KtHWxYToWlNnnYq1tr51exXsWnjY2LRi1fxjzsYknKv+apgokiEoiGTELwUg7IlhTGhYJR7SlikZngcjTIZ0mdHI5QwYkbHSWJiWNRIaSyQoahbPHBI5ySOMR4ESJHCcECBAaRJhAgMJMkCJ5JRAgQG9Qb4J4QyW1F6gkYkknCcFkN6BJJYknI8iSRhMlhOE5JEjY2Ekskb7hORsTjUJ7qjeEskLHPdQYp/BQcXQ+Biwio+HOEC3NSEJqZQeKmJgtApDwLJDw8EigPIzKUkEmNxsQWwRThOJYWIz5IECBCFQLavoaQm46i3hCEiJEiQI7kgREEhEhg+BLhHGBHSBHBCGsIEIgaEkQIRCIOSQQsQsFWjIEIggg8kYhECbFekFhIgjDiCBCxBA7I0dCEaeSNHQtEkKCEQIIwSRCIRASIIRCGEv4umKL8/f/pP6r7mS8dY0HZ9n9/5g1GxU5+8j9jE3UJJCFiScSE2PDnfRW8DT9T4WGxDxJaCdFjdC6E9HsURUNe73CSvDGJFlfbEqPPw1MnX/ACX2LuP4QqP+0ZN58wPglJ1+vrBYd5TI3ypodZTlPpPxEJ6edi1Vi0Yno9ltXWqCP4QWvkkkknCn8NEK9YTr/Rs8ZCK0HpTsOpNuErJ504ORxR9V54X6QJsr1KFbQPy1/g9WQ9iG2On/AEiOKRcYpInEEf8AwNPR8WIJgRgZoKQ0eLxsQzXRcFFPrysW5KwX6ez/AIRp/wBDQ3pzPP8AJFmwuhKBMSy0CKY863KJCGrjr/WOs0cA9ehiVX7X4Q6Mn7E8JJf/AAgzNfp1CIS1qtHQsf8AQ+FfUCgthhJL8E93fv4N9GSScIR8WSJuIxJPFeDobHeO37hi2ErLYlrgngsLEYsb4DFwRJOFiSdE4koMJ6O9XQtEecrQeUO9W4KtfOyn8NnGQic2l6hVV/ojJMnRsdDPQCol4gQIdNNkJQUYD0v7BOR0KV1X/BU48sSgu2LABOHYfQ246n0URZ6UysRp/YQVs0osQbcZCVjvRYnnuCT9VBRm/wAl7PLh0xBzOEMCWF7Hpd+x+h020xhx12yBT978IgFC4OiBNK+CwSHXScJMXTzq8j7ifqw/4gMVW4EetSI/TEm9+WykhBvmVBshD98fdtISTpUhwxPkJlcON/QTy62QSOMz5P0KiYnzvJEyYVJB8iO3YczND/6gOnlEcHEV04JFQlxhbIKzoHWg43JWJlW/YmTPn4Gvm/DE9UPY86zhMbEMWkjCGIZ4Fqd5kTGFlsRPSRsTwfF5Q7JxOK5TnyJk6K/wIV/sPzGBQvgaPt/QVlA3iy/0FkB6btjv9T/Tk1s7dOIMTT29H5jkKIgJIH5U9nZm5VC5GTntiG83sVkCWv8Ag3JSbyRqy6PSy8h5eAtIvHSt4I+Nt6SEbeS0iEdkupjs5NIqIofZGnRv6PAqDqLqNKnv6PbpR+Cksktg6K/RCq1poEXAl+n/ANP+4iE/Z/RwgXgVm5OQKMRwSqRw86rD9herXJOk17Q9jvrkx7ic6kPRQd6M7gf3k0P/ACD/AM5Ay9chYh6R/wDArPGoPHUuhJJeBDGIuJXmmF/8Gjzcn1fiPOoPv90V7BEn9Qdg9wFw7XmuDYn9hQhvtggS0eZlNjJ8PcTDphNOnyHSfPRDNydGT8DJJQxIwgajEkk9JJJwSTwTJw2MSSiUJjITUWNr2JolDE6BoN9JJGIbQsDMkk9IECBIxuEkkiE9G0ySUSMhITicPOZWIfxNdbeIE0L0/pAE/QniJ+8QmoaGxLNJQpPrD1wl+BbCv19ZSX+Df4D/AO+DxEL6JY7wbutLBXb9jCev2NEh9XobnMIRRQ1lF/QwmV+3kdP5m/0gUJQjiNSiHJv7IHWfXtD1Nv1HOtukbEP8H55m7H2K3/oi9gC1AwaiRIclDof6F9IjUR0XWGQHSQNMlSHRzRywplEvq7El9Lg2c1I5T1OYzgXoISsLBxcNMpThPmF/wZIJTJVd0Iv/ABHr9HhDo91zUQJckJqJ3wHZHFR0XnZW3hB1TJweIgmwQyF7hCSCEI5JYG/JDGE4ihGEdIIIeCQdeggWoMTwUcGhIWwCRBA0RkeC2EDgga4JEYNEECTVC0hojpGiT+Jrqr+I62edirSmlY85WKwes/wqtZeqNxVo6E+BBBEWCWkkou7iEn5IHWUKIawLRyFIbEv/AJaW2KtHA1I1E7DfwnWzzsWqvV3qxavRDFr5zGSFo8/GFeELC/xdNVer1dbPOyn8CqtHXyVVo6+MuLShXWzV3qxarV3rQpr52LSBfExfGWqvLFiicGxZjLFoxWT/ADGmJyr1er2edi0eqdxVo6+SqtKbLa21pstq72LVXq7+MV7Fo62eSdGLdaFrHdiyj5SO/wA5UkFtSs8tr2ISR0TGxLJeDCDLLhoIjaU9BjknuSSA2SThI3lK2LJVo/4Ap8ZbV1sV4eXexV8B4d602K9i0YtXerKa+dlNZ7lZLRivYtY/nNB8Ly6LQkR37EaZYkOYfX10vWYQkxDLSvogfG/x/Z4B2I4IND4HFSavQjJNdTog8kEIUPBBIjCBoQjNIa6QyGQyA+CkhnTp0U4SF6CWS5wSyWSG2ISJ4MrCsie6g2ESBEbGwhg0E8JRAgN9yQJGQkIECAwhJAgQG+kCA8DYtSJ5JJGxMkkkkTJJJJZ0lkskljbE2SyWS8eTp06dHIpO4QOnZOncnRSdOncdOnSGdHjp0lksTJx07hT+GqFxmljtiZDaYtndqfRCKhqfsn2GNpyMHafxeX3mei1Xhhy95dSqGJ99xeczHBokGbNaHW49KeKtarR1uRqVYggcECEQiCBWdP5cEEECdIRCIEBhLhAhYQEiGECEO8IRCEsCQgQIEBEQQIEHkhEIhECcE4RokcIRBA8xhixGfOkjrZ51YWqfdizGE+6sKtVe2n8NUf8AyM4O72jluE1B7kbk+k2J9kf0Bnp6mSXraJed0iOX/wDDK9fpBLp7eFT/AESfUY0B7kI9jGX5Q3AnkhYRVQSEOhVhwXcM6WucOUZnapgmoGUJf18KtKFdVYaGfQ9fmEWwntZcy6KarSRtYMaRv1ktHlxX30RD1qXsXEo8kpIpkeaC1WrsWjFr50Y6KZWFlvNaSJqdieq0bGU0k85YnhT+HQlx9s5AnFiqfQ/J/wC+ITeSRn+eJ9eeTwuj8hCFm9meih0mEXZbUv8A9CBcRMHg+hI/AcxbDumvBQ+oRS1+h08D7w9MNSl6Ru50stYZwRZofp4Z0doIFj4MZU/URWtYaeV5R4JHh2K4fPQWaDVT9sTNMy+IQEST8CvONIRbni8w0W0iUduG/s8MLKun+kW5eUSPTISJvHS9sSollg8r3DyWhSe0UnihJZFiA2yY8MFROeAdCw8MkpZCpTEiP1SgWAJGxZbG9C/RvD/yQ8i9y+C2EQT7SJpuVL2SRIJxD4E5d6sWHhE4SXh0UzI6ESSSSNiZJJOFexMnE4WJGxYKicmxZbxQp/DT4NpZaOSscsez0STgqO/SK1pU/rKFBzIlFcgSZEeCvf6JGaT8o4SE4/8ABtRg+N+w8YZz/kdP+p9GYQoIOPL4RK/AgRgV+cUD9FBCI+eCPjst9YxA1222fQCk6GoIib6ZDJdl3Dz3BXP6cfdYdDwBIHhDif0R+xhLDd8RIjSB0vLcBIX66sJISVIkj2hIS0SfqGLPwrgifFkcOJtsVj8xkiWMmeHWLj/ISwkOE9oZ+Q9+iFRhaIyjt8X6ea58esJEDgYknCTDfP8A0KpJe8Cf8ZCa6DmqHsXGcwWnRH1nCPU+pkaGH4ppiGlk9VjwIX+Efn0IRqe4FjTVYeXerE8TidBE9KCrVPuryhng8iZOxOfOhMYtVliH/E0IIRCIQlLImWSZk/0RIC9I9iRI/wDrF6EtgC+gTryRTBKnkm4/2KQv/SQrjGiIGfOov3Azch//AAhkFaBuVoSQ54Q0ijnQgPom+rg2XUM4foeRTwl+ygShQGkPWjZIdRT7Eoz7YycGH4/cjWCDqeRJaG1jJeJ9ZHKCEy+n9IdJUtN5EV/aMgleZYkwlEoSMIL2FerEu8eQK5ak3tcBlNDSPT4PSRMCJEPD7exDhdekX9nLDt95cI97W/D/AFM0znrHf0kQ7SkdIxZjTzwqQguAhqFyDpfC7GWI89g7cEkMKGG4CIk/8SK9QsJCGNTQlyaGhwmONSThnrfocOaQf+AIqUw8MUECV7JwRIsyhtDIlEogNiZAWCU3gTRAkkgIDUgINSJKIkBtYLrBqJBoMLEgsckMGyYY3hYiQwhtI3P4dPnHWye6uKsNJ2sOhXohOzu5XWiJ/wC2QvWESmOnDgiykQVEIhEIa4dxPAiSSYqqZ4LAvZl6IKIDKWsiWiAdBYxIkRpBfDfj6wqHfZ1+n9jOhnV0y2NYSpGwmRITrkmmdcHIDbckyNLc+TFYB5I4iffLwIkvIkQPswue1M8YoY1gTlX4gXGcIKKUhLMmkiSUIh5FOCbDp9Qh0wpRTfmNVhJ1cGgykyBIkQyGyZP2Jx/YvhLCY9HhjchmQaEYwgZXQlI5WmECJAgIIESBANBKRIkRoLuoNCREgQGkYIQwiIU/hrTwLV3q9i1PWhX41aOjjwtVet1rXas9Xg9FVo8I0nvxHWzzsVaPZ52LVXosFqmxaOtthaP4zwK9bfxKr4thfEK9irR7V8U6GRHWparLCzUrrd6um1V8SfiHWzzrYWjrZ52LRivRYLR0LW2rrKBrFhaMWr2WrsX8NUSSidMk4dkk5ezz8R1sXxdNi1WFpUXmt3q9dCmjr+AutnnatHWzztWngWrFoxa21pksu9XWy2rFqxfw0iCBNZ9EpQhB06dIPNhkGXD/AEacd/Z0bYmyWSJEhNzg4YSPUD5EyGErCFyfCiMUyMlEjITxJI3zDmi0QVCelCmtnq9VRVo9yfhPZ5+K9U7i0ZbV3q62O9abXYtHWx3q63F/DWEnLInZnX4PwCj/AIW25vJH+/LFjmVYxTDQ5cIRCIQ0gRECEQsLsBb1SGRxdeZ6ofFnDCRBDFJAjIcydy9JCEs6TgKSR0liY30l6y/jAuMfzg+BasnpEhkb0ERpAnGScE+4xzNhybTyvkUBGR+cbZ/wfkbCH5PxhQTd4S8JZFyOieZJZLFJIlkskeSWdJZIciklks6KRyIdO4ORSdw6dPJ06QOnYEeOkPB2L+H4GVSf1H/+jDlKRM42MdHMFO80FVic+Jp5zB6TJG9XRXYdEU87DFH08PZTWz1q1psWwnl6l4KiDg0eBDhCxBwQiEQiEMhEIZpsS5ESOEkREIhEHBWQiF6IRA7EvRrKodKZAaUCIWIWFZCxzDIWOYYiCDnReg88iChLMYdZJYgeDofwImdLHWzz8Y7Fo6weZLC/hrEgbP8AowMQxwjkXcNIkejh2H+Fr9b0WgCKUoDHKssq8/8AYpF0bcoT0dHE8+htK4/B3Hb1OhEvQw/Sf/pJbE5oyutnic07VFmTweWk7aIWjrKvEJ9NMTSx5QlrYWPI+j9xTZZ6u8NSfVfGKC1V6sVfA7WlxYd6vY7FiD9IiviGxu4l2ecLLrKcnYv4fgX9/wCDqrwQiSEPLpSOY8nghM/aJwyZnxxYbV8TLziD2FAm4T8EBALxo0M9IW/U5harKZ/KUKWx1ss9aNi0etbirR1kqe+JDftBUxQoJYle1lO4m2dr94UIfFLUh53EITmJFei2uX5EzZprCmyTghZAa2Pt4KtGLDwz6Z/6ZGISJY2W59dJaNjaqh5aysyvo5ITg+DktCXCyWjbpDNti8UJTUyfsRr5wsvB6Oxfw3l7M8jJIaBEUkjEnDRQ3znBvpJywb2GDY6mI7JwnCTIShohE33iUKmA5xOnD1fokQ08IdB9cOGo+h0jQ2kJzlWxIjOnqoez/Dw1YtU+4nNG1Vp4+SqsTh1p5B8WLflhkENcPY07CQptaeLCSfHA8ArUxaDuX2P9VnwWnkcewlnnEm/4sQSBkDxJI8mcKtxZCRGLyysI+kKkYs3VwTVdCwqavpj9Hh4bAhKfp06vwyBBiV9hOYWGpU8sBOfplHWs04hRMHgf+iRhZJ/5CMIhOa+c9xTKM2F/CVDUn1L/AINl/wDIjXE/5qhDsgggQhBf2f8ABzKk/bG5zGLdSWyFGWIl+BMHvJBc5WD4LdtCctv0USRISc4LKF0GokjuTp0cikkSyWSzs6D8ls0BjgJRGOEBBDQJSECBKJWKQlextCY2oGx4FSTeZgSF9DS/7iIlNil5IQy2X+2Mpom/3CvbS9i1pT1lRekOf1OBkmv2HJ2/OEdFJwUf4NbO+8Gbh4b9Qilv+4mGe00Dm1BKrGp+DOC2HRMl6Fg/RJJKJQ3wRJw/6KGEJeVQe+9gSMRwf+6E0No9CUShunhIe8oafAlIEWn2DVAnwklYCmhPpEgOCGdJQ0G4QI509yRxY4EpAgIz0X8NVo9jvWgstzg6d550WUK80Ka21eymqdeIIODHCCEQIJKCGCEQhUyGgEJEIkMGIn7zPSDNetEQPrQ6D7wi7InA8KWY3gddgt4dYkJL6Gn/AIFGvIjJKQypOB6pEi0k6Oo8pnmjfgl7JD0SGSOzlihOqFyT3CfAvtpGbY+oQgmb9iuF3OLHQ8e8UqMEnUdH/wDYVXoRfIqaXm8SRAjGEdIYxIDQhhEiRIIWESBoSESJEgeRfwXKaOtrvM4YtVexaUKaq+rvWhTW2rpsVaP47x1daPB9ARJ81d60ES+sOyB1h07f5o9hVquzgRJ40trTZ5GlEDU56Ec0V7Vr5Frpr52LXyL+C4vgzjzqxaq8rJaUKa21trQprZ6vVQpo9iv4lCuttXsI/wAh5dfAIeSrVcOz7ejsjRi3IWlaq9i0ZbYqy8edi18i/guIRIEME8IEok8krEk4UJJJJLa21oU1s1utaFNbfEVFXySZJLZ460Ka21d6Tgq0b5s8k618R7C187VQtLbVlj+QK9i18i/hwIECBAlqlhPB2et5Elc8GmdIZDIZAQ6dyNsTZL9EslkoJRhIlkhPrJ0VidA0obhEgQwMpZKOE/ZI2JWJxUVDRbS/0friTjWK6+dbE6OtjdervYsTh18S8FlDFq71qU1V6+ItHssLRvZYWqvYv4S1uJ4Te3SRvY7GNJrwLtx5bgqJ+xZV6vWhTWzzCIHZBBCIQnBFBHFEiIzQxfWKwyGGzVnlo/c8hVkNCTIwRg7wdIZARcinJLG2KTo2JEhmT6EvWEsnpImcdZWDYsz8jH0ZpYWPxj+MWExIn6PySfgTZLISJ6SyQ/RgbYm9EiWCRLknAkfQSyWSyWdHImzuJSchcE5JCeQ5FPwEO4QyCGdIEhyJMhnTpDEv4VsMbueWLgf/AEpHudkiQ+/ArjOGSkp+iY7vg0KeW85V621ZTWzWwtKldU78ZVYX6EgX3gyuqXe1acCmq1d4cWPyUlHOHgjLQmGyvDxzyceXiFhNlBaedYCrHEhcwbuIMWrCzPf0HjJKhSwMZeWwsutE4tomPYxaq/4s0yKXljVo4zwxkuhsdjETX2Js50K2lW0Ig2miFTCkIiF6WEk7PsgDymLrBQrrYdo/4LRNPNtqcITXxHmS71a4LheRyWJp6FWHJLFIpx5JDVW3z1utaFNHsd4aA9yxcSWS0YsX/WWThQ/o/wCBn8CYS3+humk4V187FhkWAmov3C1sLMRvjKcK9ux6nQsOOFHDvWNbghlsd4hJOPG4idF/GL/x4l/yjEUCweX/AEKFWEFzy7xwPscYdCOH46yDfCWcNrrFb/YeXvh6vJwq9oS/wQnBxyKV41lUrfBJgbXJBG9oPuhD4Kqp/wBFWkUz9Im+YjShCETTiIeJkBJRPWDItJ59sR5ePqxQea7gqy0MDKA+q1XWvkKaPQtE8xAWvJ6C1Y8wJHQxYp+spDlfDPwbZ2Lr9/DgJjYZxSmESTvQhr/J4glzCT6xJTKZKJGnw/7gQhjttKCycI6+3Ix4PtDGSOsK7y4FJG476HgFPhY64DB1yEuIWF8RivWflzq9odrMdPc74OQArS4N01jczsnR2EQ9qjo3hrWxHuJCSTiH4vIgjkZ8PAxNBleRAbHpLxLuT0X6WQJE+wQJcwkJR/7BnHfQ7ZSEOY4+lsSCXpEryyVhHtkJyQyeiXoiL9cJXCGMUXUvwbSa+9AihUX0ESeCf7XH6FdjmFiB+SKodxRwr8Rda1KfIcz/AAST4+xJCL2ePhwiS/EW28jMr/NEzfe0JdqheTCYrGSg/L4RL6FNRoGmfDMrj41BC/8AQdbPOJ2LKhVY7wPY+hUhdDNpNjsOV1kjHVioDwLDp9lrlr/5kxx9eScE1/gd4bSIkjbH/GoV40xxSEo/f/wLCnPhEWIIlhZknQsMthfPYWGkLqxL7FNa4IbUtWJFl3qxLhA0h9SENJqGhdkBIlCXBHO3QnvayENKSEOXhN/gr89IwTn9kSAiFIicdngUEQBp7nSsJ0SHiXbpASXghicEmO2P8Ox7IFWjmiCDOgQIHSEpZK72Jn4H0RJy4Jv0SI0FP2QoSEoEySScE1OESODfcIYSIgXBAgQJQmiGECUckkXAgnklec/SgfkQ2HGdHTsZcFJQvA0lBd/SEHBvgBKpKMHLDRNKxQTwU0jITQmiPtj9HRoIgkgSiUSiBKJRKGxNEBysd64IvIc0hjDpT9j0CJfjoSOIoUrSENCUvwRHj2El0pBtJLZZKIHAy7/CAkpDQQEZzIxUB4EMER4FtSJGSURe/wDokdE0PgbUnqN8Zr57ixOGLXzidCrc5+Ell3hzutMlM67Fe5QVYcWHBYuEfONovZ6E+KiHaw1a+maDlsyAnS+x9UhYu8K8g8wW2P8ARxC8qi0dZQiCFghEIhECdWEIhECcEkQIkCAjEkIECFOMSBA8xEVLcsoBvtSJFQmR7FNCUhncfZNb5bCS1J6EQ8MSBEgCS0EBLBJYRGmECBEaiGI/1CW59Q+p0RULr0nMIDWB+Sj0R5IGgkPqIDSRKQIEBpCLBaOBuEWxKX9BpSQiFk0hCCCEQhogQQIQ0oL/AMNhV8Q7+Mh3RDvLSmcUKav1hRJzzl6FkRtEEZbusnr8ByjXc11dFNVeYxZbFXzl0M0HCZTVXhZuti0gV4j4FMO0fTISecuytKCrXzrQXmETIvM7nWx6ui38NhPM7jvYtJLaSN91pstq72UOZY3cThM87VWjplNbPPcW2qtPG1Xs+9KapgXnWy1oNqr+JTKMu9afGJoaN7qbLaui/wDDYkkS8jaCKHByr2KLhqFPCA2JESQwkRAkIJj68TluCrRjdEyScOmymp+k587i0oV0kZyydLEalp42ecThDdQtVNVq71qKtVekltaapPOxfGLXyLR7HetP4lsShRhrmEEIhCGmh+Fz2SeCEQiEMhEEIhDWCbiGrx3/AKMd1rB9YzJEho+whkMgR7iY2JM7gw3Il4SJDMTesEsiONPfGOESQSESUQGxkQwlCBE4SQJHayhspq9nnSR4kkkoU0nY9imqvV3mcNi187FqrzOarM4nuZJG2O9afxbYe4YSkE7jhfhPGpj0TCwp+EtFe1uh6hRfZOlsQJv0j97w7FpUprd5gg860FoxMwiOkCEQiEQEIRDCA0oENEcIjkIl6213CRIkNM/RL2fcJiGKSBAhkDsnTqUtiGvb7OkjugewEtCd4SJZL1CQtC6KdBAczqnMdjWiCmjtqzk6dOkYPJDOiQgdOnSGQyGdkgQIZDOwJMhkPBDIckMhkMhiPOPnsKjid0gSPU6wmWG02O23bWjXrFxCXsKRthY8fIgh57iRl7Qi7YeHetSmt3q13WpTR18Z4a0H5rZ4j4ic+NivDqpZ5mCwtS14NHVP8EpnzrUVfEd4WGe44hNqwi9aq9i0clwZGCf3iWdwWqv4zzrQX+GwqFv1WKsdCUYReDHh3RibyJAnjPgh2QkPiPqMwsMmqDu1NsV983eixOE+x3rUVatq3qqKtHXyRfEbavbVaOnsTHD7W8JHYtVMoeC0gr50JlTie6uhVqtXen/E+AVDRJbO1MkU4V68i1UOSefif/nUtGi8jkJ5m0kCfhPOZJQ2S+exASM9oaPbBKFrIssSEolYn/iBunorGlliP/yCER7ZYenAJxLKT+ol1HetCmj+Opq62xsrShX+BrShXVLp/wC0JH6PP/8AjVkG3oTmgqJEuPCGeTNI9Aedz+h/4h8ljIN+TmD9CxukttGLV3pYX3BEvCFKEMRg8EzI4qWyQ0paPCy3SF2wfQivqcOmJ0h6yJ/weWInKRf9shcRFj/Rn14ssVYWGK/5yxAgRIiT0VqDTEnqWMiGKmgHVN9j7KOJkMgKi+5JwdPqLNwTH+iQ5kkSO4JCbJE/WRfTUp7hAiRGIECAkGg6IEolHBXpw8fjLz+LIRGaFNVY0Rr2O5qiHw5AxO9BCdQo6y3Z9VoSXfkPMxoxVYlxH5/R4z6MqAeFhw8ET4BOcK28eEQ5foRIklo62O9IYfolWLkbhXRKVhpTG5kf93MrE4PvheMK/wCKOjYxvg0MWf8AfMQP2jT5EJYaFC/5ybYtfOrr+0HnWEpIiIiRz6T5fyAtPAt4hEEDWEIgQEEIYIDSEkEdJFMEtEX3Ew2JDIEZHtgjDZGbuDlMkSJ9CS74S14JZLPwN/QhI4zJ42C6Q9scXlcIG3/qXk5YrgLEiBz2f+wH/MOVO4wgxjhyaGsQpRG/+EaEs8Z6RoRH9zF4BAuCWSDXGNoX2iJEiUEkECOyckCbwJ+hYDkAhJikMUFnuITkIji8LGpn7GJXC0JPEHDP/giCMDOUEEIY4VCA2HvI518l08BMkwzBhF6B+d4n/OjF8ZQVw8vLPLM4eupTSfk6rR1rgWwtKFNPB56vWtYgjKmIxAhBBwhCeDwLH2ECwrda43LIULhCIWHQhJEIiQOSQiEQIROqJVIhH0EBoQgQIQlhCIRCICooQIQKbcjUMH0L/mFJ8yENCSEoIGg4gSRAhEIgWIMSIgMkbEIhEIYlhCIRCIUkIhEMEgp/DQeNHXyBVo8pwnuU1ckkknb4C0dbFqstaCrXzxJfyVCmq1kaGIQlJaKhaOsEThi1PV0LSDzsWZB7HsYtiNLCWnjZbZLZT+F6mU18k6lWjrOUT8BTRnkLLJE6eB4WjwWlurvWpTexP4BaVKfCW4tHTKfEtq6/mDFpTY71Yti0e7T+G5L2QzvsSY5FJ07h09QERSqQsuxEskNslkSk0O1sBYjkgIY3CBAgLpaIqsVKQOY8JWWolEoeHRxiRiYtXhrXUbzfwPDYq18vieGtGV186ynWpTVXtWjrKc+dabHetNjsWjFtX8R4xJ9eHwCdL2j/AOIYnYvf4P8AysIRBBBwJIghEISAkiGEBFZ0hKU19jmM89nWKM6Qjj+j9iC+x+yXskNhJkMgQI2EPKfQT6DbaoTaPwS9D+hShMsy0zAgQEcI4oERAkggQIDaGRKG0QIEiUShiRqJRJJKG4MvZKJRJIrxOJQ3Sccw2SaJJQr1sJk5dapPOrFRJOJPIsSiSmE6OxMklYbFtX8QsP8A+OKYNpWfVEjrHk7sF165SVjJ08X/AIGlv1pnfUpo6w/YBUUY54+EWjoromJy+ttaFMRlCCNEEIgQEUrB9BEgJwSQIkCAggNCTO/CIRskxJOMcYDhqjCn5Iqx+sf2LD2fvHredY2F9z9n7zR3JSyhc+2fBGH7wa5eahP2TIZDIZ+sP0JMmSJDf3hIn7wn7G3sWCfslhrpIkSIeCRL2QQyQ13+U4HpLDwQkM//AMbEiQlh2ZPCcFC9FM9CeoEJ/wABPnbEB0iX5Y3SPP2SGbEsfBMtB4P1SoqF/dgkUQ/Kx4PMgLsNUdA+B8dXWhiLPWy1oKtPf8MU3cSbfgnKfAYthbEsh2A8FviKiparL/8AtijiHaeFl18V4How0qaeFnyLSgqFp52WthfyE7fof/8AdPDcUG4UweQI7jyfoINKP2s/9kCgoJdDCjn8CNNAlHNwnw5J/gyuJoX/APeEl3DcAVfixU90eDm32EZWH2BUvwdFccl76QD9/Juimtnq71qKvnra1FWjrKJS+h9XLCD8r6s/Xk8Na5MhAeR9YV6r7Y4QGgtHWh+3l4sidHLHnGVNjRM6wFNE4W1NDYYs+SccE24XsyAOKsIOEPNKcedWLWwv4XZIkP5L/wDzMpAuCcJJJxh2kT9EolCGhVh/onpm+kJCcTRCbsXveR5act8g7D9JGei8ecclWnIuvaaVDbv6yHA/2E5Gne8Gx8X/AGNCrJDoqe2Y/NZ8s+nFv8daFPnKoq08aXharbVWjzuuaDATnyS6z81GLn0WWFhQlEt4Hk1xYpLJTwskZtuIoWEzSP8AsyjdqRXqdC0Ysq90JzRHX2dDyx8ljHs8nZYuppMeW/Wrtnihvl0hXrNTlKCw2iW8nkjDNf8AAggvRMeU8HbbthqVBWokvPJB51YtEOxfwvTGCrMEIjpCIRCIDRAgfUQPYpJMwkiRIYR3JMcjBYIfshjYlqHZ0M+o35EiR9J9B7EJteD6CSWKZ+dPPZIkCJAQ0JMCQlECJKJRKJXsVsSSsO1jmaCfMTh1k+FbSKX/ANDQQh04goYnOKRWHwWFN1PYFAQ4ZxfEC+sJrN1gVZsQr1KrRiylRnx8HT6IRIXPwgF6RHsufUJcxBjjyLD+on/5EGj0gF/f5yp5EqzYrzMI9s0MWqBJJJesqrrB1LnnRjFliwL+FhaliM+fiOtvn4jo8/nKCrSEWeeY5JC9EIhEIQSRAgQGkCCGlCw/siQ9j7P3jP2TEE0Ej7j7BwWJ7EMk8iG+MhHnJ3NSDbOK9ENVUIEp+w+hRqrCUMXpDTGCP5MUfALkXhryQpL1gg3swuicUEVXV4e+orHpJinJIkpskSJEmTdD90YSgx4JUJ2DoQc9EOULr4h74WSyXoQXFCTRLG3oij1ksl4O80Sm5ksEhr1EiLgmCZJqMSkS5JZIkkSExLJIlhfwvZrqthaOh9fOtRVmR0ymq1eGtBVrZ6vYVaOmVzzcd61FWlCuxW9iw/S0GvwMtyWjHChAkLL2eSLwPGWIWXXwHLNCCGd+RGVb0jBEYhYS7mBs8IaKcHgjHNUEYLDWCQ7F/C9mmqv4rexaqCrR0PhJPydBVic2eJ6vXwqrR0xgh4ks1erg9aOiuth6UEKW8rBVo62edq0dbfOGFGS1WrxELRXtWvnYtXYv4WICTI2ThKJRKFZKJWJLaPctlaN81yLV460KYeGy7xz8iY0u+hNe0MLE5p6OimZxdrTrUWjpldVere2q0dZJ587Fo60TjzpIxa22LVX8Vivaq/nMQhIQIDQkoIaaO6CBCCRDIY2EwdOnTs4Tg6OxMfQSJehgpJZP0fk/JY60HUYwIkRwHAhkQYmpZKIN66eoXrJeoEKsiczinzE4dDcG0Wp624LSwpo08aDavZVaOhPCz52KiREjrZ52LKwr18RaMV6sWvn+0TroU1V/Edao3Fo62rU9EEECA0h8EUEIaWCApWmv/RSpiG6asnJHIy6kEg5bI+8v6EfBL7P0fokP7CeCfsj2EoEewjlkaM+8XlNj6D2j6SfQbgMgl+hsvA34Y9hf5P2xN6JeiXol6KFqPyfk/ODezkgzH1ksR1TGM0jXBAiQwSCGECIgWRDBMgQIEBiUQIECUJ9IECJEQIQIECUJ9IEolEoYZErCSRX/AESrVXq71dfCPHjrRlNVbXx1oUyg4gYTG9EtzLI7kJzz9xUzSn8Apo6K4jKdfxvjR1hB+o4LUjwPBI3x7nbCsaWPBEB0zyEP7wxLhzEEIV4SRBCErhCIEIgaQhAhEIhHJykIiiWSBASECGLyiYncIkSI0hJI4xIiYwIkcUIneMMCyYlBN/QKaq9brWhXVXr460KfFvqoUwpdX5Yqm/fFniE00z/wDDrrQWlm1Z/F8dXk4KL8xNyhByEcI/12xJ/MfFRBtC2Vxj09qKDShaW1staDaz0THlBYjD0IY3k7ocTLotHWjvT/AKKGWFqtqrVX/C8pJypmcLV6uti21o62rV460ZU/8+OiyWz+qgnKRJeniLHnFGV1bvxHiLSgnMJP4ZMPrF/YKmkfoqfeEiShZNcZ4n4LirKxFcdF1MmNvhUROnq7WymZuFsfBe+8LUjLI3DQWiw/m9Xk9QMh02/Y65M/+YeCYf3GLylnlYWxfzPCGSJEhGJCBBjEsuR0eD6CfQTehmJkiQ8CdtP0L4LA0WJrAkI4IEo8kolEPYmjxFHvPChQohYOVst+jF6/DWjK62fxLrTwMVYakPI3qPDIPIqUTYufgWRrz5yUXYeU4HiyUESJ5IefoKFBRA2myyygJi/euX/hJwpIo+wbMlLcQnzgfovDwd4WimUTz1r9HHoXRikqfBCNAfrDfsN7JxnZSO4ok19iJQT9hLSfF6deRn1iQvXZHBYVN/qsIeQxqW/B6PzJGTLh4kEpeh0LYtU+/wBEq1V62WymYwrzzH4FBwhEPQ0oFUECBDFHSBEiRGtfcOyJcHzeg0yfBKLJexLpD9kBn+kNe5YjO6MLFJktEaFYPqPoJehN+iRP0T9EvRaj84/k/OGJ9BAhgSQQID8hH2BkTnCJELX7EVfuklB4F4EPZEVyujsHROFJWJRujH2J2NwhAn4MkcSO+DhjhxkT9KclEPY/okhDfUSjmJQwqw3/AAeROfg4Wk1j66/Bs+xEN100jmWePt0XJJgS0JT2zrzKaE08Sl1kw1LgWFPEMTPwyZQmJXmFXFPYz/sDvESLaiaX1Y63Fqr/AIXvKtVrZa0yWVeviLR0U+J462Yv8kRH082xy34JvqXFv8RaVKa2+FCIyhAhEIgJwRQQQiHogQIR2CtkReqsiIM1kD6Ca0OVFKXFgV4iNCH0pkQIC6lsS94HoZARwKesQgplkLDH3i+BY+xv4uzgdifkVPA8nfbL2RkBeWUTlvyzvbwMd/aEsYjD3BqWDi8LyUJYIY/bBpiQaDplkWgxO1ibZGQoYIRldHJ3QORv4T3lqtXetBPE5Wrx1dFRP4Tx1oxOC/aIcXw4sJl3ikRSk+BWtVaPWharrV+CrR1nz5UymiYmdmWJRdxYIoE0IxQVafQi7I9GlU3bsj8niwlYZGfGx2LSmUCGpGtcJanRrotHQ/xlf8S2lWjLau9aFPieItHRXEieE+sT8FKGVx0egvokYuz7l4RK8/8A8+D460KZQ9qvrVtVaOtM4WCzda8obmjo5+rvYtbYaEpIFiy1dbHeJzTUkkO9XXxjoV/xpEslkhsTeuyQ0z6IESJEbQmoEmKBAlCUSJIHQqJQmveHRQWFhTPXx1oJ/wCiKzoV1hK5BJt36Ig/i0e0nR+jkiSfgrCcvxrUVaOtitlE7hXEjZ4PPV3sWZ0c15Fi2roWrsWjrY71dC+I6Eu7x8a2FWIOEIscxCw7IRC9EPRAaEuYQI4QhEjhAhP1lf3OPIkqyfs+wJvZ9hDmCPY+whkCXCPcjPfA0BprCEifsP8AanpJpBVIl4y9BL1gl6J+ifof1JY4fjBCAhqBLBHIgLgis1AhN4IECA0iBAaFLcCPiRLCgDfqVo8NCcsVGE4kXxGh4EyRi5gbU72L4FEjvCc5dbHqpsd6vROHerF/C6FqYq0bFethaUFqtSnyekQZEp7RLCSU5iyWqw8piz461KYdQRXT+MB92xOeaIR444QQhAlyiF6I+iBAVgQQIiSWQIYIDRIRGlS6Q3SLxQwoXY1qhwDwVnlf+xt3exeIVFideRL7F98F1ZcGTSck/ZP2P2Ehpn2EMR+zhZDRL2fYQ0KRD9nSPbKjVhYPwSZ88JwOiBmT6iCROBkaHNTBJE/RL0Og/OEvWLKhisH5HqNhCOM4ThAnCAn/ABLaVaUw/wBEw+i9sZXiQBX9fh719Oy61dFCnF+ifg/zKyQkuhnBAd/t9iS0iJ6OCC2c9HMr02/4ReG6taMUwkih/sSeWMIIRfoDnRxo4BEE/wCGlFLD+z/g+hYXWjMNoRwIF7ZKBSVN6CnOUJTXHsVtWJPGXyzpJ+hC9CEia1EryQ9EpIQfr3gSvyYgbEnzTzC2j1KKs9AmBjBHwiy3HFLye8SjutllDo3x4N5/DRjluRytHGYGIKCCCBjmIWGhCBCIRAQhEIggNITv8LFk8lWOfM+hAn8hPlf8FTiUIcY6R4CGNYdOZK0oJZ+Ee8zQ5tzoqX5qd/uTEKRxbXbF9OgtL8q8rFOn6aY6q0NNLqOpLWfPFbE3esnTzEENSibHF4E+55zX/Ih0RFj5DxfL78EX+LZ7sxUKFElCJZtPodlzUubz4OnO+B72OeBDPavHiNcAQL/oncKKES/Q4Ow6Siy0p1DyEMVObqg5NoQYYmdL09XtomcQkgRlDwA4mJ5gPUsSnt8EIMlvUFK8vQkUOCr08kkdcaOtiE+tITYJMwNcwj4TLfwsT6IESBAYngtzeCweeDQhg2iSBIhlQ5Q/YMmpngsleFZMlxT0IBdbWWzzpk4toItH7ktHEMrj6i5V8fgxO0cpCqaLljJWkcWqHyvA2l5E06eJGwiboWE+4/MZaoCQhjY1rrF1mxp2In/b2UFWkwhCUKfiLFlvTmIKYjwzDsJH/wBiZ6hY2PtVPwolP/8AyStXTwdcFzDho6JAbv8AIW9P/BtgFFoXB1lWoViktwhljPr7DlEputD1dCYeV5JIEJ3loiLvglMjPnYsLCdC6Ohu28FA66InEkbJ8WNwe7ITCJEyRsOCZXDyBlOPBpN4WHQpI1W0lLGw4eCPBAO3nQcwfA3YWjot/CyDYgQyFEDwLyPoZ0gMRx0sTYk5+YRxcI6K+uO6x8f2NoGRZIenvU5Qsk+n2EMfYT3seyhIMtVcYJ6FRwQLnUWleQsHoT6k+pMqwvoFekeAVNfaPoolkvQ2J8NChBzdJSdk0N8HY1pJdQim7hOSe+iBAVeyukG344JqcmB9wiUQY/nhEmy3CV7FQJIIEr2SvY2oH4RWpJwkTG+4CYmIoLnBstEJIeI82LbH4j7vhIycThrSiIWbXGQDXLGK8T8B5OyETEe8GTep9Fv8C/iHsV2MTEeGeJ/5ix+b9VjlfCOSxtenknTxIOj5T4EErDWxAcIRTuLy2xE1DIVSWhCUjLoWQmKcLYiBGPMi6pHxySDXjLGFxo6QiaIDoS/onEDXPjHRb+CBi9aXmEND+yYJYHqqy8k84IH/AII/8jC7pwSSRbFlCuqy7yQK3GhshNU86ESxJaxKP5Fcde8KxbrdEREjIKLXRd58eC8PuREwooXTwjOsQv2Yr4qcG/7AhJARB9CjUCEQIDSuiI4QK/0i3+EQFoJ/SAmnOJLn4HGW4iXO1j+xdMahNzQh8H6P0Lu8DEl+5nEXhENKzvSip/gAxD9ncOj4+iA6fRdfZJ7EIsORGxDcrgkdJLoivQtS9F56EdIA2afhFLtjbaGT8HwcUs4JwbRIrpYgJf6D07Z9A39EvRL0S9E/RI/I2fnCU1DQnb0GZR5CqpFqCpEUxpW0cvuoStJ4pG00xNRDG02MCbxJ+ncv0OBKLwKkkSiUPwbJZ7RAgQHD4yDmHeThKJQ2hErMlszh1/EdFmKeBD7D9ZQHt4rVEdL5o/GsM0m4kgXPRIN6DeNuBCjvrotdSJ1C8C/UNiHZM5Q3+I0uf9hf/wCwP+f9JXodGHwcMT6w4c6R7LEW0RJKC4KokLoiE+HJyFMch9mOzs8hJpXA9a473oc0l8SalLVHbn6o9lOJUJ5KkEAzgVEUrH1xPmXX4GL56OuskeIkQiafMexv1ApAmzG5MbWiOidPC7A1uu4oJIHlmG8N0Rb6wHY8mW7+EFHyf+Mb/vg1qXlwQkJ9sFhHrBIiaxQdXsf+M/8AMPYsv/pCzkghCXg8Rqwxydl/pHwJC46PgVYnEi1OLEY8YQvQy6NCa+xIhpSNdURniF4IWyAiEUEBpThC9ELBEgQGiQhEjhAaTEdG1EiNDGEEEMaf8V0JJJiL8/8ARCi//wCKR1/yKccvBW++hLPZHmRMrHgt+AycXnwOmleWLQgwpj6hfo512Lel9CYqPh9wS+2Kd3MU507wtp5Q0eOsQcvJ5BItBqnlb+lFBwdxDrLX8y/Xic0ETsmjC9EEhUQY1MlprvhQ0TJshspdixFz9Cum0HRMR5kv0gU/74fuusabaJwzyNpw345CSbZQFfrFKHMeTpK3kUv8oW98jQYien5EOmf70CzSLplSR/UEv8xDeUMqRIXpFS6oV3E2KCOIaH0fJ+Qr6YSwOFCE1cmwqX4I0FbR3FBRI/b7JQREMl/yIEPIgmFjuxyOkavAoJ4koU1V5mBSIE4ESUQhjokfknI84d5VIZQW6YJb+MTh0N34FImP+Mu8Jk4dnLbeWNH8C0/9IdCsLXhk0fcihJJZoU0X2I9HGWCMQZX4Z3hhCDjCUaVAkJ1oBJJJKlhlmrcare3+EInnhi6pVHSPaIweBYDEO7cDihKkhaUTWpkEljHPI3d9GFdVAJhjl2LYSGTpS/AiAdiuDCPfCjN3jmXJL9n+FDwEdDCOSMeRV9bgeYYc4+D/AOcPKeET35jR7w4SEh5pSUQEgkSic25pQaVhZV6NeRuTwQcw9JPDE5epb7hvpy8ZCKAMJeRJ5xOXRbWw0LPgt/ETuE8J+xsfcfYfcNdIJ9f9DwGII9sNeoiBA+1edE5y59SfUkJucU+hI/QEzoF5kmE1WH42iqP2Hfdx6I2Aj85+tYQIkRk0eKJHAprEX1fQEVw/TIe0NIH4SvYuyX8rwSJv3HPYn1GJRwlDocxHgRO/iGSJpyhq8Tl0xdq9Dv2b4SVZ5Q17aD0IWw6WJHQ9o+JaEzj3I/w3likNJCGybCBs8ZNCcEnkQRoaMTh+Fc9wr1XqFo6Y5JJJI2JJw2cCmJz5IXxE90SUHJ0tq9y+Om22vDJEy68NNT/04VH/APFxtMmEknCUD0qU1WqzA6SN/ljqV4DLgskIggs+EIgQiBQQiBAj6FUCRpH1HVXBuKYa8BipQi3BfxS/ZAiLrH9ECPsaph+z9FsUX5+FFq+z7P8AwhPu/wDGAS2Mx7H2ke5GpdTskoXEpiQrvsen9E1DURLTUnRJMs+naqT8i6O+WcmbfsnGnZIS9D+guaGiO8EnHgXR+MsRhtELhkCI0gSYJkkBkmSiUSvZKGUiaJRKJQ3wZErJIMJo4SMdDcJwseRaUFrOmB7XeIy6/iU+CLLor8aq1u9W6LShTW71p2KtG4Q/MPKvWjXxONdSJMTUihuimj2+mFuD0pCKfsddQfuLyg//AKc8aQ2o+xPKHk8Rh0SIvw6TXoiJ9A/TmHDhwgTqJlogpiUDarwO10mLghlAhJAiRIiZIETzsXh1lSxK9c8xqTXBLlkvZLB9hI+0+8+4gNQEhAjLciegsKSWshIlkiRIkU/i12vBZplPwq0eU5o1cbmj2uurQjxo2PzE5s9XT4lCmnjTOhH+F4pdwjoOEtYX89CKSSo8aM+mjlLDxZrYSUfQ7kvTwkaZ1ZA8yCCN1sQPSpbE2Ub8nYi7lOXhIlhKBOacfcXE8E5UrCypos4SYgtfpGJwbg04jEZ5lxH8SpXXzrQp8RxVr560YknFSmHl+vWjWoq0oV1brV6vDWpXR1tVtXTatPYll598EXvXk6xK1siz8Jf9aKL/AHiMp4kkkd5j88VBcUs5svwqYJ6Ej0WNM/xc10y90W+IW+KY6xZpoT6esQQJsetBfw1FOM4PpJckslk+hIbYmyRLCRLnCZMRadXgQYxxQGEcUSIpiVLBAgQgUfYIoEMJROJHmCeYTihXWzwsvX4njSgtHtWE5dNvjR0TndZOuRIm/wBRAQoocDc5w2JxZDsKRBs5nAmMkTVM4VtiHfQypmFIuOV5Fo7zKD6xQcUNIl6vJTuGXlI4gkikQRoUWQw+yaK2cp+LMqHsSEBMwNXgOhcJC+33V0LV3rT+JXOPgUFWqvSFhHDhCIGlFYwvRCIEBwICQakBXog0iBEgQEOSJAiJCExm/eMR+z9E/YvuOHkkVkvZP2S9n2CdH2ECPYftL3hBiWMss+mLcBTGCfQ6UfQJvR0H4J+j8E/A/J+TjxjGZghmiTQQIkcT4I8ytIT7J0JL9jOXBjav+j/tCoJH7aQqJesNkDo5BAn0EUm4RHy4hDc14FQ0f/BoS1b6sQKh4HRdooPt01BKSlvg71rWXJLOZEPUnhkaq3lJElAIXhTLywn1KUL7hFExaFq71qS/hqVFp52U1V7Fo6K/GqtGefxfHWhTVufrXx1utaCpaeNivEYg4OYghHiQoIRC9Eeg0oERCF6BpEwqJEnBf6EqRdCEgiwI/bEYYNj7I0eCwUqiZP2JvZ9x9hIhkPGSZFgdsiEq2cpjEv8Ah9WssxticHio/AhI4qGxLPCEcVANPETfokhN6RxY67Pxij1ER9YZpdPyQWMGN3gJUCBEiNoTJRAiQISSiBKICI/iNwrr5201trbWhX4tRUvnvDWhXW70kc9aQJ1a1FSxyMOimtnifl6FMotEhWi1Q4la1FWq1YWUxvghvmQVNsnCT8EoCWPI2nJUswQLjxBGIYcHDhCIRCIRCIDQSRAkxRGkkCOfh/FoV1jYWjLfEdFdZ10FWjopo9vjrQrr5/Fstai0oU/lSmUNJ2eerykkqKtHWzzrTCRdvriCNharYnzWe60Kau9afzoYl86ODJkCJDIy6QIECUMQIECUNqB+EBNEolYTrVaOivxbLCzQprd/FstaipaUZX52+tBVozyzOHqqKlo62+cTmhTMki2VWqvScEtfOtCmrvWn8SpCCEQiEQElJAgQIWECBDBoJJkCGEDtaCI0gXGt2wQ/Z+xw8k/eZL2T9ib2fYS9kP2fYJPyJeyPcjEnsfbj+1hx6L0xnDJZkifUn0JfolyT9E/RL0VofVH4H9T84ORCM7VDWBGKOL7hIQIn2EwsTXkQIeyUcIEr2f6SizmpTOC9PnKC08bG9VNjOROjFqrJJy9vOtBau9afxtNU+/EZbWy1ZTVfEPyV+L47VdfPVa7LMEIqI4QiEIoKEL1ggNPQiIYvqwdiOCBERDT2QXkpZxv6LAMUXSD9EvZEeRGRggQhYgJCZaDIlfGDYb0PoPpwSPwL6EvWP4HzWgQIE6OGjECGKfbOEoknBEolEo4K9GU2ecLNP4tCmjLfEdHb1vrTatfgLR0V1WtmuPetCmjKfEo2Kl/GAiyzNegz/EYqfLT0wsUusVp4OvhQUFiCBAVkYQIiiS9H1EcEEdIaeAWF/Y/WMpwfYS9kMRkMSEZnZwTMiQzgTCH8+mqfSdSrR7aNaMricq2vgeNHTK6rXZbTBZZ5aq/xqqxGSmj2rU7xI8J0iH0VKDaJYp6w620/oU4p/tl7U8Mc2LRrhxm5f0U/wlRVqr18RZawti186PBaQeda/wAbQkkgPTIS8kyOSSTlhaPY71bhTTwIJmSdKejrYWq61qUaPYrrWnWqFpQpo62q8LNliENbHge18KCuABwI4Dtqx26eF0UJITerEoXkWlR4zy/2xGgle1o/jfCFWVLa8n/00fb/AINRVrb4y2xa+dq1861/jKYQf/ChPxMfAlMlmTxQ/RP2SJeyGJEP3g+wkNOcECBHuR5EYEYLP9xDZ7titOLHJktwGgSZ9SfQl+iVEfQfQSJ+huWiXol6JeiXobguCfo/J+B/UeMY50iYiRI4NqLIECJAfiIEr2SiUMgyhErEj2K2LR2tPOoaX4HG+SJn0CRGG1DuNLhnl8sNmRa39DWYxXsZFVwhLsj2XGZv/QvU6+jwXffwqi1V4n4B0W18Ra+di3LNf4+mEUuziHieFBKB51F8LLrZbWpXV36lr4C0oV1T61stijMDWMLEECMCEQiEJyiEQIYRIWQwgcBLpv0IfolhISc4PsI9iQ5kjHGPmTJ0X6sbZp+oULR9Ix+BNUJHAq+wyfA3IdshbhtnDr2yJLryxyTNi35IgRIiPuTErEz73/B3whilTZAlEolDEolEjZIrJx1YO+Rqe4q1V5jJa+da/wAaqxIlx0te36PQtvjRnmf8SCwVVfleRNNcHetNv1NlSIpEz4C8aOnqOIl8RC3f/BBd8UlS0dFdbdXT818RVrKtHRXWzFo71oWL1hf+J5HWb1zR4jf4nPRCIXoiCFBMuj65wojioYoZECMT9Z0P2TJ+yQxR0XswR7kYFOR4JExJEsl6JZMMn607z45J6QIECBw/j1hnsbkoSt7f+DLbVo8VXhrHoSE4/JIeW2KFBaIaKSY4Deo4+zqQnbHhrTWaEdRFv7IkR9aUa3lNHT2LNXr8dairR0U1u9fO+Be2KCc1V9fDWmxXrxtbVBfE8Ra2YggjBECBAgQpIESJEgX8f4GPJ8sn/wDpjV//AGFcRbW+rrBInuHhRT2WhRrQnGWISjvKKCTT6J7l6RE3njHjrZqPcK4yldejnlwKGuZo+LHWxd8S2qoqwsUK63fxPHMLDopqr621dfIVl4t8V7Li1S69tPiVF5/EodyHWS2h+ZIJm2Q6SHImJEicCbEPj7DXwFD17I/MfoEj6j6CXolwJ14PyT9EvRIYM5fR3Co8H5GF9dA+SBZ/yR9DZIp9CFy/0S0JQiGLDWJPIjUaNCixiRICkiB9xAlDKWSiBAhjJJOE41oKtG+MprZ/E8daFdVfWy1Yp8Sq1aLvWyzGHW6q1V7Fr51r/GNQH6yG6g8ea9opnhu/FezqR3HNFNVfW6FpR4OZhDKWiDhCIEUCF6IRCIXoX0EkYQIDXGIYgRIkRTlESJAiQH70jXV0n7JeyRAacdZDPSz6Al7oa2EfQfQS/RIlk9H9Mn4wc+CBAgxpAk+4gQIexIbp9x9xAkbUnCZJRI8Jw/gV8S6FWj3Fqr2LVXrX+NY1IJKWLTEqpD3J0v4x7KNaj8GxZWqUjxmR2+OFOtELMjrY89VroJ1+NLCmj+I8DVjhCIXoRQxFBCIEMUij6sESBoRjmfNi+x+z9k/eAk5s+0gwILQ+uMmfU4UKfRPoS9E/WDYsH4xgJFkhgQJCBAklCslEoklDITxOfOtSv8Rev9MvvkIhFS5fW2rrCSSSRvuJJxXY4fVu/rM4sKdbNa9aoVYnDsU4nPnqrYnLwWjxh4dM4yW5Xr4a2FNVb0Y71dFNVbYvitdxxE4aUYQiCEQERAgQwYSxjoi0CRDkgJCMHD+PeV89yvZvshPfKs3PGlCmrprQpohW1sssko9peidKBa+5Q7ZHnyzOFbVvkjTxFh4dCcyh4STlaPI3ViSclNJLPKeHYtHQsLKvatHWx4gnSmCHm4tU+6J/JK/xbjGlWElcsIUMvZMmX6HxkfQ/CJDK5ECBAiNIwRIkcG+kMYkRtCSMEpEgWIkSJEqzEogQEUCBJKJHUsgSiUQG1AleyHshBKHolEo4SPrEUloiPdV8S9XR0sodbVMtbrE5oUzIxr1sLShTWzScFicOi+ZJRfCeW91VoxLujwWvnWv8W6OQeQj/AMKoY0hYQiEQhrpAgQ9EIaUCECGCENIQIECA+BEQIECAl2QIkSIihiiQIiKGImhEiQIOznFEgQICJAji0Ql0/KslVn7J+yRL2I3PRE+wYJBJyR74xsLkMT6Ev0SSOBSj8j+oi+RYEmERdCBAgQ9jZKJyNwpicPHzo3qpqYrxIxYIeXQtEWx5y9UlsyThXhYYxVmSSe6tz+HI/UeF8Rda00xh01oUxGU61vogsK9bvV61oWYwqsIjXGFbzBG22eYqKliFjkEBJQQiER9CSl8IECGJEmsUM/AX3P0S9n7JCabPsIfshkF0kjO6cBNrwSyX6JEhdZn9BfUbIkMY4JkCGCJY4MT5k3CRaFo6LbFlkbK/xbnjR1stq62Nca0Kay1qNEVF5ozz1evw1tKae9ifEbLWoq0b5hOit607FFo6PIeI3VG5rZnCCEQIQjhCIYdDUiREgkCt48n7G3sTEyR9mBpyQYMpgxIn1PpPoPoOFC41+2jjgf8AhseNHWE6O9XWynWvxiq1qU+ffq2qZQxea2eFpellrUVaUKa3aumxTXz+JQWtnvZGHssLR0LW+rH7qgjmIIIEIgQIHL+LYklEkBhiUSiSRuiaJJRKG1A5KIEDh4EoleyUSh1A6EolEogMJXsleyBKIwxJKJIeWp41TtutqjRj8xOfL4llsVaOiutnq9VRVo81l6qC1s/iOtls+MOntshaOi21a+dU4J/DfUmUP3oH1Z+z95msbXtcIjmgIgTGMSJEXTH9ECBA1jHPwO0un6P2T9j+4s4JexL2S9i9h9h9xP2T9jtH2H2EiPc4WJRXRfYjE+Mr6okS/Qmmj6Cfon6OfGD8n4xQOmKXBAQQg+w4ShtQymOErFn8SgqwsOiPxKFNVfxHWy2rrZbZO7Fr51fg0r+G+E8sbW2tMZETuqV0Y9776F5dX7pVrUoPTy+cKFELNHgXw1bCxC9CIR9EIgQEECBAgNIFgjH9lkMl7wSIZDkg/rQJEmfQ+g+gTeifoTEvQhPSOEcUQJIIkCB9wmpIEolErY3zbbV18CWltXF8Sv8AFtib3F4HeS+AtqwnCb8D1ACW3umsLg/1uK5nCj56hPwWXcZ8rVhVo6+G2Tiv/wCtVrq1qU0bhRC0lqVtXTatKFNeW9XroKtPGuCRCIWICpCQakSJBsxIeM/ZD9kew0xSfaRnuZ6T6kj6RtNDaME9K+s8SBATUkCUQJRAYTRJKJRydafxLHh/hBOvsdt8DUq5Ce1fQhCU9bC0oPH38P8AESTVLqIEl/R6qlRvTmg/Y6/x4FzRJc0oUwiBoXgsGzP+TlhZRT+FUPAs0K6PbZ8ZWlCmvnq541qhVp4ZX49aMs9aNXWyn4AgggWIRAh6IEBJEMkcSlpJEMl7PswQOBO38Nsf72EbvYaUgJF8rgrSn7etkLE4dEURAM7aJu/HCHk8qEY8nkY3MDiTjFss06dKC0USlw7wsoLdSSNwVCzVlNHMD6rU66+OZxQplPHlifg+Or2PbWj2WFqXVhZY9Gdx7qrXz/OXOn/IeAN9B0GRpQtB0ciQjII9hMPyIhJF5wSklg+3A2EvbIfYfYSbPsPsIKRRofafvBFGJCB9uD9oVXIo8zbH7YJufsuP0E420Ej6T6j6Bm1RwoTrwP6Y8IaOdCT0RxfItIgNRKdhNJtkCfYlexNe8eYnYWCoXxE6eItG8Z1LSotHuFpTZYknDsbmMk5tsr2qtfOtP4lxUI2hehI6Qk8OtUHD1oVPBSL+BqUzGLvWjWpRCz4PPLwr5Z07q8cwQL0LxiEQGlDEIQ0vRB+gSUvMRFiIYfs/Y0/Z9xHsQEvcYSKNsJYb0PoE/Ql6JeifQn6Pyc+CBKQjSD2hUD9xH2RxT7ck6lo9lhaOtj0Mb4UxIsWFlDo89lNfOtR/4birR7LauiuJLWXrqU0Zdq6601nRXWzRbfAVaXFNHWRkYhPxPDYvhQK2IIRCFo/whECEegMKj68ECBDghl/YjiyXs+w+wjB9MZKeI25JLH8D+gyuCHrCJAaBYBoSvZCBhskTSJLCxJO5imvn+euKtHXx7orq9dSgsuiz1ddYwKlox/gkYevxFpUpo62rvVanrWhTSb+N8dEUwaFlbdNHW13pMDogQiEQiBCESBEgNUJWiGH7E6GmmQEBs1Lck/SNhegmSJ4rVXAr/DfV1lGbLWmM/DqU0dF3q2J06Qq0dFdbPV6vEWlRUtHba8/i21qU0fx1tVNRCvtWjoWNGO9IGubXsKav4GdKxCOECsghECIqj+OkfkkSG2MSJkiQ30lkvSBmSyRPpglyfRh+g+kcAoKE3wSZMldcJP0n0E+o3I+k+k+k+oZs+g+rB9BwoTJUS9EvRIn6F0fnVTUgQEF8ORHFERBAsleyBAbUFczjz1Wuy1qU0dbVqutaPaVixOPAWjopq71Ymr2FdaNfG6tfOxT+BlxapmCCwtKFcL4FBuCyzz1eyqFmhTMYu8QQJYwJCEQFUrhH1ghiiCiI4ojWTy/2fskvIn2fYS9n2EDs6KQ25wS/RLiiXrAm9H5zvgbgsigJysgQIEllicuhVqthaU2vYpo9lSvxDrdWvnWnz3paSMa8y62XFpTBtHX0hNduZUosTm71erwFR5zQsEv0j2JCfNObvVYLN0SRmgtLtRiQtFetGqCxC9Ya4JwhEPRAhCSWRxQx6Lo/vjL2T9jaLEhHuQWvE+2P5PoPqEDb0JvR+Mfwx8iSBAiRGnRAleyUSiECJ3TihXV3q9xaq9a/xbH7p9JmcPpD31xh7biXNKESXSFhC6G2eRM0tc4ZQpiCjzNAzt8nTwySW4Q0h3idhLmn0cOKS3kgpEvG9YbPPDEIWu6Fo+1TKHsWp6vAWjrUxXqvGtSmqtr4CxGHQiIYIESE4oEMGUZk/ZDF7CGIyvwPgkj6MH0E/Q+tZaiCJAgQHEhAlEolCvVeC/xIMBKd1+CL/Y8ggtH9TttrQl9QZVToKW/bFpWGPwploTfpH2Bhup0ZQO4FK3zaEFpDbx/9czjw1+6Ed0qB51S+8vasZJOlhaeIvGlxRo6zWbNXoY71OinxFWtSm5Z8Txo9j10KfFpqgZghECA0jBEgRIjQSH6xmT9kOT7CBAj+QcUY/wC3HkT/ANz/ABmT/gG0EBsT0D5GNHD0N6Et/wDwiTw8IToYjcOOTne0Qo7Fl2nM1I5QT3JCa6Pxp3nFGGJqKVBkuHIXuNSUMkQIEkBlIgQJRK94JOY5j4xOSUInEjorrZ6vZWjopmcWek7D80zuLauhNXqdFPiUKbiy622Fr51qU/ipIkV9hBWyIJCJsgRxgWIRCIEDiBMwNCEIEIhEBFAkoQkiEQhcpTbdJCbuH6Gq8O0jIKRCRhEIgQEhoSRAgQhFAiMQGmCj6NBI2QxZQahj9D+xP2e4JudJH2EBYHDSvkYT6CYl6wTSxZccEcUCAkTQmjnsY6KYnNsTmyxOk/NbPWy1ezzqxT4CxUpq9ToWt9iv+euUH5Fa+T5h0X1thZdfG0FWjSOSR9YjK1wC0pqM6Wtmr1+OwsyUK5RCLsggghEIwIEIgJIEcjXBDjyQS9jJHJHuMTgtzWMfgTeiXo5C+p+SIjESuktESGBuRAlYcKbHlOHWpkZrFfjqZLN9iv8Ao9NHR562FpQp8aq0b4Jr2nqtdtlRaN8K63fxLLWgtKFdbvi+ItKFNfLMEDy84gKIg4QvRD0ImsEGQxIkjn/ZQUlZM+4+w+wiRGOMDbihegkTzeQjg0QleBRATRKJJWU4Ytq1V7Of4irW+ttXWM/CqtShX4mrYqtHTKa+Wr1XWtEL4i7fxbrMYoU1V/FqUw821trTb5+EgcECCCBARJCNW6EvZIlJDIZ0+mWQzEjwSJE/WK6xh/NgnwlE5GUkogQJQ30gQJRKEHAgQJRAlCBAiRHXsSQRxiNIHIERBKwQIEolDKUQIEokfgyglEkobgySg5nwefxatJKCr4i8/iWWvIeVo9jrrQphi3O9afHVKfEqV1eqmE6O8wQQhRJCIRAgIkiv8WOaBhYFmvoWNGI1gRBAiQIkKSOMMiJAiREQKmiJEiQEpeMcEondeSFqz5s44zJj9wwh4IKCCNPbjh9JL0Nv0S9Dmkfg/GZpAkjCBEhA2ErMrWvVrQVaeC71eupTDxJfW2rr+YlSnxKCFpbZXsp/DcVaeCwsstrQpqthVpQplYt1trU5C7pUrozy1V9Xq8M8IQnBAgQITICzjEiQ96CkS9jJvBGSymZH1H1H1DPR+dO2IYokodNCaglEolEo8tW1U2edaFPj6fEpsuhaeBX/AEFUIOjfw9Hh7HejiCVqk8TnNcWLRbCrTzsEyOf6BCEprD7ojusHYt1o1W0yAr0kdz/HiSYrjgqF1FE+txlDo89Vf4jx2q6P46y2KtaYhEIhEIwiHrFAQRedjkk8n3Y/sEvc6YzikuYGaJ+ifrPYjniMmJ+xJKJRKFrrseqmy4q0Zbav4q8HQXI8r8LHEkvwhQquItq70b/o2NEYI8CReAtFsKsun+M/94dQvzRJ+BMexP0v/wDZ1FvJbq3TV58JuTxHoW5fZNh6JQqJVP7NHR5aSWavXb9a0KaU2q+tGtRVo6+P5F8cWlMOYgggQiBAiIkJSJ+skCXskfYQHwLBOQODkl6PxnaQISIkcUBuiaJRKJQ3wttX8VUhN02T4J5ik/AiP2WL62wsTZWxGhSZCRAtEJ1LEnGc7th9ipLiHV9Eoad8tiXFFZ0rLXGkiv6jLBoWg7IpEqgnjGyJbIiW0dbLtXquthUtHtWp6qlNHXxUCcFWjPLV6qfIaarZpsghEIhCKBEyAlIETpqrMEMkQyBL+NShg3/x/wDo6KA5f/4ISRAkQxrpHCGSHM7zTFqB3kSJkyCRDJCYaJCfMqyOxwYfGoiWTrxg5cNeRKpoJTsSJkiXsfVkvZITEh74xzLyRtBEZUEBzcHDmeQ3Ab0PoJej6ilHZj+NYxI4m02QIZoKBMkkdFdVbV6qFNa/HqtHWx6EVKfErsWqpTSNtNttXQr/AKHTD4z2sPY71oJzRivW2txyJV/jpZq9XBJDhCz+A/8A7YqUFl2Ka3eIRBBBhECGJIESGMBoX3P0T9kvZwYg+0jP6TgSJehvpM/B+MViWCJHE1HRKJRJO8tH8k0187aarCPhJ1V23Fo63KfxaYhXh1sd60G58RYWlBq9/KFoaWl3q9dlifC4EklReZUtKFdGeWq13WtBULDHRXW2Yw7IOEIhCKBJ6IYojWBJDWkyR9x9ovEixo/QN+g3gTPznfeMSOJEWMiUSiUSjzhaVqrbVXxK7LC0Yr/nrlNG+bHetCmjG7q/daldHRd6vXZa0FS0oV0dHlqr606+B40dFNbPV3r4irR1n4+UdPOCCEQpIeiPojiXAiCOisS95CA5JyMiRPcfyJMxLBAiRIDYkTRKJKbbasXwEfPfU9jvWhXM4trb+Uu+wqWlGV0dHnqr/E+OtCmtnq9taOimq1+Orra18aV/HWEI4QIQqEogiQIFz9k/ZMl7GryJeBAjMbYmJEyZMXWdmOJufxU3BLJZLOikl5JZLJEiR0cwKYFg7gpOinI51DgJQ4JY4FBaBJl/okSJeBzJL0TmiZ+B6ubghIiRIDWBS8kSBKJQrZK0erxFo3Cmvnq9laOvkCrShXVv40rwtCrVbK+JQrrYRBBCIUCXcIRBkcVBfwWKaPY71oV1trbYqtHW1X1dBtLMHBCIRCIQvBEESOBoJIaNdH6JEiXshj7cIwvwSyRF4PqGE5+MY4okiRIiSLJUyQJxKwWjr47wFo6fx1CmqvYvjFNVetSuthaOt2gv4LirR1onDskbepbHAI19iacNeTwoD/8AyPnBzMR//URplHQ2tuvRVviHpJkdVOgqtKlNKFdbvhMvqrhCIRAhCMECJEhwRz/sZwn7JryQIDCnCROAgn6Jes6HhEgRHAOkQJRAlHnbQWivYq1V7afEqPz4h0Wwsrwp/E+gFJ1YFxEJR1f/AAIWnlFtXZBEOqeydGPYcyVW1DQv/ojDLfESj6scVRAhPIsXEl6WKfGI9aHaEGc58jkp2ljxFWtTSm271nXda01P5MtKFdVbEEEIQghjEawJessJeyBHuQGF6EiWSJC60MB14EkCJAkTJJ/jEth0W/orf+BeUkE2E0317GTFqYgeUf1q7PB3uNeSRviOCWqhH1J9kVP0P9ggsMtrRqhn5RDlx+fs8wIoyujLaIpPBM2uiDgs+O1ULNCmt38W2tBVo62+dbrWmZZWqyws0ZT5RGIEIIYQhYEpEhmSP2fcR7H2jTxkyJCCWT0DmJM0SI3RIJolYkUT/PXEPhYk5ct4Q6LoTj6UcE4SSH0SwROHqFqkNwfPvpyUqRLJEhPpImTJDbkkTJCbHH4HDCJ4wfJCiHrSqDIEMUBw8FtO7RAgXRAgSiViVZbKFdbv4tl8Q9q3Fmmyz1utafHVKaMWwq0gs9qrEZ8kIhEIgIgSREgQIj6FjkSGmJOTp3JIp/DcS4cP/CODIEEIggNdxCHr5ERxCcKEEEEIsyCMsQJEECcKEIgQhOCkIhECEIkgQIECKECBEidMIZEwn7PsPsE9hCM6g78DYTEvRItisp1KwhhAbgmoJJXwVer2Kaq9bo8CzT46pTVbNNVfxyvWux6n/QLioa4zr9Fh7HetRULLLavaVaVK6P4+jC0rSpXRnlqhBCIRA10gQIYkjYSUrF9mQpk7hIljmdWYQiQIEifSBJJKLoWlCuvnbTE5V601eC2ymq1VK6u9WW/olMIosOtjvWpTRl9XtLSpXRln8SnatK6z22au1rXV7FetscOEIaSQkRwjglp5jRL2JCDAYZwTgT9YWzxIjIRQIEolFtfEVa2+O861K/EOhfz1igsutjeqpTRj/GKtKFdHW1a3UnS61qV0pss9XsqtHRTVXq71oKtPBbW2Fmm2OkESBH0ISECORCfslhAkSJK9B9RIWr2ERigSiUISTmhTW2roV/z1xcECGDYmQEuZvuuMLVjJZ4YNiOMSA8k8wiQGUCIIECUNIIEkolErYdNboWlCmjrbZ4n4D60K6MV/EVG5rbW2tSnxi1V7FrZkEIiQEQkjUkdwkSwNM7h0TZLGyQm0CZDCBKH/AIlhJRkgaEsIkCA10hhCwa4JcIRDIlOEMESEGgkI4IhJYRx4CII53zsJDJEiGQyHqDoLASJjcX10zWB0QIkSAyklEolE5T8GmC0Wp7FNHRfW2tSnxirR0LC+Gr2rXzrXY7OEEECCCBH8xSoWXs87VWjr454aFpUq0prZfCWWgoF7rIjMIqJKCEQiHoaUC8IYo7Xy9khD2GZwJDbgZk9Eu8IECRtCVmRxaOtlWtCuqvYq0Zb46vaq1861Kau9WK/6I36Vy2S6XP8AmXsd4ehy/LPf/iR+/XlkENFNHXxShcEZ9ix400p5+EUEhYWfPC6vpoXZ0kiXt5idrvWhTShT4k6rZjCcKYggQJYQIkBrOEyWLRDjCGdJYm8UiXomdFniREQJqCUSiUShPYWqvZ40Yr2rXz8Y71f9KQS/tEab66GTSHqpCuCPrY7xAKHkFAMqViVb0hULNNiydMjVw5Impm/IhLijXTSg3NPBZnLvpnEJbZBNZRxC1PVUVaUKaP4RYd7Foy2rvVi0dYRiCEWIECJESJGtPI7JAjIZieBL0fnFdZ4kBiBAgSSK8ToWvnbT4hi/oCjm6dBGJOdj7Q/HBOErCekoXMbKKQxRf/cMK0NwlEogNIHRKIYSjglEko4XwFzSH1GfklE4U0pt88LB0+oTQ2LVbYq0qV0fxzvYhfIRktHWx/GFsqswiBEIgQIiEI1yUiCDGJgmJEieNs8SI2JkolE4tqxXtr/DYof+Dnhc4kTQQR0ggWv/ACfcfBTOOSI4CWEc60l2SDkkSIYkCQhkCA5JQdOnSWMyWQCLgUUT/wCC9Btk906L7wgRIDonhAkkoU+KsFm2xVlj+SrR1td4Wa7FsrVbFoxXsWkHkhECBEYWBYIGiRIhnRyKSWSyXgxT+G4qxRYdbPOymjXMVor+MKtKFdHnGIFZCIRCIRAQIkSIrRfsbCYhkMgNMlhOBITSNsVjfRHCBAhAqxKJPGzztVaOtr1VK6q9Exxaq9qrRivatVetdrvViXcwQIL+G4qG0FPLrZ5200dfLBaVWlCmjorrb+BKhZdbkEEECdIZIiFbzz94I7k6S5JEskfgbFggQIQxBKJRJweCzUpqtCjFVoy21VrbYtfOtNjvVi/oqoWXWzztpo61vYeyq0qU0oV08FnvWbrYq0b5stq/iXXyCEQiBAgLRp+xrpDO5G2SyWknuESBKGTJJROVe1VoyxOta+dai6u9ltr/AA3FWJw2ozlEko85k5gq0bGxzKvC+F8aUKaUxWWW1WqjYq0qV0ZbXzo9rrcetVo/hIwvNEECshEMIjSQlkkSEmRoDbE2NhZiECBAlDFCSSSTz8Y71Yr1oV/hvhDIZIRiMkSJEiHJDIZIkNEMkSJDTgR4IwIYpnQdOzhIlksZySJeiWDK+uCxPjJQgMMSSThMSicu9qrShTR1sewq0ezzsWjrQvgaaq9i1V7FmEQhLpDSpAsEEiGQ5w7hIbZIno31hEgQJESSsT/GXKaOtnnWwq+EZb4UFhEEECoRQQiEQhrgnM8R8CThMkSEuksEYLYSJwGCcWY+RGMSA2oG6QJRKw33atHWqTzq71dbPPxyvYq0Ytq1V7Fr51phCIRCIQ10gQzMJZIZDEZT+G5TR1s87F8Iyx5+JeMvCmlCmjratTvakQQiB8CIIESBESaaGR0gRmNsTEiRLMsECBPSSSSRtafJVWqvYtPG4tHQr2KtfOxa2Fqttf4birR/IVXwjov/AACq0qV0dfHHq8RVpQpp4xXxkHMIhCEQQIkdIwkSGhsRgkNwGZImJ8bYxI4MhEEkkrFv4CwtGK9irVXsWttlf85cVaPb52qtKldHWxane1Vrpo6/gi6FlFSgsuvjL60Kaq8vFtXWUEIhEdIEMq0LBMmNlhGCcBtibPDBMgQIErBRqr2qtVfxjvV0K9tP4bknTp0ckjp0hnTsndBIlwIdwYTZLEEsbYmTJksV1rzCBAgQHEhKIErFaOtfgtr51utalNHT2zqt8ZbW2tPkNBZZbSMoRCIRATJDBoghjTIZ0UnSRLJeBatT6QIEo4MNq718CvbX+G4qFmmzzt8a6Cy6whEIhDCshhAgR3GO0CxIxJwQIEBiRLExLJYJ6exEiRIDKSUSiUTgqFiR1tQYs21oU08CvV3rQr8bTRlti0Z57FoxXpAgkQRhDVpDDCRA7hyJjpIlguskSAj+JcVaPZ51tsVCy9tviX200qV0dZwiBDIiRIHTTyGmQyMHRzAm8E88919vpKJJJIQU0kV/EVKfHqtGW2LRi2eNGK9i1V6RuWFnhAl0gQiBD+MXFWj2K9bfFU1Oi3xHsqtKFNHW1L4xpuQQiEWIRDO13TS9jTJEPDp0TZLJEsG7qzfBNECUSiRbKrR0W2rR7iFor201V/HOxaeBavwf+G5TR1tWq2tSmjfMEThlviPZVaVKaOiuqv42tKbFettlNVeYIHZAhkQUskiRBGVIkS9LUTwgQIDFWqvWwtHQtirXzsWrvZa0/i2FwJksljbEyRLJEsT6SyRMmNudmFpTCIEuEBoMQIENDmJ3VQtFNKamW1eyq0qV1V6v+BLa0Ka+dqohEYNBLpDRtCEiB06KcJZLJDC1An0lEolZL4U4LYtV8+72WLiwsPZ51d4WpVl0LTwI84YjyeM+TzhZthaafCstq8mMuhULNCryhlvjK1tq9iungV632Wwh4thZYti1WHt5z51Yti0YsL4//8QAJxABAQEAAwEBAQEBAQEBAAEFAQARECExQVFhIHGBkaEwscHR8fD/2gAIAQEAAT8Q5Xl5G7XpeuPnGc5PJyHHXHX/APIz/AQcpEG/JmB8s35YFhZGPhfwn4Fn8v4OA+gW3y/mX8r+Rfz4n8rI8n8L+djyfl1H538bq8v4T+JB/I/C/lH5SH5H5X8IH5YQdeXT8JCOvkikOMLJLILqJscEzvAeceW7Z7wGzM5Iui9sNsywsD5aWPywv4Wfy8+Wbmlh+QZ8jJD84YfhZjyxAFj8sLDPLD8sPyA/LDfJPxfwkfJBEgdXfAwE/lBzyKfyv4Qbfwn8IjxFr1avL+V/KPzn8f8ACiHyMQI38r+Eb+Tjfw4srEdp9y0tOEu/8ZZ5EnDw3VXZ43nP8uwQcn+nhndnBdSN/wCQyX2+xb1ellln+U420vS8ec5zjP8AGM8Zb/oMnl/z8zjI/wAvln+POA/1u8D1ff8AJtracdQcZbnGls/4B53nq6upz/WmSQf5b6L0h6s4OfZGN64Pq3xn+M5bpPDZzll3JHA7nvAJj/X3h5bxHvg51tu4klh/0cvG2w28v/P8feDbP9nGvGcH+Pln+d5+cfn+ds5f8CPODv8Aztvf+Bgt5f8AI29Q8ec7bv8AjOEifbXkOHjzgvDg4LuP8POaScZPkTEcPR3rjCLNsjCeHiJPGH5/pI9F45Ns/s85nHi8xEtsMnDzv+dBe/8A+HufOW/7Yss4Dgz/ACxukRycnO8hxlucnllkF5wPHfHWy8Y8E/8A8G9f4P8AHpDbe8HJ35H+Pbz/AAvBvHnDbwey8Zd/4+8ac5wcn/8AEvfOT1wcx729bZ4HP8ZZeIzH+N5G8HFvccvkcPDmZZ3z9k5znOQmOxm5wM/7bt/jbf8ADbn+O7bNs/znd0/43/G9yxIBwPX+M4Js4y2+SR3zkE+zZH+dy3nctuv/AODSeC2LznbY43ny0/2OMjqZP8lt8jjbr/Kc5zuW28fP8dxp7Xr/AD1y8KPT/T/jwQn2P8vvPu887z5HDy/5VpB9kcDWY/Sz+wZT9tIH7A/bSYhP23WJ4YbW7ty0tth4HjZW9c+cbbZMPUvUc92+Wl1bH+NjjouuFtic4043nbcttt53TgeF522y3ONtt4O+Nt527/zvOvOxLwcMW423Uv8Anbt8tju6t7mPGWOAP8E9Xghin3fYnk9ttmMH+Nltlts4mze7u7iHB7PAtuhxsPOXn+3jJj065jWS+b8PZ/ePPeE480sMkLotzvA8GcMyfcv4X8oRbtLGfS/5nHyOILPBHHFPFdHsUC+8X9oH7f05DP7f2v6Fv6tiP239X9r+kFfYP23hjvuS+wH7AtP2E/bSUgfsn9gWP20/ZP7Kftl9t/V1e2JAe2/q/sQP2SPtlfbH7Y/b+0Bwf2n9L+l1TG+39LL7wY/YB9v7EH9v634sI+yX2G4M3w2A/bD7Htsi/pBPtj9v6R+k/pY/bGe8X9I/SP0kft1e2U9gH2/pH7T+l+TCfbG+39r+1/a/pYI/4YScO2IL7f0svt/a/pf2s/t/aHIu+5gGtj9v6cwix+ln9iyCdm7Y/eOn7ZPsj9j+5P7G2HTJmRjhIyJieoeHnP8AC2/qE/ZThq26n/GucJ/g4UsPy6/LSwfLJn4j8pyury/jzSsV1WVpbWdp1snizvsnCLr9jFtkL+0wL9Z/eA+3Z7OPUQht6s3uP7xJ+l3e36t/ayPbb7aeTWBHt3eyJ3H6t/TiB627vc/rf2nTYfqwf2/tf1sfW7I7+o/a3N/sP9tvsPfZeS/s6feBe77N7fYGexggJKbt/wBcHcZ+2x27+sf1P93Z7Pe0S4/ubsl2v2G+25B9ljD/AGawh8DWv23dEoe8GoYQ04P7W5ZH7W/thZZaWTau+A+stMHFLYZd1lMPJunIqQHAh/j/AD5VT3CAjgeyWctsf5XrkjyTsj12Ti0mCeBT8tDay7fOBJ4B/I0u7yNfJ6pd8sv4XW/5v+YoNkWd4SM7AmBOLo9ui/pH7T+kfpY/YjNp+2n7Kftp+8NP0hlmnGksdTrnS0tG84c4OW0t843u23udeF4zljkeBz7ZbYS8720hH6QnXco2CB+2ZSDlm0633g/pf0IEj9hscMP2UIB9sNpdb7ewhKfsMj9urq0hC0ttN9tP23vgS2xbaftv9gS92P20tP20lCEgMv6t/VpEEtDJsWN9hD7M0uj7A2RaciWkWRk3lvOSwy//AMrxgR7m0/yyyzqMfl68vJNh+WRMsb4XX5dfkZJ+JHSw+XV5fy4wBk2YcW8nEvFmKyM4emBl/wBT/c9fW6N1le9hn2eDffYRcu77f3n9r85y3RGnu+Jy/rP4rb5GPlpvXBkecH8+MC7vI17I38v523Dl7rstuRQSvl9dcDi7YzI+ydfb+nC78D+t/Vj7Nr4yt0+wX2CYgzdPvARn9gHt+LFAdrP6XtDx2/rM9T3H6w4X7f2YT7OJ3IEKW/Ns7r2zUNzLn7YOCXq8EM9g0xvd8/B4Eps51+0fRf3eHL3jwt3f4XAIrjU5JCxP9Jg/CQWt6s5q/uz5jtaIGNxZtmcnHccbwcPC6uhwxIyG8Dn1eDjeuD1a29s5Z8LbOF0Q4FkumcL3Y6tJU85OIMxgJyfGTrx9LNkmfCMvSyzAMws68IsC6iKkWFhdZNA5Pe5YdR5F5aXRX3fOE46uRZbPbxb3HJu7i7LHjvUMx84eSy74b3wEx+XqPDeC23kMOAzuXWD28hbZzByHjuTqfbDymXsnsgYOrOJuN3+wTt3fKDllnPvnNeRmW2XXE9WEwEiDRZBYfkX5JwTnu3l5OU4XV0SL7DJLb1DnAtlljD0hsjp/2d68bbbx8f49L28HLmYt4LzwbET4ku26kiyzm+cZF0DdhfeEho29cHCe3d6sskngZ7eHBPl6Ef8AHVv+IWdvHP7wfcQ5bbdlP8MC8nA2z5LeA8HEZnBFnLzznB3izLONneDgOE6Ym2Q2ME/EdHO7ker0zxhyn+Y9XUcvHO+Dj5ImCTqHvjeobNhjd+RJwE+8LHG8bN4hb9kvu6Ub03ZMgYH7bYgsZkCHsOwHEM2HrAlssmgfJUFrOc26vbRl03pu7eNk5tnECVvOQ94XBia869S9T3uzIt46TWbbeF6Ym/5b4njePRPrF3x1nl4JTj0vXkcvV0DnGeEotthvb1nGxIk442IdN2XJ23XEecl4vH+M6gnpePGcfEeW8J2t7dZxsXlFvJ2fd7xvBgdWc9P8G8NP8dSKjdcr7ZvHIz/C853nL5Zy22TeZGysv4nJWP4y9jnwnwm1freBEwwz4RuyjPY/rbdW63d9CH7fSmYQBAfbc44sBHbHe5B94CZm9LGf4RWnTO6bCcPjPtaQmWw7wvlryuULrq6jDNW/94buz3/leSIz/E+Mtuu7E2JvHe8QycYOH7bdTsPDrjOoGzwW2wy9WdW8F8mHO8fFnDfJV64+xdUn0Wxws9f5bbxDx1MyZ3b/AIc23l9S9t3hiabyw6LAscNkUeQbeCXmzWyLx5F/y8HCi78jhsDfAalI9kGIYEDxJQdynfANGGtPbcgYNvdul8hkPt+iFfUAdPAx4JCSd83hUaJZYzW1STbSEIXqznhGV69SLzuFatfkOemfPU94wk5O8tYFT04QsUeMfe8ZP9LNmJv6cGX2PF0+4EH7aRZkQk2eBxhO8hH68ZR7AAsxMQqiJO8GbEB4s3Qh7mWz3GQn7yOnkKdnlg8dXX5d/k9vJ/i1fLEK3Lo8tbau8dY7OrbLDy1Cn/LeBkOGS/yxPJ5ge+S7cpdtw7p8tzZyt3d5bJHeQvy2fLVpmSX4hfluWQp9shWupVqfLxG3Em3ePaVC/OGktJEOD/H3/WkPCyDrkn1I9ng2RljMRBkI2CWA/i8hDW0s04U92zkCF1bImJ/PtlZuQpG73drdJN5Fsh2kax8OD3lmNa9BFvMdO/iXfJYCDgIgC6A6vlujFLq6C9q2D8gZ5ANhIZ4P48HVDp/dFFvfX2e+90eEGco1eMlz4nNxBTjYEyURHbJiIyzwI6+nCGPZt3SRZMZljC2srEGTOpgtLyxApngw/L+ECB8WBAQFjG0IwgWJMhAWGdFhZgyBlhIQSdPV2gFhID5AbHxClkeGF3OoxjDfLHVg4AZYfkB+WBEoWLCwJRuqC6uoDJw6eWEkhwhqU+cGIPTAw6sXJP4Q2BhveMLDgNOM/wAjNtsxzsdcUbexON38DuQa6m/QRyDPx0W9E8eM+zyJ6jpvZxYn61/8hA/5r/7fPYje4PZheiejbQbfv8y67d+6SuBLqxGbEOkv3ZjPjLuNi3CX9IjdMKpD+fFDAmnAyw2WAGr1AKESxjxtr0ZlHAQ4w3jwMvct3P8AxmJRKG++O7YtlhDtfq/sXltljpwbYN8y8CBs29cLMvBz1DteXh2tfP3htr92mJHBu426LqYkA8R7z/sVkjT43LzihD6HwiQ6K/ieJdWxFtyPrwHuXjukeFsTmNu7fkkOm7jhevBz5vNvO9XtLZeSaXVk22z0Z9t7YH+E3CPZQvZBFysTpPklmWNgJdTbwEewXfPi6FsMnGxxF7XrnfeD/Gf53lvPAT/x1v1gNTv4i7Xb/wDhBQMcAuxQHYYIWp/LeADR8zcJDtdt9vmtW/lrOoRD3udOMg0hP6gXf7f3Vup29um69BwJGTp0npOdL7n3h6Nkob8LQ729997RpAQdiaP7OfQhT6qB+rhZIP0M2WiaM64f9uWGD/mrMW/+wWQBt0DrY51Ll34ZBif/AEXTbf4dnmkG9Lsl7Lg1PwY6avcf0iFpZJwAV2w0ohtWkN3/AIsce9WaUrh+wDpaMbWAxb+RvV01Ggx+u8QHERH/ANiMejwdrC4H8/UEAc+RgC223ufZYxwce0erJoPlN76MMwlsevP+3gA9mzIp1/VhXDkHzVrizjD1bdZLkntXD98CfJo947F5Tkf2SwsvfGeiT8EPLEkP9xthUH6wp7D4wZ7eryScnA8PPAwz9Rb3G327yxLZjuXq9sdcdW7PyNO4TjLOCVMdt+Cy703MicgjkNsss5b3/h1LwyyWHioMvUTthGsN2+W9XWQwNmVsnPYcnB/jP8ozw7hah9ZJA6IZ3m/+r3qYdzuHSf0PC6oktft+pAY8v+kZoI0/+ol6yQ4W/wDWEb0sr9fJ4dsz6ZUxyfw/re4T6/8AOpg0Y9Sgkxh/1eQWcRnXvDwtSdfX8LoIAPvWaPL2Ov8AzYNIca3tgyJwPUwGXI18ih7fT7JZ7AmW9Xyo/wCytzaJ/gJ1X/rOIQdszc+v25Lgf7bGyYMT9fyOI736QJVrNim0YiPdNrTBvVn/AE5NI98BhmDzZ/JIGkebOAl6iR8Icd7Q5u/BlflcP/WZntP/AFtlPVfe/kPsRy9lUf8AL7Cy7YddnYX2hNHfZL1FR7n3e+x29QdfxNMxt9jvDHdp1wczcf8Agt3vtcjPvAtDNH8KQIZ+mLx8tf8AZEPUBfED+rDkazp+Qb+ofGQD9YqRD+mTGL3H7MPkrB47j9Zb3Zu46zw/vXtiqp6m3hfcXa/pGHg90m9S+W9EbkuPDzOXqXaW8bVy2Vlw2bvXLdCc9bWA0nyFB1LSXB3jj7DuEu+rZQWHZxC2hebOrIJdz+sC6OV0y0ndEPcuByW2CGcblvcCUu7YASb14RyHOsW//wAL52ffWQRPz+//AAuoLORGVsUHD932LynSGmMzu+3Y6mm3Yf7akRlPjIpfjwdgNKaMwcYaq/fTAlug9+Oym8ffzLvGn4XarXX1l5fXQdkY2MB6TuDkP53to4HePZZ0xtZr+RfVNB6n/bAwFj+2M0dfoWiR1Xmc/wDVfdhAr9HLzOuoGpb8ZIfMo7fIgKbwTEQb+B2jAp7F1F42aD8A7gRfqH7Y9dMEt12aBqfhYuWj8zYVo+3428E/g6syq/3+woZiNri3B7kfQ6kOov3otGH8hMJCiN6D9+tg8bSj5KW7+TNi7oZISD02x9ZA/wDYOS7CLydtJCYdb5b19YOgLwPdfhaD32Cbfu50h+t90jWeECHvZnyro56kdbwRLsjKh4YGAedQF9m/Wn+SmE/VbV0NZx0Rdtx/ZZ9v5dkbGv8A8iFj0DIfQh+/+E9jgs9U9LCNes9gYfn/AIQj7RkDJ+dH9tZks2f+XiEOZQzAL6kk2Hpz6T4u2zvLqf8Acx5pvBn2QRIbxh28bDmWH2y9MHsCRkBmWx+2YM9sPVggeyNtIotk7H6Tk9xzk45j7ivt/S6vYyQLaDA4YMDZlIDgEEFgLDdbMynO2nMtO4SNzdHYc2TBIIENdbFxMWkGxkI6tP20/YwhH7OPrI/w8Gf6Y5/RtnH5aB5a44wvZZfyqLHQkOgtCU5d8ef8h/dtHtkdk4AR+JpFFn9y/mqBZl2+dEXUL1PvYXeuf3ozWkkhUv1wwDL5Dteaw3c/5IiSeL6QRh4KPB0xc6PveU5oY/E5/wCENms/V7Wcsb162hHyXb6u7M/fpdx3d7QAUDoDIdOnpZIekx7wntmROp+TIgcEhmUw3e0GjG466/L5S0PyCQ3p/jr/AGwct2oQ2n7YPYjriT+s7kK9HslmE+9ROjl9T1gE6WY9/kHkwIOZ8bMnN03vWygpb1/zdsW/s0r8v0btoh2w+YBrOF2rr+tvXSKbnFo2eL38X/FqhB8y/krJ/D5CDzE+QWSDo9EeIC7Hb06DsJ+9Kr/WyPp+n9u7ZRAJgRTAgJAhY9N9byZA0VGm+hCOZUfwWl6Rn87WGWmPgICMLSaBYt/iAX0L7rI9jIa3qy3HuZ9lLD7b/bX7C67bD2H+2Ut72/RZhH9W/wBtH23DudfYWW/28+3d7eWLbfVSAYcOm1LO/wCrH7OmwPJTYyGBwQ3TNMQi3T/g/p4hI8i73hIiYhfvEAu1s4TfCf3atbZXmP8AH3gl/wB/Z9ZyZNmDxts5epLuNw/2EyONudWZY8Hq8o9lm9LtyrJpwpWy7Aj6Js9h2f1l7T/p7Y8Dpj7EhBsz4s4yOIcZHkwZGZWRMFiOyLEDdjQQHIg0PskMOf8AbAa1/ZF1ne+2mA/ol3gMf/7YdzSdhjyeLH06OpCIqIPIC63w4xl/KA420Owf+kCHUYk3vD4Phx3ZeoOuch2vEGwZyHFy22Ax6Lqc4fJkb5EEHPPy28XWON41scJw88294YaQbIsMl1K8T5MLIH+Aw64OBpxe3rltDDvjbq2Xu3jI3/fzefBx8eLuLeM6QmEZeW8zW1bSW7usbbN2C6cBtl0wzYn26yNs2a+cF7dgLqJS7neLw3nBe3fEYZ6n4XUW/wCLLY3cRsb74/OFywjgndlk6IXUXy78Bl+2cHzjLLOXk4OG93Zw2R8R4WcZwd4XewN4Q88st/LycZZPS98hw9sCFm2ceZcG2WbfYOrOOrxHqeDlY4DYYF2IQ2LToupfYOAWdcRthybpSEcO8cHOFk8ZnB/kyQX3huy2ybezbxPDjerZ9S6t5P8AE5eDgi8ztt4YPqWGObg7dy3afX+Nt4bF7dcuwg5XePW8ky4k8FxD0RwxnnjIQvRvWbbfy27iPl1t1x4upxts/bq+V74PWCyL283jOeslscMli9EDLqOE74bEhw9Q6cheLOTbPDu8L2yDh0Lvg4MQtJ7jS7w6s5MyE3LYTP8AHzJeTPkQF1Fk7xwf705zjP8AGBzh6oUEF7cbYT921EkizmtTOSZYRl5SC0GjOjyxkRWbEe9ix+weIIAFixBjRmG92l/a0/bS81bbItvm6QzJbbxPFt5ert47Dw9bwcfOPTuZjbbs3cdMh/w+vO29TnmOCb2tsWxxHWXpEXcus2DZnxvTd28BsYjjOFB1/h6LrxyzhG3jj5e3n/Ek4SGMSyJnAPXLb4tISeFhduGRKF2mMw2+xh1ZBx2IZrgnl5tiWfL1B3YHGYNnbxPGQd/5yDj5y8kayDsDEB6neoNp3zf7eaS7vMp8EF0H+eN1k4RxS+LFSJ9Wln6RS9o/ynok2mRAy89B0frNuCf8GRrAK/bNgQjHbB1OGGcKYE3otPtv9n+oee2Uv3C+N05vGZe2h3BB3M4Ti9Wfbq1eWHzgH5l6Mv4Rn2Qx5IfJ0udEfhfwt75N+WHy/wCeE4jO48yQ74ph0g4WT3feIPIbPACQPcerY5g+kMzY4M2KyWUV3Q5FrYsojsjR1YcQnHciC/5n+I3d/l2+Wvy1+XmXM5Lnkst/luVYS/yXkLOJdecR+FuPzvosnnD/AAiu4WbduzZsWHF7nAQOSz5IzLwN4CY2atEKtO7p1FyNzriN7Jxk21a5aJXbE2R8cASwxNvG9/6W8cYq/dH/AOz3/wDCzH0z/wDrPsu6JYxX+35aKG+uksj/AAvkCd/X4T4/Z3AnpUIf+Nll0BLOf0vIQV/7eJaHh7ET2P8AxloqUH/G032zpx+F+IBC2NkwI7/4c7bLzm9xxtu8VwtQFtrd3on0tISbOp6Q9zwRkBAHy6us8iGRMdWH5ZkHyOLQ84v4WLEBZIh51mxIssGII23MSPxuggCPgBSIIiVsLHA/lA6WGS1XIbH5BsVk7t7DqSZhSzdYCz+WBNi/lfys5eGKY/LCQkIt8gnRYsRNID4Rn5HawIdWcsPzhhYT3QLJCwHl2mMuknLqY4HlhaZwedsODgKWBfL5d7zHJwOAhHVsod35/wCbDHkJjLE4WWf4yGT/AA8ZLjD2PSjHjAfBl1XQH11u1U//ANYoW6/Xr/Cf3mO/wbWgA42Xfpf6Sgw9PszZm/X6ccnY9jp+DO7kgT4KiUCHuLYtYJp3E4QezL1O0hGt0kHfc9tzW2nrYQh0BnXAIrAkuru/nVjQRG9W5bpN0y3a/wCsbbxq7ZeCcjOQZtriMaSf+G16tg0PG5y8SfRO7E3rY57nD2D+6QvWPof/AMjyQ/Y8RIMW7Th+OA5fJ92ywx3sS3C7scRozdqWGSvBHU29w0lJM9nwLW6yT9bBF1Sx0FA/dyRTA/G84eR9W8MvfHLeN4ukx1dS6s5dFvBKUYuua+lucnxsbwcHvDeFuWmcJBkQbYW0kQZbCW5LsDYXjS+NsyUHuCzGQbDvAZdXdOUIerZf9dRyecEjOgPtgvOZoHuOAAdx7f8AW1mHbj/8thgKmx6Cjf1sWe8MzmAOfVfk1JG/k58L46zrA/CLwu2V7B+t4Ks/6wMY/PEbnX91DSHTriOgf+bBe/8Af1+FuXBZO1C0YDeAEfiz00VQPX3/AJbkiGIRIPt/e5LUAXTdtdfiGbf+W0sYA9dXoH7dllt2LPrMtyRzf5KxASXjx/1AAWzv0Oi0MiYtgi9LQxmEFhey+ECEeOf4x+qQg9qa2mnXdfHPy3Gdxz8UGMt0yNIQe/E9d/sPRLj1hR63FPwIXZJ0tgWWrbL8b9LDAa4a+wyMq9JlyPYD8h6dv/pIqepHt/Id2/lLqMA9WPW0OamSMu/SIOxthjdY5e7yXcTpAP1cC/8AVIeWRMSh7xf+37J2s/t13mbb4z/D2YEoPaTof1gHLtV+DJhXY/Fvi/V/+yarAVYp6rC6oZrPm7CQhniPC2NtZl3d3qEyLObYti8cN4Hd6u0G6QviXyZMYlJYEvi93WNG2t4bWE7ITOb026UtJ4W2EJyHqYpLu3hgSFvjmClYO71tsPEHc+mcQTx1vJ/theHSmO64foxN44/zb9uw2Sj1P6NPGygls3UewPUtutO9/beMxjxv2wbQMBZWI/YBnvDt382yrcpnZq0JGe93zRxHsZa9f0H/AMLWD9//AK5baYaNkLuKdD+R/UqAu5j/APE9HZD+nP8AxwF+Vu5+K/8A5bmzenm+7GfEAhDu/BJYQTfjxLHt+ETx86gY71ZHev8A/hILkwv/APoQzOvsVMPw9awn5Rf0/wAIAZ64g+gZH+t0/AgmL2v6SyGJ/wDRslYgv6tlk3Mf1gTVO1Xojw+u35n5CUEaMH5M3QRyP6cN2S9YVmv3zoC+/wDs38k6YGEWt6UuyEH5OqdB/wDZLWuh/CXuVfMb+Qx4zPuaxOwdt/fy9lu5GfMOv/yfPdLNRrY/sNuj2fiLWRifpD339ZtZrrLwVcCeZZgfxJsfqz/v5WQb6EPzAC+vfQgJqt5aLUBxHpo+tryqLE5qJxbD3Jkx4LcvS+M2Q9ee/wDY97F/9DbVVbV/s49FhPG8O7e4sR5D3GntsW5PSLJeG3mXdly3SWGT9YbeonkbVk8b3Plu3ot6l7xGFwmDss8Zbbw2/diksuuJzwn3g2e9mbMN7g5Puxn/APJu8MXsgIgcw5QpZIPx8SNpi+PSFEZ10EsYo/EsZ7/2DOgfgZdfOPexN2VN2zOrY8HbAh6MW1V0clwyD3WGTC7nv6bs6tuX959lmvwz7kQI/wCJF8PnXxwvYPaw19GE47z3/sWuxqAx33ywod7Uqd/QlsxL/wCMLNN4nfYdw/8Abar0EwIWM8tm54xGEvWdBO77mnMeeo88nO1mlKuKgK9BbbdXtmjzVflqH2+Z3HMgC/omH7PZveMHvGf4l+xOrF/hDzY2LBBv6R+9ipquz4p6/hBB7Hf/AFiBdbr5OVfwHVvD+gwvuk7aUn6YB+D4QSg6TY+n53YRdz7/ACI/ifvv7Ew9VTBRf/GJ187/AMRmHuMRijqX/pdJ9vdmhuWYMkb7YZeMx+2a/JrRGlP1m9A/LTkkMiGGo/8ANLCjnmTRjnmz6stBXH/xdSDgE/5JvB23qGSU69J8IjU/+xLMvt8kscbXyQvdSO7Bh5XRh17nk2xvtpwYkH2cIEgCd2R3M920tD7P6WTqEOt1ekZPc/pCHtgvc+DGlkjZYsO7IdzGJEkWxt+ycorrS11e8BskogYwTFhgvvBNiJGQ/YYGsAdjKzsMCBSBnF0GW0kbLuypBI07YIdthDwWX3nY584yy9EeWS9e3Rljhl3fP83njrgjGOB4+S5my6Q9QuAn4k2BRdQbYEG6IkSihozQnXtfWCXAb7ZNixgwY7S9Ojf3O7GCG7333CZfC/lbfJo4PZf/AOTF1YHy07l+4/fG7gHH/ss6zxvRAQAEXt01+5Z4j8kuo32D02F3aNkykL0nZPM/peR79Nrq6+Jvu+UAdFxhbWHb9kEWPNPLH6wHrP8A5JjAbnpvySfv35Iet2CvUn2LekTV+rqMNi7/AGZ/S7Hd41tidWym2H6vHuxrwj8fTo8t3/Te4guuxOjKdRn4cAEo7/zZBQPAjGKmIHYE0l7WakV26G/oWzABarlhO/R2lX+nX/SInB/+Cc9Qx22cxv7X32f0nSNGN/a+OrBizv1BAr3b/Y29Zf7afbEux7b67hOa2D7JXdiNTuAWMj3WPq+1mBJgxhYI4MkhY0BDu6rLuMPJIZC8TxJ8kTokHEWR23IkBkCRZsshw5I4OGvsR28Qbsh2IQMjje//AOHq22eM+jjenhyPWP8ABg9RznLx/nvm2202XiJhEOS7yBx8jIddkk9wQ7LwWcHfscU3JwHv/s44/uNlkT78EuJb1ws5Lo59N56t6gvMWDlnHAs/SwDMuh1HYFmPll4herMgi1uFiW7vHOdWew7W94ySz5BjssBt0sM2NoHBxkG6rbwWTS6vZMvN54yCxvSQLe5OHxLo4Jk6YBeO4NkBh2QyONhqjg/9s49m1i8HDHl4Y9wR7JtkI/ww8A/weLyP8P8A/F7vKPLbZer08kMouv8Ay23jxeeNt7t/w5wTrgLYn1LReC646xmOOyQdH+Hjswh+35KdZDxvUO07HHzyf/kx2Qs49S8yw42extQ+wceIRPK0tt48l1HCWGT4xdf8sZyxeoOiyxstCvES8D3xJ56CHRPDCA7i+8bJTyO3h7hDrjvjoR9NlknXHsl5Ofl6cTjwmGiPCIuuYMasOPCHIew6Y4wdXVk7HuCzjJ84ZBz5XkvvLyf5PTjbTiwHci/tGZTJGw8my2YD2z+xmdN8vM+pizg3iMtsHY6I4W9LqRE8LtbxvDRM/YxD/B1Xm20l49jjY4yi1nG8ell/j85eTB3a6cec+V52ZYXsAj94OG/V83jeO2R5d27eE554zbzg6cMzfbXUujjLwvlDOA4T/Ff5aZK8c/Jh7smfIC9QvtvHlu/HZzqB1wDdXrZThS7Zdac+cj5y+5dIchGPbZHOd/8A4Cc9/wCG+3uXPZVu7Er0Pkgu+gyWrJnArSR+hzrZOCM6HETQCbcnOHpjjtzq1GzbsW52Dl0+QfyTsDM4oE7ZA/Zh0o8ugT/+kFpH8nb2znt8cOZtp+2P2xnsCu5H7aPtoPtplsezajAXUzpGhx3bxPhs224Ib7Z3eP8AnuC8j/A6bOsnd3DzZhmyZN1Rh65+Wcl1bDltl3qJ6liXkeHGylvLzrHciPLN1vDMMjryyhdnvBDq12ls4xm4jwsgk5Gf4Z152yU1n+jtz8/xCM5icLSEvS+uD/pxnd7up3wbv+e7I4eGx4fcnCfFmLfDQ6I65/ddv/srX3T/ANnpw3VpPtsLNdJQj0Pbo+RG88Yrqcll7d5Mv3OrZPthtgcgxafI/O2ieJh5ficXdYh0kf1LNdT8MYScH6/PyRvtnIhjH3l/7bFRH1b+MZe2z7dW7DTk9Tt/WD9QH7bDbAWfqMN3umyzC/GUcH8JbcI6eoZn8ll+e5Jm/wAtA6R+HMh19sT1C/JH6vJ1aeLPeuHryzf8QSIR1BIIDFsCzJv4ToIk2YMnh4/JtH5f8QrCCsLvwf8A6Nn8j+LSYHq/i2XeTQvyPSf56u3ycsYR8l6MlhB5sXnltXXGNvkr8v5T4EXwj3DqGDrgKacsyY8LZxOo4oX5K98uzyXfnKdMvjhPwvPks92zYEXzEwLvYeIGQVGZcpGVNOAiGsKeHJs7N3Djb3jO+ev9vXAF6354EuE6D9XUCCL4PTCfo2tbct2yy1t6f8hGnx/+I85EGmYRv/HY3PeNi9ZZ0x/0U/42LuI8ty27n3nsGOUj2aL/AJaL8qfwh7ihh22dXsj4z5aR7tjP83pKhjN56QLh/j8ry/fs9Md+2BtukzU8Gl1LzdSWH5IfCAMTEh+Rj5B7kh3/AAh76s/E0hAXyAXf5AeFt6WUcyML+UvfR4ft/Ed1xlA9fb8E7eX8oP5JjyBOg6jefysRMx4E2dRDDHTgMoj6T0dXX5YM5nki/wALAfJ8XX4RNIwLD8s1YETLO2JFn2m6SGyv96Loi6sgWBZ1fd/5B+WFjOD4TxOWXY9CfxzBnDhwZw8cYDh2XUumPn+ElUOW8idgtjakTvOpzvB/pY4xsiXUtnfSslEXf/Hw4e7oLDMrueSwJYwrssHWZ+pT1OrN4y6F6mmf8CM9h9+Q3oMZeBfk+M4jcHH92SuhhknrdRHG8Q+O/iby/wAoJpTnBepdp3IyS3b2kOxgb3sZ4fxh6u1vBodYzncvdacNhlHX+F2nxDM3Ferl02fdiKdoerZI4B0LUul49reMQB2H62K7n0dugwtVEDreOuDsngIGWPhB9jIHxm2KpjYnAbt/iepicg6iOJB/KbRkcJYWf4es4UnCZynTD3hYIPhe93yXGHq/9vLKbrqwyZZUP2zbEXQYHuBj6dXiwnY847h5BwIdt24v4Meo4G3ue4dEO54fa7cInXyB+8Xg4Hk4f8E/49RGq/8Ag9YuMAksJdPJ7SifpsKcOrZr6Feyyn0EY3OOx3ek8H/pOgzZ9Ojjeo46nG6SIOkGiXYeUk67dj0szQU/LYxPbJv3VJBwGD+2H4WbFhM3b1OtsnAHse3oyNwjrjZ/E8LeVuu1vHRLwH5/jOW0OGbwy7bbvNhYDMIzq9IvBl1HAdkzyJzbrZ+QRuRQgEGN3tB3nljkB5Meb/8ASEVLyBMOfJwfgLIL9dbIQzPD2EBDp86twtP22R/yYKF40iA4bvvCA8V5/sMbZZKzLQe757wvquQK7a6hU9EdgniWF+AHR+tiEHYcBz4bzNp3xron9GZGADdF/sTaS5KQMeksQsNsAbNQA63chOhH47x1lg/VFs3XOkmJA1YuBO5zkImw/UnCd4GrAnXi5AjXf/0cd2YwWZN4OcHrkzYsnhl1HO//AMTx7iueXRKCyPiZZ8xfuhL7yf8ApY4ZobKScr/mMJ21/XY3plh4vMhnZM/9IA618/IEOQ5SyFcutGnWeF2+AdvAJrdi9GSEjf2IYx9n6R+1/wCNycV7dPw/2w97Lp1oyTsUf8ylsp6UP/s8YIk36QGqEY04HqMMY3ZSg7XEX3rr9LU3ojk9Xnl4IZbkTSHjekRPssJ9b5y1uu2w8DYerdjYYb4ZdItFul7Wsl4SoPe4U0YITlGUfchlUrvcus2hHQXqPLB0/byIuep4j+RA+obXc8IS/CwXrPWv4QuYPDGR/iLYwW/9/wDkHG7yH+ElH3oLcV0dvh2/8J/ojw7BbG/8kABo/rC9oO4bAZITGcwv/D2xHP3IYnkNtv8AhSpMD1gOijP7DoGaL/8AsD1EPDeVFfSs/e1P+PB3gcL6aEr+5snr1kdXiwTX7aA9BmIymQTvD/wiwC1fOBe+mf8AZxD/APpcYF2th9yIMK/va1sCMDqCzOp8tkG/SzKg7mSbwsBEyQ5K8Nfl2jqTgnMwtuxvEcHLbbPLwEkSziA9g/8ATYAwz/MXqPPOt5T/AOAh2yQH5OMRjECB+E+l1QBAMj+zQb+Ct1U39nBC+j458ICng4FMaE/5dmbDmgdxSB+s9/1bW7sx2Yzf+BFEzf8AiwYXb7P72gF/SEYn8yGh/wDj3ZtYSQOl0vdupYlcTyPuT+cgQjxD/JenUP8ALp7HZcY38ssUC22IhBxZktg7rZRtiy77dajDrt/a6I/biQ5iQAL+C/RCl9iKUl1Z7jIN77MH1u5/5N/CMtAhAo+BE+/4HgVpjyGzcz7gHqkr96I0KCunJh33+DEPECvw8BKt0R+qEW9LvhGQRIX7DS/USHXXS87Lo/C06iP5CKzw3/p4D208JuaJ+rONTLS62Sbvd3zyy1h829KXpPWpADw6AR/iwwWb+0l94DPrYtx7dT0+I1pj92TDozcu4UgB27X0pbT9mJaf1gDIX2btRGH68Sn90/7s3mH/ALk/nf8Ag7ABeBn33z4sYDoHUSLJPzg/rD4k/gEI7YTchf2mqAqr23R2MG8D67AZhLqzlkuvq7XVBGw/eLA+2/d2viON5e+csieDJvd5RNsnI+/560eG2U822zDRrkMnvuH5B3jjZR1hwJZEf8vWw5Izyywk2PeL/wAOH2XZfCC8II4S2EhJIMDGFj8gWfgiA6gx5Yn8oMQSg5P5x+UHvUkbam2t4dcX8I6pBmR+nAH9iAjCDOr7t49sd7b17j+4VsSpv5R353J4l+gl9d2nYl5D6Sb7HV23TKPt0YmN6YB7P7kRjWBjsTvQE0+23ZR7L1mbL+IC72zmHwbOpe16+wpAP0m/IEU2wuIvD4X3iX2fO2OhCIX7NOOK9xoIJMBUZPpjX27mKzjAtcf+rv8AbL3bnc7wf28eyN6t4YHhYIEhtDRY/u6YSPrGgtg+pHX/AK45fb/3LNg7Q7dv0uwAFssYme1q+sPRZhdyIdu8mAQaxnsXlEIYslp3Hwv4WNuqw2XyCR5IHj/jwhSBPFjwW3nHyP8ADbE8gM8d1a7tjyS0DgDqHLs8ebzwHD4zmxwXssIXWcd/t2p5nke24XuPLIjyCbDAQzl8b04OOp/5vN5WbJx4b64ImD3Bd7MEsYZhxvbd2dcyc6Jt1p1/8sIQOByHjzswvIvt4S6IbQ0Qau7L6b/5sAwZH2H4szF943LTrg7s7kj1l0F3z8jvosgjroSHHV0FqkFkEIOv8d2GrVwBmdFhzrQ3/l95+JFkHVk4F78BYY8gZBBPU5ka3ecsvLwk7s6uySHWcHXPi82WEF5IVdQ8nG/4OeuG8LzyM+SN43OHszeuA59Tgtm97eFbd0vBZ/gXDeHyWvnXjQb4QbwvdudTBdcN12+8FvHUQf5vCHjIaRNc4Dqeizrh23Yy8s6W5kZb3LdOBrDL23yxu6tLeOs3rjLJdF3Ld3+s4S9WtWzeC20mYwvjh9E+AWT1dTMUO9+HIOI5F5lwBnGwur07tnLOMbdwsLwsbOm9+uDhtqXkLyLLxDVD1E9Tw6x92IT9gO8WcN0I9cHtlk0dR/h4J6if897bhhIQnDhIBsRxGZxN8Ntfxg3/AFdjplkx+zCmhhj5zIt4yPLuYnwHn43T+nG8oK+ENpDPJh4Zx6S1kzyOnVvVpHAO23lG25bPljLctveD0lt2SD7DJuzeiGxjeUEtZbTO7suMzje5US0tiPrLrD23brLsS9vZnrL5bxGy/sybzEJdM+MO7r5zt5cMOk2svPG5b1d3VfIhye47/ibL0298nAdvBZBw8StiXbu+OpOS2yz438OSzvierOHy1yPuWHJBtscN5bD/AJ9wgMctpIlkwEv+7v8AZRjYgDisMk8R+u9v/UNa/YxAi/Ju/wBnHNsT27nuytGb8xUvxzvwUvknEBa/Jjb5BfJ9s4uPkQNhDBCzwwQwJiO3uH+3fH6RO2f2t/ViAbq99X9Lr9sH2cs9NvKG/wDrCA92sXXxvTnz7LHUWUG3YlMYXkMMp4vuxb7dMHBrx1dp9mLQmAEuiGZ6cWXgZty76PGscPi8xbwxjOY64M/whbklg6f42XaLy0hmjiHWcbbeJa8aEO9bZdxdDjeOhl2w23cedt2nkjhlAZQmE/bSd3OXLrIh5/nDjefkJY4S8roJQsJL+CBFku+NvXlIDtbNzXwRt88h4DiT0f8ArktNOd7jTnZ9kZnCkZLsHFmXWRnHiSwjJgJ8s5s4dWfzg6u4RMiMlPynGQpZ2zPR3YzOH49lDNbWe2IdzHay0M6XpQgv1+dlsIjMWb2adM9fcH7v0ZPIx3fRJuZ1YA7bpNYZMtg8HLPEtH8v5T+d2ep2In1Nfl/KX2ycNySQxkHwl0WtrdHnEizyInll5Nfkv8Yw8lD5a75DnTvJ/tDfjx5DqS+cDf7jd2iCgzJ+V1HV/C3Ho6v43w7ujyxcN/OFPI08jfyIfwv5R+PEVzThONGPN8pb+bGiYapGH/8AWAEsnfsIWnzq1PAd+Dfm26oamu2MEG/eZkWtjx0fbH1hi9RM5cvRNPkH8lyH/G851Dk8q8RNGB1DZ6fYV1p/JOr6h/xsGTjNv09/+tgCuw7vt5tNeCX/AMl+NoOopy+vohMHeussve226Z6l0jcl5PV5f46y7F+csN48st64cZm04dsl3FnGS68bDwOiPTh2Hjr/ALdMD/8AJt2HL0ss5QbjOueiS6IOcx34JnC9XdY6zgs7iT5mXmGFqp26H2XVpTNY4EZjqwwGeWGxcGGmx8OsTjrr0A7kA8NwUy67dWF/Kw/C7jIzDqwfSQtC6DNOnAw5y9SHGQwF1mGToVADVbRbj6+XTL6EO7YCAnLuP8Ex+BKU5BMKHbJ10vj+XTkHCPXuDogcC8Q42AfSxnghnbvgGjertg4dZ3nju20y7OOcOch4P8s3qP6Idf8AXqJPodbXxd/e70mXZj1M6D/9uJ3DtkG3nYMm+t7IFZu47pAAceI++wE0bT4dslx0JgEPgWyHkO/49EOPl6fLrl/D5YPKPnHr/hZ8Z5rE01PUaFp2G2CXSNzh48Rdz89sR/GG6tn1JUbvYeC2oeCXp8IHCfD5AZo6PYxeZ9OGexdl1xBhqexHRi8PKx8h2s4zLIuJBgcGcZRDOG2iSvdpbxsuvDdE0RgDoOi0n0S6htgu5x1kqv0RYIj9L/rDTs5pB5ydSPJmwXvzxMYH9bxf2I46yeAd2EsfLwcN6Bzf+Rkh+vqyBqT7tNzjOoyBiRnHyIH9J4yxbkI+kx/8joYMIgLOLy8IHKevwkCH9D2wKj9W+bG7/lb3wJ9Qe7eDbb0SAuzdSeSSZ8jjv/GXRx3/AIeOrFcPTH/9sdeeWcSE6m/kQuhCafjf20tso/QdDDgv2ti8bfLoR27LTc/ebqXpQ3/y/hcKln13MFaFZiNPffrZIx/+/geCe5dM3adWGkRB0WXsf2/+SayDrBqOPllk2882f2w1EX29mPZgPmMM+kga+HszVm456JCEd00eG9mjcEW7VQ3n7J9hn32ZPbDDhvTTmuwxwaJxtnRxvv4WRNLSBDcFz5t2nuev+SWI67k9CLjn+LK6n+uxZdcZLFWkpBPBSfc/x1juJ43Lx1d1znUXlzYoPmrJXJp0H3+4R/HT9yUntCf9jdXV4vN2eT6Pod4G7Nmd32N/bO/BeyDok7gdeD+oAA3Pnas4Jem+seh+csWG3tttYXgOEOi9SZL+X/hbs66tF3CdR1mrJIQm6VN/EWEYmfpeOC6mc+CSx7ZtEY3x2uuGvdd4OTuaI7M4H1IZ9/WSME7w3/sRUdBWwoAESqLT6p6yEX/0kwXvIM+M3gu5b0XzgvJ9XtEWf6PsPUcL3x7Za0Lb/MLZzpc/42frqbOnL4SSDdTme2C+DC3MxFCWQQ98G/m1rVeE3DB+rD9yMLnltA/+Np7KO1/llsp3H7mCIA/MmMvMxf5Yd5Jrg9t+0KnV4Fff6RfWMziY9Zw4fvxsHOpC6e2KGBclA71xLv8AmNkb1n8t9o6f+mMvXVeVD7YAHyRb/gWAoAHrDBj0322R89jpD93JaynaRv8ABAcCAA38ly3WetPQwAvfi+QWHvlgJPWo3LV3e+r+k+9Sh1IGIGHrrt5JMnpsihqMdtpaC6Q/Nhzl62RwhFf4f4+2mvDL1bN8bqucHO+uFp9Y2IkPu6J+Y1dfWPoBfhtoT0UpZI+ramANr42ckHIMyl5+r0qgAkb4S/8Ab5yr0Mm03SIaXIl0DfzIu79yPCzqfDCa/LYaP67Y+IdSBxrFmRciLHl7I8InCPetsweefbp+2OWH7gxy5rOpPcn1leZn6SSZPT9kFe6n/Iiu1iJw1s0wXDPxPhbJGCdbwAV8PZAvW/8AmfZ5Ty/CmfOlmyXVl/q3/qL0mWUCYtqXrf8AyYYU38v1fIbTfn8tOCS2Xps7xqW4iNvhK3xbPpuz5Z1y9Q7znHd+xbx5Q6jezH9Lw9f5klruexUQH4Rt8o+prAdBx3dBHCZZscLodWLKXvol/CXgR9G2tH/XSyEPwdE6DvXdWPu7t8iDC8upL2J7oh4DDMmSC/lrwZdfkPkDNgQ6A6P/ACwjnXTzvy/FXWr3IkpDv7Ge9u+9sDS6j/I82y9//it9dDL+0v1Yt3q197n/ANWB2FLH7Rq6STMHojA78n1cz3/+t22MpeyTYDPSFM7ekX0gJMH0yfZNbtg6i8ALEdwdgodHrHrGd/Le+R1zJGRE2d/wEswC6rMGZgi6TOVrJHvd3+7+8Ca/vL4QJP4HEKMLPpyKERrEMPu5vUsRdznkhAHZm0lUui45HONO/wBjgencvN9D8iOQDe/IH8u1/W9Z/eIxAA8DLva99BdQAn7aB2wW72Zdz0fxgRcHjYeyRrZJwf0g/sarswUB9iiXqER2zPPNpVIc7q2HzuagAd//ACdfbbAvQNY/4UX9fyXAweTudf8AgWX0QC/rPjt+Op3O2HYVjF7ifFkFdt+tkPpe/wCT59OMGtUnwMHqBOoAyQe7qnX04H/sJ/QWVXJE9LB0Y/NZKdM/m7C8h6QFmTnAmyWQL98o+JC/6N4RyHDHnGy6/wDbwWxPt5bzBz8l27wyJdXcXkbs9l4WdWG9EQ2MvKAyeQp6jaujJ+iKMUn1ePcLdvD2Fgdw/wDrO+OzmB6gOmf62g7u9eMofRgzFlhrAfyEaUKw5jgG/IP26PSOYTpInNLXYJgBGgsepawb8Cc6MmeC+FLoYDpkL36sJdZHplhfLq8gKnTct86u7yzAVj3J/Av5lmA1lkOo5y2Ls8g/lNnR+SNJ/Ti3gBS/heExMfhy8QgAdD8i+tsIoE+t36Hf1v8AqQ/bcKO/uQYqs33Lz7KjLH7YO/8AAiE7gvW39OJRgas0ma3SPWQcLKxAGyzRTeLdhWP0wDb43S6GTuv/AFKAGELjuAQNTgas6mSo+BCiiA32kD2dv3ga+v8AAJ37hli3JDY+z9pAHzZ+HkdCQBwZtmMQJZLF/KKLfLQsx0X84S64Dg3/APlGziXT/GsZ9MPf+FSzOX1PCY6nC6yacfGVyHvhJwdQzDjyS63sY27+3k7jZR02tnRF1t1t4/L5tv8AhyhHJ4vdkMDo4XqyilsGls9GlsIeuxnaWZYmI8OWPfnOO73s7knF+XWtEsJO56n0WYPDdgz947iCOuQF0Sgi+Dd6wT5Jw/XY8Dbsse7uu/L0OCEEK+WY8DLqETIZw99k2IX2xpB1ZBZ3Y1YIP6hf/SMcNGQ6cGmDqLer5ySQR1ezTLMmC68ZkJBOnde7ITOAJvbllkF7ss9bGy9oYo5WzjP8b/jHjyugu4eHi8WW8dQg3ttpeLz/AIZ63yC7LV1bp52E83fDL1M3Hdhs3W3YEcLDebGJ6GlvHQkWW5GoYNlKXQcOQ8ukzgjBWecZp7fyD3RGyYh2O3Mhye5bGFjGMWd2Xil7bwcYp5Z1FjA0ulMG57C8LOeCLZtTOwO7y21yfVFpLwomW8jenAhbx6ttjkBPZAjqeAjlQTkXswdoInjqlgWwwRTzy6yf8MvtLqbOrC3Lwh85b3ta2ONsiLeOsP8AOdbbLxDC/nxaPktJT5e7t8jvPcei3bL1fZT3H3dIgJIPeA06iLLwYkYyBkDtyQlfWD9mDCAd/IFvHwW8Qlp13Oft4YNQzwabbCi6uuD1amzHRaxkE3YvITgr141hutugQMON4XEzb7acO9R2CXst0ybxvF1wlnJ9d2x7w+ruNkN8tj3bHBcg2WZOXjHTdW9eT2TNbeFtu4eOr7dZfS8re5cny/eDc5MT0RsTxph6lstyYwb5wc+wy8CTct5bl5kmIzGai3nzy3/AcdFv+CcMTdW3zjP8Zx5xnUIp9Pn20uoPERJ7eR+U/lKg6RIEFt6r7g/+bZmBzRAhyxnNBkaYK1j33acD7lJvpIz1rCjuF+x8GP2v6TZGE6+mM/b82f8AkmQejh5QPBjaF17D9Rp5aPlj7LH1BvTg3vkqXvV/C3vjf8QR3ILW9TB+l5RAhBf+HEfpEjHM2Q8bF/aBdtAg/sfoSF9me1t6SvjZKPR3F9urxw06404Nu+TDYn2W8BcHUz2MvsjJnc2MWhNBY5/g9Sm/4fDZ2Lw23MiYNkW8i1tl4DD1fbQndS3Xnepl0t4FjLqONmb7HZ3DsOTc/t0S6thMhyH/ADiXpLeBLrjey3jP85/h4f8AsBhaeL/2I+YX33/9i30/hNjfV4ZjjpCmFvQPkvthL/gF1qwW1G/PiNAxlvcpjenBO+Iv/hdy9/8AwIG8rxxkR4+wvD1sf/rxjwY5m+W3fD6/tnNyW6eoyBl6SHjYfl/C83LJT8L+UflEEZlsHU0i3OyN1tZndlZtHViXtirHxnL7B92/7usC2uu7R9lPFn994Qs7nTPSh62e3uDOmyPbf7B/Yg4CpwB2rC5hcYG7BC72X31F6uzqOnVtNQjdno2TbAxLdT0YQ73P4dw8XW893SbDPnUDbPiMz1hrqfq3fc//ADEFzJuuvOOVPbfyTjMfl9pxe752zok8wTJnAChczGlmGRL0llUHZYPs9O2NWb9l/s/vf1b+l/ef2v6y8h7Mw65v+1n9ZwRzRtYP8h//ABsx2CPywUP/ABv6Rp6byz04zjX9p351YQBN0voeGwPsk+Wsa/8AE6gK9MP42p22O/TjPvzZa74b3f8AMbJDvUIxtYnz1joNshh8hhGy7QGZ53dlGxnOlzMtxh20vG7RngdmfTNvH2Dd8nD7hatt63rxWB2QOM3nDH5dy4JSzlR0RN4XVDDI58L0tJu36CHAGGb94XTrgNtt4t4XVl5du2WJTWhAP6cF83Wc+zwBdxHH3Z72+rIJvlu51CZS/jZ42ftYgOdz3J7sS3r29vex5Sxhef8ACbGvy10P8gcfB3H/AGY2eDjlnDBacZIlpI9TC8+1OAkveyO+V+c5y/5eMjg4Fx7gv8bdrdfsd7DIUAb07jI6ceVQmi77sPnBhDwuJ/jaH7VtTEGrDOMUyE52Vf7IV/4OQz951ZZF0MsoiXrsXY2HBbwefGDBPjdjZFt2XQh5yeC8ucZd4Zv/AH/BlpXjHj5h0WScDVaDuIzkm7O+B6nq1h5++TLAvDgLLEIy+zkzaIunagHc1v4xnR9sS67ZzgtvPB9life/sUguQ9nvpNn3GvZBIeIR7I6wnO+WQFB5iboGNvHVt4w9XWcL7nyD/h7dxOo6mJALbph+2Ld4thhs3JdOrz/jrIYcsD28X/kNL1sl85rLFKgD1YbKPuYQMiP+IkZh0TSPsyvHBF+xxWM8Q5PbXkNtjE87y8PCBhfSKlg3wR4iPbN7y6N2/Ezgf24nE9k+fOo/gN08FoxunW5tqogOv3DRDd4yxLppkbZdG+vdgAwAORO+Ql/3Z/zY4YOrLyN94lCeNY3ph21h46RsxBwNEbhHUcemy6bsLvjI9eDgRvRlrCDrjMvWwX3l8h22W68PcnRlIdtkh5eJiVuisXq9gkg2yzvgsH1rbrNXyO24mLkKrHsRw067vEl04eQDLMIfRvAs8B/Dq8PH/aI2o/YsJ4G3n/8AfIkAf9Lv2WYDvUPyAp7aGxsdvURZeLuRw+cdqXhFqYzUTkuiffzqst5059aKEGY/DuV07/IA/QGNH6bEcQB+BGSUp1rLNCPiRwGVsfjf/o7Se4ey0sr7Lq2tsurP3r/6/hFljMWTscsu/vhaWKxikN4fZYSbsWXUDLeRDfc43jOM7/ycPFhDyBwYnS+En+dQTy/7tn2H+3Y+5txP/ZT9gvsbWegmCzr8Jl6dnuM5fyAnaD/4g5l6+B/7JjtY5fWucGJLMIrTfwkjssF2+XZ6h/kv8s19RnOrb8kHpHTyRlsbZN0cBJ5GBdNj9l/Zg9whL+pdPsJ9tiqnm2l8hEtv/sZ+zh9t0iayxjjS/tmlgTEB3wl8T3BnDZZCZlrevFll3x6SA8CTHeNb9Gcp29yuhd9z0H6zHrED9ib7FmvyFgdgl0Nl04OP05v/ACBMZkcV/wAkHv1k7kk+hH54CzrsvSP23C7j2/mQD2zY/BWDfDJzlj5hKAHRwf8AJb4R95YOHuRyCI6hgAB3/kKEJzoF3EHPWA59a5/zyciEu9bazsSDAB4GEMBHGfZE9vHSETSUWbmD9Z7jZfM64Bovn2UV6yKLnBDo7L2bzuSbqtwPdZoUDWwfZjPs+yersEcr1DNhSVtZxuRERyrDfZ3/AB9t4aiPCLePF4f8l6tseOrRukuOe4XgMZFsjJ9vJMumEHVozw+p9Wdlhvkh+SfiLelh+R+Vn8s/kGbDkT0yAwyADqfxno6iM0/g4s2d9Y7oix+2/wBYX6yfsibNQ7frb17vRepJ71ZnfAR+2Z6YaXqemx037dfS1/JeS/AmWH8JucgU/lfyt6mp8xUoZl9slfEa+RvepjtI/iNDqeJKgdR73ZLpnd6g56JMrtlCYTE+RbLnNHeXQzq7M2NNAf8AWbuXts/CZp6T/Q/JCQ/GSXk/Pzd2bRFBYH6ylY6dJpnXzesktEP/AGdngSbi/YljLjuXmaP4TiddZfPL+MjULxDXZ0WfyBuWYgjV/duYliBEQ67RGlsAifspJ3uT5Zn9Dq1xxesTFf7kh7X2/C70L6v21bC8SAxr+4sqDB3pk04YBhKfVmR6JMiNq6E7O22h12CuwnXKv8z+AXsPP/aG3Tt/UyP5gPlp3lo+RXuXWNsfjJAx/MnXqT+T18mQm4R/k84+8lkEzwukeEW8dxutv+DuPGzHovCT/pNmWQAe5m4eBbRbs+nHzhLtBhwve+XBH28eOsu5ellhfb28ktE+8bPXeLOuA4a22H7Jx1eyHUSx5K+FsNs+ro8CbRIrPPnGfshFsPC7QPyzvouw9cWC2PhYfhI76g1sLZLPxH4TAC+Y8KyLpIfl/wDiOKQQAwML+RH5SdQDpETz7avL+V/Gy+WdGX8bfOp18nDMkF79iwEP4X8i/gv4kYRZ5YcD+EW7lhsyPwj85v8AhdDqAhCPzLsHWTaOzJC6g2wz/wDprDPC3w1Gb+Fn1kW+SDsgHRlmRAPonezj5BZ1G3l/CADC/FfEv4WD5bBwn126eJa/lE3AhsfnF/CaGn8oI8v4WH5GDmOd/wArD/jJ4ngjyLNus8PLdhG8jjzIxfLXhdMc1ttWxTjczn5eeI3hWXpuhhZydLdLd8bDeIMCeNninh7HAypN1b/hOcxFt/8A17z5GcSUE4derMYf1PrxpZ1F0ghmy6cjLOHq2Y2acli0O4NcwHHQy7aRSGkbwnVkj6csdx05ekcFt7ONieDzzl2j3ARZtl8S6jywSP8AcQ9td8kke7xb15DZebxwy8iNwODZDJMV3Izh9kgAgMImyTq2bLMvl953vLZMN1xkHBvPxiz4bFsJeYPA6lltvT7wWzELwhlLe7spItvXMCehLbxs7wt58zMxOSJZGr65+T6gnFk9XcbY6S4UIN9ugcZ22XV5Xyz/AA+cHXKs92UljDJ6xx3hJul4IznWgi53ly82er/k68S+lpPcvEHD5xnw0h2WJ94+WLYxyTPJ45bOrO49nleQ9EMeuzdI8Fjzn3y+3dqKH/HzIIOfPEuufUHOO+PEO/8ADLE4j2y7/wAZY8sd8bEt2N06w99gagN4A7xz1bvvgupcx4NXf/lq33o6IBP0QkCHUfjwADyFLzy8PQ7xuRG9Mm7fLJ8vO5ZxwZsRXQEJD9+TxrP62xu/9uuFk7b+0qx2E7b1KH2ILS6P+oyOJHHp3PGQxGlpDWF+QRM+4aW2tvUm+VvfChdCz94xBZ/Ywiwlu8PGHh/hdLPpxttuDf8A9aXvgm2byPEIFpabbwuhh5UjJhx8hmjl4F8hPzjorr2j23rhu6nSDbL5LyHREF1t6cNIgzIYs6h5c6HAOcZkesdn+Oi2VsNrFngzkdd3mPZ5Gp3eTgf8b7bd8nH2zlQmuZbWcLT/APLyDjHqbeNs37h/9nfiir/Y4dXqPIusiEjKn7WcTIrP5ZsbJgZ1Y+yzvnJA3ndiv42PI85NWeX7IwZvh7m3sb0n2oVLPmySVxLG3b7GII9U59tu27n9sfvdnueaRn7dns5bsZ+5APSbL6IwS8fZ2Q/iw+QH642UcRhhandPqplKmgY+zkOpYDl49Qc8nPNfSTmNMO5L1v72ud2RC67Ynp3YR7bE9wF1u70v1T+lhZnd7ZYbB4MHPbuwxkdwMsEUPSAE/pf2JP7Y/ZmoT9sWn6Xw2APcF+2n7w0ujtlpb/eBmPoy7u2n7CShaT6QZ7Bbf7aN1XdnPbr9tGEnUuzeu4ThZ9WYCzuDb/bD9nu4tJgEh4CCfG6hJkDPYH7P6QkSezOBJzbTYOl5/wAH+Rk/35Xgvl1f3P8A+qTF/wCsptu4WEmb/wBe4sXp+w8d9wTT/LJ0H/YfQf8AjvAX8eyx75j/AOXt59R7J15D9Lp8bec9vGO7GL2id5MB3c//AAiyjP13Fm8TOP8AvA6IdE2HHVxe97PWS8H/ADMe892gXeXyDLu0ebw0v/LHbdSe4QO2PyB+QH5YK9EAdiw/I/K/hbfI0fwnJ4B7Rm8gA2nGW4Mp7j4SCMJrgJwYCFmx+x9mDrafYGX/AHAPsf1f9xZu8Z+Av5n/AGxj1XYg2v2P0t7Dv7YA1Z/Y/u6Pbp9ur2V8h/a0Pq1+3T7DV3DPsrJRp6FsdX4yA7Z9fgh4a2/1hD6t6Y2fpIlv9kJQyf0nb2P2goZFftvNNX6pT7G3vEua82P2Zf6IXmskQWROu7b9n9lh9sdlgWcTRSg9kbOCu73gY7Mec48FvDw8bdSQ3sukfOM4/wD/ANm1vNvJIGl997/FAMBFjhId9W58wa26YvJCeQ9VvmH1lVOjGx06Glsv8I4MDsXOm3fS6xs+2TmB24+5dQQXaKHy0NbzeMGX/wCn7PBDoXUVf+C8SbwPqPU63t6rXsnrvjIThsd8YyE7znU+rbZXiyZStrEPctK08zhjgzjhywlwncf+2XV1wL2/wJHsvl7liEXmxw7eF6bHC+NDWzfusb8PsBTewl35X5dx1MvMFhLt4uxDs9vjeDXOl+8Z2hi4Oon5aRZ1BeXuWDV05Ddny9vBDm89kBA2OssU4sR7Xi23Idttelkw36q4YUH9C0qfvC78jh74jLfeGfV1i75yYfLuDh6OIWQcFTeCOBmP9Jz8ierGLwI2E9Zlv/l1D0Z+bwIfg3esoSh5Odh/YUG3yD3AA+QGT6QMTZP1QICPpr/1nbgPrGdTTCQx8hI6fOZgPft+Ef7p3/2yffa7mn6NVhHqfi7hDev1myf4A/8ACEzwOR+YWEn5OI+M/wC29iMovcsW8Bvws3R9RekMXDAPTJF+DSCTxdxFthSPCV8vnHpYgG9kxec7bWLAe84PeVm7qP8AlvLgN1GdsgduyHsT1bpw5PpHlmXtl2xHBbb5wM5G9wg/+w0jdFaih7ePW010Y+XqHkcoNXcg7je2u4QPob29osY+S4X5oW1MD5+l1BmwcYSHRxkcGNeFyZT7N6d3ifCF3T9zcjdFf3JgsC7J9cZ13HTD1MlwJM6d/wAciFI4l0zOv+27cHpIXh8lhhm20GqF0rXUYqPfsXEIdtuDX8CXuF8Hqyw/x6Y9QhyMmN4vBz1dW3vGzwf42eN+BDHkFQ4Z7jfLX/1BaQ/vtkDI4nLx9Rt9aJELmAjimp9Rn5m6GC8M86i+UHLIAz02gV9KRhz4FhvSsB+wbWymYxnXHAIwwAQXRFP+EgFdYODegujKaeoWXfp/qwpgBvS2dnbrmh8y38ONSd53ojvLO88pxHhdzu8DHfeOdvbZc4O7qWnvyHq2228PyfThhnFQ6eCXy7hr/wAnBB0XUW+Xjtmog423jDruZu16exPrdELDsz/mzDO2p9ZvdDPX5HTJCnOkc/KHo4Nor5BauvfXwj0C6YiHm9mQ3vZPkvIAcTjDM0njKT07Uy/X/AIoPjv/ALfkzwu5wQhLq9uXnA29y/8AmxEY6fqQk2+esXAcRA72In27cM/YCz5DO20AxQ229dwrAuEat3wP+RsEPjO76MYInkD6U4HsD6R5BAbntAyMeuf/AFEBwxEN1kK6ZQLb/wCoIDJ/a+q9MfPPduS0nwM+WuJec4//AMQNl5bPpYQB8sEOoH5HBwiYsPyws/l1R+Fp8ury7roY9hM0493sPAvqf/XcLD+6zhH2CfZA5slxdD26fZVuGxhgwA7ur29e8RZsObDLjbG2PyaOsu/nu/NmYdeX/okecgPl22T3foVTSRM+LZ+S2fLL5KzxlHy6sMfImD0konl1ZfODLLosYB9v7WnCdzuVHuQO0kH0j95/YjDxE020/SB+l/QtP2y91pmCWw7c2T+zhAIZF72S1Tc4BQm/gc6fjDw078nnAeg+yd1Wu+tg+YPceR0Z8lpkA798sPADu3bvovLivUIAx1vUMkB+pFv7uonin1YLwDGx4dnyPYGf73nAQ7wKcYyUESYLXl7b7NlksMf4m6CHw/bbXpA0+y00G4Ix/gSXMDjvcXqfF/WyBbJ0y/8AtIYRpec7a/8AIUR6tHMZIYF2ZhnwsB6+1PTBI878LN8n6wiQX95t+Ox0krgdPf6saDoBEGtsxWn+SfsT/wBz5F2Le5Wsn1ypZdh3wLLW29tZeNs/yllm+LLeH1ebOHfBrciyL2ZHhHBe0OpIceCwpOxdz8jwvl7YssceoOEcYe3r4LuIdlqhKMH7ZYH+xcq63VhAfl9JD1/bAfLD8s15Yb2T0dcLT5bfL+EIeWLyPxgNw4dDqSdl0x/S29uh9LJTZEl+rL6wH1ZAFjEUnth5PHuUF2xe7fDZB4LQnQn9ZJniXIq95eC/6ZgOHgyymPKS9YdGXSbpBHcRjdC9RXiALM9z/wBAj+7aWH/q2+J5L3JkWZje/wDIGQwAXj0hUQb2xBdbdcugtt10fo2p3LTLLbpCCjw9lUl+F/G/nbR9iH2Ia4n/AJfN96IfvMkVpBlo/V65Za6P7fvCkgcs/nA9zQ3Tb/COBnCCdQGgRz+EB8lnyw8LvMn4ey9MD9l1xJ6eoA8j85gOMSDnOppupfyTAJp6XYG/uvbfw4GF/C3+T+E5Ol+C/lbmkKEvm3jeC6juy7Ymzrnw4/L9j4xwWg27f5vtxsMosey6mQ92wyNRAyrbkNsXLePZgJHAnBNodpOFt6kVjjG7NHo427y9eJi0TLemPdPGhx5RgcHHkvK3bMtun/Cb7sJ6hnUO3ObZbz3GFn2e2feoxjwOOjjm7qIkC0qChNUBL+GjHk2gXlelX/t3d/Yh/wBIQAAEWbBXuwHQ743m8FtyFvCfRgjdLP8A4x4OM265xSPVvHtd44yM+y+y1f2xkfYRDqMPkRLAn560z9mZZaGInLD8s7HoIdeWLOru1CdztYFWFkUTtP8ApY6SAR0QCGCZ3AKLCwsWCzZyM/IWTBky+LYf9DGXf+d43n/seEPBazpnkHn9urtnLeF4x8ui22LLuPITj1J62v8AhmP8nVyBCDODAjBXWnDbeiPLON26R8DF3H3YeU/l5JEjg2yuWHTkvETEF1OX/wCK27SJjekYkE9cdHDwnO4X5wABN6jePa8csy20vSCOA9JZ0ZdXV0KyAdvrwSugP9u4hvsey7X1HkHLxJOEAXk43j3vMRx1dVbpXxjAH8LLzLqLesgv2Wr/ABssniVvCew7cE7nC8tcZZZkfZ/hxiYQAs4z26yzPBZB/g9mMOTjMt5WcTFYTYELACxsMe8DxX9L+kJ+8Fs6w7t4U4jeeFtu1tbP8bsvJaHGyzaIZdcJhCy1pm3zl9au+oW12WGvu1fzqHdudXRNY9bqXxR6PpW15/8ApdKvIYgywG6h47v+z7x7wT5dCHuHq+vBZ3tvAOrbdk6IaLWEOZbHG0Yjery238k7l79jxteOhvBxsui6i20m2O6krwbL1G8S3rDjukuCWfaPG3bgqxbnDeXmHjb3qwv/AD1yx/h3Jx2G14x1DxtpeP8AA8NC7zILLJDpHXA8ZBZe8ByW6zwx0xxHI0sIwncH1u2f2CfWPs2d6vHtr9vdhkPru/tZ/eDPuxDds9bw2aPWNdLBdnd2toAsR1aez+F+8cJk8wZ5Gkf3D5gtOR+WWZ69k7PJigDC/ae7Lp7lPGGdXs3u9vNsSOz2A57hZ8AEP2w1Pjf9Nb+kCE/bT9gftjDG6Nv202k8cAdhGYyPb3hu43h9JbeNkxeIuoTJEecJbaE9hP5t3LaLbltrdzfLYZvB+7NxdWlpdl3xLItLcli7F5Dntjbw4Ke0yLrbbYw46u2swzSbkMstnibbbZ9wcFpLq9LYy23m2HZTbpjgTx5JcHObrnOcy3qI5OWW1yfH/J2D/DrG7xlhvt3S3rjLGORdPORqOlEd71PHTLwQ9XU3Vz6eM+zm+WHsvM42EhdJAGCxnljfJ+hH4RKI83cdSfk9bncFrDJXfxZ9F/47Kow5ZU//AKKePRmphIinl4rP7APsn5AHaVO5v9w/3P7TB3GJ2BztPcz1G3eoun4rKD26d3ckiBHd0lvMtB5D+O5HsCdQx8CAfxxN0yL2I9Z271PZ2s/b4D9exgdHiygR7/5E9+i01o6gnufEWzuCWw6I7d8PXkrIxB7dR2sZoMBfGDq6PIH5f82YFL5CA/INndyyZkAGk1+g8WctHYZZJxGdnLosWfIPqxDscE/Fv6waZBR+/Dp9nB7g7XX7f2kPt/S6HcE5exn7f3jLbuLEJfbbvb5EOWDixB/ZCMjgf43/AGWzx8s7cGcdXm8v8ft6W863lxkOc3nhHg6hybHV6mCkHouucFYERZyWG2ZbO9/W/P8AGl5xOkTvsfhHzYeIOZD9Z1KcJ7M/Ww0kDD4T0z8gnjQH5t4cFl73g3s0MIJqzIuuEMTtm8BdcIAHBm3VlUuojP3Ho/8AYZY0LYx6uqrgXVhjA8uvJDh0nln8sBME3vEhYyySh/J8PZ4MnEEziSNO4NQH4SPyfwga6sM8u10SdOp6uoB1OjyKSMws2Z6tC2svl/K/mWadEB+SH5fhu3ci6CHDqzBt2cJC5BTWHb0Hs3TE/GEEBCOBA7LF1CtbOxKcJiQOniIz8sEGwExiP2sCLLP7ePZ/ayeoydg5OX/W+8dwM2l6wjh9vPE8bPl1XOnANCPkpacLvLf8sdeUttbDwveG9YTo4Yj1bw+cFfw2Df8AHVzHrZt2lvhbJmHcMnnEnLRLYNXvn8loTsPV3JBQfreTjvjceHOS9cb7PJ3wG3j9/wBjwDgT7ek+ngD8ujfzlvv/ABJAwl9pECG2MfWBMOSWscCQB6wm8ab5eJQIdT4PxS/jLRRJIKEO44Za+O44YxmF8s4GXI5bwWMqBLFpkNtlrLGJ5Hq0LdxaqYMbtk46kqwBZyJLy6wzwhh1/EbLXGEXV1vV1E+QN4J5ZgcZ3PklEcHDycln+Nlx0CAWG0u4QIPGL2LrsHOzdGPC+HARh6/xpLNT3Zy0xuxZbexdR6Z14LcvXjZ849Q6C2GZVmlt95kBx37xeXdTnUfGGG84No/qGz0Eo4VvEGARHiwbtXiWRwfZnbzeOuFy3rby9T7/AOrVrCQ9SmxhyfUPFj/SN2vUg28KAjpe2wj0dbvZAnjOfIbYv0bQvsyOg4sncb9FAmBYzAsvYsdwO2BlIxbqLoZeIQElkemGcnmY+H1Y+SPOu2T/AOOQZaWTqDotmXi1HC6uhN3MWWwcPsXWyjyLctLy34vsCvej/hE1h7qVPr9fsXZfX/JvzGJjrm4ZOB1sN1nctePllkPCEbxknUOPXIEnHbwc7x1/jxezL7a/bpn9WB9vSPUx994Myy7BdDq3F09luZ6HLcXymjB9alHk4dF0eX8JT5H83wL15av+eQBSBuXrQ3e2h3HPZjQ94dz2M2wz7d/sy/VIekgHSUz0tHyHHtjd4W+10wBujEv4yt72tuF7fsurMMhpS8YOQJ89xuWdWRdq65jeO2HuY/xYeMeuPi3rYbbbpHQexeM50Lz3xaxGOhYBaeoC6mDTV9WVHUKv6ShFAr1rLArIzN8iSZd7GrRUvR9scacP0v8Ay0n03gI9rAJbgg99Nvrn8bT27o6b/jC4oIMPpJ724mG8A+9suduyb512GziNzg7N55PYj9fH9EMYdCDoG5FDvyVJ3xwaHvdvcROw67fW6tGGDuW4VcCdyDp+2cmgLp9lOkekPUcDPNSrAYZ+FnVsh/p62Gmg+lo7ccm37wIVp3EUiB+ol4JoO5u2gQfHl8GGeBmx/n5tnh8iccHHfG5GcMFhJywkvTDw6/b5fbGT4ZZbm29WzZJ1J6oei6YONJDYZYPycfLCFwsPyz8SH5ZMY0eWRX5esMuvk3ud38Y/Pj+gQF80vBxmQM9gft+9ve7NpRUOxffjMB1ySkPQFZXd37P7W0dQZq66QM992Prfy2Xrv7B5uSz3LvyenMLz0lszqFifxumd5x51mPyNe6w2enbO8OzivfjJ91Ze9QddNnnTYd6yX+Nkm7EjEMwWw6sfUwxMLsuf5J/EP/2C2B8yt9QPOZRZ/eF/02XRJZ2HsJQ/pYfb4Ooz5D9z3Ufn2RKxdwk/pLySJ2nS/wCMOx5LbY7NL/W76I49T2KMO2+LUAKOrot6dyn6WGdwJ7fldH2wYe+qyaXtW2gRFtz0fqxBbJu/m3Tnbn5OxNu2esJ13E6QjCd2cDRnOuoMfkchHgJ8w9NbD2YsB023bTo7ZA6Fiw6223Jn5hCeUeng8tno+z9ulRume8EHV3MdHsCJ/vSS0ewQmOM46b83jjIQJ8bHEt6jk6474P8AIXiPV95Qupd594W7vcxx5Fo/x0j65K7ft8ZOBmXQ/tjDnW9rsiNu48v3Y3cXm8+8/seF7x1GNY2w6eaIm76FvWXU+0NoFOhrDwwnNZXF9hLpkuh/1Bwu7erZY7KYY0+Qth33Dtf+XT1lnzIh/JH/ACA2w3slmAwWGdQ/yy8J4LjYWbrzOF0PWRZDCJ1l+RHLD5YBkqqEUGtsvS1qBBbpw2xmB+Fp6Wnp2d4m5IIXP45epH/qzu+zjnCgkAak5+QweGEJ9lCeJtyj71Im/wDRB7rZPs5er/uEV1e3r2fNW74Ojq/U7+S9+GGcGweBEbaXX02Nab3jZ/W2lvV6Mlt0IFM9YeW+9w3pYzcAiaX1TODbfYcJ1+HuXtdEfrxo9wZkM9t/Twfi76z1gkm1D/8As8OWlhLIqUO2zPcNR8ZeAzObd3bxLOBIo4OD/L/jXhhl0x64OfJeSEt3hemeryTk+kdWbAQynVwInjGrO/8AGoeGfnOl72DgbdJpwtYxJw3v/u7wu+EvBdWNL7kzXrtIm22GQ/oPEJd0Pt/C/wDY5/vD55AbMvixhxvGFRwreR0t22OM4LFdESzAv4c/bCvrd7wMjcO4cYceF063Wx2uO7ICxm3zgv8ArIN4s4zLvtm65COk2wVPR6wYGwOAl4g/8uk7wu5GRxHBHDj6SR//AGoZADWHVPpIvU7RE3N+sBbBDfLbx/CzPLNZ0i6c5zhgdk7Ex3zM2WRD8Z/m/uTyT2e4gYZ/g3VNsK8ZZnA7jyIs7nxgbsjjzhODrg/z9vJ72HZsjgZhZ4Fsum9OTh4L5DnA8HadxsJnHlFL5vDJwXg4Et7mahNTsL/mwf5CW1acF2+2d/6jeuXTgk52P2PlwBLL9x1PT0ecXRPbrZVf1+Izh67e3cDHVsUKDhLxse90HK/bw/8ALZswxb3AUsgcnq2368aW7sT6vO9eNu6l1EOHD1tb7thOwyyh6i14fdEjLc4cusZT+kHRfOUl0iXjzPoi6g0vjd1BsFoiFvE+dWOcPsu3D7xrLdiw/wA5byQjZtXD27iDgsj22AWcY2BPuILzhdrPA94Y5SODk4SdyNNWvWWfHj8nTshWh7LT4Wx8vxkEbTwhfkA9Lu+RoMjKIfhsfNs8aIZLrSHy/Bt9bP7XV7Z2f1mAJALo9LBNPVsKz8mkVp+2FzYJIPgcY2sR+43DjHbu1q0x8en2W679DyNUp+TMtSe2xPY1h+mQ95e/5e2PD0NsZl1xv/6iMN1lnSLMDIO4ksdjtpGFthP2CXYJcMhXuSnAqTbx5N5RES7T62L5dMHctjq2XW5Y66hpeD22bOzZ9JXLsFgz2286Op6teV92Zft94fUDONiLht0We/PyP1Veq3RyzY9Y4er7/ilpOMupLj5dx7T6YZeDvhHjx5PP+Hb1HQcEw1WUL7fLOXhvJ/jZ8b3kjPzh/wCXx1H8WFjTqT8Th5ekH4sPy07ywiA6tM6Iz8XSxP5GDG8JrrfhsZjqTBjZ/Z+CxD17sOYreHt19WV8VoLG2Om2/wBl29xp9WeHiNuru7TGPV/rP6Q3MGf2g/V/U9teoehnAEZygT4s5DWp/KPE2YT6yPhpvoq7+5WNJ+EPNcftlz1J3rq0PTvHkCdjPiDMMWcZ5fybG+Wea2J/0tfuRduQ/e39Lf7ANRdXt/WynH2xcdb+84ndkiM9bo1H8JfSADJ0fd+MV/8AIYGJBspHgB720/eBxWn7HlsEjGSn7Hd3Z+s4dG3M2D4yP2bVx3uA+NvkTd6NtjfTiejgeO8l2nG9S62NE3PdqGyxsn34afOdioYbe+NS0p5HPSbDbbeeBNr/ABBnKct73wDZx3IcPGTkcZZBdI+8tkzLyEOEuji6hE4+3heCLVmHePVlkT5Y4Zxkb/5u5vbZ9TuPXXcss6RlZ3qfyKP/AOZW/ARu8F3a3weXtCf22GHc/I8iy9ZdS22UH9Wed9/xCaI/9LXACfGM92YMe8OdR13lt6dXVnWHVn4IH5JfLBp78mxvCJGdx1evVk7Lb5YvL+fC0s8n88j8L+HOA77JnwNW2kfsekWK/piuQn27C6hFPdS/PFiez7GzNXR+3YiLK7ML0ouj1azNtIUw9/Pt3hBj9cA9xMkA+3xMHf7WOCBmj2ENnVHsbe/cI68h/dv4J7DYNdvc/pJ8Wbg3JmMM9TdxHUM7sjIOnBgg0tflrPLwZloJLyEbX5AWDMmJdjG9eyfgtZ+MIP1GJv4QmwX5NmZMPNbT8l3yX+TiaO8em9X/ABAXyz+QEhZfl/zYkrZCKzYnJjWP8bMTk3cxvDx8nxj2mDThgl4c9xz0HvqHMhr/APooAguj/wAPd0H6DOuD/wAE6QeeRE3vaYZpv6st4f8Aq2CJdy2JuwD1XL+plPr36wjpPl+ReeOQInr297R7R1ifq5AxjYl2D8iBeXVx4Q428e5ej226+eeRBgP1BX3g+RMmH7L9vZ9p0k9sb9MNEv1exHtt6Vy+FzMNN/Hq7OCebFmWaQN14nFmKp+mhJjP4z0A3yV/991CKCJ6T6YjgmsLnrCPiN+cPROO16IOPr+VjA/bwRuIT/hZw7ZBgP5sH0VunrtOSUTHYg9Tv8bNt0PIN8upeA2GMyf/AOFLCD2XRbbl4XyDbvYti1mw3uIemvc106W+7pEDLHOpXFkT3Dd26HCzDnQXZY6MBhalnUqXeDM9ylZ67k+Fqe2yoPS7yTt9Z4+ZfGTkf/mwHTh1YHzu6NnOyDITB8sfli8j5B06kIwsO4M8hd6v4X8uL+EA9RX8oPAIYhcH+GeAnrkNnnw3tLDwW8kelknrR4Z25+EWtAeQXOHgQxEOhB/7dqH9zqI069PuEVNP/pFt3dINfW1pNR3+QWdiExugW1X1DwZuzbxifU2n9sTAYF2CPC+cMN/4TWMYGvXLqCdR/vBaHJa/iyxE5YHberL9IiZpu3mcbkdynsWftGU/9+iMGBh+HGzvd7/6mJsJTiTWnB0fMPd6vzL32cBDzSfmRNrJw+5KcYC0CUBTgNWEdn/nbDP3WYEwyBqPfSEN5CP7L9fdwpEPpL8t8iHqOPtuD+tiAPYPU1+ndvTHh0fW+TDfebEPl2kDmy678fc9hRB9mNoPoRX/AKkd2v8Asnn6A9gQ/wCdhrCKx9vI/iy5vtqXTu3IjvYj/wCEiuvC2t2P5lo8EWsIdEd7/wAjepSG6ZJ4Yvl+CF4d2G7aZAWNmWFjqGF2+WOHOk3oZmr+rJ031aof+rIBbXqfLZN0Mg/bD5JkO8jT+Qzv/Xgm3CfsPRwUcfLO7zLwrGsWTP1ciSH4GDeBXdSL9lcBMO4iePDLUHA8dWcH+Mtj/GsYjgELq4zcIIO7zsO3a/oa4fW96zNW/ZB/Z/TgFAVIk0w/mw0BRoyLS8TvcHNnrcMwZ1JihvUz1iPdulN5P+SN5iU2Lt0DfOBxl7V+fkPxNiefrP8AsDhpBk3DJL+lOy5udD4QnBmTWtezf+N3kXU34sP4Tfo9iuosTQf9YrQf+O25dD/y0P8ArhAQaukn1O+D53dOPh7jNM+1/hZoz6Htggf62Q4fzL/gLvkD+Ad/Ssni6G1sglJYv9hn2PZM6T/ThuNnVk/qNtBnw2UEDEOsl32kxHWlgnhfEs6kzofT8hEEP/r+wgN/0x4JaBDAQscCba2TmzB8URw9apgO9P8AyBmwsJ+lmDpAwtjtu0x6Qkb8R67kJfnU5WqR0xJC+xbdQ39l37chMnYUTrw+x9QNYLfGoh2DES1HY7rbC3sTqT1ZB4p3JF6yrfx/2VdzwPyaEgekMhGU+hAFUCM8F0sH8WyX1yHYDd/+E0GA7MJQM9fCF1yVgDcRvp3/APYMD8AuskzrBWwwRt02JZ2nQayto9F+XiZOu/Z5GY6WhknyzTkiIO3QcerwcMR7WNZwH+xz/Gk5nPl4g/jb/LF/CBkMFkCdgf8Ayzd32/6e7A2TDC7fwtYoWmsoX6H/AO2PWwkZ7GoXnuk/iT2VoEhfsZ7hF3Lj5bExk0YUue8mA2N7vnCr0vXgAfy8TCKs4HWpKXpZ2L8nxNomMfY3jeoz+ndgJ0dWe2NHbCepPgsncsaX1dOY4uywa/3GHXpeuRZ3nt/WfygHGCOiM2rM5vo9kFOpXfLdi4BDdOHoMp27zP8Al/JHyXfeuISxA6MX25lT9/LPxwvog3y3Ce4Ytx8jvLK90zfgbb+HGRkmnvs4TygD4tlGA7plsbrZ+baOtsfsa+2Vy7d9X/XSAgg/Cw0n/pAQHRMx6w3KfRl94+av8hG697fKP2x1aT0hQhOxiMj4h6s3w/W8bs0xKWcSp6n5G4P+fZ/aB1AS9ntoevi/VtQ/ECnZVP5bNz/yQGhkIx6FlIHa9nXarJ84BmH2z8mHFcv/ALB18f26iFjhYcr9R3dcZ7XjdhEn7Xu2BpfGw747djyAIt2Fw6w6mfvRY40sXEAnTVVLpZmWETe3W/zf/jHWO2vNscCSvaXhPD9AyFTgE4/Q5er5LC2Oy3AZGEcMh703/kDYdfCQgz2RXhY72wLZRyDeBHgYkZn+Fqii2OC2G3/BwTJwTywCZwGzHcQGSWQ4kiTq/sSsEaWMf/hfMgos9cQS47n5Qwfsb1Ib/eCwmjoIBM/TJrnmiLq9+B4yyWs+2PVkZc7S6v8Ard4hTV3br6xh0ErN94Od4XYw2WzcGGS9nIdPzDjcdkXeSbAOi3BOnWwi790igUH6XfnCGbnAO1yG+qw+jdjQVhOesx8LtIlk0ujr7fxmuPXA7eCCIZnV/KwPL+MaEC2BMQfy6dMlBAwM4XCLHsnREJhJscmBntvMt7D3dRQW113B/VtgyNLAt1/seoUZAzav4Eu51vllN0JDj4DVtdb+k+suy20/D/1ATNtHr1as7snvxL84UU/Yf262HtDOMVmbaiX+k1S0essBPrqFBvadA+z5D3FYABv5GN2jHa6X3Q7sK6emJcgzdjqGXpYfR5aj9dLdag+zaBX7FAFwO+9o9d4+0A+5Y8heat80bB1P4J7hSNaa8lhzD+2KE/8AUoL16hCSDrwOKgvxyBuoYaQVuaBnx6kIewIYioNE7hwYlnP1dyP4QxPo9X5VXX1hZd7d3tp0ZJMmrWPo39Y/WzuHfxh45vwnOU79JwHxbA9zN9v6Wn7afpFeiEt37Yt26KWrY/5M/wBd2f49pHY4Fr70+gK27A/5Bf8A+kXpP+rkCaf1paIVfNYvfxaH0LsoVy/9LCJnQeSFo13QOOoOvoCxznPp/wAi3/ifnttQN1A9j0IbB9Jj1CAeXiNo8f8AxJ6P/khHxX/Bd/Y/+k6+2b8txT68JGdWDHesK/CY6tazvbA0LW4kqDorAGKLc6H7DozAGcGX17N9l/2BzjnrfNtHD/I/bKpgkkXH8yC1R/xy3b935BwUn3Nurt4A7P2TC9nX5Pt2IdbMgxOPkD2X2Pan/YD18O273243Pbwwb8baO/uH5WbuWT7J3M2bA24vWLsrxtCvh3vSkL+kyf8AsC6jr97l9dMdDWwf+rJLqPnPyxBIxnoevkEvktn8uMgtv+m4WMKLfl/8YmDvwzZY4Z6oQsJhg93XogFfCkb5o2oQXea/9ZRkRqfkv2w23O3wmYETqDf5aXLDf1sd/wAn/wCrF01nobfd3d2f22Z87XZcNi6W+aDmwfmC9qxXpLCv4Oidr8CzmVq+sjA6Pyd2cWut3JYsjp2/G6gN2Hqe51BY/IDfJO/UC03b22BPUh/HovjSKGegkAAAdW0Q1P0YohhJ7HcG7l2GQLzgHnqCjt05k5W3V4yJI4DJfeEsSCxY82ybsFslud2z6yt9Zy9tv3bZKX2ejucPc3bf9ZwxnL/j2sqaPpaxf/XSxcOfyW9aBsAf8WMwB48iAN9RmBmH/JOnCKT6h/xS/wD2BrYL/X/REsPL9L2i9X9buF9L1s0P6o4sbeMM39TvcL9vQY/vdgPt8vzd0YvdcHPsBoIb56PbM6vE5i6Udd+DfRvzaWqi9yZzOgsjv1hFJm6PW9PFD+TC26IYU61jh02oTBXDw+xxnw/mzCwfk+JTGzG+h+WHsBBL87LqTwl9oeY1Gt1uvpdxJvodx5DfxkT6nCP/AEiFnZjcEHTLIrr5pOmjyN7f+shIYGvdue0/iH6yyh7X1nA+qbwMDf8ApeYUEZ58M7kh9ETUG6dRev6fkYjfGcbpeyvcI609Vi1NM9YWjH/kG9F1+TmarnS0rnwEfY8Mh1HjGR9PSFDvQf8ApEhB9J5YZih3Ngd6tkIfBesRCSdnaHRHHYPu6VXnYe2g/cEr/wA1YKtjLAiRPl0N7WpG8ur4yXcp04I8HuLoC2XuNs7kdbS2Yzey0bART8Yp9D5YXv7AHLsD4kQV0tnNunW7y3TLp3q6y4M4MWSXjO94ZMCeQWsj1wEzLk3zjGR5I1BM0jo4+yNIB1d7EP2ejZ2GP8F3/kt5Lw2Y64cSmZsZWPrGYXlnq9c+lj3oR6XlTjpKW/lvXvDBWTZnsj4AGByvEWbFsoelMFvF/U+I3NtnqPcbrwbX7BHsKBClAN9m1tKyVAAdqxs03f8AsLeAAW3i3xErxlOhndv5O2bEJ39RTQJeCCvIbP0L+ZWgnI3671krBXCUfdy+bAPgARdNt3eF5OGQ2IsIGINHpkV8fW/G36dj4wY9vb9nkpetumMOpg9JvAPQ2L/DI6W2NuOwPGFw8Hgf+2aFDrx4dS+n7P8Aiek4/wD9ZJ6I2hibZ0voslaRdeQRrb8YcMY5DumW/wDJMLrpmN9vTfxGj/GBYHFW57Nc4SB9pVe5/bqNEsvLT/DqmAcvl6lSH9l3j94ejJBBGiAxGoBdQ0SIF+bGFt3MvcuAYXZs3Razu0INsoN6rySHEntwtFqJZI+cfSFOpNukreNn24NYup4Bwt3VkzZw2OPLf87zvBebRd2v2ETu6/Z6IB92/KG0/wDFKLh7PkWWPxWgep/LxrHzhl3Dq9+b3blbe/pPkRXqzcwLmSR0WjvLNi5GAJxnDyOvZ/G9OMeMOr+E7Bn+ke2r3W1v/gkmzv0WVl+6c50dZ/RfjIB7EehGfk/kwQ9SR+Xc98XT3H6XXGxx89lbP7TqMafu3d//ALwkqyQ9uuSB2A/VyH1uq+EUgexe5bruA7OrT9tPWNd7wMc5f3aTcX8Z4NGhZJ9lwDfcjW0cl0nRv5cfk17e9PyG9ZOlvbxl2W5eKLCf9u3QtT9In19h/bvweCDFW/PyQEzy1lMSKJ6dLSeny+/y8tEXbWKv+WNsurra3httXqTowGM6r4gQhLbW87FqXJNwQWxuwet4ergZ7We2WvM8Dk3omxm6zbo7GrocCbYsD5n1bW0WbE3eDOA4dCGO5wvkeHGt/V2kwDVjQcbx2/wDbqM+23qLbf8ALSN/x7d5x7Wtb8iyPt4x4RllpNAR/ZL+IJfDHxYeo4THD6HIg39UOEPw4G2zKObESDE1snMjLr8iQQ6gexMb/wCQyWm/+3dksQg/Ayehy6PloyPyxeZCbOvhafL+UfgRM8v5x+NueXbuIQQJAyXOyzD2L79PvZPd4v6l89Sj/wCU6L12/d2brPbsSy9+2P1sudrZeKzGvbP7Yfq15WBy/pj9ultP5CR1/wD9RLvA/wDGBpr/AJ0gCN+iZDtl3K+zt6OfmT0Z4lTpNiBzO3uz9zkMSOvsfS6zrFMySnoXjYGH5PsS/cN0FHzbWkLqlz/rAodfhHPUxh/e+dtx6Rdig9v4fk+Z/wCoJ7io9/LzT0CEwdbvvUHHa77lnPUH8sHy06yCUR7Ft5CSZ0Bk9xlm68kGt/e/vl+ep/WxuyAcXV7JfY9d/Ih2397Ge2n7CcWYcBqIP7Ms6vtkFsiemU8cEhJbRPJEOScdIPGcPLD3f8DxBw+8e0AXI+cZHG8ZZHGz/j0bLtsOwQ2kNsJ468DT8us8423x94PZ2GXRMSkT1wvV6H9tIvsRZ4DfbqQO87pI6lJTG33zDnKObT427EQIAOBCcWRMslKt2tsL1i385YWHPyb0PIMij+kq7/8AlI9dFv8A/lBIh/JTu8ixjPFeDgj2rJSDv4yrRw/+lnk+gZD+x7pYww2P28fjk9o1/rZhrkeE01b66jGNCe32AHVh+XtLO54P1tx67OixwgwdADqxfINVn4sHyz8WPwvkSJ+zJugdIfNrkD9t1mfx2LtH8IB7dN94ZWhlh7AmBMZWW/kw/ZkRMn0jHbc84rpuN/3OfsljyoD1t8l19b/uftvRwC71D9Y/SdL2e5flPxoE9db+1ZDicemI1b/tvxt+bYOu5D5dvRIvLT0ujy3+ZKMfnfwtHxsvk9nUt2I5yONjkyX/ACkyOCMl4vlqzeToZGRNmGNnW28eS8h/hdN9xE23q0j8yULYty6u4nzbwvd2G1rz8hMi6TLxpYH/AGHBx1aTA8Xe5izt9V1aPnOVvzhyzj5jwyGWLo7WHjYn1ACIhdxHTeBAIiHh0cb2eDf8z+svT/5uzeRjcP2AzgjE3RLdJNy0d03dgDoDwlll3Lpm2Oy7n0v64yYo/CzY2xEgcfXZsDHpDYTExdF2WCzbMmHWIGMr7rhkTITUm23DR+3nYmd2EC470wHU/hatsR4LIDq+zPUPztlkX1uZkZJomnGpvPBnLd0e55ZYL+E+Lsbf5d/nCydFhAgJH5PT5GWToPLCIVj5H+nXLCb3nIO+Mta495XrjsW/4s4GYMTZtvVhx4SwXtuOR5fGOf8Aq72C27y90MY4bZiwcLqF6l6eI3uLYS1sMrwZhw8H/Z9LclW3qTri3beFiY0h14z+3mbHGvCg9Ee8+peN1Zx0X/J8nAxo9ttJmUP2VtUm79XgiOE6X8b/AIYxskw579fy0hfqjE2mLwJbhPvGz6/UGa8JvAHf5kz7vfWzhl8sllc3YdsuxdxLuWdQMnvZkq3vMVgA7X5PoESH7xnAMy94wuuodTV8eg8HH2mJBVz6jM4zcgZl4ETfQuf+0XmgP0WNlgfluntC2WLF0cM4Nm9RBPCjO4iW+RNpe8hfOHbXj0nhyX44R9T0RQ9dzIfy/utfl48hBhafL+EK/hG1xl/l/CPwtfjDi8m3jcsflnfJoQjBI9kn5QxBEW2bGf1hg2KDf0n5vFinS7LwAesr9hT0lH1P7WP22yHpEP8AqyCw3/dp+yNy6253aMTdq38L/rOdY2P8b3pHgi3IdL2Z9GQ992lphaxvNtpkftrm21a22IzhFfMttlL4h6REt7dwF5ybbvYw9khEDzerTpp1l/BaYp12nN0PD9YwEvh43Z3D8bRN706s0kr0BJgDoX8z7WZb3xssg/TuFyfG9RaHfGsMIEMwg9HGNb5J8mu7Gh/7VLWdGnTkEl/ikqkHohLp9seCWR6y/wCwn+F1mDqPLr5FkQSW/fYzu6O2IjJ+dFkkC5t1f43uhYfw7YOnR+98HJh62OAk4CHnpMbHOQT7/j7xsf6HfyY4Ft8cZz0mXtYbYWWEzVhl84IPZAx1Zg6I/IsfkFdIiKk9kMuyFPLsgLpfj4JBDrtHSPkZc8qOk1iIUVLYgn26MQnTZ/Z7erH6wA7gZP8A9p29yZcSxdyLGEDKHFKxA2DD9uIjMJZiIZ64R+pfoJwwSQk8uncMbNHyYt8lnhCfLb3HCOVMQ6q4bmq9KPpYB/WX5AnqkY7WXwb0ofhJ06s+I22QgF1nCJ3OnsOsvqWwviH6Iya/fVsinuRMG56+yBF71ixAjpLHqWHk7XRNPNscnGufI32TG16TXXyDN33H2ArwNvgK4f4XUE/BZ6miJw0f7aSxO46vvH3qWjsvFgXpEQNWj4l0cRL2NNpBAdsP6rWAZJtsXkXXk0/t3BtmR622N5BaK47YwS+w7FwLpZ05ZrJGN7oP0InL5eEkF5Jv38ZAaf0/Id2urF/3gWSwvMWuw8N+YjLy0u1/Tk427/xv+Hh4XNbEll5e4eFvJZmXzjc2Rw6tu71eCMt4Yq73LOrcLbqb1bwk+jbuc528NvZ95LXpaWcA+3eDD3wPX+Xy6tA+Kx2HzgLsDJjnskWWz/Zz8EBxmT6bua3UIPYXVndlVhs64wnhb04Wfmw/LG+E/hYABDAyy+R8obaw7sV/O37Fo/Zh1JBtzVMkrqK9o0LrHYWHhX+rZSu5h/1jhTo7YNu2xvuWoC/9sZ1LUO227Ttu1KX9JDY7Z/bJTr3Yz9nQ77u3pQQF1g3uocjfz5bIH8wslAbGOB7rqw92e7pb5SNAaeloOIP41NDzk+Mn6nURD2PIVgDzYwJ/TZu5vzIKR0qfCNdPbUP/AMS/zucx+EHLpI/4u2BFkcY+ssLr5fin+8rqyP8AhYWBEZoQjiv6395oGbsftNf0kdeJ1wW8pscZlsNn+EL5WxZNm1tOA/bOHAR7wsO8RDMtBHkdewcYH1e3G8flu19u7bY7wRbwvT/y33wJk5x2b4LZerWP+x4RHMunDqs9PBNw9eRyAWgj7F1ygLvj73M89d2uzjI2fac2y8eN77HnBd4c6TGs/eE9B+w9EMM3peFtvXDTn7oE/wCaTEwA+Dtll8IdibZdLyhveHx45CzxvF0L7OyZF6joZE3Md7O7r3pZZ3IqvMho4E995AfR7XD6jkLeyLGWegns7gZIsN8vlkZ11IdZB9FmPJ/KNL75fzn8r+cQs9m+gnS794fW6LH7B2Ajb4R/jY23hYs4ee068dhusY1XrYtIZ+Xgj3jbtenO9y3ojw4LZ9uTbu14fLV4bwvLh46JvS7sg8vWFvlurq6n+Q/UeEPPvayPt3sPD4tvf+7dIjucjdvBeW3Sv7Et11YauifL049Jzee56t7bxmJ+X1Gltsnl0yPDgeO4yQbbwonpOfeNYcbzi2Yx4GRnIzhODXfPedxk/cd3/k7eQ7Swikafc2dcAC/7LDwxH282WSFnt6/x9sB1agIIg4BsuoyeN8gJNsy7XwLY22Aq6R/nOrqYZg/z9vMIdwfWCljiBU/bqiwPABh3MZwEkA9xntH7397s94gU7jAxj9LD7P7Wh38g9sB9v0QX2U+zh6sL7CftpqbOft4O7Ge4zPbQ+8Z1PVxvC3Xa0bLeNxnUGN7I6SXaznIbLuVxOZ4Qw9wu9Mt51nQ9X2+R5dJ07OPDLy11XjORLAt6eC21YSM2sPV4R4RJbNncWcBheHgceHFt2N3vGSX/APX5wW9yNQD7YRexIU6Im7N8YBwFIvfyDrjzg4PBDeT5M9rDP/ZF3zbIgstusjpx/hzpD/HS/Iux49LF1wcDOwW8bv8AjLOGIIYdX8oLiPxlV/C/lL/LLwiHd1cI/tiBOTZQckxAD7YOrLAn9L7jt+y7O7A/WCfb/qB9xnxl/Y7OzZt/YjDpW09Qz7bscdrhxQfu7U7n5Q+k6H39jtyG9x+2b9umtw91Y8BCAPcYnVIPWMuo0XQNI08Mt+iEcTqDuH2fwhzW4E65npO417vbT7zQMu51Q/1KZTrnq/5j+IAdX5yzKGykfpDM/ODrhPJ7dzbXu/vY+ttMl1t/pka5tq5i6PS39E0mNh1DPxdD3CLNl39qHhPwk6x3f+3X7D1s+XXe7/3jDI76JOsJ1Hsnc+RWdQiJdZ68WOe8tiINvkPG4ur3g7kgbQcY7/xznOy/yzqTw7bMvfceEJJHcQ6iLLvqVls83ktscoN3Zxb1iOPnOv8Aju7414ZdHcescEvVs7bY22TG5wdNvKY4WFdQ98e2c2c8hZ1nbGiODuzqz0R5wuQD3eJ7ScZgWQDu3jGy3uP2zoY/7DwNoQm2v7D5F2d3d/7sI3LLybtLPvBOfl164g/kj8j8IAM/bGEH4j8J/KEkICOr3j+UfACV7HbZvltmyfQCcPI09cfZ1e5rA57CQ/WW9qCen/2z9Lco9f8AydJ//QQHBblv9tJAoMfV23Y3e7IIewjpkGN7jL3g9w0npsoakUnwat1uWPxtvcdelPVlNvJN7J776lfq7oM9IHxXi1foQDJP5FvfA1YKeX82fvCLkZdxn08Jeci1BH0j9IO+2P2RhIw7gPt/ayt/Uil89t/vKfX+Nl/xDxvSDh2H/RL/AK8JdS2G0kXpbw9cZjcGOeihpYwzF499W9Sw32Zu8W92oQ23p3MMd8g6OB49r3eMlt6ureW+TH09S6Rmc5XH3HK6cj3/AO8EWbsaTuGWy6cRxmZeT/sCM6429ryP8L0x4YNtxyMV/Lb7yy0llungv0BaCEzbkecOYz6eELCySlhElA39gRB6j0SWzPqZFt4TuQfEGWFgfL+CIU9HVhd/nA4eRNQPyx+TRIgASwjI/OfQCyRtLbEEkMAsB3dE7PZHO1v3UvvuNhH7QUN5mdvB/G/VwZuz6bBN+ID2dRJtxWBHIHBy/wCth4nBDxuWl3Iiwzk3ZTe+X0w7eCbbcezD5x3o828f/k4Ahtlh/wBR45GfF98KR3t6E/ePt1Af+t1dNtksTM45beYf/q+zdws15G+Xz/jvJmSxULwiYke3d5S8oxlfZe4eHqsi64PWI7XXPTB+lv8A+8KcThMn4bPVNPR94BqXV3kPlpCSiHrHbAausv5dZeqO06nVLoEt1wqskdH09SeYv4mWZmYnD5L0JIJcixCnAsxm9sjhY6u5PBFlgSWV/wAZb0hJHDDxSOGzLyN9s84dWZf/ACAbMsgcOa8FnGW8Mf6SeSwd2d9s/vAFE2qu1fo8sRBJS2erxCZ7acPq/bD2cPDwQw29zYKfq0i2wkAuC3YbUTeHubBhx3x7z2OsSdX/ACWv9nhYsGr96ushtbb1iAQ22y6ZdPBe3zqYg9C3gurFH84+X5aMH1vHG9cDvDrZHGlWu942POH34FmcZaBhHuER4csBAsMXFrcK7SQepO2LwwAJgHvupV0cBv5acZ+2vu8lhlgLrbqZ38QC6z91IBB/+nKstPZCwZiv6Y7Tm+ieUzM5lnZHStt46Jf/AG3hwOW9zHvzoWlnDvhlraz5YIP+OuT0jIl7k6WDtEScdgvMf5b1H+DdrvAzv/8AB7wvf+Bqb/ZeQGlvwdrPAfP8dft8nEbxW/bo9bT9s0xtZ6j66nv7jP1OXsyTspH9Jl+jAHdp9sD1hc7476qENHq/rd/Tf0nR6H/oRMuvgs12wiCNkXjfFLT3ka9nV/G2tLwS/M2aHVDtgK9OB8yH534xkJG0FciBNor2JQdRDf260NSA9vLNG3Ey/lJfjA/JSd7InHs8tOyzfzgvJv6cL+kfR+wARn+o/ay+xvV6j5d3toG6WMlo5PBh/YSEnDhIjgcs1qcHnktpi7YJAnBQnh7sMoJ4LD08ASD2BXo729zn/hko7kS5dcav5JIy3oIBPeNgjXf5BNDrXb/bwog2MEzDsG/C3zjVl6FL5gdCcEL+ndm22XsP8f1l0f4er2h6m9P2fL4h1zstmNR/gO8hfZ8YJ1blvB28cBdT5d+r5/gsitt4P8EnfOy/4+bsOoO5Yez8DJg3Ae/6QdgRh1e2u3jOALoI8P8AD0vLZ3KSnHhC4EcAjek2jJ1ZePczTOyfI6OCQG/3q11HGt6zu9W8fN2yotsd4/5++CDWwhju/R8vp1ZvAMWwnl2FgfLG7hZ/IGnCcBy+WcW4GQdT0v5R/wCEl4WfsOhkZEzeiw8RGpAOti8e2gzZwT17lD1Bvts+yvQykD3dXTAEC+J19h94/SQdCXR3BUQOex83+iO4G/cu8yupB/8Aht0THZk+069/hNAfFfzjOzsAvae42DS/2fdr0herj09WBho+EiDq+sP8bJtt0YSHWgiB7DN9nthnNv8AckXdjDtg0zxxj9+QJAjD2f2gfpB12WMnisPk5aljZqh9levOsY4sDseNsTxLtqY8eHx5M3g+Wwu+cvUvVuT5FnAJ/EF0W3yP8Y/4+8M29LzgIWWoe35eHh/gXtuuAvt7I8RxkcG0Ab2xvQ/bBN/v7l0i6+vQtwh/53PpdZF8bW9bxHG8b8gQYzYUg0vzyEYu3X43jV+cbxuve84MsEgHrJhQPybsRYZw+X1/sHVmW3UwSz4gtvePZtus4+Th74zII935PnUaF3wIOl1zlj6XV7we12gcdWdQxbpbsFl0uQWPGcd97ZgHs/I6oH/lt+IckJkUtIiAYboAOiA211+SddQ5av2Q6wmHj7Zk638LbpgfiyXUZwN1wFjIfyfqX8LsA6sDy++WLMXvuBN2UsZ1An2RnrevdqYb3Mur2aEB1P6N5EzzvZMy11C3qLow7yWyCEfk98X5zf4w47fUrfLX5a9y2MyGfLP5ZWHo45mXo8O3EDxHAZb0R/jf8Zzt7JdRdrZmuzP4RoTsK9xdPdsf+fZdAhu+D02u509nscAHnhIYgePsRlocfkgEZkNtt7xT+4MEwEV1jlhXH9vZj/wB7mTgaklh63aF3d8et/8AbePl9hHYvtnw+g9pd3BiPOWYm8HI6LsbMy+Rxt+4eMXg/KS648t5i8ZYLG084zg+bOeV26q76P8AHy13fvOMdS+ZjYNssGXwlaEvVw6Cy7qyiXVhdS4Djsj30g6OT2DvIdQzvGfl6ycFl1R5HGSYQdMkWSXl3ayHvzhnxhZd2T1J6cALC/8AJ4HX5BZNg+R2Inl/Cx+X8Z4Bp8v48DHcT2P85Zwcd8DznV6jo2mnbhf/ANI8kWdr5/C9q3/5SMtX/bvnZGIei3gva3/+2L9MJ8guhesHotCe6l4II/5acet0dj7bwReOSkhtBwt4n8b68h3F/b1/1HQW8LwGo32Yu9ILUdk/k7B+vDaDQ/6SWhCPGzN7OPsXpYxHA629f8gwzhO7bW8xZt57L4/nH3n4v2TAu0hzg7fLLGXHpdORL9vS2H7wXUi7mPIy7ulPn7wBqGb3w+8JoxEM9sc5726iPLOOsn5JdR5fLu72HtJd8BDyx1fZGE+NtVlllmXRIeoOR1ev8+EOjlyTqybgIusvJeHDxpZ+uO2OO8y4E8Hf+Pl8/wB+iNDqRcdHuM3UhntdGhIdXbptg/RbUAwm8uh1OXRP4wZ5Ll0iTQh/qwB/rGP0H7XbLcn3liIZ+GdfLwoT3qLrLSDw3b/cQ3mHeSG89iGP9E6aL/ZADAeSl+LXOpAO2Rs6In/DA4xhbpgZ43/EE+rL3UdULUWXZP8AIYbylodFj8ukHq6/sJhun8gXx3g5xbJyxf0iXNu2MLYfO2/2P3jKpjavsBjf0v6XTuwb2QPdsWlp2TnhGxwshmZDandtChd89kuv8ezYyLWzn/cO5b37w4TTrdsNnG9X5b0LuCyyRB5HPpHJ3wWwdmMm64f/ANIAC3nIbZ2dbdcfeO8BB1wSfCXX5xkey6CI9nqfLWrI58E+i+8ZJ1fmPLznZv8AktNvY52OfT/Pz/Hwke9lnw8/mbYB+8Xsjntfz7O42Ct4zPLvbGkChvPa8B0xAca5YIH9ZAWa8ssyeE91xuQri3Wz2n26bLP5EFgJdflg2QCgPiMelh+F1+EfhMMee2H5BifygfligOB/KfyjfuCDpYXVi/nP4xeFtI7vyd9yPxj8JL8mJf3vrtjeAkPZ2vObDzNlZ7dQRLyj/wBx+t3aMYdlv431GMZAu4QS/wDjME2/m3ppJLMAh94dnU7+SzxJ1DPy8+TvO0OHVjGqNcxs/jHzM5mQIx67cf12/bE6Y7vqFjSe3dniB/RB+p+DYmZ7I4aYdyMISO13fOHy+XxeLHjuexj2/wCExm4F5RbZ1eGxt+XXPdM4CFvD5Ptzt1PwYdRfIcl6/wAp3EhwsOPvCXRHG2cfke8F3vBawqkuNKRn5C3Xd6dbfgyz0/4y6sbyOXmfVsNvUuEobeF5Tg8Nhl3l4Dzh+D7HjjePeTk8dtY4yocHLMJYepv7dE/pBwi8mescg3y8t6j27cg2Ty+XW7GvGbdK6RBicdgg6ZE3ckg9bcjWLxe3jLojNt/izuAbC06ZFoz7ddaQfi1+XfBUoOR+d/GX6ScHSU9ib1H8Ywusa+wT+zZPrP8AcB6W5s38gj6mfusV+kfO+XfA56SDuHwIX7Ovk4Ts/Uj5BnJn+7ti30u06lzy/wCYL4i/GTk9SXdn2w8Ttiz0RsfVm9sVm6ve7Or+l/eD+xh7wCtLHCmWkInhs3CJ/wAdcnHX+C8N/RobwnU/x0R/ZBj6H+wdcHBed8OCctRGTGGJmxtbsxFvxZdNnF42IMdOB4y/5rbYWyAyz9Jb+n2WJz5b1PB2HlQl33UOSsXYP7JwWzRs6/ycZOCHS0Nv2iILzqUZes4IiZ74fC7n53fHGupZ9W+kQDg3gz947mbv/fI25e5+MDddcPo/Z9b7HXHyNfeO7U8MOkNuczyHRF8vmy/xe2y8c43QMu22yTvLAPLqMBhDCX5BtoRH0iMcS3pETr7Dk7934EwQcjfZDm2HmxgIXu2PrJntr9l/sL9eNBRP656e+OHa1kD/AIy7/wD49eWJMwCy2x8R3EatSGb8vTLwW28LdEcMo+0yT1HCXu3YnL0glHGJlwDLwthhq/jb5Cfb1wWV9v2YbZersG6MNswHu4fbWGahGA1hWYMf/hYyXy7HV4R2WK+9XlqGzlvcd2c7lw8tlup/1LCG08e1gedQ6md8CNpDVLbdfs9wgCOGS2744sj2XuNOS3+FpKwJbt85YRxtmPq2XG/Lo+B511fEIcbe07rhzh1AZPfA3pHtvXJZAORdMnTdwt6meDxreOQ4SeES2Gcj7z3Ep/8AwlkTF1iLp/ZqEfTLQafEdEOb8/kuvW/R5ep95LDIIkWQbYvA0pZZGWTJTQQhSycCKNJREiCwXRdPUEUB7xi8JLi6AmH9p6+5pG+wBPkvdkzu2+2W7RP6l1+x+t/SJklkeJ/FAaitCGRP72/DGUdsAGwW8b2yQ9yy1bLbwNX7Gjba63cnWXG3OHZmA/trhtt1k2NyxtxlOHq3t4+yy28d73wsQFCHyYOhGje90N+WvB46Xf8ArZ3TjreMZ/eBL/gtt4SXBpbkCepeLrgN7XpKWwODsJ86m27ggBGbrC27bxhZ9ODvhddXcsmyGeS0CfVrHCzz1LZV6cp5/pg4+8DxvGDDqWf/AGgwYzAfwCA+lkj7AikL+UYIg/Oxi3yA+okef/lfygjb+N/C7+ifyiIk8u3yx+Rf5EaD3H3Lp8kIkgTgdQErdsJp8Du7ey1srJuQMMIxj6caBOLdg7BmWR292L2Dtn4zvpZLurEd3XxxTD62WuoLCLB32gjtSfuWD21se7qmbzY+t7npurPbyHxk/jaZpGUPeb/JT5JnqADtJ2E52izcWHZlmeRVOtn5w4JbX9pjuhaO35Mn9jB7dmDZpaS7CfscNrY1t/V92cW1Jsx5ZnBwLq2w4XV7vB8PBS7JdSTONyXa9zJtkLyjy8gltnG3wcMfSPLThiXq1qF5MD/C0yzJjTOckxvJdCG3l423h4OdmZf9oSDLbZGSlibOAeFvnDl6SwYs4Jkd247Lb23DSe3HyDiPOMj5e7fAvySIcjG9ljd363omIL7BzxkFnUxvgCQcAjZ4Oxww6CzuDwTpIHdnd7eNg4xttrgnrg4zYOIXCCyYcOPCQ/LA8gD5IEYQ7dQAJfysvkleGwr5Ovl/O/AhnOn2Ab6i2Nj8MJq1xVeYVGL3n9LYyYPe4/4r+t0dQSOjBH8jpCfLfzfQQ3Uc+iLfoWm9SC6v+L15B+pXexBpsxvZMJ2yRkJf3u/2SPY19sJYfGksgZp+2sb1SWW/ZwtsaSnLu2eKTu1h6tlkgT6LOBvDEmsNtvd4Q6iEt51vnG8HG27HCMx4h42ZqZ/ju7GPImCPaPXOydRPN7xvdv8Ax9L8rC+bC2TdOXO4Pl0gBh4y8ORRVsW+2Q0wf4K+/sBhEcdjO9EihP5GQMh+ygavKyd8+TOn/kdN1Zb0HDCDgw4m29WGWdXiFvEGnGXZIdMLrqLrjfMXjd53vgn2Wa4WWFmd2j4jjB3ZsTcnM8ZZ3ZO7CzjMtz53dtLMeWPyfys/kWm3R2SZMIQn85GMDonB/wC82WxDbD0i8zY+Tf8ASwLqce39L4jH1n4sE6zpo9SnjfVDUzyRbumHsDYvFO0Q8Qvy1+T/ABCdMt50mgknEKaXVF8hOD/O2w/6zxEvHdX3w2GG83gttn2nozEHADBt5C6V6OBtLLfpwHV3fkc/wh3CeX5/hL02fsZnHV5zOYPOTLpr8vGLZWcbJW8dW2iu9ukPd9utw53rMtV8i3rhZfO3gh3jDpOufDg4xwnG64ODpvGOCTpuzEgLLOyQ4Exde9nCLOHtgf5krfIdFqNtY3S2yyS7Hbxx3x9+PbBjz4Q9cIPyAtApBrnDPID8iCIln0XX5Ys2PmcvI9MlPnGEOEMc5dW222T/AJ2yGyBH7SbaDHuM3mEfsCHMAO7B9OLrO4y7gC/tf0L+lofZezdL+kfeD/S/tO9wM6EfpJ/Y/SQPYVd3Zwn9J6DZYthM9sfpw4/ZpLM4/ISMz0tJ9dkzXu0+3RnlofbG+w/PBmek/wDYO/eHsdWjx3xGAeDq8t4chia7fG9T8vl8jyMYnDFivAhuuB0Xhx849YBxFt46VsWzPCZybbDc7eX+PD5P3rgd3hxg/wAu88w28lE/WWPOfZlti2cDtHq75ZGYsy6gcQOf4bLC6I5XaOOOoecZebLJL48BjjridUHJz95edttY9nptftp+342MvsX7d3srrIYPZUKfJO2Rfkx+3X7aTrtodtrfbCeux09j+oAF/Rjad2H1j22HEX+m0n94gkFcsPQwMgP2P0YDHrZ67lvsf3Bz2A7XcCt+M1+4TO90ve1PaEpdFH2jJ9s9HaTqKW3vGRT9t9dRQ9sVh9Z/ey6hD3/i6NAWIY7dywTNC5bol16TqdTYqyGDt6vcIbuUjukNaEde4nTtP4O/8jr6YEsgweCo+2UggZ/BCj0j95Hd3M9ptp9bcWFpdO/2Mjjo99nvd15ZF9i//V4dSsrdlF2y3vYhdu/ZaLa85mQWzDPje3JL3eiDnIM7/wCfCMwjuQhvbnmMhxkMRYcJ1Yvg4Qy3eYsJ8nIeI2X2YbKPUcFv+Ntt49jhOPGDQgLpd2WRjdjDbbwekeRZdMkUGYjNkSzuY6529L8YLxg126E1Efge2SXfJhwSO8jz/Bb53qDrhd63uR13XYDjOAyZBnGwVN8djc4Eukh7/vC7MvcSSm9rLsf941x6l27b3b/ye/l6dkflYEDvq6/C/igDuz7D8ZxOr9CCR1N3+WVtH+rM0bsRnq1+yIu6PbBnR7dJ3H7T9Xdl9sZqE/IP0QamxWMTAvHSB9jvlYd3NXRfxsj9Q/ST3ySPIG+Q3xkcBn92Mfva/bDSEUae39Lp3baXZCZ7GfHkNl1Vk75y6UzIieji+7I858IODw+NtW2R1MtgT0jhbIzd3HPZ3jg4Of3nvkNk4S7TcP4Ct1Buh+sgw4xfJemw7ERbYzHhE23QwsODVk0u4ae2dh0eJu29m9f9SmOVbW7xTYfvBdYBhVwglwKdema9gisPGT9kp8bctLMkHwN2Hh2QzbscdRhHDY2TLHcuN+ngLLJ+ZdbbIbu2KHB/zg+n6/4PZaH5Mc/daSRx0D8211wTb7yIcdydWI53wkTPT1Gxd+WuezM/9vD/AA+v+Xcbb/ywd0vW5Gsz6ZfTC6fQmQhzZedSGOuyepBuRp6gFn9k/rBPrCBr3CcRu+OXUO6DPYM6Y4Ad5d+Es/uyOofnBM6J6XUZ1Ynlt1mWz5H8MG13A66snNODG1sNP2b+kxsHcAeyH2xw9HtnZsInt1+8dfsyLg56/wA7LvOy9zeUnV/X/wDSP/aUcL6z/wDbXmGq+F0B+78SOj4Nl5Bw+t4474GqyY+D/wCm6d6r/wCmOkMC2dfkifNdjPG2xwfrB5GeSWf/ANEiPBSn0N0tFpMAAwDqONv8L2W25bPvMzJ1dCTGyQSn3i/IjcxCQsb7IEpwacDed8eS9lgh6/4MXLTHGpazhttvtt0hjnWe7TjOnjsF0zedmrs5jOMncuyuBl04ay8yLyJgH/S8OMvkx1f/AGCefqMy6kc48E/H/C6tMZBJ3wIO8gsLIwdXRGwy+W3SNssnMs6sY6uvyx+Ej8j8YmMIw8v42vCQnL1BSUskYbsGHdi7uj027X7adDd2beHDf0j94F3Q+rb5/o5z/O3nHl3Dmj27Is7vDb4MwJY6igfVb+XF/wAtvtktvQn13xj7zv6JxLKi8wiMYjc/AuntnCv/AGBmGM4F5hOzG5G/UMbB+B9hxLPpKme/Yk7ioEDmT86k2ydTMBa2dW9kBb0qwFPN9tNSxfZkKJZ1ZMdS3SeAE5bqf9iZ4bLNrz4GVyekzvG92229WpEsxct+WYQxwXx+wabbOCG6T6Q68dE+NnZpAy3Tjq/MtiWeH/UeGW9X8gy8shOrbe5iHdh64XrJLwTwOCGzmydbYeuM7s5vHAdHHhtB2wsiyzj/AAd3V542RwYeRHHmBrykhdM4tts64O7nBd5Hq8f4edt4YeD/AAodYPB76n/yArnuWeaQx6LwRi2XRlkyZMp2ZBjt7n9eB+yuijK9gsMwY3WvVJnu6fZ/WKeHcU7Z4fF+DYfY1YfeauX+q1zI7+yulhxvcKdzDDtBHtl7TLISvQ+WM8e4zvQHTZ3MfMu8f0GQfe7fGLAfMksILGhavrqcvL56hBl/KwnpdsgwYFirduAPdt+N2Ud2IPBO+o/KC/INTwfdidN9rbei3N639IKdfiQdRxHZD40us3SwJ2Tn7aXH7eGW3X7FtZL4nPHxum8k9Q5pvHG9sPd5ng422wGwDPYt2HS2Z04LW8oGETx4l22RLPl4MjIb5aXrPD/G3gQsiazyYOZnnBF9tnhjyLTLqc4tyDrjIzcf4f8Al5TuIe+YcHG/4xt/yvd1bec+g3sAsP8AqRXoOdcDJuSGzuYMY8O4O+fS3vbtRds6Y7/6ceQwWQXkEGfZggsTgMynd4TYJe3IXd5P+ESfVvPxskQ6lUyOQEX4hi4cbJIQ0P8AS+EgwPyR+RtEAFg+kF8v4QuqBMTrZ/Ihpn/UN8vsCYSWhidxGcL92R02APWAfWyvTt5SITo6rvX3217DntvgSAfSz6GWn8k3kNcHCXMeif2S/pdh2nPqsrt//JTwcgBpmQg98v1bT9gc1s6EHlb8GR+IR9kDMswQP2Efsps59j0f5oxtSROW92qotm6O3nA8d7x6YQmWq3d4r2K7OCdt3OyedE+161MOF1dw8vCJeru67s47ws81anOXzkdeOp5eHyGeG7Dgh7vN6eC6tvC+H+D2uyhyUCCnnOQRDkEcQ6wR1DeFmRvfORxrpOATlGDv5/j2ii/7zllt3JInghfI48iMDjkINeMERLvb3vL3vDSvL2BJNZzWWco7s+4WTkMOpaQdxpLPZDr2LPyzq6Wu6/8ALK23y/lBpyAzxdfYSfYQ55YJ3AcbTyAhXuFT+XV7BHRbu+z5yGEFdKe0w8qB2wYiBPsl4X4r+HFajqFnlswqb62XOyMEJ0TG5l+XCwtgO4L7esZ/NN+owh32A/S+hAkNQfZWcPFdG9NsO22yYZeEPCz5F+EW/LqXVjOrIP8ACcvH3nNbGLMXSLfSJ9pcjN6MgQP8e16R7OcvqRmXWWw9Tj6yJu5ZF/8Ab/LUfiN5Y7x8mO37zif+w9thttc49ILp8Z1YlQfLp/0QcA8bZ5I72/7PXCEH+ADi9Gyz8g73jR/3vYLdi9f+SnHXHZ1htju875gO4IP2cE7jDZEXjn3nL3TwskUhnXEXNgyLFkTfHy2y6hnsOkkTOLpum6mY1FYLC18TFaEUHV0eR+HH/GWgsrNbxjxAt/LHTpX1GMmz9F0+y3sH9sEJ3IV6WnHy8tJoxFLFcc0v5z+Fr8k3y8+X/F2knWRsc3k/wOMpHnK2sPGMR4RBx6Xt48e37MoHo4OB3m5es41Y9kzXBvGxnhHvKFXWt7sb5bdXOA8MDCWGGy1JdpdgOOs5wdlsQ9Q9wCfONAvl0Z49jq22eccWF1jdYQljNjbJve/3/HVm7vYvnHlfkJdZb1Db2B8syIxvLYxtvvGwd2yJ7zhuJ+9x84wm9Op6Ge48vliwcjnHzeDjL29P+XYjOM5fWHL2nXHrkgiQcP8AHvaz/nzs04zrhem1rC7EHuctmBAQgPy/gWfixA3Y/Lf5EAwvF44DgsnOftnGWcs8Y+BC3v8AwhY8P8JR8u7suhBBJnRH4X8pwxOr57P5H5Weww8vwT854dSPkPrXeIHpKX+Vo9F6dSCxZ/JzhlW6vMNAGdkxhZpl0E/rvPqJdwnSk35rifyvSZJz2xvqf2Mj8gvxsexgG2hvy/gxeFs10F1O2G/sfS7fZ+pWMcbPrb+kxm3TFoQme2P2XpZ//qDq3LeuAbMky7/bbbvGOER5wnpdZrEN7Xh5Oi6ZduAu53b8/HecHCXSw42dvWVti27x9W3rPV7T7DeRtvHn1ZZB1ZHpsjn3hGY4043ohht5+t1KLOEk7XqIDjq9l4LIw5No87PunpaRsf4f8Z1GTwnUFnAGLOEh+QEArJg9RaxkhYkQ6SMOrCw46x/RN4vkZk/myz+XX5GfkzIWB049mkZYxvU02YD8k/l4hZmQ3/khNclo/wAPW7CGAmIZ5AaQPlh+WMg/CwX1ZtO5O3l2eQAmMw+Wp5G22ZAGHDttjZI5l16MY02Hnc2R7k9/F+EfeYkLO7PZP0Wj0n9+TJRfwuvue7RZTM3JQdy2ewD8sepaLIyCtt9v0b+tqs/rY/b+8j9nvZD0awIRvt7l1zyMsXXLnHzkujjuZY+Dx5dZfHOCGDu6ktgREL98HDev5Y4ZfOBog426WzHsHJ7FvJz3wffGRxpp6s52fOHjbsnvgeCvHonyGBd8P/vUJkT7Xt53C+XYWcs4LJH1IC497GNI/wAfeC/Nv+B6cIzqTCZL03g5HgYfzOMgkupMIjrg3ZS/Z9exjUP6CRIovkhi8XqMLSPjJ3/yTeDDIaehGOd4sYcHK6i7nbti5bDLOnnu3vW1tu0uvzhPIEXXReIP0v4IDvqLwWniw6yVyfzn884cfHYwd29u2P7sgmv1KzpurNEfv2DpcoEY+8we20/Fn5f+Q9g/YT+rEnR1PoLabm3duFkHnZNBxpfiYg1tf26d2X3Xcd8Yc9v7WnqyHsTYTZ7zuXIMPDdvfbwyLbuZOYS264yDM7t7jl2ciOGXnkvJ1icE8PkPGf4+cGdTd2sTT/Af/qPwNQ66JkVWH/y2XTfcexbvHldC753V9RT/AKN+AIANtq9xvwju8maBAzh3leEMlhVLPL1RB70X4wY4y0QdqxEanPMixN3ht2PlkJIzOHN9TITyXVdzQDx50Mj2hwMLdEjcRl0ILsrK7bqTZ8y+q7cb3eTdEZhDJ/bCeK872WQxAb7sh3h7HJ9jjr8/w/OegvEBkOceTSebON64nb5Z1MH1tJO/8BNz923rBks1h6un2L7DxYw0sLH5Z+RDxYFwv4X8rr8tS6Zlt7dvCAsj2272/pYT+/AdrvgyAJS+EmnpIurtiHy/ohvVIhy6B1YM0urZy7XKfO6zu7vYFHbDH639r+k/pZG7Dbbp7DaYgCIif8ZZZ/nJvRDxXEIAjMAOyFfurHjcHTeiHqc0Y/7dFj/C6w9QzkF6TPfK21wGHRttIuO1sscsR5wTpePUZd5f3gf/AJMuO3KYrq5EOaCL+sDA7PowfRVz8OB8wTbTJHlmT11CYS29RH2nbPfywNvE/TvPw+Ey6ZCORMe3l3XLcK7bsZ89WvH7Yzge8ZaCWP7N4z7t3GQyEluXo/wOWbtpb5K0EugY46vab6hb7LL3knRMN1lvechguuPyurc5OkTKJtbDxB1wdXcsd8Zz8I40hLPA8mzjXX+N4PNlk5+QLGDLHmQXy0+XdDWEcfSzOdJ0Xo2AeRb3renfAEzO0/vd3sfvYet4g7t4Js/zvC2852KDYVQaPxILfMRBfVbfwIsCyMkN+W13Q5IG8+cA6ZbVFC1FrqGtu38s/ov+8fSkl7CKB9GfxY3pZjSBvkfyyQjtSQdxc6ZR/bePyz31A/JRwT/hYAoCgbkDnk9rKeXRsgGQb2SJoQliR+wLb+UECX73dX64W/rluCx57P7Qdv0ZKbdHt/SPg38ExOMYe2FPTaftsP6xmLTDyO0PXtpaN9KMHcuXa9WVXW+Wz9hxeN1CZYdfnIz2xdEl5wM3vOK8MHWeVsNpkYZbwIeAL2BnLb1aTXSch53iPOe84stjgvsB3eT5dx1fe78OrYk72xmS8DVHpznUFgm8O5n3uu8fWyS2C8llnH7Gb4COPbZ4I3/Gs7w3fLBZZJdklYwketbX8V1JpZYdASCwtMsWBEAXUQ3pH4QPyA8RZth+QGethfLBAEjTyPyv5R6pGHV575fij5EF8gT/AK4L0OOvxF49bAbL679Ngn/xjIujY/CY0YD5dB/ZR5fyvTqPPLvcmnq6JTvL5icEg7v/AESDy7QMxi1eHEH2HPW/R6gAGJfYH6v6JbyZgIEE/rYQ/SBjbPszNCdGWrwlqNmzOv2/80tOosv8jdXsjvUDLH0jF6ZDqz9j5NpITcy63ctzbddRGE+/chi/ja48WGKN326FvRbJGhGJstidGHbbrI9lTFtpMaPDhi3jIxjuzjZC71b1Zs6WvTdJpbxuW63ecces/MMZbwC9cbhx3jh4Xqw2OCXXLMLvnA8eOHfURZx1zs+cLETPEINB+iP/ALYVYLPl2j7X2G3jzjwhx5xPSyMkmzl3wQEetn85UbhpbqemJ3wDJu3Bjdhd8lrX7eP8e8cESyQ6Z7PDF84uRnD0Xh+XsEtn29TOiLy9tEPRHB0njn5g6gy+Or+FhGBBDyxnlt8ugZ1Mg/Lb5LQEhQs/2D8nr7Kep37loTae8YBuyVjZM64M78lnAsk5sI8JBf37Q2J8WRDPbHw7gyEnlXQ0QB3Fges4MGBsftI32GP4bqe222n+DXjq8C6hGJ21CdbDMu3gwaSQ8az3Tg5+pMoji8c4z42vfI29XU1mJDb1Zzv/APAcPsXS8Oo94yfaOPb7xpfeXwRZwdVjX+GOBz5Nbyt4Ei1Cbuon23jb2M/yB2fGMAi6urImZzFgmwLIxnOHyPOTOdd4zlv/AK3w4zrjxh0chDvA8wPO3/6f8D35acGyy9QJZbhHkg0yMcBw3VncmzMWgzwOZyCQm+4sfkmvIo6rEwF8snRdWJfsQAW2dwTEbP7fzHKm6J/W/CNgfY+B7jGel092l84ZgCA9JCOZK/LPuR2iELF2AwEKMI7Z/S/V1f2sftlFMOy032wuFp+zcn3H+D2W8i22Xpnqj/A0yGCP8vG8evHtlnGd3svKON7k0b24PeBn1yOjIttnOhEMy3uWGrwTDY8I5Xa9P+8bbbY2zkc/h+3y+c9mSeJePon3/wCv+M6ZG03/AAOAsPDEo8I4ep//AGnoZbwOW1XUWsMeW4MxNj1mYS+rXg4GV8P8MrObC6nob2yy84yfOk43shGgR2IzbCFycCeqDbznxvnPk+94u7OMm6wcJeLGWDYflj8h+IGyDBZBLu0lLko2aALP7OPsr0WMQnT7Y6l5E7Y26SmNHEHnVujiH52WOcDWeWSgnpJQfyRG3iP8Jk8fl1E8LbHHsiBrCfbJ9sSMYk/tYRhxFnuE+2H0tjpj9yxQnaF+2X22+39L0Xad2X2P3mFZAerCxYvuzFEGbdvsjK+k59Mzes/p/h9EdB3H6R+0iDJEnv3Z/Y/aHfcJmzSH+ys6vaGG3jt3x948PbRPgW4QzPG1jlvaXWJe5vi2lWZ3Fvd1dR7u4ttnG223rPTqQf8AC6vbwHCZeCSzOG9bz3gPB3Lor/jy89Y3gmMGF9mJsdzF48dNXYW85rdbkjnre+oCTj21CJsvScODeMiAhEJCx+WPycmOt/OK0fOVBc7HG9dQ8POf/wAGxI3Bw/2zdLd3EftkbL3Z5hw7sfsFh9idGTSuzWI+0dGaw3ZBj0hAjzeB9cgO7xE9/kT/AB6jX8sZAWYEIYGFg85T02Dg/sAkebPfpbJ5Hdba32P2n9L0nmavcm9N/S/tA7rBLu0cLo8R/MJ1p+Xlt3nxxOagJ3bQyDmR7LLmbMZEGwbr4H6LvSxCfYx+3W+xoLSHfsIPGij435FoSa7HUtngNthqGf5NZ5yfzi0DhdR1PS9IjnWWPDgOO6hbEE8vCzjxeeA47h757eEcMNnWbzmz3xCyer0icDrj5eUZhzl8bNMyC+8DnP8ARZNkE/47zyjlcnpyO4Zt4R5HDM33whwXl2cc5b6vCPb7Le8P8D+XXm6yLzjwjhs0RsBhjou26OOEjrj2HTykcdo8hu7u6DjNsyD9u3Y8Y8Gwd0k/EYeRjZAcj8L+MKQnNX8h1Y/bL7f2jTYBd3+371H7cYImGO3Z0ybtjxEHqcuywL9I/ZwB/UI6Z0+QI/iHtftf0t/Lb7AO4A74H9L+k4QR39bbcIdtyLAWdGX9tskEWnB7bw9cfeN7sRGIhbqTYIwdQEl45E4ycP6jgZ4BFvUeSwpaEcZMzqOreAtJLr/OZxv/APEuziNMw7xwJe9q2XV7YOXsupjwveF+6P8A6t83CZbWbxf4PKW8Ly8OcdgOJz6rZ6dcfomU0SWgdsvUPueF+EsJkfeEtOIb1zspPiBCBrRdB7j/AG6cTyRDpWPO5fDgy9F/wzv+HpBPf1ts65z6cZrMG2Mww3XHsQdQPBYOSFgPljG+uMvvA47qw5Ord8ZZFAtwNbB9k86nr5E1YfhIfIg/KU5W/hxkxgUDPY/K3Z7CD3JoPFl0OMPYDzEL3cMIwe8Oksvk2hL4078Bq6fL6Tl5A+EgjSEhBA77AWn0hD27K0/YS0/beDxwbB3Dw+HPfB5g4+8gMclrGBAzgmXRdyP8DF957/eC3h4PZef+op/swb6AwTNaiwMd2aGR5MXe/wDkdcIuXSj+wbqOGOupg9BD+7wG3gHEs749nV4RbPF/EP8A5e1zVmHkb0m2d+YWlwI5YL6Hr2pncu5/4t99vfG2xB/VvXHyMwtJ+8fuWAAYDAmPtu0zJYJj2XhNMHBx7XQ/6jnxk+Ml4wgmOPSeCHsPP8vQw8ZekOtgOMvIujHBxpjLOBvLjOi94HaDdbBMekhssOAkug2AhHKdN6cu+H/kFpPAs47q8wanN8IE9YGtL+UfhN/xhJmPE6+rf63/AHD1d2x9xsPqcPbAawgm/nH0LJ8vEX03Khv5Z+E59WQ4yUPt+UaLERmdxhd3sGu5E0/YSEPtp1eLyRH+NeDgeO+XXg9lgSFzdvwL+wkd0NkPpg/6wd36KQp2Xv2CUhLGYzCW73La59hbeZ46dMklj5iSGUhA9lM9j+rFpvvClnSRhbBJyxZOwYuPpCI0qUeOyX9i7AWQAGAwlkCDf0tP23zuBbbTjS6XQ3TDJdDv53soYu+rrb0ZOEXyBvZwy6OHj6/OPa+rSG6mx/a3ld6vHneb8seG/L2/Nx3d+z6bWNjvHnHvEc5zl8g6t4XS8WO3n0l0xzk5u7id4dS8os46Def+v8+VnRHBekeMstjuByFnOQnzy7l2ssksuxxYQG+WH5B/LMuPy0+X8p/KF0I7yX+Eks4+MZQ57Z/eJjxkz2HvV1+wP23bZh0vF5FnURMx/kmOPciK+hAwfQzQcOno+ljFofDEhTZn+1/WP3upb+ob7YfZPdv6X8btAv8A0ug0n9tn2f2kfsJfbb7D/b+99DOMZndg9lZ7DDNnH/8AKbPpwT30tA0RDbv9tungmED/ABkTR4fW/pCZ3d/secbRAyH68Ht9Yv0gDu9gnDsfcn2IHWv23MWL0dPt0DoF/Fv4j8YyIR1qIIw7ruMExtHy/E6fIH5I7QODDuMHYxwidaSh9t/tlE8AMGWJF6XRbxpbpftkj3jqUy8+oJfOBuwLoA4z84fGOLbeVj08BbFrC8v8bFfX/bdeMn28LI5L595gnyzd6hyDwe9TsZ4IgnJuiiPL7wc4SMWd8HYcN8j3ImWF5bvGPUHGF5e3Nv5wFoLWd8d8n+HjeCePt7vCRvLdYbZlrG9vAWbEaW8be5YHghuxwkENt3EeEcg7Jaj4rRH1c/LcBbyOt8iINLylCInmmx9r7Ycz48PjHDLLeAOj85PZAzDjB1WF/CR+WMOiBozqXeLfpv4Qhlp3xP6erbxsz20IM9htqsnzIgmvUg6bDMh9Lp5L9R3U9us6j8I1em/KP83YAMvzTGWZ9yxAQvxFn6xWH2H6z1d39yB+yITtab7bz1zY9Ecvpuu5feBvtp6wYEEwZeLwODuer95kdNu3iHSImzpui4Fw+T6vG8HD57a1EbnOidjgIJvH/t4I4ZdoO8ByupwyHjeWN/zrbt946sOnBp07/bb2vbwcBxnhEWEQ1ei9bJPJ29ONeNnwbCcett5mDlvjj1vGT423SeAshpsi23qUHzq2M6kZEjdljPt0TLiL5e9k4PA6b1/3EcdXx4JtzlE9QT6f9vDgXZtjl1jNty7ukgC4Myx+R09cYPbJ0eX8rKAkgs/Ev4T+NrTh3izkf3a/bvjcs87v7t+CsHO12ShEiHsZ4zB3BPTZ88Y6Gq6d5d/l6IPXF0+39pPSfa3978m2+3Z7CfZbvkjgS8kXDk5Q28ZPovKCySy+o8j2J4GZFkWRviOfDzEcz1/l8/znO3XAXfgBsFjlhH2/40498vkWzjekdW8Lq9vLF1IeiG3h45GbbbWXaKN+sEHK68bxsszvQtJerZcccvvwE+RdeQQkt7Oc5p5F1x4g9IJ6l2yV7w2bOrtpwcEqeRt8vLxPDjOH2uh3bfiyyPd3GcdZewY8j3hJGV1EsF8sfljPL+Egep3mpF4/Ig9fZFHe7A9NjLZ9tPqzY/Jun26/YkNY16tPd2eRrP5wtOWujLc1dkn4RsWGuaRGn2P1g771Az2/RP6WOnSY+oAcH+ECOA2HTe+D/Hz/ALbF8jjOc48rycDbPq9xwS2sXcMvlsxiJvducVjr4Jst4jw464U6jYsOE6j23jbtpMd8TldYei3uM4+B7deLct4XX/BZOvT950ie/wCDS6A+XUdcOWYec5HvGnO5PYb57bjDZxwcaXzPoht49eII8upbWpY8ngw6CJ9iJqHs/wCE+uCG8l1dAj2eHvb14L7F1j0McuN2C7PCz8R+Fl8jTS0eXdwOHs6xGeifab/ZHygGxWan97+9lErPfLF3fxj8b+V1eWc6wOoRiiQziDD/APwnDF3a3VhDIYi2V7yDMjN4aidf4A2saZ12QzXxIb+ZVbtZY2dvEKlPr5JLwIMzYvqpb6vfyEew0LtI7mQw8jt6nfou7skgskw6k7DphP1s71kYcyNvRJv+bXEIGSL+/CtAxTva/rf0tM7v7TPaP0tP2E/bTY6LzItu7RPBzvFVM43J7J4z7bzi/IctkIbl54/OB2s5yJP2PX+e2ZeEPPpb1HHybwX5G2Zx4vEf5WRk+/7jE1yZMP28x75xvBurOQvldJvHlm2oOiAvliIdnUWrHXXF9xwgQzgyOM//AIM4Nt7lovGLScyxjerN4yQupvAsicnxTnZLfkcBeNnRB5fL5aooP5dRk+3Ebq6y39iLcYWBYW2lsU35qR18gLD8I9OoQOr+VnfyjrjspfxujyGOTr8dkZusH9nf1u+bLDqZmbAxJUA3bAHrIxs7tByxv59W59w32T52RDyIP5Z/KRGUfvGF/SWp9a18bOewibdHs/JQn7bdT73Y5Mg7cjR8DdWku4iOC915/wA564Lu3iEC6zj9sbnUgzhs4N5jgncvTkDOO4cBdMlnUO/IcdKPV9eG+E+t4OPkkci7ljb5fZ2uTO+cL7/o4WbqJ9InrOFin2228HsONoik9hA9ydPshUCDRsU30Jlmx6+oec0t6ONL2IuLMCIZvk3Bd8/e1sK3xfJTjqrTYe77zr/ysznJ8LXk/nm4fNvelztfI7i+Ly4M4/TiLuy9bquAsvNhr2WMZJ9u71HCZ5AGWWH4WGeQO+Q626PONT5OTbm/ldXky248dSC5eO4R9eIhDKFnRG/TdNkWzP5b95AekgnON2fjLX5Ylj+QQi8uByBhs0j9S++9Wv2/JlPu0Tn7ak8DkM/YFUttmfEPA3he/BEes7w4CSzqB4Db1wsmnDePkTEdBBt5zL/AyOC6gjge+E4SP85w+2Q7gf8AvBo2vmZhdYwOJBhMah0C8OAeIs2zkfEA/pB3/wBiG9jyyetAwMpr5EEHqMW7g/of/sTLw3W7yXhfCIsZ7zwIiIjoGNX/AFSa3gcesDHl8vBnqngzjD9TWACwjHUu8zPaEW8l3wEgtns8I4TgfWRvK9MMaLW+zIc8HDnfAPIvvDaHM/xjIusw5YbPkbHtiyy9kOuNulsju+rIOrvjH/pYWPyx+T3dRCYQc48SsdN3Ek+wM9jH2EfZDG3jk/tNPHGf0X4p/KHPLA7L7ZNvrgcTTs1YMbKOATm7ErAkWlpLcvBHK9RvaLOAbeXnjQ4wzyD0Rz6R7cHBwxkc5Zd8H+D/AB+XsmM/0P8AxZuBwCL6Xv8A+XvkMx7bcCDNb2HnY4kUSu6DmCx5mgfze1uhscdZLcXZB0zk+qc/8j/cUph1HvdcE8b5ZlvlvcqmHU/je1cO8+WE3+wRYmvxlPKzu+8btrEh343hdyB+tW4jrE2xH7uW5be4eHBwOrysTx7z3d7a8YY7eL8f8LkA1656s5sMLIJLc3jjuU8L0no3nPcdth4OAQdBBdWFgd8P8ia465eR4cCbpXXhkcNyJs4eICelljPIazLP5H4QPy2PIAZ1INtjuCnZ7GPsupLnR6njAoawfDGB+38b+dhdJ28uryEJpdnov+bN2eWaCsmJAjS7YS/Rf0lP2Rk9J4LePiP8nO/4f8eUhNA7l35ofC0NPA3lh87Tu2S8pMLa6If5btfk/lJhjq6tJ5LmGWp9dhHRlfE6Cicc/beCAmSXy/jdL1MJyfwgc6nDyfxkC/nH5sflfUTM0t4BGGJf/Cd0zf8ANsuuIIf8SCyxrshwiWU+92T1uvRNJeFH8LeP2mObGB3dHsN9v6S+JddfkJfZL3utOND5L1t6eWT7BrSyxmyeZR/jzeJ+c5y8cb/kI8kvZHlh4yGQ9cDdzmc4LJsGn7Hmxz7ww43qC+2jxLDjpMYi748N7TDxmx3qBDjuejxmCzLXhvEHdiOvk531HE/h/jKzck2wXS6SWEftf2sF4En7uuW0j6cBDxnX+H/bd3lDEHf4MNd+1nTr/nQxEd2CWxt/CBwAVD2Ezq0UC9b+MHD3oNg+IEBJyx+Tg3fysb5YzyCw/C6Cxh1fwk/kD8tzkDJkfgX8IB8ig5rH4X8p/Gc/JK2N/I38g3y/jA3P5z8SLzS6+T03Y/aR+tg+zhLQxiQU/WCO4cdR+09oau35aHF0upJ2SMPvaHhD/LTqD+ckZyMLMfqRIBiA2D+39ISUd7ug7CLwPHuvOst7I8jn05ttvn/kzd1fDlweP8PSPV9ur9ksrG7HHhwFvD3FmFhkXss9l0jh9k6Yd+WM6bd5j2LqfL3mLu2WRGc5EejHkPVvHixtlnHUbzYWRzj/AL+zvPlZxaf8G2H4f/S8t5e7OCI34RZeX3Lz4bZdB7j3g7/wul+Ryurys50V7Mty0vN32PeCfbzpwHCSMP21DgmcDovBCZHs/nCJvHV0HqIf+pLOty6s29LP5zSYE9chvBMcy53Hf27vsr42we52dvoMqaQ17bCe3ijLb+Lu8kfk0LZ6Qs8usD8YMsru7bqiQsA7+sHfbHEh7vtjIOccA46t6Y+5g58SIRBmOLg8i8hoh0Tw+y9r0/yFS6C3jqxxIYn5ZHGQhzht85zsjLOPPAf4eT6/wca8ZZxlsvcPGTdMts96i0I3tAyXqXb/AA22874Q2/4A428Sdf5xjkbb2T6P4W8u+cRl1YxtI/3qOCY7zw298f8A67S2y8n5Do4I9ursYjnw31wWEnWcfchtsWNfI+cdT6R0HAbZedgB1x3YScODBlll4ZYPywWfi/heRiTyVs30eI7lm9+9SlzZLvbNDb85r9nq7mWTu+JBfJ/C+S7b8iEb5ZPSG+Q84IAdw77Ef2nu7katLQ+xaXrtbxHGbb03rLp/hQ643hYeRlnHp23cc9DHhZZwO0DY/wAK8Rxl5/nefk8bPB4XS23qeqffBeW9ycDjuT0k4hvnD6tl42Jlqx5HHbLyiJbLxTM4Idrou8bHG9caWzdmsR5DbY7I+c+Tb047wgeWsX+8FuSpwu44Oibm2OQdXhwc3SdkeWXtjccaTbzHOX2tohhmdFf8OCTvgmYerGck05YSMnLqQgVP5a95P5xr1DgEB5bWP2xnt35sh5Ad72zt3Y/bEIEL9i9bHTGfoSi2zb9JJ+FjIeuEy+8RXVL6eoMC6tvK6jg9tiGjg22ff9Fs87vEWX2f/wCHrlbwgIQ/CCw5ETxLDZj72IE0vTdBYLPF6yr1Bg3X1GnIDiZjOKFBBxAPs/pNuoB3C/Yr+0ZdzUA5BJ9hruv2c/S0tz6ToyEut9nqcaw5ZeS6mOXjl0222y6WXK3u1bbKweN48CITgveUI646Ee/+CfS2ODZD04AW5bL02IW3XB6t1HON83tkCxtfIeuPOPiPeFvDnwyLLrl2LOMJDPI7GD5DfJ/DgJkkSkGxLyNwf7f2v639GD7HSG7m+m759j8IEuK7IRiscBRN5iLe+DOC8/08PbLBKgbAWboY1s5HBBQPW6rHFmIhfHEViRm5GvIAxGnyIYYPOF2WCEliJLdPdkXIIoxWdmjru0PYf7aX23+2yGc21+39bH7K5P0WeCyYct+pKAzq/lZ+kdvUzOpwNV/zOflncyU4Q6nA8R/a1r+8fsRCJf1CH2xbF824ENsMu2R64Ycb3bFwM9Qz6F8ttLcl1mXhD3dcgxcbbbLqcFnCvkwnO5DwLOecXUcel7bvgTeiBAjY4fIkYzkXUjjvIwGHvBFnA2Hq6/Is/lhAfFmLDY/L+EjPIK3VZJPyap9uhwEmMf4Jzjefec6WQbK7ePLeo9hu5neTn7CIeS6J7SfIuk9N2sc7zZ/gseje2Thbxl14gmy9LxwceG7O6ywBH6y+YXwe4tpy3UoGQZ8sF8n8LpGDqPwv5zYzYXeRp5LeHE9Yndn+2MeN1d22IahZ/e/vYfYB9vDYfonCwPIb04wR5H4ZOPnEpDGzFCfZO9Mga39oSGxBdQbSHhOrev8Ag4XyP8wceS3rwXV1Ho5vnHiGLnLZHUbhxrdT4/4M4PnERa2OMdUjOV828d3cZaWcJ5wWXnmyJjZCI4LeXjLM4yy+cPvbSa9ncfv9bc3UN9vEoY42RwchH/wjER36IiIPCFDaJo8Bwcfpj3lb3mxw7R04SZHseb5ZrJ0vR/IvkXQ7uoi6495O3jpdz43Z/V79u7HWBKq2N2dKcYX4Qbr/AA3nfC3jbqW8I2yR4euIi+y4Me3jeMtOfnBZw+keF1YywbKETYb5Z/Jw8kZ5ErZij7XRIqM3YD7wa/Z48zY+tidriw1v4T+d0fF/JtG4hjr4V+o474un22+3R7d2032Hj/231eS7ty2XmOFsGbD04+ReGeqOetvceuPLbziRxkerxDFnfOdcBwumesXzhnhPTlY84OG2H/e8cnhO1INuSQ+K3Tc/5CTRc8IXu9xg7y6ibIXsD/pO4doT+Pcm/wDYiW8vCogDuAcwi6KW7HOSx263ySYe45B9Ottn6LthDgAfCznud3jHt8tt+bTtZx8lmv8A2l0Xlas/C+9Qsx/P62MwGEOfy8os4bWbqYbeMi4jgupffIbMGcM64Ld4eFlumZBebyZBzgNta5PHgX5HnGRzIdcgMAV3WOGF7n8ogcLQI8J/DiCDwj8R29l/Hiz6S32zin82HuxkflO5NDk+uofiz+WZjaByBCP0un2xIyR9Q8P/AHj0bdTnq2Wj0cFtrJk2OGWCM6h3nxdW/wDbeTAyH/ebxn+MsnyxseN1x2YFUdyO/wB1j3of/VI/4DMHYP7YuqIzoSMJ1x/tvDF9TqVoxvWG/wCIxubu5pkBFf2sRQ6R+1j94NmInb+yELT6RoAO2fZ4d2JaYXQENt94PFpx8ycxlB6i6MWPghPfvVvd9upjhHjrhdH/AG8YIhltXEi8N932M59DMRdT2F/7HHi8nAtnvZC8Z0xfZd4HI3iONva672W/41m3jeH1Hq3gbb0vLc432HkbhYdGT+VjPIG21/C3sfIIaEX+2z7KO7RYwDNv7X9OP0RjlOyV+WO2QPyMRGsaRfsb+x8mz+yn7DR3CfsJ+wwy6eIi22ct5Mf5C7tj/PhDw3V76f8A9cN+/WfPf2PexI/M+S3vgnePeBC2t7DX70bJ3/y6j/8AdF2IFnfbHEIiYj+0TpbeuYU0g6QAZGGbzywR7Kpl+LANmT8OK0dzIXot/kIl8U9yCBA617y/wAPhDG5OfnBEP4wZs8wQpIOO4/TiBmd5mIz9tLf7PnsnuODuYbieGpN4R5BPDAs4iEhLpjm2bHBMOo56BLrgsvSbrOTtnD6l1nDe+Ppef8MO3+DYaXg4JnxvbAf4fkuiLePE1XDx849AjJ7sJH5AfFtnV0W9j5EEDa/b+su3+ybkxr9s8svTIMBzW5uuIi3/AA8D/jHnrm0PuGH/AON9cdZjvg56udwWZz7TJi9n+DyfP8pLpfDICZtdcZd3vAMHBIWMYYuxdPka/WRe9/Li/nNODLSYUgCEmT1jp7atZ1DHth9j95vCCMe8/i/nfxjHstFzu+ojPyD8jT55EmIDwbfZKZ6bCPjYfbMpq6bdca2zSHjbtwd7HltjUl2LOegs53vg7QN46u8b153Lszi8lvDPj/izvhnU+nGHI9rvg5dyyzj5esQdQcfHLxZBJwdnw5CHTycLH5ZFgj0c7PL/AJJed4/KTWe4xm2XaPB1wl5B53homvAz1S1eDhbSuBvzbbSePU8ezbwuuG+03gSzy+nG8N7/AOMn45eoep9keRZ+cfHIxtj3b7s7sLJw7gFWLMn8g/kOTI9ssfljhxgpVXn23+wc0D3FXp6kMnFvFfxiv4S4+XXZtvvEr/wiWz08WYV3sz8W9ekp48Ly/wA+3KwmHIcNOPDdOG8jsl04LJOv9D7LyQ2TP2KHBzeYttzhtPODhON74wjhYF2OD/TZyMl5xpLuXThk3tL3jS3227hzspdLdP8AEXvgWLGNvXG28Nh1nG8eyBiD/Bnlm3Rz7RPD6t8hft3iZcrAvhHt5w3Lytt0hu4cSLZNG9bYTLY2fXgssh1GYc92xRzn2Cy532cYWEDqMr+U/hKTgxtjgsOmIO4II9sz0zOntgxjPzSMPIW+MuFGanIgZyysSDkftI43pn2tvkOzfEJsWy6vTgEpaQ8vJHOaMDuG0nqLtEzv/Gz2HChbPje44DOO5yHX+e+WeHjOPKAGGzaft9iWraQH2R+3R7LRLT9swqzvsggm3X6Sn7dV7Qn7bNJR2ff8lZcbexjyzjuhD0j5xpBnnF3ZkjV4eDx4Wbr82X/Ha63fH29E9xJM8OLrqOPWGcThYWt3nGcOd4LzksCPCy2Eu6hdbMHA8BZx7LOI958t4/wSLc3hj3AbjoRlhYJHdhr+FoQZTvidft5v+7SyHu1MtmMB6bpbwojGweSZ2W+up6WDfy4mP72pY+oEj9sfs4PYeBbwerxzmWTh4RfLLoPBsW5wd6QwbH+fnGzMN1xl9v266hQcJRrYrvdxD+nF/Saf2v7TxbXWRh7zgpkv6RX9JOHECEG9aJsny24cHS6MCPvP52pvMvyh/EI9kiNgZYIc4gzNgFgtmxaftk/yfkx/XCWczxvGMLyj/A+XftrV7bpuyNZvpEMSfsfIYLvjWHT/AIrPkZz229kdONh4npbfLpP+XReP8TL1ZvVnHeXfLwR5zvTxfIf2+22hh1wZ+cXRBqYBYsDdK0PeO/2YO8vJYI7zACWYwUbeQ/yOvl2gdWSE4iEo92N2x+wX2E/ZE7xw2/58eN7z/WcXjBJjwKe3gu58eeRdcXYRdxDq6kbyOni8ZOMOG2FhYvLYdeWPyz+SfyyFgdX8ObM828dQOABW52/lmDL27nuRptHd3H7SPxkybrAPl/CPykh1AMyTrrjmJRjHMsPJK9Q67iP6QX20/eCO2w8a2XRbbzLrjrhCcRvkHB2BgXtvDDtPq3u23j2kxwurxwTPjZnccNkzm22Rje7Lb2L0XgsjInx/zN6Lzw8fIr0RZdWJ4v4X8OYCCnDixdElqHs0QC8r/wA4zh4erd/xkHLdJ4Rwz7T1sjh4/f8AB7n0cb1F44Ew3hvbl3bGNf8AGsRuOB4BQuhg7bLOLNP8Q9sYHhOo9uNnYt3es4Cws9Q4QfyULMQmYF/xFkOTmO1v9t/tl9lTJ9vptitnVsvZfw5h+MgFr3Yn7cYKE8gJYPtggUhM9h4PkO7eGN2znc/wJXlwSz5Gbe2vHfLwcPD6uy28HHsvBe2cDVxfbbZureELF1PkQ4OyC7FkOdt2D/8AV4jlhjZHDay/hwf5eN46504ePwj3nze73qzONup8I46uiQhZx3I9WcdXpBFHvBYx1x6ttvOEw43hd3hFvOHMMTe993tvD5/kLseDj7e54cBHENhfeH1DN3g9cMXe7eA6iaQGeQLJhYtiyKzLR7R3cfF/a+eziSQ7iEz1BcJh8sPl/C/FHXyPRJphwZnfYECnsD9v6cLt3/lGkeF3C22mN12G2wn28rxFt9vHEpySvK3l8lB/zNmJbjMSIeEcdTgS4E831bx0Fv8Anbf8vJ4RNt5vqHu0nD7dT/ie3sy8It4HEGLO5dr28FtvV9LbLOr7HaOBCcF7J9Is48SvWcvteWG3hemzqeuep6zEcfLtC6OCxdNS3iOH2nu2sbExOss4HgPCHrgzicMs6m3rj+8jI9MvkZltnEeosPpfwn8oPXJ/DizthgI0Hixl9gIEwbdIjC6zfilB42sj8rHcWwHMFI0lj2Eunxj/ALL02unHX+DMWFpw2YkWzeJf5O7jwjn05CJyTk4RPOW85yR7PJoCFy0L08XuC62TIyn8WwR6y2RJY47+J4hGZx/gt7GzkfjfyeBWf4gVH3gNGcXtGplkO46u4/TgWnUzIbbSPa+4I6ZZe13fBlhxpx2GeEPRwcPcRAQ+cfLyf4MMC73zt5R0f48z642J+3ZzZfY64DMIgtvS8xd3cw8CeDpDOZvDwbbMhsjkHXlp84v4Tg9QKlmzHN/Mftfq40BdkFA4mkZgLXKiHtFE/wBbYWRZb/Yz/EHnBvDO0yONn1Lgf4ONttzjZi3k7DlljXH7xlnMsILs9QdI6v8Ayzu8ED4gWH5AfkQgNY/DmizyI+JgF/CcpDmR1EYswD7DDpty56y4X3gPynPiQO5Z64fxTvJj1N25fyt/l3+Wfyy0n+tvwIPcZHZdHt/aB+z6mZsWWL2vDbK3fGBylbZLYPRC8LnH5RwT6s6tvn+cLrP85vV7fIP9PhFnWxeGGKY76stvV4LefDAHkE3osZx7x4jC6ggfkRDlmzYsSwsC/wCrsPcftOSOy/pwBO+QbMOBWWHjjngKYF5s/wBbb/heN56Tzi+Xcer3Z3wW9cyzjqIOjjIO7yR3k8n1fUcr03r/AKexZx2MHRZxnHwi22+933Z3YWEe1h3qw/Ir+PFh1y/lfjxhRZy+e7R9hfthdTu6zuBs4XRSenq/iw/yH8I7nI/iBYkMDDM7s/sF+2P2SnSDbfZGN72k98+EO/6I/wAEzgny8l3EWsS6l2jePkXskcHZZDq6rbwT5eo8cbF4b24yOuPd3C+8dydcIbeRw8zi7myXSxhdWFn4sZBdIpjyjDqPX+R4Y53geG+eSw3U8l5b7vvBJykOW3nHhBHA6LxFt7C/ccF6Xq85xu5h5Y6J6D/C6Ly4H/Nd5x3mhd4LqdybtbxnGsX5x384d4xzjHq89wFjfLu8nB6gL2aMrFjIwFnDvgssWZ4U9s7IZ9lxaHhJ7/If5aiOsfxZ3IMaoxH6X9r+0nOr2WEtOFcn5eUW83tbxsS7sYRFsupd8nHu8Eu7y2fHmLbbW2Mc7aZw+cG2w6LqRxsJZ5Akme7cLecpsf52Odjk4LC8+EeNmzWvJb1wbDMbdoPUcbxLlvMrsntwum9of8F+2xMjEwTN8WIf4XS3qZ9rOv3eCy+XrBDPHQR8u464wZeSOfS833l7G617YmF4Q4yyeEuWSYXdXX5AWe+rEYR/KyWLEYxZLfy2sPtrfb8GAWgj7yWQYdQt8tz06LvDGDt3dt/a8O5i7tjHcJKRKYz3h3tvDZ4i3j0j3wO/4+VsZww0j3jDJdR6jnOuIejg4cxvcwWzxEN/x8//AJfCYxLzCCc3CPxs+Fzm9zSOX8eBU6hCDctPeQ820sjyDnlg+WfyNPIEBBilket/Tg/pYT2Eun7DBJieuDOuXif9h0tcF5nDjL1tdrdc+H/CW2UxZa2z7J9IeHg9eSejjSCz/FnGdz6LxEzs+NvbTg46U8I2ec8tvjH+OEAyxD8rFiweR6gJ3Jjhsfb+1lYSTMdWzq8n87+Ntl0+XZ86kwWRkBqaCLS2ZdTnZj1bbbKl1byIbbY9x6P8PjLvP8Z1eLxBw/4fI8vDh8Y8i+f4Q6iBt8vDfX/IifvB5mw6/wCWG8e1nl4J9J4nhf8A9S/YvT/pe+Cfs8HxfG8Sc4C4hdI4PD4vsLreF8LxN8LwXhfY848N4eGPn/Ly/wDOL5Mfec8/8jh8cDy/5fP/AC/Z5EcvDyF8i8+D2fY8vF4jzg8nxva+l8I95jwjyPOPDy/J94e//b5w/OP/AOpHnB7x4eB4+CPvCcP3jzx+E+FhfC9EDP8Azl9J8vXI9j2Y84IT5HuOfjebzF9vv/sXi8kc+G9XzgceC8RH/wDaZ8j2L//Z;" vertex="1" parent="1">
                    <mxGeometry width="1600" height="1554" as="geometry"/>
                </mxCell>
            </root>
        </mxGraphModel>
    </diagram>
</mxfile>